<svg xmlns="http://www.w3.org/2000/svg" version="1.1" width="360" height="202">
<rect x="0" y="0" width="360" height="202" fill="#886d4f" />
<g transform="scale(1.406250) translate(0.5 0.5)">
<polygon fill="#ffeec2" fill-opacity="0.501961" points="32.850439,140.092475,133.643397,126.502176,161.729443,38.070942,38.415726,38.479119" />
<polygon fill="#000000" fill-opacity="0.501961" points="260.513929,-16.000000,271.000000,144.222167,189.757709,144.038619,202.103249,-9.090730" />
<polygon fill="#ffffe3" fill-opacity="0.501961" points="192.800586,52.314686,206.676667,49.086254,179.897983,115.449814,166.185366,100.708741" />
<polygon fill="#040000" fill-opacity="0.501961" points="216.905000,57.528686,246.903059,132.364839,271.000000,1.466842,134.012434,-8.881160" />
<polygon fill="#fffffd" fill-opacity="0.501961" points="131.912673,35.131017,100.273654,79.816856,54.334410,87.156432,52.523093,42.721245" />
<polygon fill="#352a01" fill-opacity="0.501961" points="47.008618,65.253515,28.047587,70.166586,-16.000000,38.908411,-10.910037,157.869165" />
<polygon fill="#000000" fill-opacity="0.501961" points="205.175920,67.912624,271.000000,77.436938,271.000000,111.749337,185.612781,109.712085" />
<polygon fill="#3d6a46" fill-opacity="0.501961" points="262.667805,135.878290,271.000000,105.807891,159.158904,128.075464,17.961262,159.000000" />
<polygon fill="#e18159" fill-opacity="0.501961" points="97.381101,156.200384,182.829724,15.097031,42.406583,49.479951,154.478989,-16.000000" />
<polygon fill="#ffedc7" fill-opacity="0.501961" points="169.170000,135.818909,184.387261,67.725457,173.501422,47.331014,200.072666,60.500345" />
<polygon fill="#d69568" fill-opacity="0.501961" points="36.196504,85.226644,19.797014,149.186218,180.152050,97.177525,144.073823,78.781936" />
<polygon fill="#67270f" fill-opacity="0.501961" points="146.989774,3.479670,220.091956,-7.355582,146.871839,91.811896,184.039462,75.332690" />
<polygon fill="#ffd2a3" fill-opacity="0.501961" points="197.873274,76.777152,130.578999,99.803329,173.718651,102.665493,199.406059,87.572214" />
<polygon fill="#1e2f15" fill-opacity="0.501961" points="130.330210,126.463903,121.813641,159.000000,271.000000,141.598713,147.873011,131.282838" />
<polygon fill="#854f2a" fill-opacity="0.501961" points="93.805470,-16.000000,-16.000000,44.223675,55.755963,41.496444,83.790290,37.137240" />
<polygon fill="#f8fff2" fill-opacity="0.501961" points="83.980714,41.951284,146.535811,45.991081,84.949740,60.776348,28.862228,65.232013" />
<polygon fill="#607f68" fill-opacity="0.501961" points="271.000000,99.378996,183.865506,149.779453,248.831900,135.755508,271.000000,132.146680" />
<polygon fill="#dcac82" fill-opacity="0.501961" points="222.077325,134.448010,173.127159,125.340136,180.497699,114.906168,116.582164,123.102864" />
<polygon fill="#e4b787" fill-opacity="0.501961" points="97.560192,75.565051,187.389091,48.847186,216.980895,65.521421,210.590994,53.281606" />
<polygon fill="#282a0c" fill-opacity="0.501961" points="149.190051,70.848413,182.555275,59.695140,181.244139,78.020315,152.667149,87.046141" />
<polygon fill="#ffd28b" fill-opacity="0.501961" points="177.071685,10.950640,173.925666,-2.099453,169.575345,-0.513031,167.610305,5.244063" />
<polygon fill="#432910" fill-opacity="0.501961" points="36.287803,79.320987,-2.932673,56.865535,47.559112,50.424529,-16.000000,79.854369" />
<polygon fill="#957d50" fill-opacity="0.501961" points="46.299939,122.253385,41.317169,58.129116,20.015835,106.116137,-12.603157,114.750517" />
<polygon fill="#6a582f" fill-opacity="0.501961" points="131.789554,108.239692,122.951152,121.043444,175.824484,112.767307,177.621023,102.114495" />
<polygon fill="#78663f" fill-opacity="0.501961" points="221.536318,54.559250,238.215604,34.549874,216.176126,85.041037,217.159039,60.934786" />
<polygon fill="#e1876a" fill-opacity="0.501961" points="76.942126,31.974196,164.472207,23.279224,112.858421,-16.000000,121.489389,17.085238" />
<polygon fill="#000000" fill-opacity="0.501961" points="179.992821,109.634679,263.189381,109.346603,271.000000,87.015120,207.440436,77.477791" />
<polygon fill="#d9b295" fill-opacity="0.501961" points="81.445597,70.671658,19.939512,65.895137,74.135070,41.069798,12.894540,43.340512" />
<polygon fill="#000000" fill-opacity="0.501961" points="221.115028,-8.459017,236.815061,57.882390,266.510497,51.284233,252.585507,-16.000000" />
<polygon fill="#81432a" fill-opacity="0.501961" points="189.860178,-12.120205,147.761438,52.039605,141.856599,31.578330,197.685342,56.382536" />
<polygon fill="#f7cca3" fill-opacity="0.501961" points="150.753815,81.160393,151.062111,117.076189,137.230208,60.490356,151.556398,63.244964" />
<polygon fill="#498983" fill-opacity="0.501961" points="237.393557,70.452483,265.973377,76.790052,260.074235,42.283765,250.594432,66.734054" />
<polygon fill="#000000" fill-opacity="0.501961" points="228.345734,141.044730,271.000000,132.859898,271.000000,143.976263,191.956961,147.223084" />
<polygon fill="#eee4d0" fill-opacity="0.501961" points="174.078833,118.190424,170.363451,126.906744,173.065902,135.544200,198.952721,53.665574" />
<polygon fill="#325024" fill-opacity="0.501961" points="39.437777,113.830047,-16.000000,119.286875,20.200961,135.317210,-16.000000,139.909703" />
<polygon fill="#f2cba5" fill-opacity="0.501961" points="48.396393,98.489311,54.495542,69.601713,114.441602,52.866369,116.433038,75.275427" />
<polygon fill="#eca97e" fill-opacity="0.501961" points="39.706232,105.425230,97.333117,105.063437,13.489810,114.307425,-6.446217,115.840454" />
<polygon fill="#b98243" fill-opacity="0.501961" points="189.405172,84.962808,189.514966,77.530639,202.103147,80.307218,201.750949,43.643335" />
<polygon fill="#fff2d4" fill-opacity="0.501961" points="162.860861,58.487053,198.702933,55.547711,184.631421,77.357408,183.814176,51.365405" />
<polygon fill="#c37d4f" fill-opacity="0.501961" points="131.720885,54.878866,167.983187,54.319631,135.185131,63.915724,84.628880,63.758046" />
<polygon fill="#1a1c0b" fill-opacity="0.501961" points="123.987576,-16.000000,185.567531,18.305317,148.361030,13.545972,155.605808,-16.000000" />
<polygon fill="#ffe3b9" fill-opacity="0.501961" points="93.892147,39.091572,159.033042,53.147843,137.042518,41.110710,121.845962,35.352776" />
<polygon fill="#9a5832" fill-opacity="0.501961" points="-16.000000,72.587041,18.864030,39.631221,56.595323,42.094471,1.674988,-12.027410" />
<polygon fill="#f1a969" fill-opacity="0.501961" points="-16.000000,142.597949,-9.464463,146.764028,129.822989,126.711322,119.644731,121.465618" />
<polygon fill="#cc6145" fill-opacity="0.501961" points="136.385486,12.011168,168.019133,16.986333,168.023724,-10.379988,172.087089,41.109914" />
<polygon fill="#c28a6a" fill-opacity="0.501961" points="13.269704,29.051088,47.638021,24.583895,153.023242,19.483165,20.708058,32.739388" />
<polygon fill="#455631" fill-opacity="0.501961" points="189.997033,130.662001,163.188777,155.326332,186.917662,112.395262,221.437779,113.539203" />
<polygon fill="#f3f2e2" fill-opacity="0.501961" points="166.457808,100.657836,169.973052,100.921693,194.923801,68.036292,186.042908,68.323141" />
<polygon fill="#876742" fill-opacity="0.501961" points="9.684482,59.912851,-16.000000,70.873815,61.584551,65.038609,44.855661,77.680400" />
<polygon fill="#4f3b1d" fill-opacity="0.501961" points="150.724521,90.777596,178.577505,80.005671,150.254915,57.528293,151.724626,65.138856" />
<polygon fill="#283b19" fill-opacity="0.501961" points="35.304783,97.043642,-16.000000,101.557011,21.465685,108.149621,35.902557,101.326358" />
<polygon fill="#dca973" fill-opacity="0.501961" points="183.108140,92.544141,198.220393,47.404846,206.933968,50.186256,152.421283,131.478603" />
<polygon fill="#e5d0b0" fill-opacity="0.501961" points="160.572307,64.623498,154.247777,53.614693,154.244223,23.926857,158.764402,44.262026" />
<polygon fill="#662916" fill-opacity="0.501961" points="172.114872,44.661900,152.316859,57.040741,176.164434,53.797354,204.759420,-16.000000" />
<polygon fill="#775d36" fill-opacity="0.501961" points="153.846804,41.400824,163.542117,29.551708,134.502056,39.250511,153.080669,47.643788" />
<polygon fill="#000000" fill-opacity="0.501961" points="240.568814,63.192366,220.449881,60.677837,225.542264,81.421846,231.672441,84.763492" />
<polygon fill="#e9a871" fill-opacity="0.501961" points="91.388176,130.925980,140.098208,125.048800,218.904293,113.859559,119.410933,122.961621" />
<polygon fill="#eef3e5" fill-opacity="0.501961" points="130.965014,36.285818,63.451565,43.760539,91.622695,77.755182,42.197961,84.176217" />
<polygon fill="#cea281" fill-opacity="0.501961" points="102.999873,35.511584,74.999866,43.389820,-7.291158,45.444841,31.743273,52.288593" />
<polygon fill="#574620" fill-opacity="0.501961" points="48.045746,52.243643,15.054605,52.994344,12.916035,58.794166,40.275505,57.924162" />
<polygon fill="#4a684f" fill-opacity="0.501961" points="244.625303,65.439068,271.000000,79.167153,239.962697,56.028738,241.043465,88.403421" />
<polygon fill="#080700" fill-opacity="0.501961" points="212.421550,88.280080,217.831011,54.348064,186.663042,105.794588,234.434817,112.257075" />
<polygon fill="#d7a17d" fill-opacity="0.501961" points="142.431696,85.763576,44.886961,99.123126,61.130961,62.828873,19.029742,90.927238" />
<polygon fill="#c99169" fill-opacity="0.501961" points="77.254229,125.903491,131.534258,123.213723,121.397326,73.237286,94.504853,86.257312" />
<polygon fill="#666b46" fill-opacity="0.501961" points="192.870535,56.909925,202.552996,37.419262,179.293331,38.488344,185.349165,49.069269" />
<polygon fill="#6a5737" fill-opacity="0.501961" points="49.643271,25.364601,63.285211,-16.000000,92.948240,-16.000000,93.833807,19.178905" />
<polygon fill="#d3c3a3" fill-opacity="0.501961" points="182.969586,47.106795,188.141530,99.748938,180.553339,40.267740,187.269981,34.952532" />
<polygon fill="#221b07" fill-opacity="0.501961" points="230.625867,54.503678,221.676090,27.652249,204.572908,68.757101,201.704368,54.942854" />
<polygon fill="#cf774f" fill-opacity="0.501961" points="147.626248,19.999799,151.081631,-16.000000,130.486344,35.257800,83.761667,39.814673" />
<polygon fill="#a78258" fill-opacity="0.501961" points="212.907309,58.767258,197.493706,47.251496,231.807713,63.172831,219.755675,54.645659" />
<polygon fill="#d6a67f" fill-opacity="0.501961" points="105.031597,88.236491,132.729009,82.585548,135.328403,79.572737,192.722467,112.624463" />
<polygon fill="#030000" fill-opacity="0.501961" points="210.514778,28.112275,271.000000,19.746560,198.313429,46.821356,211.331266,52.963477" />
<polygon fill="#ffb477" fill-opacity="0.501961" points="166.082800,-16.000000,177.133538,5.372966,176.864404,9.592413,165.498138,-5.076996" />
<polygon fill="#ccb192" fill-opacity="0.501961" points="165.254485,31.840998,131.949113,34.943543,160.135923,28.285657,165.333601,32.537561" />
<polygon fill="#ba976d" fill-opacity="0.501961" points="230.971033,49.428893,232.425315,44.526108,229.245599,39.881735,228.016104,47.639460" />
<polygon fill="#e9b281" fill-opacity="0.501961" points="125.783018,34.578670,162.836763,54.709293,115.812768,52.409094,116.873399,93.767475" />
<polygon fill="#473616" fill-opacity="0.501961" points="-16.000000,126.466264,29.637150,78.764603,48.233763,70.612738,19.167105,67.457855" />
<polygon fill="#000000" fill-opacity="0.501961" points="264.568805,148.499529,213.922805,144.408442,214.750785,144.078039,256.988216,134.814824" />
<polygon fill="#a0946d" fill-opacity="0.501961" points="217.474134,75.953860,217.452091,63.740527,221.894306,70.797766,219.986190,80.678054" />
<polygon fill="#62542f" fill-opacity="0.501961" points="153.134046,96.735964,131.835761,114.269831,143.809936,117.567150,160.888408,58.518302" />
<polygon fill="#302e13" fill-opacity="0.501961" points="170.189218,101.554457,162.050261,115.536696,152.929585,105.008197,152.263571,114.064413" />
<polygon fill="#cfba9e" fill-opacity="0.501961" points="183.135890,125.002555,167.405825,107.502902,165.124625,117.521919,181.161298,112.339643" />
<polygon fill="#a24f33" fill-opacity="0.501961" points="106.723455,35.849949,191.293726,12.861382,185.694192,-16.000000,177.042319,26.915830" />
<polygon fill="#8f8c5f" fill-opacity="0.501961" points="134.384092,127.211253,76.054136,159.000000,74.418396,135.725238,87.881454,132.736747" />
<polygon fill="#858659" fill-opacity="0.501961" points="3.359084,129.040355,22.279174,136.673539,41.163680,133.838620,38.744588,113.794571" />
<polygon fill="#7f4e2c" fill-opacity="0.501961" points="-16.000000,48.802061,-16.000000,14.527825,19.990476,31.388118,76.694189,36.860828" />
<polygon fill="#e4b790" fill-opacity="0.501961" points="13.175868,129.172732,38.108633,125.582154,99.093446,115.795509,82.069649,112.993604" />
<polygon fill="#190f06" fill-opacity="0.501961" points="176.562724,14.432579,180.086331,-14.144811,181.246396,18.804329,153.995165,11.961649" />
<polygon fill="#5c7847" fill-opacity="0.501961" points="49.981134,159.000000,75.663978,136.988130,33.685612,141.386849,18.495590,142.062896" />
<polygon fill="#030c04" fill-opacity="0.501961" points="240.810580,65.535270,267.901143,92.396699,236.040617,49.077496,266.326603,46.244738" />
<polygon fill="#b58e65" fill-opacity="0.501961" points="206.520306,62.684867,214.175702,52.357172,214.452839,64.359637,206.782100,65.025463" />
<polygon fill="#3e180a" fill-opacity="0.501961" points="176.275968,28.209353,209.469600,40.711227,210.387782,-0.618003,178.018648,43.573764" />
<polygon fill="#f0faf3" fill-opacity="0.501961" points="168.801301,130.489082,179.430754,113.835970,190.824507,83.307334,187.810954,84.555203" />
<polygon fill="#88907e" fill-opacity="0.501961" points="205.670799,132.766253,243.784222,134.507623,269.295164,128.248063,236.388927,138.484276" />
<polygon fill="#4f3e20" fill-opacity="0.501961" points="162.333207,85.681662,160.643954,59.249349,182.602288,64.598169,185.652120,71.906034" />
<polygon fill="#3c3c1b" fill-opacity="0.501961" points="169.711520,159.000000,167.187653,135.664448,186.832450,129.245691,102.881419,145.227263" />
<polygon fill="#c47d45" fill-opacity="0.501961" points="179.785133,100.800353,166.369300,111.290913,180.358048,93.070527,182.626759,91.797756" />
<polygon fill="#ecf6ec" fill-opacity="0.501961" points="70.457011,63.973892,123.084361,34.908954,45.753389,58.773389,47.754192,63.780770" />
<polygon fill="#a04026" fill-opacity="0.501961" points="177.185271,43.015700,164.573309,56.912901,161.150395,49.238905,163.074295,30.263683" />
<polygon fill="#313a1d" fill-opacity="0.501961" points="175.603646,124.573032,193.914643,129.938418,235.639840,110.257185,213.463693,115.618928" />
</g>
</svg>