<svg xmlns="http://www.w3.org/2000/svg" version="1.1" width="1300" height="731">
<rect x="0" y="0" width="1300" height="731" fill="#886d4f" />
<g transform="scale(5.078125) translate(0.5 0.5)">
<polygon fill="#ffecc1" fill-opacity="0.501961" points="41.683187,42.260529,33.506110,140.299851,131.475639,126.976055,168.169261,29.937668" />
<polygon fill="#000000" fill-opacity="0.501961" points="271.000000,148.889886,190.763705,153.696343,200.075699,-8.395000,254.686903,-16.000000" />
<polygon fill="#ffffe0" fill-opacity="0.501961" points="165.982805,105.091821,187.744024,55.787796,205.721534,50.660283,170.612395,134.746773" />
<polygon fill="#ffffff" fill-opacity="0.501961" points="52.233420,43.269988,55.958489,87.637057,105.321031,76.864179,129.406516,36.264719" />
<polygon fill="#080000" fill-opacity="0.501961" points="194.365641,37.372210,264.532396,127.278578,267.702925,-11.941210,117.432395,-15.992903" />
<polygon fill="#322700" fill-opacity="0.501961" points="-2.560670,50.114672,45.435530,74.497806,28.835346,83.191699,-4.014510,154.145227" />
<polygon fill="#000000" fill-opacity="0.501961" points="191.148981,110.977157,269.794335,110.282069,233.159271,56.206782,187.989985,98.574416" />
<polygon fill="#db7c55" fill-opacity="0.501961" points="36.900190,52.188648,156.078703,-16.000000,92.072204,159.000000,190.767118,11.682976" />
<polygon fill="#0d3617" fill-opacity="0.501961" points="268.711870,141.634161,125.359894,127.219658,131.989437,132.685409,86.835009,159.000000" />
<polygon fill="#ffe0b1" fill-opacity="0.501961" points="208.020623,48.602868,147.243438,108.512867,201.529546,82.028295,172.992272,52.579920" />
<polygon fill="#211500" fill-opacity="0.501961" points="183.756131,75.470863,149.624772,90.035648,152.778742,66.009282,178.556689,60.681225" />
<polygon fill="#5c916f" fill-opacity="0.501961" points="224.929343,141.368844,187.804788,130.168127,267.452189,105.537864,267.659383,130.921879" />
<polygon fill="#864025" fill-opacity="0.501961" points="121.092275,38.076220,193.064914,-15.064160,196.685453,56.366692,159.782293,44.730830" />
<polygon fill="#d29768" fill-opacity="0.501961" points="148.573604,80.772592,163.231813,35.506045,-6.997463,147.217582,186.432332,119.544481" />
<polygon fill="#514a28" fill-opacity="0.501961" points="170.370992,115.039498,180.331257,102.424905,131.461367,109.062730,125.717338,122.106994" />
<polygon fill="#f8f9e3" fill-opacity="0.501961" points="101.410964,38.188192,11.354474,69.399929,147.766089,49.896593,131.207807,36.151877" />
<polygon fill="#a08354" fill-opacity="0.501961" points="229.405653,52.069552,216.704857,57.122853,195.730616,45.042796,220.160621,76.230170" />
<polygon fill="#fff0d3" fill-opacity="0.501961" points="198.343503,75.316052,172.607342,128.542546,186.611428,74.002870,161.206569,104.128615" />
<polygon fill="#dd8969" fill-opacity="0.501961" points="157.266995,18.725951,123.060739,-9.496332,108.979594,32.039109,167.151504,32.968637" />
<polygon fill="#e3ba9e" fill-opacity="0.501961" points="51.648182,52.345693,-4.976653,45.808134,63.497800,39.953335,53.133822,99.800890" />
<polygon fill="#f4cba5" fill-opacity="0.501961" points="182.878476,53.190598,188.669467,53.759637,59.959942,93.293168,40.665077,80.024135" />
<polygon fill="#000000" fill-opacity="0.501961" points="219.775342,50.620312,185.650864,108.342607,271.000000,110.644079,214.861606,79.635782" />
<polygon fill="#ebbc95" fill-opacity="0.501961" points="194.453267,95.254205,120.426890,104.050137,149.048031,54.304423,151.301273,87.474695" />
<polygon fill="#d0976c" fill-opacity="0.501961" points="157.264873,128.854252,41.456912,113.109047,-16.000000,117.940286,78.488595,89.362389" />
<polygon fill="#98542c" fill-opacity="0.501961" points="13.849583,44.529687,89.597500,36.878109,-3.320708,-4.876029,-16.000000,71.656172" />
<polygon fill="#471b0b" fill-opacity="0.501961" points="159.605650,-16.000000,148.253825,16.642634,218.814728,6.175383,178.129385,44.008567" />
<polygon fill="#000000" fill-opacity="0.501961" points="256.549684,1.470990,271.000000,21.136262,248.919108,65.835510,214.222736,-16.000000" />
<polygon fill="#4d8679" fill-opacity="0.501961" points="271.000000,83.036908,271.000000,26.882780,240.691060,81.384435,240.182927,64.745400" />
<polygon fill="#435a37" fill-opacity="0.501961" points="214.650057,159.000000,166.349924,147.199584,187.678637,111.731595,227.025646,112.273676" />
<polygon fill="#ffc982" fill-opacity="0.501961" points="166.300090,8.095440,178.147006,-16.000000,174.851650,-16.000000,175.528622,6.412597" />
<polygon fill="#9c7a54" fill-opacity="0.501961" points="36.884189,52.918486,33.465212,159.000000,50.677503,66.612489,0.276404,68.378685" />
<polygon fill="#412b11" fill-opacity="0.501961" points="-11.192905,57.479070,37.415658,52.321524,-6.347650,83.946502,46.566605,70.676368" />
<polygon fill="#694a26" fill-opacity="0.501961" points="58.171899,-9.232475,53.267659,24.236297,95.840344,20.227274,89.497783,1.592265" />
<polygon fill="#4f3a19" fill-opacity="0.501961" points="152.688993,62.766054,149.691436,93.326542,180.030455,78.654638,184.023189,67.946765" />
<polygon fill="#000000" fill-opacity="0.501961" points="249.050159,159.000000,271.000000,116.899347,255.687997,135.322750,214.722399,143.457302" />
<polygon fill="#c98859" fill-opacity="0.501961" points="92.160078,63.279043,132.768898,50.296142,183.762916,60.500738,132.636671,64.544885" />
<polygon fill="#fff1d7" fill-opacity="0.501961" points="182.078469,49.758404,195.701391,68.775160,189.747958,80.433056,178.933971,51.971453" />
<polygon fill="#485f2f" fill-opacity="0.501961" points="-15.328409,146.918104,22.861639,131.069413,15.127953,85.059267,32.263580,100.496394" />
<polygon fill="#c38a49" fill-opacity="0.501961" points="192.464698,90.406266,198.715167,86.767921,204.389740,49.581746,188.707915,80.914697" />
<polygon fill="#e4b489" fill-opacity="0.501961" points="213.651062,54.978136,205.916852,51.451908,206.607181,50.468992,213.174198,67.369315" />
<polygon fill="#e0cfb0" fill-opacity="0.501961" points="153.679400,49.908646,160.021075,67.549485,159.865488,44.756133,156.022956,26.339036" />
<polygon fill="#9d9685" fill-opacity="0.501961" points="236.588345,135.292281,231.690885,138.988717,214.618667,134.716841,186.229316,128.845754" />
<polygon fill="#eefcf1" fill-opacity="0.501961" points="44.749944,65.682978,95.486672,59.832745,125.438218,40.137555,70.287891,42.198407" />
<polygon fill="#7b5230" fill-opacity="0.501961" points="152.552301,47.130003,154.456324,25.807660,172.257054,18.882084,139.593240,40.744422" />
<polygon fill="#853521" fill-opacity="0.501961" points="162.717629,34.734277,203.235469,-16.000000,178.023398,52.623473,159.282341,58.385335" />
<polygon fill="#f5e3c5" fill-opacity="0.501961" points="181.285191,51.574085,155.824585,58.785601,198.413596,55.625426,186.575051,76.021789" />
<polygon fill="#feb374" fill-opacity="0.501961" points="8.281589,141.728133,120.698036,128.154533,166.414074,121.142114,105.073171,123.889936" />
<polygon fill="#a68a5c" fill-opacity="0.501961" points="235.386629,48.090350,227.715048,41.465357,227.925576,48.768805,228.353162,50.614537" />
<polygon fill="#292811" fill-opacity="0.501961" points="168.826124,104.968606,151.835617,112.617008,153.601963,104.062898,162.345532,115.355605" />
<polygon fill="#3c4a21" fill-opacity="0.501961" points="14.296496,124.512258,-16.000000,132.589578,-16.000000,122.387903,52.087444,111.983457" />
<polygon fill="#d6af8b" fill-opacity="0.501961" points="39.339066,55.406716,18.132772,66.246372,82.848065,62.869882,56.540416,74.579502" />
<polygon fill="#eac29a" fill-opacity="0.501961" points="151.874883,124.734907,139.679814,61.257845,135.458631,72.841868,149.546211,67.419312" />
<polygon fill="#f3f3e2" fill-opacity="0.501961" points="188.799293,92.608486,194.340924,82.305850,187.950821,82.277159,167.766407,136.074886" />
<polygon fill="#e1a47a" fill-opacity="0.501961" points="-0.476788,114.529397,73.908005,109.747825,25.305451,84.186002,135.044805,86.856095" />
<polygon fill="#57401b" fill-opacity="0.501961" points="180.114304,58.002882,172.422777,88.490646,184.244405,70.258852,184.506632,65.876314" />
<polygon fill="#090700" fill-opacity="0.501961" points="204.587720,81.372507,271.000000,70.705663,239.609210,112.129495,183.059366,109.327542" />
<polygon fill="#776140" fill-opacity="0.501961" points="168.581197,100.471943,169.733276,138.344480,167.022010,133.927866,176.003675,111.067827" />
<polygon fill="#c28868" fill-opacity="0.501961" points="144.405130,17.468801,15.502792,27.991485,9.986038,32.590199,132.691273,23.918636" />
<polygon fill="#25240f" fill-opacity="0.501961" points="154.324695,-1.840149,184.505881,18.805041,150.085654,13.908930,148.830389,-4.067085" />
<polygon fill="#aaa081" fill-opacity="0.501961" points="171.106987,108.646099,150.668375,129.650970,150.468540,132.947677,162.485355,132.126911" />
<polygon fill="#443417" fill-opacity="0.501961" points="45.871852,67.270089,-11.647167,107.834708,32.018454,104.663857,-11.583459,71.131584" />
<polygon fill="#c08056" fill-opacity="0.501961" points="134.953955,62.158795,151.673801,110.685957,120.341133,56.735958,165.509333,53.092042" />
<polygon fill="#050300" fill-opacity="0.501961" points="192.545184,46.207151,271.000000,31.821750,271.000000,-16.000000,195.886334,48.726381" />
<polygon fill="#686b44" fill-opacity="0.501961" points="187.439737,55.531915,177.225435,38.399858,203.148693,37.740598,193.316935,56.289315" />
<polygon fill="#89865a" fill-opacity="0.501961" points="41.547415,128.568998,-0.531282,129.876036,62.446011,108.959821,-16.000000,147.731279" />
<polygon fill="#c95a40" fill-opacity="0.501961" points="174.435657,18.146389,140.086332,14.762197,144.012946,27.008011,176.255257,32.718051" />
<polygon fill="#9c976e" fill-opacity="0.501961" points="216.085748,77.490515,217.270854,79.544763,221.166602,78.961603,220.891603,66.307541" />
<polygon fill="#ebb682" fill-opacity="0.501961" points="123.838598,50.347867,126.393230,51.619281,162.448657,53.899071,128.374830,36.603422" />
<polygon fill="#371b0d" fill-opacity="0.501961" points="170.473874,51.431422,184.665782,30.939041,177.583328,-14.093137,178.586305,49.568498" />
<polygon fill="#2b391d" fill-opacity="0.501961" points="190.543525,116.961683,223.052021,132.807721,187.197550,127.566516,179.237486,126.607510" />
<polygon fill="#794d29" fill-opacity="0.501961" points="34.585519,42.518617,-2.044891,46.150016,2.366460,35.038204,88.406677,27.351201" />
<polygon fill="#e5b68e" fill-opacity="0.501961" points="53.826563,65.404615,46.971831,91.423045,31.149588,79.954263,108.900753,59.439364" />
<polygon fill="#f9e3c4" fill-opacity="0.501961" points="180.399155,94.494787,163.951527,88.269695,171.293720,105.600562,185.676168,66.534279" />
<polygon fill="#0f0b00" fill-opacity="0.501961" points="212.488032,63.705043,224.544211,102.374933,197.641296,95.314544,200.426998,73.748034" />
<polygon fill="#b16843" fill-opacity="0.501961" points="69.325946,27.469715,140.577352,-16.000000,79.702966,40.446845,130.413135,33.509179" />
<polygon fill="#7f8556" fill-opacity="0.501961" points="-10.712423,147.478395,45.784837,138.563749,127.380533,127.718777,128.029940,141.828301" />
<polygon fill="#eeac68" fill-opacity="0.501961" points="180.660488,97.438349,196.856081,62.574651,191.177475,72.676050,164.761647,112.833978" />
<polygon fill="#d9b18a" fill-opacity="0.501961" points="31.620820,122.952114,6.663876,131.187327,74.097830,120.469369,128.739966,106.865831" />
<polygon fill="#353e1c" fill-opacity="0.501961" points="171.439013,159.000000,85.154136,144.535427,152.309683,137.652128,169.718837,134.704664" />
<polygon fill="#4e3918" fill-opacity="0.501961" points="44.727467,51.457788,11.616839,54.859449,-0.020735,62.137342,39.787669,57.405327" />
<polygon fill="#ae482f" fill-opacity="0.501961" points="177.894727,25.858528,193.756646,-5.127757,179.262250,-13.822502,181.854500,5.732311" />
<polygon fill="#5a542f" fill-opacity="0.501961" points="153.596528,33.193302,152.784602,49.536463,137.997023,26.048120,126.761566,32.713087" />
<polygon fill="#c7b495" fill-opacity="0.501961" points="153.570689,29.332792,164.064546,30.808861,148.701937,34.966856,138.874555,33.725512" />
<polygon fill="#080700" fill-opacity="0.501961" points="241.158447,74.570185,204.495782,46.871207,211.474520,30.360011,221.745584,67.053263" />
<polygon fill="#5f4728" fill-opacity="0.501961" points="152.911651,96.306400,146.050849,100.976848,164.236775,75.174112,152.213163,55.458689" />
<polygon fill="#f4aa72" fill-opacity="0.501961" points="170.579267,4.062998,177.707130,8.852450,171.009592,-9.918787,167.089642,17.797612" />
<polygon fill="#84865e" fill-opacity="0.501961" points="202.833425,117.090524,173.177488,118.846115,203.901331,112.150285,218.198631,113.975221" />
<polygon fill="#4a8d8e" fill-opacity="0.501961" points="253.453740,65.062741,245.121671,62.671218,271.000000,90.422510,270.707526,-2.128978" />
<polygon fill="#ece0cc" fill-opacity="0.501961" points="43.211971,83.584289,64.849620,68.470725,106.168502,72.595141,56.370392,85.543558" />
<polygon fill="#5f7a67" fill-opacity="0.501961" points="271.000000,131.333134,259.317473,67.774016,262.674018,122.720368,198.322017,146.332124" />
<polygon fill="#dc906e" fill-opacity="0.501961" points="148.727704,7.102842,123.763869,27.869949,110.305259,40.527617,151.294175,-16.000000" />
<polygon fill="#e0b087" fill-opacity="0.501961" points="160.323193,86.991036,143.805800,98.015655,144.295084,88.296750,195.443275,116.042442" />
<polygon fill="#c46f45" fill-opacity="0.501961" points="22.926666,9.037822,19.923849,19.922050,-16.000000,26.904637,-16.000000,17.342693" />
<polygon fill="#c99169" fill-opacity="0.501961" points="117.990478,73.872048,88.586699,87.076036,86.563220,111.343295,135.944371,105.644217" />
<polygon fill="#d5b286" fill-opacity="0.501961" points="185.821672,32.231410,182.524951,60.964817,155.442864,57.413376,178.810372,54.949137" />
<polygon fill="#000000" fill-opacity="0.501961" points="271.000000,43.003630,214.496638,53.353980,219.544102,54.642884,255.997983,55.573249" />
<polygon fill="#effaf4" fill-opacity="0.501961" points="172.453610,90.549151,167.715264,104.076526,193.258295,67.339411,188.955819,69.488985" />
<polygon fill="#000000" fill-opacity="0.501961" points="195.318079,147.220713,265.611261,133.347521,259.763400,136.488996,249.630616,159.000000" />
<polygon fill="#e4c1aa" fill-opacity="0.501961" points="85.712049,39.501626,57.406964,43.465444,27.772620,46.353967,14.787959,45.031257" />
<polygon fill="#f0c595" fill-opacity="0.501961" points="149.840826,63.039582,63.900137,63.398870,134.832539,67.275609,134.430924,79.277487" />
<polygon fill="#8b774a" fill-opacity="0.501961" points="24.991410,108.291991,46.944836,64.918438,20.310326,90.699521,52.406185,100.553850" />
<polygon fill="#90764f" fill-opacity="0.501961" points="-7.117344,62.725236,64.425121,67.625022,24.497024,72.842832,23.856163,60.409051" />
<polygon fill="#485931" fill-opacity="0.501961" points="51.809442,141.837524,-5.955260,156.477227,77.842896,140.722550,63.222899,140.153881" />
<polygon fill="#5b663e" fill-opacity="0.501961" points="126.825269,129.193928,108.694247,146.159629,155.537088,126.291663,140.173576,124.177084" />
<polygon fill="#c7aa8d" fill-opacity="0.501961" points="163.102330,125.205265,225.238023,134.623609,175.909964,128.590281,122.917908,119.968956" />
<polygon fill="#f7e8cb" fill-opacity="0.501961" points="160.945439,43.863636,152.360621,54.609835,155.412230,39.357555,156.233987,44.015444" />
<polygon fill="#48391c" fill-opacity="0.501961" points="149.685046,74.278876,168.235410,90.838540,169.797205,84.165864,181.892511,58.721586" />
<polygon fill="#637b56" fill-opacity="0.501961" points="240.912079,55.538105,243.741790,54.819898,241.630103,76.113853,240.037575,71.334640" />
<polygon fill="#522314" fill-opacity="0.501961" points="195.047893,6.820704,184.638381,-5.299696,215.290613,-16.000000,191.979480,58.728311" />
<polygon fill="#3b2310" fill-opacity="0.501961" points="215.106652,19.207449,171.514945,44.436253,178.545945,33.810277,261.334414,16.274496" />
<polygon fill="#b78d67" fill-opacity="0.501961" points="65.378406,123.989714,28.718706,134.394394,110.514536,123.017040,135.814389,109.157145" />
<polygon fill="#e9b37e" fill-opacity="0.501961" points="198.743544,47.482102,203.000477,49.282313,200.312926,55.792918,189.914631,85.415559" />
<polygon fill="#020905" fill-opacity="0.501961" points="231.021948,114.138270,271.000000,100.435043,243.490590,59.471729,244.747387,92.124926" />
<polygon fill="#1e270e" fill-opacity="0.501961" points="-8.597438,96.793111,24.960412,102.807832,-16.000000,106.597975,4.277647,129.635191" />
<polygon fill="#b6906c" fill-opacity="0.501961" points="49.730752,45.044847,-13.239656,47.247118,43.375704,53.862663,46.662521,59.921797" />
<polygon fill="#a8906e" fill-opacity="0.501961" points="194.676450,39.382345,181.472294,39.136626,180.353578,52.647280,187.781811,33.200459" />
<polygon fill="#c47f4f" fill-opacity="0.501961" points="159.729565,83.547995,167.573940,109.955107,169.970164,95.137859,155.229410,90.143647" />
<polygon fill="#80673d" fill-opacity="0.501961" points="226.573211,52.319173,208.448035,68.268309,209.154829,63.352151,229.452205,61.116503" />
<polygon fill="#e9c8a6" fill-opacity="0.501961" points="179.664875,122.862774,183.344427,120.788649,166.260816,87.967704,179.351835,113.817564" />
<polygon fill="#22230b" fill-opacity="0.501961" points="174.395765,112.762839,169.910116,108.908821,170.765590,107.618619,176.460377,109.468556" />
<polygon fill="#714828" fill-opacity="0.501961" points="88.262055,20.416721,-16.000000,24.795354,-16.000000,63.572337,9.296161,28.722092" />
<polygon fill="#e7b790" fill-opacity="0.501961" points="141.004221,98.304367,106.278579,86.996414,138.686629,81.877099,132.181948,106.215163" />
<polygon fill="#5c542e" fill-opacity="0.501961" points="145.496306,101.048017,134.715769,117.199903,133.742494,115.667457,149.488256,112.624199" />
<polygon fill="#130d02" fill-opacity="0.501961" points="180.751149,0.104762,179.674364,17.855571,174.071141,-8.347835,205.288029,-16.000000" />
<polygon fill="#634b2a" fill-opacity="0.501961" points="174.638280,88.120074,163.905811,56.504487,149.109614,77.529253,182.467576,63.571251" />
<polygon fill="#d7ad84" fill-opacity="0.501961" points="211.042170,52.102030,215.022657,63.774738,206.990719,63.221272,211.719517,56.144687" />
<polygon fill="#e9bc91" fill-opacity="0.501961" points="122.198143,136.313438,125.013675,110.634584,116.901549,127.111645,116.608794,125.247322" />
<polygon fill="#575e3d" fill-opacity="0.501961" points="225.968954,42.072509,217.497579,45.759622,211.994036,39.242827,219.061337,41.080371" />
<polygon fill="#e19e67" fill-opacity="0.501961" points="177.767553,-16.000000,173.339989,-13.609310,177.372277,13.592150,171.778384,2.744798" />
<polygon fill="#292010" fill-opacity="0.501961" points="226.792493,93.560519,260.795327,63.599191,225.402710,83.610541,211.992692,82.650282" />
<polygon fill="#3c4d31" fill-opacity="0.501961" points="186.110320,131.656734,228.983864,135.642650,180.622223,159.000000,176.434101,127.389665" />
<polygon fill="#a96e49" fill-opacity="0.501961" points="133.824193,64.764221,122.434044,57.456703,144.073945,55.155045,131.833976,69.087818" />
<polygon fill="#130a00" fill-opacity="0.501961" points="207.260853,18.271334,218.221179,54.446397,203.168115,49.668178,229.760569,31.173544" />
<polygon fill="#736133" fill-opacity="0.501961" points="190.873700,122.829336,182.187424,107.499615,187.132087,92.635049,183.169036,120.191518" />
<polygon fill="#ecf7f6" fill-opacity="0.501961" points="186.637121,89.712235,170.775484,126.380327,169.546506,133.652975,177.496889,115.355565" />
<polygon fill="#b2855a" fill-opacity="0.501961" points="27.721798,86.428753,38.964063,96.006464,3.714243,99.163576,63.081934,90.035900" />
<polygon fill="#966a41" fill-opacity="0.501961" points="123.664737,35.147648,142.877512,42.759338,126.148788,22.171589,153.751971,29.459823" />
<polygon fill="#f2f5de" fill-opacity="0.501961" points="168.759821,57.693836,183.853338,49.655135,187.491645,64.582834,180.885397,54.416065" />
<polygon fill="#896f4a" fill-opacity="0.501961" points="229.151976,41.658447,228.806600,52.722116,231.580824,48.519479,235.345612,45.202891" />
<polygon fill="#ecc6aa" fill-opacity="0.501961" points="150.732182,87.242313,147.880256,69.005795,143.373104,99.002148,149.684874,99.886544" />
<polygon fill="#db9779" fill-opacity="0.501961" points="141.555432,16.810410,87.163040,30.240227,144.646398,23.616582,147.125303,76.693908" />
<polygon fill="#ca865a" fill-opacity="0.501961" points="124.962831,79.097524,107.557976,85.446498,145.758801,80.292300,116.230490,67.771660" />
<polygon fill="#ef9c6a" fill-opacity="0.501961" points="138.517702,124.485037,123.855188,122.860949,151.952645,119.176626,189.580045,118.275222" />
<polygon fill="#040100" fill-opacity="0.501961" points="237.868058,69.139606,234.642246,42.614489,220.913442,84.891591,235.875097,81.856558" />
<polygon fill="#dea06a" fill-opacity="0.501961" points="-11.244449,142.747767,26.288042,135.351097,105.738803,123.197967,43.649289,139.654862" />
<polygon fill="#5d6c40" fill-opacity="0.501961" points="37.371672,130.850372,15.397836,128.722859,-15.739477,142.080604,-16.000000,143.734610" />
<polygon fill="#9f8552" fill-opacity="0.501961" points="-5.287584,118.406513,23.128243,115.629962,3.324770,108.771064,-12.806487,125.460563" />
<polygon fill="#060601" fill-opacity="0.501961" points="189.259572,104.821829,190.034075,110.871838,210.240144,103.708880,216.774454,57.902437" />
<polygon fill="#83897c" fill-opacity="0.501961" points="245.170499,71.336102,240.566667,66.626987,238.439126,71.480706,243.982496,72.827011" />
<polygon fill="#ce6649" fill-opacity="0.501961" points="161.186588,16.251682,140.939381,34.412236,143.828482,-16.000000,149.689543,14.723228" />
<polygon fill="#442713" fill-opacity="0.501961" points="22.352122,78.539279,43.055657,72.234980,12.971275,68.295287,-16.000000,80.165910" />
<polygon fill="#252a0f" fill-opacity="0.501961" points="-0.647591,131.067192,13.739947,120.615771,-16.000000,116.492682,-2.706772,157.058362" />
<polygon fill="#463a1f" fill-opacity="0.501961" points="152.204018,89.618831,184.272972,70.077823,182.820548,61.608870,150.164605,76.748795" />
<polygon fill="#bb9e81" fill-opacity="0.501961" points="165.042022,121.691621,165.332752,109.389278,168.150657,107.246602,173.481647,115.463342" />
<polygon fill="#000000" fill-opacity="0.501961" points="213.480539,-16.000000,212.331448,21.982144,206.642000,-6.847578,258.925831,11.934369" />
<polygon fill="#ad7544" fill-opacity="0.501961" points="193.549856,77.600166,200.140266,53.192751,209.367467,50.124547,199.890014,62.946937" />
<polygon fill="#93744b" fill-opacity="0.501961" points="138.867443,101.537223,185.324057,108.341768,146.619159,104.501271,125.396541,117.133828" />
<polygon fill="#c06e45" fill-opacity="0.501961" points="62.177492,38.504046,121.852123,26.958069,118.381222,35.963308,105.839436,37.968840" />
<polygon fill="#3f4625" fill-opacity="0.501961" points="151.055905,159.000000,167.103395,127.092022,176.143836,144.979916,122.157044,126.963722" />
<polygon fill="#efc797" fill-opacity="0.501961" points="98.346163,56.483778,124.543353,55.089230,110.305918,60.602966,92.677069,78.758883" />
<polygon fill="#f3f2dd" fill-opacity="0.501961" points="105.306177,64.483255,109.649942,42.894025,77.329195,45.147410,127.663011,34.911052" />
<polygon fill="#ffe6bd" fill-opacity="0.501961" points="155.197145,90.421000,162.194353,93.872239,160.871338,96.148365,154.243146,96.924417" />
<polygon fill="#9c8762" fill-opacity="0.501961" points="116.436912,128.266304,109.764608,134.090627,60.012235,157.457494,74.197206,137.222096" />
<polygon fill="#dfc5a9" fill-opacity="0.501961" points="171.541757,57.211513,158.626163,55.962222,144.601067,68.665733,145.056061,63.180683" />
<polygon fill="#564824" fill-opacity="0.501961" points="211.525436,-16.000000,215.449316,-5.574768,215.195714,14.944767,214.810478,21.570664" />
<polygon fill="#317a88" fill-opacity="0.501961" points="253.046663,54.744296,253.302856,76.224884,253.784998,73.990500,271.000000,79.433011" />
<polygon fill="#7a4b2c" fill-opacity="0.501961" points="219.395856,15.470627,155.875444,34.719388,152.944486,49.895992,140.478181,41.228175" />
<polygon fill="#34492b" fill-opacity="0.501961" points="176.961775,125.900973,190.647179,118.479876,271.000000,111.737535,176.265390,127.541031" />
<polygon fill="#566034" fill-opacity="0.501961" points="-16.000000,101.248369,41.892943,96.438350,15.274380,109.582053,30.549628,92.424454" />
<polygon fill="#806737" fill-opacity="0.501961" points="202.333431,75.712282,191.879343,76.873314,200.548270,61.943833,201.582112,60.827616" />
<polygon fill="#a29e90" fill-opacity="0.501961" points="244.693913,136.226039,241.654573,137.964655,219.127076,133.236428,211.277291,134.055821" />
<polygon fill="#425127" fill-opacity="0.501961" points="271.000000,34.815345,258.267902,35.244666,250.411934,41.808357,246.028922,37.638195" />
<polygon fill="#e3ae85" fill-opacity="0.501961" points="29.227688,110.243168,62.044566,103.765981,93.666215,106.346316,54.079870,112.156145" />
<polygon fill="#312e15" fill-opacity="0.501961" points="164.490424,104.930186,165.446800,115.004414,158.663859,108.268389,154.559601,110.571115" />
<polygon fill="#f3f7e6" fill-opacity="0.501961" points="186.534887,81.234583,175.021871,118.878343,187.928787,91.759604,178.656671,79.095989" />
<polygon fill="#b2835a" fill-opacity="0.501961" points="87.230767,107.729051,93.777414,111.238223,125.777780,106.666809,153.873521,101.925330" />
<polygon fill="#632919" fill-opacity="0.501961" points="200.392371,38.521319,193.939075,-8.583903,186.423727,35.459777,224.538737,44.501723" />
<polygon fill="#dd9252" fill-opacity="0.501961" points="183.063552,89.238029,171.055303,106.959240,180.143140,98.419511,185.963294,88.561484" />
<polygon fill="#f4bb82" fill-opacity="0.501961" points="97.716473,125.384925,128.348595,126.382192,89.084324,131.075640,37.822834,135.524644" />
<polygon fill="#030500" fill-opacity="0.501961" points="225.541144,61.648337,250.763420,81.507669,234.830743,64.454474,220.297177,66.204499" />
<polygon fill="#504924" fill-opacity="0.501961" points="145.304632,108.573773,153.779617,120.892713,141.457097,107.551519,138.720208,119.461785" />
<polygon fill="#8e6847" fill-opacity="0.501961" points="17.644222,1.190067,-6.003570,4.448196,34.323673,22.851602,70.541910,19.805456" />
<polygon fill="#090100" fill-opacity="0.501961" points="220.739048,22.879214,220.188861,-16.000000,210.898877,-16.000000,218.688522,16.947839" />
<polygon fill="#d9bba0" fill-opacity="0.501961" points="121.987715,22.461559,134.498999,16.596741,129.933464,19.738498,123.878070,27.965858" />
<polygon fill="#3a3317" fill-opacity="0.501961" points="191.795956,-8.092646,159.292618,-16.000000,147.885033,13.499441,178.515405,-3.496019" />
<polygon fill="#866434" fill-opacity="0.501961" points="23.391755,79.232107,23.640674,79.772308,-15.223469,85.874422,-16.000000,82.707620" />
<polygon fill="#0e0b00" fill-opacity="0.501961" points="206.684390,76.558309,205.274705,57.651019,204.100246,61.931898,199.094168,103.868994" />
<polygon fill="#e8bb92" fill-opacity="0.501961" points="86.227056,117.860553,90.850757,111.960191,87.341036,112.093052,45.680521,122.717763" />
<polygon fill="#2a1f10" fill-opacity="0.501961" points="175.463973,13.117537,174.957544,20.867919,171.264988,10.932895,171.257451,2.228695" />
<polygon fill="#8d5f38" fill-opacity="0.501961" points="145.011558,27.444293,167.468855,27.639881,150.228912,31.034367,104.522668,34.521269" />
<polygon fill="#412715" fill-opacity="0.501961" points="182.999004,46.378145,177.608216,49.383876,186.077577,26.399758,174.104227,44.274443" />
<polygon fill="#97462b" fill-opacity="0.501961" points="180.182004,17.065934,167.786886,20.424572,163.727734,57.718210,173.464987,54.286529" />
<polygon fill="#f3f4e8" fill-opacity="0.501961" points="184.433456,82.182877,183.133786,74.744911,170.381652,95.313514,196.255647,61.534646" />
<polygon fill="#d9a572" fill-opacity="0.501961" points="190.011835,88.880540,199.551644,86.186440,188.913355,76.326988,198.018034,73.586569" />
<polygon fill="#8b6140" fill-opacity="0.501961" points="127.652584,15.253391,79.424464,16.552805,85.228266,26.517684,35.058851,34.729233" />
<polygon fill="#73754b" fill-opacity="0.501961" points="123.197883,136.201918,108.634392,129.335720,137.048137,140.201215,50.732625,149.164432" />
<polygon fill="#7c784d" fill-opacity="0.501961" points="2.169775,132.236521,26.211287,121.232497,61.566334,116.312839,23.568064,117.644258" />
<polygon fill="#8f744b" fill-opacity="0.501961" points="155.347914,108.018405,156.584622,115.950809,158.905498,107.138082,150.351689,90.126209" />
<polygon fill="#eee5ce" fill-opacity="0.501961" points="96.210310,66.479612,88.436225,79.859156,54.471492,80.822078,70.791327,68.322694" />
<polygon fill="#b39c7d" fill-opacity="0.501961" points="23.129157,61.415040,57.557819,51.617947,18.729820,67.290952,45.214810,66.456658" />
<polygon fill="#6d613f" fill-opacity="0.501961" points="56.964939,-16.000000,48.832141,17.342988,141.340142,-14.969925,-16.000000,6.024281" />
<polygon fill="#ae6142" fill-opacity="0.501961" points="178.886751,20.021232,152.107138,65.840634,148.769212,58.679727,158.088709,53.154551" />
<polygon fill="#e0c9a9" fill-opacity="0.501961" points="171.890908,133.174857,172.339431,133.731024,186.109409,94.802329,171.659266,130.075858" />
<polygon fill="#e0a87f" fill-opacity="0.501961" points="125.683985,103.622359,125.711508,97.480657,92.024347,103.335834,60.813167,105.599630" />
<polygon fill="#cb9a6f" fill-opacity="0.501961" points="128.821612,115.034248,139.540886,126.390120,135.200669,97.866229,136.769241,115.314194" />
<polygon fill="#eac6a0" fill-opacity="0.501961" points="148.784533,47.475659,161.802418,53.163765,149.092927,51.270622,122.058943,35.722293" />
<polygon fill="#3c3b25" fill-opacity="0.501961" points="242.445967,39.094010,243.317228,49.522741,251.097515,47.516104,229.517145,44.298260" />
<polygon fill="#3f583e" fill-opacity="0.501961" points="250.414827,110.068543,229.307459,112.653387,202.503477,127.336803,230.591856,132.137615" />
<polygon fill="#844524" fill-opacity="0.501961" points="-5.175900,45.759407,-9.219006,27.804041,21.279146,35.649265,13.435680,45.134807" />
<polygon fill="#eead72" fill-opacity="0.501961" points="171.277488,81.964847,179.095242,94.554512,182.776348,88.568731,167.639094,86.901240" />
<polygon fill="#817856" fill-opacity="0.501961" points="222.860437,79.485108,217.400959,78.378093,218.142482,67.135457,221.203513,66.076476" />
<polygon fill="#ca7153" fill-opacity="0.501961" points="146.119161,44.944739,140.844081,42.402082,150.559692,2.129364,136.440770,17.094775" />
<polygon fill="#ac976e" fill-opacity="0.501961" points="146.077537,113.068464,142.503968,115.572093,157.455535,115.330059,153.320391,117.388519" />
<polygon fill="#f2fef5" fill-opacity="0.501961" points="184.100054,74.455584,172.868821,99.120977,169.391782,99.794226,173.971660,88.239457" />
<polygon fill="#b98861" fill-opacity="0.501961" points="56.616569,104.910348,112.507308,92.969321,111.906848,98.423464,92.602186,101.665935" />
<polygon fill="#060c06" fill-opacity="0.501961" points="245.810457,41.601884,235.582085,48.345930,249.010998,62.549022,254.500867,65.785567" />
<polygon fill="#c2845e" fill-opacity="0.501961" points="89.196068,86.470062,140.874743,74.914223,144.588016,82.373778,106.429981,85.402573" />
<polygon fill="#361a09" fill-opacity="0.501961" points="224.204336,33.846079,220.063382,25.635717,221.709521,-16.000000,228.421800,8.346388" />
<polygon fill="#9b432d" fill-opacity="0.501961" points="185.788585,-12.899925,192.044395,15.510777,187.514709,21.792849,181.067400,4.891483" />
<polygon fill="#9f876c" fill-opacity="0.501961" points="14.341838,51.643555,1.584134,54.376163,25.936424,35.663460,25.599861,43.408748" />
<polygon fill="#5a5b3c" fill-opacity="0.501961" points="202.645942,37.683256,189.209489,55.382351,185.164301,39.627650,199.541980,39.659169" />
<polygon fill="#000000" fill-opacity="0.501961" points="208.698368,146.898194,258.943599,134.143036,267.487241,133.715150,239.650680,159.000000" />
<polygon fill="#000100" fill-opacity="0.501961" points="244.895729,1.739457,258.707519,31.597833,208.999353,35.797684,263.084352,13.291515" />
<polygon fill="#bd8759" fill-opacity="0.501961" points="171.057855,2.970102,179.608001,-16.000000,168.366537,14.139404,166.669908,2.845220" />
<polygon fill="#1d140b" fill-opacity="0.501961" points="174.535756,16.523173,178.785339,15.531180,154.657389,9.195178,163.021779,15.613834" />
<polygon fill="#f09f69" fill-opacity="0.501961" points="94.494867,37.438955,79.311362,40.676419,109.653619,38.476229,113.480624,36.598792" />
<polygon fill="#434d2b" fill-opacity="0.501961" points="172.145100,122.300876,167.919865,121.058587,167.185110,159.000000,146.642490,150.325937" />
<polygon fill="#6e4a1b" fill-opacity="0.501961" points="11.818102,83.491280,-7.327030,95.054570,40.535727,91.758904,24.188936,94.945809" />
<polygon fill="#39492d" fill-opacity="0.501961" points="204.575177,135.624058,186.338528,146.927539,180.867414,129.652609,240.768684,138.929703" />
<polygon fill="#53522a" fill-opacity="0.501961" points="183.986283,111.537947,183.033401,125.423952,192.307625,109.708234,260.020871,118.012151" />
<polygon fill="#533119" fill-opacity="0.501961" points="175.333961,33.727090,183.555339,16.363113,173.293459,53.416412,181.829855,47.471091" />
<polygon fill="#8a6f48" fill-opacity="0.501961" points="228.349524,55.237218,230.249951,60.444283,208.998651,62.158160,222.829469,61.029751" />
<polygon fill="#e1aa71" fill-opacity="0.501961" points="166.677993,55.935036,206.412196,57.842277,183.206120,52.414933,186.690354,56.876463" />
<polygon fill="#ebbc8f" fill-opacity="0.501961" points="145.131467,72.231023,117.522306,76.133397,116.990450,59.323399,105.134222,81.108117" />
<polygon fill="#c68c5b" fill-opacity="0.501961" points="167.031481,103.595274,181.150796,96.210147,175.839906,111.484810,176.857533,104.821957" />
<polygon fill="#2d2713" fill-opacity="0.501961" points="172.990220,67.267377,162.454293,85.138253,162.795739,86.409079,171.666015,80.524638" />
<polygon fill="#120e01" fill-opacity="0.501961" points="215.345992,46.870113,234.368509,59.667717,224.569069,45.710417,232.027264,40.150117" />
<polygon fill="#b78b67" fill-opacity="0.501961" points="33.074414,95.366241,54.918506,93.821779,43.935710,107.692579,34.625950,74.953167" />
<polygon fill="#24210f" fill-opacity="0.501961" points="179.791433,6.398873,181.698110,-16.000000,161.402424,13.092692,160.375543,-16.000000" />
<polygon fill="#dcbca3" fill-opacity="0.501961" points="36.188166,42.310279,8.172010,46.589471,84.782450,42.627973,66.868192,41.518094" />
<polygon fill="#4e6a54" fill-opacity="0.501961" points="212.592120,128.070113,271.000000,102.937263,271.000000,136.291491,217.097031,119.372059" />
<polygon fill="#0a0800" fill-opacity="0.501961" points="222.971415,71.417223,240.829690,59.808483,208.353422,66.511595,221.571243,64.930583" />
<polygon fill="#645838" fill-opacity="0.501961" points="236.486809,61.337833,238.857566,58.097977,228.935107,47.673054,231.674715,42.786310" />
<polygon fill="#f0ca9b" fill-opacity="0.501961" points="186.416850,63.747676,187.791888,88.692279,184.410879,71.761009,201.895520,58.265001" />
<polygon fill="#796436" fill-opacity="0.501961" points="200.675604,75.793562,196.709887,89.878168,180.468044,114.379817,183.541707,106.670168" />
<polygon fill="#f1ede1" fill-opacity="0.501961" points="184.286778,70.073405,196.476669,64.967025,190.402301,69.962588,184.079077,60.773319" />
<polygon fill="#cc8f66" fill-opacity="0.501961" points="164.757199,102.818870,135.572824,93.385105,141.187749,82.545440,149.859357,105.629513" />
<polygon fill="#ffae74" fill-opacity="0.501961" points="169.495786,3.617720,182.855452,-16.000000,168.694671,-16.000000,176.653996,7.405547" />
<polygon fill="#a89c84" fill-opacity="0.501961" points="196.361995,131.348025,141.055184,123.422065,219.036858,133.057457,204.340850,133.125906" />
<polygon fill="#9d5536" fill-opacity="0.501961" points="133.345876,35.723167,156.835448,34.096361,168.184790,44.318041,175.952920,30.520451" />
<polygon fill="#0d0a04" fill-opacity="0.501961" points="229.339913,101.843621,181.600062,106.529597,196.026253,111.261484,200.162094,78.952051" />
<polygon fill="#e1d2b7" fill-opacity="0.501961" points="158.050124,29.922502,152.525056,52.116831,157.751045,46.409083,153.741772,30.530785" />
<polygon fill="#d0b290" fill-opacity="0.501961" points="209.049287,58.789111,209.334179,59.783728,214.356014,65.811615,212.313515,54.190188" />
<polygon fill="#cbbda3" fill-opacity="0.501961" points="187.298257,129.615811,177.447349,128.036765,173.551649,130.958532,166.986571,127.183869" />
<polygon fill="#150e04" fill-opacity="0.501961" points="216.251795,44.588337,217.027577,82.698863,207.478882,-8.435164,217.259278,48.717122" />
<polygon fill="#a98966" fill-opacity="0.501961" points="181.141191,37.790249,195.237266,35.032674,183.932313,42.128561,181.244826,49.397188" />
<polygon fill="#b79974" fill-opacity="0.501961" points="9.303076,128.941699,37.387975,125.062790,52.717762,132.395601,27.229097,122.908682" />
<polygon fill="#6f5e39" fill-opacity="0.501961" points="146.549552,37.097167,158.253892,31.841347,150.498156,48.592655,148.067954,29.231597" />
<polygon fill="#7b6740" fill-opacity="0.501961" points="127.035482,32.802247,136.951837,41.213317,140.495657,29.611189,135.298379,25.374517" />
<polygon fill="#c5805e" fill-opacity="0.501961" points="90.461800,20.038431,129.999720,28.911611,93.429010,34.744383,89.650857,31.746745" />
<polygon fill="#636232" fill-opacity="0.501961" points="40.158374,98.564924,33.909952,105.096581,14.028506,110.287199,-8.355109,109.721636" />
<polygon fill="#282b15" fill-opacity="0.501961" points="-16.000000,102.327036,24.626891,98.107931,23.456476,103.436132,3.825439,102.962869" />
<polygon fill="#d5c7b0" fill-opacity="0.501961" points="164.444797,125.670438,170.494275,126.801945,175.814628,131.013544,173.984242,131.613851" />
<polygon fill="#e5b58b" fill-opacity="0.501961" points="153.647462,37.740554,154.382382,33.346853,159.917497,45.127777,156.256760,43.465394" />
<polygon fill="#d88d6b" fill-opacity="0.501961" points="142.618374,13.042285,124.050793,10.530184,122.733118,12.002065,112.727623,-16.000000" />
<polygon fill="#5b6440" fill-opacity="0.501961" points="271.000000,79.491477,251.534189,82.580629,256.084683,83.511320,271.000000,84.243021" />
<polygon fill="#31170a" fill-opacity="0.501961" points="198.850414,45.281137,209.739631,31.005127,210.489263,-16.000000,202.210747,14.166364" />
<polygon fill="#715326" fill-opacity="0.501961" points="207.476254,62.408437,214.167301,64.301561,196.095395,68.286590,196.851598,76.697210" />
<polygon fill="#daa987" fill-opacity="0.501961" points="149.795203,34.521464,141.160233,31.458542,138.858027,34.020803,148.481291,33.729062" />
<polygon fill="#070200" fill-opacity="0.501961" points="235.209553,56.529876,223.700593,74.644547,232.968328,47.595297,244.468513,47.229027" />
<polygon fill="#a68868" fill-opacity="0.501961" points="227.865517,44.878048,229.742549,44.692858,229.577238,41.824099,232.801213,48.943961" />
<polygon fill="#554f2b" fill-opacity="0.501961" points="163.215128,114.102872,168.055270,102.437934,160.835296,104.714086,167.538173,115.381962" />
<polygon fill="#dfb89b" fill-opacity="0.501961" points="57.073548,70.473018,38.940394,83.656781,67.967597,73.662273,34.153143,62.555006" />
<polygon fill="#586643" fill-opacity="0.501961" points="171.051509,144.317246,183.186307,133.364606,149.613581,129.960159,166.200484,126.860625" />
<polygon fill="#efbb80" fill-opacity="0.501961" points="187.199973,98.965604,194.155213,74.502501,195.941704,75.905025,191.825550,90.492611" />
<polygon fill="#53431e" fill-opacity="0.501961" points="194.606657,52.548958,186.768059,54.190216,189.937149,49.740273,212.732889,33.013644" />
<polygon fill="#ecd5b5" fill-opacity="0.501961" points="110.667035,68.602971,63.821321,76.201653,114.196104,65.316984,132.843235,67.545111" />
<polygon fill="#0a0802" fill-opacity="0.501961" points="217.823093,93.819726,186.534202,100.807528,192.855206,111.662514,220.055905,105.405964" />
<polygon fill="#9f7f59" fill-opacity="0.501961" points="38.352579,53.139567,33.131704,51.235456,52.355121,51.623174,34.770443,59.719298" />
<polygon fill="#efc393" fill-opacity="0.501961" points="132.999432,67.194447,145.279925,76.672510,151.720826,62.994015,142.250601,59.224939" />
<polygon fill="#d17540" fill-opacity="0.501961" points="-3.301332,24.975891,-16.000000,26.322786,-16.000000,19.696472,15.660546,18.750878" />
<polygon fill="#010102" fill-opacity="0.501961" points="267.443757,80.636934,271.000000,109.209560,237.380857,111.093977,235.377740,89.980197" />
<polygon fill="#242527" fill-opacity="0.501961" points="250.518641,99.457122,248.150562,93.850143,245.270641,100.214452,249.154893,100.204695" />
<polygon fill="#dfb18a" fill-opacity="0.501961" points="92.097432,89.371504,27.678421,97.009295,50.473979,91.224560,43.330873,81.765399" />
<polygon fill="#4a3116" fill-opacity="0.501961" points="11.229151,53.328553,34.557526,54.807693,6.523467,61.475482,6.154035,63.388533" />
<polygon fill="#ecf7ea" fill-opacity="0.501961" points="76.571822,42.258963,76.960052,48.537010,59.499939,66.218468,127.981086,37.949017" />
<polygon fill="#af8360" fill-opacity="0.501961" points="41.374347,31.981424,64.339992,24.435497,39.724101,25.418945,26.969759,31.494514" />
<polygon fill="#383b1e" fill-opacity="0.501961" points="156.554103,159.000000,167.998866,132.736234,155.830497,134.503661,112.042250,145.623308" />
<polygon fill="#000000" fill-opacity="0.501961" points="242.754718,17.697591,271.000000,-0.696017,234.131775,6.787136,234.547412,19.000860" />
<polygon fill="#a08060" fill-opacity="0.501961" points="58.100542,68.954971,32.009448,84.216913,48.311991,67.812951,-11.814527,65.076037" />
<polygon fill="#dba06f" fill-opacity="0.501961" points="146.268311,48.354342,113.392002,61.232847,143.305363,69.551206,111.475168,54.944734" />
<polygon fill="#bc8169" fill-opacity="0.501961" points="124.780466,19.283781,145.261018,17.763805,119.122136,4.418435,138.980648,-16.000000" />
<polygon fill="#f3cdae" fill-opacity="0.501961" points="141.159334,96.969428,134.336348,96.143693,136.115479,102.330492,136.987991,103.811895" />
<polygon fill="#353f1d" fill-opacity="0.501961" points="-16.000000,132.471674,18.675014,114.989420,-16.000000,145.534934,10.587038,130.843755" />
<polygon fill="#2a1e09" fill-opacity="0.501961" points="221.095914,46.445705,202.783258,59.789378,205.169569,66.740196,213.619924,46.476713" />
<polygon fill="#eaece0" fill-opacity="0.501961" points="185.231825,89.665236,175.270413,123.591943,169.333234,128.282305,195.085220,76.767666" />
<polygon fill="#b08962" fill-opacity="0.501961" points="123.319159,111.135444,116.509485,124.347124,109.565464,117.993368,106.444621,117.611194" />
<polygon fill="#8d5934" fill-opacity="0.501961" points="15.608191,36.917789,54.113326,39.760542,78.636935,36.098365,67.672776,33.043637" />
<polygon fill="#d7b7a1" fill-opacity="0.501961" points="43.808304,57.762519,31.301699,59.521972,37.319963,65.831753,59.110013,49.958268" />
<polygon fill="#f2e6c7" fill-opacity="0.501961" points="128.575968,37.101559,116.636210,35.754317,108.058473,57.300172,125.000891,51.967318" />
<polygon fill="#c58c5d" fill-opacity="0.501961" points="133.717686,70.193436,131.187652,55.778360,95.233658,61.293325,128.814804,59.386470" />
<polygon fill="#5b4a28" fill-opacity="0.501961" points="170.611815,66.326252,160.144686,79.183873,181.701225,59.473617,147.026924,99.317224" />
<polygon fill="#17180c" fill-opacity="0.501961" points="234.948298,61.651049,244.983174,69.664641,223.738909,106.849844,253.786619,69.767016" />
<polygon fill="#823e25" fill-opacity="0.501961" points="176.117186,36.797172,182.148876,20.273914,159.437160,54.681945,173.301107,52.836515" />
<polygon fill="#e6ba93" fill-opacity="0.501961" points="125.025237,106.007274,118.937681,124.883973,119.246210,134.117390,126.795289,106.708603" />
<polygon fill="#3a573b" fill-opacity="0.501961" points="246.417548,73.230174,245.542973,73.345572,249.493575,72.772030,246.350879,58.496419" />
<polygon fill="#6b4c2c" fill-opacity="0.501961" points="80.943546,7.761373,56.730804,8.151117,79.992802,20.579751,64.272469,22.262290" />
<polygon fill="#83552f" fill-opacity="0.501961" points="-16.000000,49.850991,9.661259,66.815253,-8.816827,72.400947,7.740611,48.457159" />
<polygon fill="#8d5e3d" fill-opacity="0.501961" points="87.379004,19.403452,62.749610,19.306524,111.159695,0.718747,73.921303,35.060990" />
<polygon fill="#452d10" fill-opacity="0.501961" points="22.853237,83.921079,23.864058,80.555589,-9.030903,84.732805,11.741807,85.821653" />
<polygon fill="#33381d" fill-opacity="0.501961" points="186.447960,127.424378,180.907553,125.110985,225.311171,115.604189,184.880361,119.821899" />
<polygon fill="#493d26" fill-opacity="0.501961" points="213.296136,16.285510,215.154045,0.737956,213.925142,23.473828,222.477263,23.416256" />
<polygon fill="#eef6f0" fill-opacity="0.501961" points="178.684495,105.573309,191.003410,78.163847,180.777523,105.308646,174.016149,123.469739" />
<polygon fill="#d5a676" fill-opacity="0.501961" points="184.690731,83.939036,191.927166,86.431092,196.587880,76.239006,197.509064,88.206071" />
<polygon fill="#672e1c" fill-opacity="0.501961" points="186.747935,35.888667,181.649705,16.756418,182.895682,12.112710,198.772473,38.477169" />
<polygon fill="#ca9569" fill-opacity="0.501961" points="209.163524,52.256856,196.176402,47.794053,196.392431,52.471691,210.058197,53.928218" />
<polygon fill="#b88451" fill-opacity="0.501961" points="-16.000000,159.000000,-4.971594,139.438856,23.070462,139.154774,-16.000000,155.951183" />
<polygon fill="#191208" fill-opacity="0.501961" points="213.116258,65.740721,211.114517,62.999920,202.834939,74.327888,228.287343,108.888020" />
<polygon fill="#d38b64" fill-opacity="0.501961" points="153.295445,89.780528,139.857545,95.856133,161.223150,86.457789,165.920933,89.916211" />
<polygon fill="#d0a27e" fill-opacity="0.501961" points="114.220028,123.686567,109.586859,108.440170,114.713858,114.097684,95.675973,127.183353" />
<polygon fill="#ebe6cf" fill-opacity="0.501961" points="193.053446,60.613133,185.520411,64.167286,181.724039,61.725313,199.814698,53.574763" />
<polygon fill="#455e43" fill-opacity="0.501961" points="229.169151,135.721974,233.854218,140.331850,215.371372,133.843914,168.777764,159.000000" />
<polygon fill="#716037" fill-opacity="0.501961" points="44.982921,71.698648,39.710411,68.581492,23.097913,95.290358,18.568368,88.521878" />
<polygon fill="#322d0d" fill-opacity="0.501961" points="226.010083,114.741043,241.357343,111.956916,208.605760,109.648462,217.858374,112.779488" />
<polygon fill="#746237" fill-opacity="0.501961" points="225.609953,55.878837,217.922783,67.368476,217.575267,52.461299,220.179130,61.137773" />
<polygon fill="#302b13" fill-opacity="0.501961" points="163.760588,115.093162,158.605501,112.481776,158.892425,112.701194,161.516793,104.435135" />
<polygon fill="#eee6cb" fill-opacity="0.501961" points="117.639180,53.180327,77.637653,63.002983,54.859525,65.920095,55.481008,62.277639" />
<polygon fill="#a2a895" fill-opacity="0.501961" points="152.790601,124.368200,164.318352,126.893556,148.833995,127.030021,152.779661,129.828854" />
<polygon fill="#453518" fill-opacity="0.501961" points="181.461157,74.462219,173.638935,60.507446,181.851026,60.921197,182.793884,68.044352" />
<polygon fill="#868567" fill-opacity="0.501961" points="25.440905,64.442722,15.800684,67.693785,24.823018,59.133460,34.341627,59.232964" />
<polygon fill="#5a552e" fill-opacity="0.501961" points="145.493562,108.395943,141.358535,121.210486,136.721515,114.358366,130.573836,114.979690" />
<polygon fill="#6f5236" fill-opacity="0.501961" points="129.069567,20.655703,127.238409,25.450869,267.656925,87.312769,130.621012,26.989044" />
<polygon fill="#dba87e" fill-opacity="0.501961" points="122.631113,77.848236,132.268047,92.251577,68.224728,94.687143,122.575329,86.207646" />
<polygon fill="#eddbba" fill-opacity="0.501961" points="180.059758,52.248358,172.806209,57.805590,153.403213,59.768205,185.292378,52.308396" />
<polygon fill="#b76b4b" fill-opacity="0.501961" points="118.977169,18.781862,121.332880,-12.809250,134.030529,-16.000000,104.727283,14.993022" />
<polygon fill="#d6a58b" fill-opacity="0.501961" points="142.909642,26.929855,128.759422,21.818427,125.092949,16.581659,133.781709,20.932315" />
<polygon fill="#453b1c" fill-opacity="0.501961" points="152.215171,106.571903,159.374244,105.294933,157.737697,105.732057,153.483849,115.344948" />
<polygon fill="#d68b5a" fill-opacity="0.501961" points="160.107950,121.927548,118.511730,123.053560,173.616352,117.815014,149.326484,115.321862" />
<polygon fill="#4f5935" fill-opacity="0.501961" points="184.469979,159.000000,170.858578,159.000000,180.377053,115.798193,176.515560,122.028236" />
<polygon fill="#f3dbc2" fill-opacity="0.501961" points="178.900066,102.280176,171.019625,94.385298,167.838072,89.640733,162.355221,89.106720" />
<polygon fill="#637e6a" fill-opacity="0.501961" points="271.000000,117.481641,242.558158,111.286384,271.000000,110.854959,249.286372,135.856784" />
<polygon fill="#3e8391" fill-opacity="0.501961" points="254.257952,73.189986,254.589183,54.054016,268.905465,61.668377,270.467839,80.479366" />
<polygon fill="#7c6a46" fill-opacity="0.501961" points="152.531677,94.480644,151.176248,117.733027,147.644448,154.571783,154.413432,89.551144" />
<polygon fill="#e9d3bd" fill-opacity="0.501961" points="147.182664,79.914749,149.831192,76.627966,149.929617,89.812137,145.315987,95.749405" />
<polygon fill="#664e2d" fill-opacity="0.501961" points="61.513339,20.244893,101.377722,17.849502,42.268608,24.975764,42.118190,23.834785" />
<polygon fill="#1e1207" fill-opacity="0.501961" points="233.216224,45.303414,231.160768,63.268617,236.663204,38.109950,231.987556,-3.075479" />
<polygon fill="#e8c29c" fill-opacity="0.501961" points="53.679427,65.039628,105.008237,63.993385,103.644350,65.071485,55.409633,70.280083" />
<polygon fill="#bc7e49" fill-opacity="0.501961" points="176.329938,60.355563,186.192514,54.435375,167.108142,59.939374,152.881469,66.095126" />
<polygon fill="#e9c7a2" fill-opacity="0.501961" points="82.468818,84.687405,66.321074,87.430975,49.252435,86.931469,113.317591,73.934092" />
<polygon fill="#68532c" fill-opacity="0.501961" points="178.047337,62.100448,172.640379,69.999980,175.329886,85.319426,179.703364,75.126617" />
<polygon fill="#ac4d33" fill-opacity="0.501961" points="163.691142,45.290023,162.283002,15.589102,172.445692,16.455627,170.594979,46.123202" />
<polygon fill="#65674d" fill-opacity="0.501961" points="215.273244,35.157943,219.604193,46.782582,216.640867,45.180451,216.927640,39.332816" />
<polygon fill="#5a381b" fill-opacity="0.501961" points="14.781484,67.400589,32.313722,69.057259,-16.000000,81.538324,0.598457,70.849730" />
<polygon fill="#241c0c" fill-opacity="0.501961" points="220.604829,62.092693,221.129522,37.499454,228.725974,15.695686,217.246796,51.640633" />
<polygon fill="#644621" fill-opacity="0.501961" points="22.121126,38.715632,-9.422863,48.441670,0.775670,43.338343,15.371520,44.058634" />
<polygon fill="#b87b54" fill-opacity="0.501961" points="146.655566,59.554705,119.724994,64.957917,132.345337,49.633789,135.838953,58.919389" />
<polygon fill="#92683c" fill-opacity="0.501961" points="43.293883,92.469306,16.951984,91.846956,27.607492,85.400713,32.620225,94.818841" />
<polygon fill="#040200" fill-opacity="0.501961" points="244.462450,41.407956,246.979498,53.750115,222.218589,68.507401,233.420253,83.973320" />
<polygon fill="#efefe0" fill-opacity="0.501961" points="182.673812,50.133033,185.619859,72.309041,185.098661,54.944890,174.954065,54.268866" />
<polygon fill="#25190c" fill-opacity="0.501961" points="171.953152,5.125433,176.559127,19.324357,159.600432,9.993314,168.476787,16.558849" />
<polygon fill="#f5faf3" fill-opacity="0.501961" points="152.014990,31.181557,153.495843,32.925130,156.396138,32.437280,157.401131,30.865504" />
<polygon fill="#e7d4c1" fill-opacity="0.501961" points="67.011145,39.184146,70.176771,43.367681,58.717466,55.367990,44.828808,65.642906" />
<polygon fill="#ac8f6a" fill-opacity="0.501961" points="23.522951,137.946426,47.669244,117.297762,25.461287,123.578753,45.974192,128.945352" />
<polygon fill="#e6dfc3" fill-opacity="0.501961" points="180.867530,50.294527,165.685433,58.496464,178.963130,53.456449,191.106199,62.588114" />
<polygon fill="#2b2213" fill-opacity="0.501961" points="162.327836,15.832537,167.827416,6.896066,162.700557,0.032702,154.734644,13.553672" />
<polygon fill="#d48e5e" fill-opacity="0.501961" points="142.603426,76.793948,124.969383,74.563189,131.240865,60.044267,139.688862,88.619899" />
<polygon fill="#321b0e" fill-opacity="0.501961" points="211.770555,87.469066,239.605265,86.766666,225.576581,81.788450,221.429468,82.987736" />
<polygon fill="#b1926c" fill-opacity="0.501961" points="191.951369,111.706191,181.313544,107.522276,178.941585,120.534808,183.244841,112.356716" />
<polygon fill="#697655" fill-opacity="0.501961" points="189.086986,112.445071,205.052723,113.525577,207.986278,114.451266,185.194061,120.316499" />
<polygon fill="#765631" fill-opacity="0.501961" points="55.632729,39.107135,29.928491,33.629974,81.460652,27.187030,13.640340,43.359665" />
<polygon fill="#847757" fill-opacity="0.501961" points="59.836502,5.459024,20.416948,5.380002,56.274393,-16.000000,76.220125,-16.000000" />
<polygon fill="#e7c29d" fill-opacity="0.501961" points="151.763959,91.715084,157.788424,92.362126,164.017060,103.042755,156.779193,98.165228" />
<polygon fill="#544d32" fill-opacity="0.501961" points="173.410033,107.185594,176.334969,116.366642,169.672796,109.017551,170.098325,105.913490" />
<polygon fill="#110b02" fill-opacity="0.501961" points="212.449819,53.445420,218.666379,24.466084,201.068214,46.795071,203.661074,49.021848" />
<polygon fill="#5f683e" fill-opacity="0.501961" points="-0.512831,159.000000,57.409019,139.116356,101.254878,159.000000,21.568631,141.412380" />
<polygon fill="#577661" fill-opacity="0.501961" points="242.227508,58.640064,250.055312,67.900313,271.000000,66.271646,255.154415,68.822268" />
<polygon fill="#e9b992" fill-opacity="0.501961" points="134.677020,91.358432,126.920492,101.353737,139.568697,79.620725,126.022962,89.453074" />
<polygon fill="#e7ba8b" fill-opacity="0.501961" points="131.591476,45.371456,130.852722,42.446953,150.512274,51.652021,116.530944,50.317288" />
<polygon fill="#edf4ed" fill-opacity="0.501961" points="175.589919,121.331308,189.716897,81.085278,174.266296,117.063148,175.882863,121.706141" />
<polygon fill="#ebd0b0" fill-opacity="0.501961" points="148.918631,61.856355,140.512993,62.647333,139.093860,66.628200,150.596211,64.755227" />
<polygon fill="#c4a07c" fill-opacity="0.501961" points="185.558707,36.316481,181.248495,43.130362,189.466721,35.278380,191.327839,39.753140" />
<polygon fill="#dd8456" fill-opacity="0.501961" points="169.559670,83.936619,174.441375,86.629504,170.925961,89.777539,166.962094,92.488241" />
<polygon fill="#3e4c2f" fill-opacity="0.501961" points="187.158257,123.320302,210.615362,121.653866,227.281091,130.885841,181.466726,127.953178" />
<polygon fill="#dba074" fill-opacity="0.501961" points="150.202912,109.889138,151.032821,95.790384,131.558586,90.396749,153.497123,100.831806" />
<polygon fill="#e9d9c2" fill-opacity="0.501961" points="203.951002,50.297551,199.092811,49.310870,202.909650,51.617144,160.870146,108.956551" />
<polygon fill="#d5975e" fill-opacity="0.501961" points="179.259504,59.895850,183.764472,62.890527,181.564915,55.428493,168.472731,58.618575" />
<polygon fill="#b8a186" fill-opacity="0.501961" points="171.683634,113.854524,166.407245,107.473508,168.150511,116.022335,164.836234,114.759681" />
<polygon fill="#8a8d7c" fill-opacity="0.501961" points="230.165065,136.737125,207.508478,132.376789,230.341497,134.658974,250.132562,136.373056" />
<polygon fill="#bf835a" fill-opacity="0.501961" points="154.743996,60.360458,137.389256,55.130187,156.195134,53.884425,165.404140,37.104508" />
<polygon fill="#342211" fill-opacity="0.501961" points="-1.652909,80.136940,27.071863,76.347751,38.289121,72.157381,6.533420,76.019379" />
<polygon fill="#f2975c" fill-opacity="0.501961" points="138.195721,6.815986,135.796974,5.338536,131.310433,13.067084,143.098900,11.542746" />
<polygon fill="#502616" fill-opacity="0.501961" points="183.915017,36.475635,178.655017,43.535488,183.670122,15.061746,187.093878,30.205507" />
<polygon fill="#160a04" fill-opacity="0.501961" points="178.447456,6.945168,177.815367,-16.000000,179.901877,6.262205,175.982783,19.391261" />
<polygon fill="#cda17b" fill-opacity="0.501961" points="42.017749,65.653279,61.687841,65.204067,29.056166,119.963308,58.183277,71.257166" />
<polygon fill="#70704b" fill-opacity="0.501961" points="133.681082,130.139234,117.311748,128.969665,150.100923,125.050661,153.569684,126.702613" />
<polygon fill="#b58b68" fill-opacity="0.501961" points="97.950974,115.561044,77.415804,124.526568,103.031494,121.535860,108.004206,122.093749" />
<polygon fill="#a0aea4" fill-opacity="0.501961" points="239.923837,68.395599,240.281765,71.222988,242.662654,71.024692,243.908101,67.997545" />
<polygon fill="#0a0400" fill-opacity="0.501961" points="216.709105,21.060565,220.369986,1.386767,226.020986,-16.000000,215.315276,-16.000000" />
<polygon fill="#eca570" fill-opacity="0.501961" points="167.703466,11.973557,172.793472,-4.043439,191.759439,-16.000000,179.978414,-10.519489" />
<polygon fill="#826c48" fill-opacity="0.501961" points="228.783056,53.929848,218.460221,56.415227,224.256179,60.524444,229.858898,60.799195" />
<polygon fill="#595223" fill-opacity="0.501961" points="14.990513,109.000580,27.781470,105.333251,0.049818,105.033226,-16.000000,111.801098" />
<polygon fill="#44401e" fill-opacity="0.501961" points="141.245605,113.265577,143.625817,107.897448,148.212273,108.072276,140.884029,115.444657" />
<polygon fill="#392915" fill-opacity="0.501961" points="170.989298,67.976230,154.887837,80.974827,167.538081,70.227668,152.234918,66.945878" />
<polygon fill="#f4ae77" fill-opacity="0.501961" points="176.671651,5.666944,176.690719,12.953455,168.954332,-10.401137,172.732559,2.626455" />
<polygon fill="#f2efd9" fill-opacity="0.501961" points="181.015621,104.537915,176.097577,102.856934,183.987629,100.708592,186.139479,80.827702" />
<polygon fill="#090501" fill-opacity="0.501961" points="220.295078,84.387741,229.988082,57.231052,224.516600,49.959934,238.753827,59.914566" />
<polygon fill="#060a04" fill-opacity="0.501961" points="245.362826,58.769243,271.000000,21.528393,243.361406,59.811938,247.443919,111.596729" />
<polygon fill="#58361d" fill-opacity="0.501961" points="175.225159,38.268462,178.070473,24.514738,181.533048,48.331930,173.372824,54.495372" />
<polygon fill="#987a53" fill-opacity="0.501961" points="126.032989,120.231005,126.793659,122.510010,132.234531,112.287559,131.026350,107.585194" />
<polygon fill="#f6b576" fill-opacity="0.501961" points="152.267713,123.662313,145.940824,122.404863,129.261873,122.646622,88.766388,130.635403" />
<polygon fill="#844c2c" fill-opacity="0.501961" points="157.972142,64.078909,148.277499,60.419590,157.462056,67.276194,169.626066,65.114433" />
<polygon fill="#332c14" fill-opacity="0.501961" points="155.924067,112.844730,152.342157,106.674941,151.610627,112.035115,155.044099,115.432070" />
<polygon fill="#b88054" fill-opacity="0.501961" points="-9.119043,116.613602,-8.190202,111.504996,3.643365,111.058907,59.317775,102.655377" />
<polygon fill="#846140" fill-opacity="0.501961" points="57.675872,4.579785,59.296150,20.332376,24.210864,13.991942,26.640221,15.161493" />
<polygon fill="#ead6bd" fill-opacity="0.501961" points="42.036783,79.665270,87.331654,73.026919,44.700267,72.692190,101.608026,67.001457" />
<polygon fill="#e4b48b" fill-opacity="0.501961" points="80.694600,113.580385,71.505501,121.736229,106.147498,113.124433,101.255609,115.883655" />
<polygon fill="#a4794f" fill-opacity="0.501961" points="178.016009,104.876096,178.959068,106.911700,144.874898,101.307071,174.104091,104.634771" />
<polygon fill="#3a3018" fill-opacity="0.501961" points="269.139378,17.621813,263.937829,22.965167,271.000000,15.311424,212.126875,21.465166" />
<polygon fill="#bc6246" fill-opacity="0.501961" points="170.510705,32.103601,138.713149,12.152476,146.358143,10.276312,162.072395,22.302665" />
<polygon fill="#c59f7e" fill-opacity="0.501961" points="32.244024,52.436213,21.518449,67.417417,37.033138,45.693817,74.909762,40.446788" />
<polygon fill="#080402" fill-opacity="0.501961" points="234.755462,62.847713,239.879314,73.256143,223.763583,81.365407,222.864033,60.948270" />
<polygon fill="#3e482b" fill-opacity="0.501961" points="179.228807,130.661317,198.454710,136.344104,200.715863,159.000000,173.039873,125.879761" />
<polygon fill="#895938" fill-opacity="0.501961" points="159.412691,36.900034,180.641041,51.341708,156.082593,36.246901,159.625226,30.271555" />
<polygon fill="#372110" fill-opacity="0.501961" points="181.475922,11.399753,242.049580,4.030710,271.000000,-2.565890,225.729427,5.117405" />
<polygon fill="#86845a" fill-opacity="0.501961" points="22.347659,130.212686,-16.000000,130.845538,38.210976,126.916812,28.758670,134.324577" />
<polygon fill="#9e8b65" fill-opacity="0.501961" points="20.387828,96.082495,51.177303,94.644728,34.761676,104.291700,35.386180,94.123095" />
<polygon fill="#b38157" fill-opacity="0.501961" points="142.308794,99.464054,141.169255,98.163141,136.669554,106.991480,143.835828,106.865726" />
<polygon fill="#070602" fill-opacity="0.501961" points="206.255785,110.058220,212.479201,87.447772,212.675339,78.466244,187.818932,110.369608" />
<polygon fill="#6e8370" fill-opacity="0.501961" points="271.000000,131.994296,271.000000,125.002164,230.183280,137.038735,256.351464,134.797972" />
<polygon fill="#f0f6e7" fill-opacity="0.501961" points="186.707107,61.351002,186.593883,61.738516,180.626522,56.627413,192.190151,57.442918" />
<polygon fill="#927957" fill-opacity="0.501961" points="231.768610,48.802710,230.669935,40.657842,228.712989,44.926430,227.106160,51.928767" />
<polygon fill="#e8e3d3" fill-opacity="0.501961" points="56.149426,82.392629,108.992900,74.305664,69.166763,76.033749,60.985713,78.335235" />
<polygon fill="#0c0800" fill-opacity="0.501961" points="225.747334,48.724693,236.179226,54.557124,235.309866,54.755836,216.469270,53.900283" />
<polygon fill="#c18761" fill-opacity="0.501961" points="47.091196,93.508039,39.382679,81.425551,41.284561,77.250034,29.587387,90.127917" />
<polygon fill="#d4b797" fill-opacity="0.501961" points="170.016225,89.101430,180.157103,123.473955,183.133650,116.058422,181.936509,125.780707" />
<polygon fill="#746851" fill-opacity="0.501961" points="197.969113,42.538779,181.435836,47.527702,198.604168,37.662630,198.867834,54.557156" />
<polygon fill="#1a0e04" fill-opacity="0.501961" points="224.012173,34.879789,248.064929,32.564637,243.285023,40.792156,224.944942,42.735373" />
<polygon fill="#e9b990" fill-opacity="0.501961" points="61.984206,105.534819,36.911750,110.343851,72.542652,106.574933,73.253661,105.327402" />
<polygon fill="#3e2112" fill-opacity="0.501961" points="202.706005,39.458625,190.478776,28.633258,203.489287,27.935517,202.641792,39.668765" />
<polygon fill="#7f8363" fill-opacity="0.501961" points="165.840604,132.374991,159.741954,132.819167,147.751488,127.679261,159.702701,127.888933" />
<polygon fill="#efe6d0" fill-opacity="0.501961" points="174.974160,94.960248,163.511815,88.619235,171.627145,99.107562,175.505998,98.512097" />
<polygon fill="#dea577" fill-opacity="0.501961" points="108.590378,70.461538,131.044653,69.947340,62.951636,91.682709,134.129811,74.866970" />
<polygon fill="#9d6a46" fill-opacity="0.501961" points="19.736619,20.079322,-16.000000,6.046964,-16.000000,4.854982,33.731306,6.428927" />
<polygon fill="#ae865b" fill-opacity="0.501961" points="214.779206,54.248600,202.421711,71.339120,206.460798,66.895524,176.243220,114.431243" />
<polygon fill="#ebf3e5" fill-opacity="0.501961" points="120.930630,47.236536,124.614835,38.776379,39.377285,60.580898,99.847661,53.139345" />
<polygon fill="#3a3f21" fill-opacity="0.501961" points="194.684955,127.850140,176.818631,123.146047,177.188212,125.567281,191.873618,119.284639" />
<polygon fill="#424c28" fill-opacity="0.501961" points="235.552798,60.025757,235.247637,58.969659,245.517175,57.698087,236.976365,54.955566" />
<polygon fill="#8d7b5b" fill-opacity="0.501961" points="221.626121,68.189322,216.104048,65.135493,219.787145,80.613035,220.886099,69.868352" />
<polygon fill="#3d2311" fill-opacity="0.501961" points="149.474665,14.186622,162.179848,9.887603,156.803971,15.743567,149.108342,-0.539678" />
<polygon fill="#4d572c" fill-opacity="0.501961" points="24.857126,115.501241,-16.000000,138.086639,24.643240,120.680313,3.260713,118.466726" />
<polygon fill="#f0c491" fill-opacity="0.501961" points="134.809771,65.938296,141.529517,62.370228,142.346019,74.391126,136.113663,76.880129" />
<polygon fill="#d2ac92" fill-opacity="0.501961" points="37.411137,45.392432,-16.000000,46.994322,33.044786,46.762506,65.012156,41.949601" />
<polygon fill="#722f1f" fill-opacity="0.501961" points="193.999329,23.087975,195.772622,6.024753,189.611532,14.891231,184.807899,33.169657" />
<polygon fill="#9a7953" fill-opacity="0.501961" points="20.631900,46.385448,15.753245,53.876355,-1.280566,55.043205,33.157026,48.073150" />
<polygon fill="#939184" fill-opacity="0.501961" points="225.248928,133.335900,222.163041,133.625177,227.728432,135.144192,244.949580,138.261134" />
<polygon fill="#433a13" fill-opacity="0.501961" points="6.155221,97.024661,-6.943166,100.781474,-4.138577,96.431590,16.907070,92.701984" />
<polygon fill="#f5bd78" fill-opacity="0.501961" points="169.686285,104.459057,194.939948,77.293383,188.756802,79.702846,181.196590,93.952318" />
<polygon fill="#e2c29c" fill-opacity="0.501961" points="202.681003,51.626179,197.924749,54.727073,190.119168,63.383921,202.263941,47.283293" />
<polygon fill="#eedcbd" fill-opacity="0.501961" points="103.760506,53.252330,107.082801,68.499506,110.852931,67.879524,103.609911,47.867987" />
<polygon fill="#9e6740" fill-opacity="0.501961" points="69.206808,34.056004,47.479636,37.764914,25.499255,37.489879,25.397641,37.249027" />
<polygon fill="#eed5b5" fill-opacity="0.501961" points="157.877974,40.286491,150.264861,56.573792,157.729871,47.731849,159.269113,48.958022" />
<polygon fill="#905436" fill-opacity="0.501961" points="-16.000000,31.663134,21.748882,26.523559,-16.000000,51.305576,9.111623,56.178387" />
<polygon fill="#5f6341" fill-opacity="0.501961" points="171.828734,123.390450,154.203158,145.960846,167.513047,126.466290,159.686931,122.513654" />
<polygon fill="#3a2f18" fill-opacity="0.501961" points="156.172661,73.930707,169.758064,81.984982,174.933179,67.223032,164.753810,88.612150" />
<polygon fill="#ca936d" fill-opacity="0.501961" points="119.209358,95.046958,121.547522,89.271993,128.088095,92.120614,132.503757,105.796669" />
<polygon fill="#f2f8eb" fill-opacity="0.501961" points="172.483510,100.469527,168.306422,100.751974,172.923764,92.150814,176.243037,87.400623" />
<polygon fill="#7e6035" fill-opacity="0.501961" points="149.207283,67.024624,151.156123,80.864315,152.580988,101.499292,153.147097,83.965145" />
<polygon fill="#50341b" fill-opacity="0.501961" points="-12.613456,63.487290,36.797704,57.941579,17.632308,55.217491,-11.900518,59.556415" />
<polygon fill="#e1b08c" fill-opacity="0.501961" points="124.022613,121.056667,124.795472,114.923280,131.261831,104.789042,122.829653,111.111172" />
<polygon fill="#050200" fill-opacity="0.501961" points="213.132279,34.654070,211.565770,45.564789,210.653595,8.167479,211.976393,-14.263795" />
<polygon fill="#000000" fill-opacity="0.501961" points="244.031980,38.297451,268.444114,54.823838,257.810064,14.658615,253.976480,49.891091" />
<polygon fill="#c4996f" fill-opacity="0.501961" points="131.978896,33.922490,131.027318,48.751451,135.069852,32.142954,142.475729,34.885642" />
<polygon fill="#c07148" fill-opacity="0.501961" points="139.009195,36.784651,138.801504,40.135246,144.710757,34.627092,148.216064,47.328687" />
<polygon fill="#171308" fill-opacity="0.501961" points="212.029414,78.838048,200.175870,79.533687,216.858161,60.209098,215.492927,113.200291" />
<polygon fill="#d9ae8f" fill-opacity="0.501961" points="159.332156,30.266656,164.788997,29.967607,135.844790,33.332136,140.284040,34.166453" />
<polygon fill="#a8663f" fill-opacity="0.501961" points="18.778189,34.471701,130.268744,34.512094,89.471319,38.322161,71.406974,34.298536" />
<polygon fill="#494524" fill-opacity="0.501961" points="152.410510,8.929938,154.132710,7.498184,171.814147,-16.000000,152.237343,-16.000000" />
<polygon fill="#dbb189" fill-opacity="0.501961" points="105.154737,52.959292,84.452828,101.787288,79.211262,96.720616,99.767729,71.239589" />
<polygon fill="#cc7b5b" fill-opacity="0.501961" points="134.103365,0.845097,116.229007,36.602249,109.154525,-16.000000,113.609823,20.526589" />
<polygon fill="#a28964" fill-opacity="0.501961" points="81.252543,134.408079,103.905976,130.566889,112.314904,133.272248,76.831429,137.365800" />
<polygon fill="#393b23" fill-opacity="0.501961" points="253.792554,81.973623,241.931662,82.246678,271.000000,85.424966,271.000000,84.601256" />
<polygon fill="#74714f" fill-opacity="0.501961" points="14.801734,97.657205,17.918583,100.680183,15.783452,95.008075,29.070974,96.029822" />
<polygon fill="#272b1e" fill-opacity="0.501961" points="258.784255,28.764423,247.841842,48.685524,248.934524,50.150252,244.902812,46.653921" />
<polygon fill="#855733" fill-opacity="0.501961" points="146.001909,31.600049,147.001232,28.198165,143.793069,28.441019,160.996695,27.566773" />
<polygon fill="#b99269" fill-opacity="0.501961" points="75.624577,111.180140,37.472124,114.721230,79.669340,117.164246,8.661564,113.139918" />
<polygon fill="#c77a61" fill-opacity="0.501961" points="141.538465,21.542333,161.033264,19.128449,162.176545,23.244629,125.320464,12.235024" />
<polygon fill="#bd8d65" fill-opacity="0.501961" points="103.650120,91.968419,116.039164,98.699416,89.445330,102.099005,85.748681,95.828613" />
<polygon fill="#473e21" fill-opacity="0.501961" points="164.035283,79.436938,168.137979,76.275263,154.882422,90.135891,150.773853,83.508305" />
<polygon fill="#eac09b" fill-opacity="0.501961" points="154.885078,101.149145,155.656121,88.992840,160.271931,103.513481,162.934299,100.111171" />
<polygon fill="#dbc4af" fill-opacity="0.501961" points="161.603178,54.623855,159.558837,59.693605,158.871850,63.925636,156.948580,62.019521" />
<polygon fill="#817650" fill-opacity="0.501961" points="19.669781,60.597962,18.482721,65.975888,41.981178,51.294990,45.039880,57.059332" />
<polygon fill="#694e2c" fill-opacity="0.501961" points="145.605058,39.433136,147.577834,26.552049,148.359335,46.967126,154.092804,39.224727" />
<polygon fill="#d26749" fill-opacity="0.501961" points="140.022125,30.054831,143.946407,14.817757,152.382414,18.271108,159.055345,19.478058" />
<polygon fill="#4a1d12" fill-opacity="0.501961" points="196.606209,33.002426,204.852063,-5.914055,173.669058,-16.000000,195.410041,3.738721" />
<polygon fill="#967f54" fill-opacity="0.501961" points="178.949588,109.253628,191.340293,97.933194,191.446536,91.476494,186.143673,102.906726" />
<polygon fill="#ce7e4e" fill-opacity="0.501961" points="162.115977,97.808722,162.599755,85.700668,156.729862,86.959995,168.481186,102.272286" />
<polygon fill="#c49267" fill-opacity="0.501961" points="132.268103,31.985156,119.642388,28.507689,131.449997,26.186365,138.564877,79.826383" />
<polygon fill="#322f13" fill-opacity="0.501961" points="-16.000000,123.132209,14.684844,123.204574,-10.732023,130.801556,12.927716,117.649844" />
<polygon fill="#674f28" fill-opacity="0.501961" points="16.505862,63.081610,-11.287992,59.420057,13.909742,68.453506,8.249459,70.325068" />
<polygon fill="#020000" fill-opacity="0.501961" points="241.708746,20.163350,233.254594,34.438648,229.897048,3.174689,230.351056,33.098500" />
<polygon fill="#7a6235" fill-opacity="0.501961" points="194.973808,83.290175,200.489054,79.500656,197.289157,61.404876,204.131814,69.368036" />
<polygon fill="#dfbc9a" fill-opacity="0.501961" points="124.847734,31.112587,118.275860,78.166029,126.308130,21.263372,122.261711,24.516685" />
<polygon fill="#2a2109" fill-opacity="0.501961" points="201.501615,71.041569,205.090125,55.475889,207.669365,81.086226,209.181025,74.379332" />
<polygon fill="#947b52" fill-opacity="0.501961" points="160.450310,118.694155,156.377383,115.956817,155.984104,104.813271,156.466746,106.197245" />
<polygon fill="#000100" fill-opacity="0.501961" points="271.000000,39.321723,244.238836,44.576123,242.355630,32.425301,261.367459,63.557864" />
<polygon fill="#c4a788" fill-opacity="0.501961" points="170.600503,126.146303,142.338014,122.840660,153.879128,125.176846,163.643569,126.739581" />
<polygon fill="#d9a280" fill-opacity="0.501961" points="176.396076,116.354861,158.187116,122.847555,159.447833,119.377715,168.737518,117.351131" />
<polygon fill="#bd835b" fill-opacity="0.501961" points="141.159075,94.734089,141.408652,82.059188,111.537056,81.622803,135.470656,75.451758" />
<polygon fill="#8c7d52" fill-opacity="0.501961" points="26.382771,112.409569,50.609638,115.067490,15.806544,115.689706,-11.913357,118.786829" />
<polygon fill="#698d8c" fill-opacity="0.501961" points="259.349139,59.420319,250.008623,68.921452,249.706277,68.090277,262.578047,54.909192" />
<polygon fill="#e5a16c" fill-opacity="0.501961" points="120.253564,35.868695,122.637030,34.352156,135.763684,39.109784,128.571959,37.667799" />
<polygon fill="#927f59" fill-opacity="0.501961" points="127.174412,138.630697,111.269706,138.813503,128.934165,124.662861,121.781423,133.622284" />
<polygon fill="#ebdfc3" fill-opacity="0.501961" points="170.552943,97.024897,197.671056,66.374446,190.805361,77.280879,187.036326,72.467716" />
<polygon fill="#1a1309" fill-opacity="0.501961" points="231.445764,90.454124,271.000000,35.969927,218.402290,106.510797,233.651563,99.523767" />
<polygon fill="#cd9c76" fill-opacity="0.501961" points="46.699556,100.222921,47.798060,106.052280,74.110533,99.383485,97.799303,92.247465" />
<polygon fill="#deb48b" fill-opacity="0.501961" points="125.427741,115.964242,116.658026,131.565048,116.442186,131.171902,120.042895,132.502063" />
<polygon fill="#2c1e0d" fill-opacity="0.501961" points="233.574300,23.319174,231.962101,-5.957285,235.929011,23.865650,230.891267,24.530506" />
<polygon fill="#947156" fill-opacity="0.501961" points="47.473541,21.890730,43.778672,23.531392,43.576733,16.563403,49.126925,16.772578" />
<polygon fill="#eac59d" fill-opacity="0.501961" points="122.611082,42.155478,133.369647,38.720418,157.484089,52.973835,123.720690,39.956809" />
<polygon fill="#ac7748" fill-opacity="0.501961" points="150.935297,119.448931,132.325625,121.627579,125.350702,120.589671,161.167254,116.449746" />
<polygon fill="#746546" fill-opacity="0.501961" points="89.986180,11.407510,102.824198,-16.000000,59.214568,7.380139,48.560634,-16.000000" />
<polygon fill="#485635" fill-opacity="0.501961" points="248.697460,58.430215,239.297485,58.433223,234.632540,54.472048,241.359224,59.960742" />
<polygon fill="#e6c2a7" fill-opacity="0.501961" points="136.004323,102.114054,128.478253,97.909326,142.878535,97.357138,136.862404,96.166638" />
<polygon fill="#deab7e" fill-opacity="0.501961" points="67.490849,116.948552,32.179894,137.600388,51.376146,134.351843,49.305391,118.521110" />
<polygon fill="#dea87c" fill-opacity="0.501961" points="145.841926,50.522065,129.768229,47.399603,147.964545,59.799970,142.505104,65.251045" />
<polygon fill="#ebf6ec" fill-opacity="0.501961" points="52.921892,62.484290,92.023082,41.416161,102.448227,44.127404,81.743387,59.842539" />
<polygon fill="#e7ddd2" fill-opacity="0.501961" points="50.863580,65.820609,77.108434,61.411351,41.974276,62.830867,70.764429,46.276756" />
<polygon fill="#e9dfd0" fill-opacity="0.501961" points="159.244446,57.568147,156.704903,59.091743,156.701023,63.949614,159.154941,60.527849" />
<polygon fill="#eff4e9" fill-opacity="0.501961" points="177.745786,87.434340,169.140892,100.582795,176.188868,83.968119,189.654558,71.679556" />
<polygon fill="#eedcb9" fill-opacity="0.501961" points="116.223985,57.981922,124.704702,55.955510,72.293525,59.067783,94.171015,60.779210" />
<polygon fill="#af7b54" fill-opacity="0.501961" points="115.050775,34.808667,134.676932,23.975497,127.169056,26.778640,130.408314,22.874458" />
<polygon fill="#8d6238" fill-opacity="0.501961" points="146.683612,38.511530,131.175012,34.239495,120.096851,30.849125,134.246618,38.690162" />
<polygon fill="#b6775b" fill-opacity="0.501961" points="135.819643,16.529149,130.999014,12.529302,107.200609,20.153198,102.475056,22.673407" />
<polygon fill="#e0a767" fill-opacity="0.501961" points="192.665925,89.805216,183.382676,104.073416,189.009488,91.848076,192.788146,87.580640" />
<polygon fill="#816337" fill-opacity="0.501961" points="17.964210,81.349764,-12.411336,83.386297,-14.132702,83.445958,22.287410,79.582544" />
<polygon fill="#7b4d2d" fill-opacity="0.501961" points="10.648913,-16.000000,-16.000000,27.214050,25.943546,20.489139,-16.000000,38.936977" />
<polygon fill="#2a2511" fill-opacity="0.501961" points="206.397767,79.976818,182.699416,109.735403,208.706711,72.584894,196.273316,91.899367" />
<polygon fill="#7e7957" fill-opacity="0.501961" points="185.227973,37.255043,188.174812,51.470064,185.153942,51.297224,182.452795,44.617710" />
<polygon fill="#f1c39e" fill-opacity="0.501961" points="62.556398,40.970129,62.292006,44.577558,99.155288,39.431314,80.660821,39.906614" />
<polygon fill="#79734e" fill-opacity="0.501961" points="76.552866,140.787331,89.054762,138.833887,128.206116,132.859121,66.007904,140.020239" />
<polygon fill="#d4ad7d" fill-opacity="0.501961" points="184.830694,64.878229,177.456011,64.935775,194.536779,64.461501,197.302606,61.114671" />
<polygon fill="#0b0b05" fill-opacity="0.501961" points="220.721780,71.465008,221.941362,73.766626,271.000000,33.605962,225.917657,67.946368" />
<polygon fill="#515833" fill-opacity="0.501961" points="125.840787,134.503369,126.921183,128.105162,129.564759,126.497238,154.519417,133.245216" />
<polygon fill="#4f5933" fill-opacity="0.501961" points="66.030212,141.313751,59.400508,153.029071,52.439771,157.589303,43.184042,144.014838" />
<polygon fill="#3f4524" fill-opacity="0.501961" points="177.757605,131.276323,156.674537,134.552623,129.981990,132.705023,143.704073,144.548111" />
<polygon fill="#2e2e19" fill-opacity="0.501961" points="119.210601,143.667961,143.425737,140.616454,122.969508,159.000000,103.187911,147.565317" />
<polygon fill="#68582f" fill-opacity="0.501961" points="7.866202,55.648069,18.647372,52.789923,35.996273,56.460021,44.352979,51.742511" />
<polygon fill="#3b3017" fill-opacity="0.501961" points="180.465400,67.590128,183.453608,66.271333,183.873620,67.766587,177.464457,79.021730" />
<polygon fill="#6d5432" fill-opacity="0.501961" points="81.707165,-16.000000,59.524076,-16.000000,83.906790,15.078026,59.978352,15.238085" />
<polygon fill="#191207" fill-opacity="0.501961" points="220.588195,-8.713596,220.746366,60.014532,210.508579,39.262388,220.139963,54.714317" />
<polygon fill="#f4fae7" fill-opacity="0.501961" points="184.896027,95.886735,184.631665,89.143109,180.977774,90.023818,191.985435,85.752603" />
<polygon fill="#be6745" fill-opacity="0.501961" points="167.508438,32.705333,162.294816,35.555682,159.687778,37.146572,168.580119,22.793836" />
<polygon fill="#6b5531" fill-opacity="0.501961" points="128.379324,33.258038,138.253382,30.803910,137.362697,29.364586,125.202385,31.167315" />
<polygon fill="#dfa075" fill-opacity="0.501961" points="41.927781,87.347557,44.040982,87.634651,74.818585,88.812739,49.175526,92.533765" />
<polygon fill="#dbbb99" fill-opacity="0.501961" points="212.995962,60.594939,210.224197,58.665980,209.058854,61.864487,214.886924,62.245789" />
<polygon fill="#ae754f" fill-opacity="0.501961" points="123.191227,56.446597,121.670012,58.023381,131.251309,63.318550,145.040391,56.926537" />
<polygon fill="#656d41" fill-opacity="0.501961" points="14.776381,135.871953,-16.000000,141.835033,28.545153,134.426009,-4.458707,127.237045" />
<polygon fill="#594223" fill-opacity="0.501961" points="165.300485,60.745649,154.407642,71.887337,154.212017,86.083837,162.725800,59.407882" />
<polygon fill="#b87e5f" fill-opacity="0.501961" points="99.784524,28.386663,107.370445,21.609250,74.395571,27.552716,72.087436,22.407367" />
<polygon fill="#d19266" fill-opacity="0.501961" points="32.216895,110.999602,-8.087076,116.266940,27.021772,108.944788,51.416637,104.412649" />
<polygon fill="#b2855c" fill-opacity="0.501961" points="90.251865,111.926498,116.378761,107.132297,104.800788,107.738499,83.809268,110.910034" />
<polygon fill="#7b784f" fill-opacity="0.501961" points="24.023462,95.839053,31.915466,99.110725,24.648705,109.634781,42.216651,97.352455" />
<polygon fill="#8e6a3f" fill-opacity="0.501961" points="176.412078,101.744231,169.514833,108.656754,178.889721,104.506473,189.684245,116.622255" />
<polygon fill="#767547" fill-opacity="0.501961" points="35.169427,114.773280,40.059360,115.019547,38.320070,118.658198,21.049521,123.282054" />
<polygon fill="#daaf90" fill-opacity="0.501961" points="48.340377,46.936737,47.013333,52.564424,48.900776,57.318635,57.342387,49.897736" />
<polygon fill="#97805e" fill-opacity="0.501961" points="181.105730,115.593645,166.867462,136.544916,188.219260,102.699376,179.631944,118.888045" />
<polygon fill="#ebac81" fill-opacity="0.501961" points="33.705566,111.088051,54.851241,107.697184,48.038221,106.007814,33.690025,108.669090" />
<polygon fill="#e4caac" fill-opacity="0.501961" points="85.015449,79.920971,115.003742,73.105233,110.620107,64.846282,121.398744,61.397660" />
<polygon fill="#4f2d19" fill-opacity="0.501961" points="181.868801,49.320627,173.555601,51.691871,187.299166,29.515984,174.534297,40.741259" />
<polygon fill="#c68d58" fill-opacity="0.501961" points="166.591755,64.211350,177.580191,55.087511,181.656990,54.852674,172.389230,60.898050" />
<polygon fill="#75472e" fill-opacity="0.501961" points="188.138457,30.321156,202.824040,29.409375,157.763323,32.634173,144.518312,35.312877" />
<polygon fill="#1a1106" fill-opacity="0.501961" points="223.592183,47.187659,205.841934,48.531421,197.505748,47.463807,202.192588,45.030838" />
<polygon fill="#e1b79e" fill-opacity="0.501961" points="121.708153,29.824943,130.658095,17.916795,135.723758,22.788384,126.012750,20.221439" />
<polygon fill="#596239" fill-opacity="0.501961" points="219.343485,43.798044,220.403470,42.561603,224.940693,42.325201,222.999739,40.328616" />
<polygon fill="#695e36" fill-opacity="0.501961" points="140.727477,113.345002,135.955759,110.680927,133.626858,114.195029,132.183167,108.957306" />
<polygon fill="#f7deaf" fill-opacity="0.501961" points="186.292260,94.990379,188.947714,87.305618,181.477524,106.980911,193.430324,82.694895" />
<polygon fill="#050601" fill-opacity="0.501961" points="213.730059,106.986105,200.105978,75.201763,203.460075,73.728724,197.752360,108.648115" />
<polygon fill="#7f958a" fill-opacity="0.501961" points="247.698399,73.520635,246.409217,70.998031,242.638365,72.532558,241.378094,69.753543" />
<polygon fill="#a9764c" fill-opacity="0.501961" points="25.188847,90.889434,43.588846,93.508870,44.594182,90.983620,26.226455,86.436914" />
<polygon fill="#412e16" fill-opacity="0.501961" points="180.890322,59.570368,180.145697,63.457960,170.265604,67.861538,166.646921,68.572611" />
<polygon fill="#846d45" fill-opacity="0.501961" points="152.386058,118.846572,172.042577,159.000000,150.767206,114.958196,135.734708,120.389959" />
<polygon fill="#5e552d" fill-opacity="0.501961" points="39.505103,72.882023,20.522533,89.481004,37.871881,68.547608,15.999868,67.343375" />
<polygon fill="#f7ae75" fill-opacity="0.501961" points="167.736603,4.446990,171.662714,5.368733,173.337248,-5.883979,182.893278,-6.362970" />
<polygon fill="#e3b183" fill-opacity="0.501961" points="106.609559,64.070031,96.663317,65.408600,97.931375,61.108333,101.479207,58.745822" />
<polygon fill="#f4c084" fill-opacity="0.501961" points="109.976169,125.676147,125.298044,125.162592,112.122943,128.942861,81.985897,130.094751" />
<polygon fill="#5f5122" fill-opacity="0.501961" points="218.304430,115.982335,217.247129,114.434785,195.184277,112.357342,222.766603,111.955247" />
<polygon fill="#d79560" fill-opacity="0.501961" points="42.755410,137.091433,84.102595,132.618044,44.208283,138.545403,0.802688,143.935418" />
<polygon fill="#e4b38d" fill-opacity="0.501961" points="153.049846,102.217474,142.874851,81.942667,149.239341,91.726806,142.898849,94.482681" />
<polygon fill="#edeee7" fill-opacity="0.501961" points="183.370299,95.577328,177.943295,118.249730,176.655110,108.710952,175.621379,116.203813" />
<polygon fill="#070703" fill-opacity="0.501961" points="248.911853,81.422232,271.000000,82.252824,218.024843,64.941845,235.320945,64.777071" />
<polygon fill="#364328" fill-opacity="0.501961" points="192.709751,139.650724,203.258933,136.384703,183.667129,129.447603,189.923378,142.602442" />
<polygon fill="#ecc69e" fill-opacity="0.501961" points="132.001371,93.145058,128.888939,87.301259,137.801973,82.678198,129.119171,93.206166" />
<polygon fill="#e1b992" fill-opacity="0.501961" points="190.802005,38.462420,193.061924,37.204557,189.742224,37.171507,188.976868,38.291291" />
<polygon fill="#ca9767" fill-opacity="0.501961" points="202.792995,67.013066,200.061826,52.047446,196.940029,62.924707,200.355124,58.791269" />
<polygon fill="#dea474" fill-opacity="0.501961" points="115.525952,68.684224,130.649578,77.408330,120.820443,67.357478,126.972473,86.228374" />
<polygon fill="#aea491" fill-opacity="0.501961" points="182.376718,129.195877,153.779344,124.767633,176.569479,127.615926,242.431120,137.136499" />
<polygon fill="#c17256" fill-opacity="0.501961" points="142.783570,10.772010,128.222371,-7.867387,144.111474,-16.000000,150.048240,5.152633" />
<polygon fill="#a38057" fill-opacity="0.501961" points="191.784926,53.423976,192.488862,55.533107,190.152140,58.161994,191.265109,31.128778" />
<polygon fill="#c9a989" fill-opacity="0.501961" points="165.077063,119.498550,173.010711,112.090905,165.999931,111.886678,175.079026,94.198294" />
<polygon fill="#090c03" fill-opacity="0.501961" points="247.131850,92.693611,244.442440,70.359703,243.002012,67.803186,244.723004,54.635970" />
</g>
</svg>