<svg xmlns="http://www.w3.org/2000/svg" version="1.1" width="360" height="202">
<rect x="0" y="0" width="360" height="202" fill="#886d4f" />
<g transform="scale(1.406250) translate(0.5 0.5)">
<polygon fill="#ffecc1" fill-opacity="0.501961" points="135.822800,125.982101,31.214001,141.837493,44.536373,36.883263,164.569120,38.576474" />
<polygon fill="#000000" fill-opacity="0.501961" points="202.563618,-16.000000,188.570409,159.000000,254.565506,159.000000,270.195981,-1.522903" />
<polygon fill="#fffacf" fill-opacity="0.501961" points="206.454799,37.074516,169.153528,90.565705,168.260631,135.678147,198.579675,76.022340" />
<polygon fill="#060000" fill-opacity="0.501961" points="249.861750,128.849540,216.105824,59.114188,122.267502,-16.000000,271.000000,1.802078" />
<polygon fill="#fffffe" fill-opacity="0.501961" points="132.312226,34.326453,50.348765,45.948411,53.557554,85.952613,100.816537,81.524355" />
<polygon fill="#352b04" fill-opacity="0.501961" points="-11.395215,59.327544,-9.257921,159.000000,37.418611,73.720458,25.799916,51.287303" />
<polygon fill="#000000" fill-opacity="0.501961" points="184.735348,110.405578,249.905502,112.072755,271.000000,77.671955,207.730648,68.154461" />
<polygon fill="#eb815b" fill-opacity="0.501961" points="148.633336,-0.049394,140.226412,-16.000000,67.532082,39.942044,157.310285,34.499394" />
<polygon fill="#fff1ce" fill-opacity="0.501961" points="139.183145,104.156306,190.472920,90.214503,177.904787,43.268681,198.027136,69.282771" />
<polygon fill="#3b6845" fill-opacity="0.501961" points="268.254687,106.321413,271.000000,130.656530,201.447153,147.878987,58.804152,149.832029" />
<polygon fill="#341f00" fill-opacity="0.501961" points="151.522097,61.561355,151.706290,87.138672,173.861736,88.299436,185.977133,61.601353" />
<polygon fill="#954427" fill-opacity="0.501961" points="189.228824,-12.981860,126.047050,34.494459,163.413084,53.279141,199.387300,46.496009" />
<polygon fill="#da9363" fill-opacity="0.501961" points="129.330247,117.915187,196.734509,116.514256,-3.434989,147.559679,174.181318,16.757190" />
<polygon fill="#f7fbe8" fill-opacity="0.501961" points="13.897475,66.615695,82.899198,62.931103,144.461815,45.670636,94.274920,39.809901" />
<polygon fill="#4a4722" fill-opacity="0.501961" points="123.496323,109.208684,182.008658,105.170100,103.724823,145.409840,203.334650,159.000000" />
<polygon fill="#90532d" fill-opacity="0.501961" points="122.384297,5.172134,70.383299,39.006718,-9.853126,47.058080,-13.595879,8.160349" />
<polygon fill="#e6b586" fill-opacity="0.501961" points="158.445130,60.469811,132.999491,61.778819,205.457674,48.256473,217.379832,60.352358" />
<polygon fill="#f4bd90" fill-opacity="0.501961" points="105.846095,105.048780,186.023124,101.954699,201.799880,76.428107,175.497846,82.786298" />
<polygon fill="#e2b193" fill-opacity="0.501961" points="-5.786122,47.021913,51.894924,40.864771,51.261806,117.960060,58.670967,53.241430" />
<polygon fill="#617b63" fill-opacity="0.501961" points="271.000000,125.635572,244.170912,139.150236,185.471259,131.212788,271.000000,106.320210" />
<polygon fill="#e9a876" fill-opacity="0.501961" points="77.503743,105.426444,44.302410,105.894948,-13.441759,113.358510,3.196932,117.329139" />
<polygon fill="#feedd2" fill-opacity="0.501961" points="172.641187,131.497752,199.306876,60.438145,183.343744,54.303306,184.470859,72.311170" />
<polygon fill="#907c4f" fill-opacity="0.501961" points="228.030563,58.456837,217.766014,80.121176,216.742427,61.031368,232.834259,42.569351" />
<polygon fill="#000000" fill-opacity="0.501961" points="254.381920,-16.000000,199.228954,46.741484,271.000000,31.921346,258.997870,34.251707" />
<polygon fill="#1d1805" fill-opacity="0.501961" points="168.134540,10.427824,180.815701,16.524857,143.401463,14.753128,162.654211,-6.620292" />
<polygon fill="#d08667" fill-opacity="0.501961" points="165.105502,26.588425,-5.443151,30.400173,116.874143,19.019016,121.035035,-16.000000" />
<polygon fill="#000000" fill-opacity="0.501961" points="244.082175,110.742986,185.060085,106.995583,216.514404,62.936974,205.484243,68.349926" />
<polygon fill="#000000" fill-opacity="0.501961" points="203.662841,145.146792,266.867864,133.130695,271.000000,159.000000,218.519782,159.000000" />
<polygon fill="#508d83" fill-opacity="0.501961" points="271.000000,80.209611,271.000000,34.354650,241.037953,76.510994,238.945902,66.731292" />
<polygon fill="#9d7951" fill-opacity="0.501961" points="49.982570,66.753166,9.274997,61.007049,35.715235,73.440016,33.219845,157.513031" />
<polygon fill="#2d3a1b" fill-opacity="0.501961" points="180.182533,111.015503,208.519467,124.283830,118.926785,143.456315,200.876779,159.000000" />
<polygon fill="#f2d0ab" fill-opacity="0.501961" points="34.632486,82.138146,76.345368,91.436965,127.417928,65.910200,98.009981,54.604220" />
<polygon fill="#f4b979" fill-opacity="0.501961" points="180.919575,-10.354183,165.491145,-16.000000,178.807247,8.698211,165.582495,7.500081" />
<polygon fill="#4d2011" fill-opacity="0.501961" points="214.724280,-16.000000,194.748051,53.088706,178.217166,-8.886554,173.512330,54.358028" />
<polygon fill="#3b2d11" fill-opacity="0.501961" points="46.443643,68.366828,-15.653918,70.573958,33.356032,102.200562,-16.000000,109.176928" />
<polygon fill="#c09972" fill-opacity="0.501961" points="175.584747,101.621510,175.886887,108.513578,126.453385,124.825307,176.037778,132.155576" />
<polygon fill="#e8b892" fill-opacity="0.501961" points="148.778636,64.488292,153.550457,132.920439,137.877288,61.965361,162.156967,38.158364" />
<polygon fill="#c38255" fill-opacity="0.501961" points="120.387093,62.937593,96.525542,62.111697,134.927139,50.045285,173.203572,62.821963" />
<polygon fill="#4a4221" fill-opacity="0.501961" points="153.806137,40.147904,153.701553,32.602053,142.969932,36.787092,152.838916,50.855087" />
<polygon fill="#6f5932" fill-opacity="0.501961" points="221.265848,60.081303,191.594759,77.541164,207.124533,32.785364,163.630212,45.076140" />
<polygon fill="#233e13" fill-opacity="0.501961" points="22.752132,122.198681,31.212281,113.696202,3.480564,120.707093,-16.000000,132.256206" />
<polygon fill="#7e613c" fill-opacity="0.501961" points="123.609735,122.341648,180.789393,98.391970,172.762758,121.318781,140.855865,100.544021" />
<polygon fill="#6a5331" fill-opacity="0.501961" points="39.870591,41.757892,70.971995,38.605692,49.919681,3.600624,123.840501,-14.743872" />
<polygon fill="#f6e2c2" fill-opacity="0.501961" points="190.156601,81.961681,178.491782,51.224511,163.277176,58.941048,192.519361,54.652806" />
<polygon fill="#000000" fill-opacity="0.501961" points="218.728897,66.087322,267.049746,44.390820,222.997500,50.759218,243.297195,73.379495" />
<polygon fill="#483a1d" fill-opacity="0.501961" points="185.428923,73.287928,164.965583,89.852063,149.151880,75.933693,172.784490,62.517949" />
<polygon fill="#f2f6ea" fill-opacity="0.501961" points="171.965748,100.809824,166.603167,96.702170,184.103852,73.464246,187.148116,75.324331" />
<polygon fill="#3e6837" fill-opacity="0.501961" points="-9.227701,137.462201,6.985991,138.974307,34.012949,130.705955,-13.424567,129.329950" />
<polygon fill="#ecece0" fill-opacity="0.501961" points="177.489670,119.867932,169.109723,136.972641,171.877695,123.397427,192.917800,70.003121" />
<polygon fill="#798963" fill-opacity="0.501961" points="196.751008,111.079174,218.265670,114.447706,143.576124,125.713056,147.227896,134.368747" />
<polygon fill="#effbee" fill-opacity="0.501961" points="68.906184,43.642188,48.039099,63.576136,110.982724,54.744301,122.451752,35.890623" />
<polygon fill="#af412b" fill-opacity="0.501961" points="159.543139,16.634951,166.352644,56.511336,190.387108,-16.000000,188.475397,19.855116" />
<polygon fill="#c59870" fill-opacity="0.501961" points="11.841242,99.210527,75.620875,62.863587,86.392113,67.892662,56.412985,64.435160" />
<polygon fill="#baa188" fill-opacity="0.501961" points="227.879021,133.786314,246.982816,138.208708,125.979696,121.518625,186.573958,128.757553" />
<polygon fill="#f0cca0" fill-opacity="0.501961" points="134.034860,71.010280,145.330217,79.581363,156.382869,33.239824,160.421550,45.366441" />
<polygon fill="#d0c3a4" fill-opacity="0.501961" points="157.027802,33.290226,134.680317,34.748126,158.867558,28.482984,152.714682,59.402584" />
<polygon fill="#140e00" fill-opacity="0.501961" points="204.045636,52.769159,199.689771,101.577698,208.184738,54.132888,203.918076,55.683066" />
<polygon fill="#feb175" fill-opacity="0.501961" points="140.257568,125.285228,186.301063,115.799938,95.291668,125.661959,80.296731,132.133824" />
<polygon fill="#c38e67" fill-opacity="0.501961" points="156.001813,98.633070,97.064624,129.354221,113.072394,89.403281,26.994972,107.656912" />
<polygon fill="#f7cd9e" fill-opacity="0.501961" points="152.199580,50.276364,129.467842,37.403810,93.252671,71.736676,122.422613,53.049548" />
<polygon fill="#5a6042" fill-opacity="0.501961" points="234.226999,56.121455,271.000000,80.839281,217.614545,39.891956,233.307330,41.935452" />
<polygon fill="#000000" fill-opacity="0.501961" points="268.025399,132.407005,201.464494,146.359574,261.798342,159.000000,265.824390,133.515801" />
<polygon fill="#1c0c00" fill-opacity="0.501961" points="200.012235,47.052302,202.306497,31.454445,211.117613,-13.293426,215.995106,56.576847" />
<polygon fill="#ddaa80" fill-opacity="0.501961" points="215.781049,59.693335,198.085698,48.049030,213.936473,54.695270,208.071796,63.883853" />
<polygon fill="#be9979" fill-opacity="0.501961" points="62.824850,39.212855,39.538052,68.107118,11.918363,63.024514,35.878589,58.299403" />
<polygon fill="#888758" fill-opacity="0.501961" points="124.311685,128.244936,78.239119,133.951022,-16.000000,147.703088,126.860672,141.030768" />
<polygon fill="#ab9e7c" fill-opacity="0.501961" points="179.961463,56.846160,186.445122,39.833653,197.574761,38.850888,181.942028,34.876096" />
<polygon fill="#060300" fill-opacity="0.501961" points="238.849937,68.141690,218.286522,60.024172,268.709647,107.274844,186.319415,109.058729" />
<polygon fill="#707243" fill-opacity="0.501961" points="31.370621,122.064864,-3.538041,115.288866,53.967344,113.162441,40.886022,120.048339" />
<polygon fill="#dba279" fill-opacity="0.501961" points="92.311448,89.114621,34.758519,82.860264,34.245244,88.242713,76.907858,129.245533" />
<polygon fill="#ddaa74" fill-opacity="0.501961" points="199.316865,48.139606,205.739122,51.506653,168.999522,118.652554,194.841881,62.240747" />
<polygon fill="#374122" fill-opacity="0.501961" points="180.868979,126.165565,193.376819,128.837837,229.325350,134.546349,186.328398,116.024604" />
<polygon fill="#864b27" fill-opacity="0.501961" points="9.822622,43.581595,104.095112,35.700813,-6.189773,31.408705,-7.204774,97.146843" />
<polygon fill="#010300" fill-opacity="0.501961" points="221.137281,-16.000000,247.383405,62.160323,252.399618,64.672501,262.325522,10.232558" />
<polygon fill="#edc1a1" fill-opacity="0.501961" points="27.604845,47.086579,135.823327,37.157049,128.457025,36.700243,12.234248,44.253962" />
<polygon fill="#bd6e45" fill-opacity="0.501961" points="-3.927713,25.001662,1.214169,12.779844,23.872009,4.068018,25.137244,18.150610" />
<polygon fill="#492312" fill-opacity="0.501961" points="187.642154,30.827283,168.386482,59.817345,183.135442,17.172698,256.070970,18.203339" />
<polygon fill="#fcfbe2" fill-opacity="0.501961" points="179.738137,51.781309,165.793349,58.163575,182.068512,53.415321,184.674465,48.061975" />
<polygon fill="#3a4827" fill-opacity="0.501961" points="122.040950,129.871785,161.078227,159.000000,154.219847,140.918310,148.585627,124.824922" />
<polygon fill="#493116" fill-opacity="0.501961" points="-10.966480,58.245945,43.009350,51.508853,11.455039,64.123257,21.142887,62.950799" />
<polygon fill="#b6734d" fill-opacity="0.501961" points="132.361131,53.547946,114.540508,65.381856,166.462814,55.580841,155.249422,54.095869" />
<polygon fill="#a4753a" fill-opacity="0.501961" points="202.554886,57.065221,199.062432,85.494943,192.354262,90.184813,197.825647,68.034322" />
<polygon fill="#8b784f" fill-opacity="0.501961" points="59.711289,61.838145,15.699540,97.394240,51.406563,103.589865,27.602321,79.543835" />
<polygon fill="#dea481" fill-opacity="0.501961" points="139.008722,22.006963,119.746265,28.242243,131.127738,13.033521,136.929439,2.467657" />
<polygon fill="#e6c5a8" fill-opacity="0.501961" points="156.520044,65.077798,161.183723,65.423206,157.042155,36.710420,155.487893,42.488506" />
<polygon fill="#ccb093" fill-opacity="0.501961" points="166.747557,121.540696,166.195241,106.724948,181.937487,122.136547,185.071847,106.537194" />
<polygon fill="#7f7855" fill-opacity="0.501961" points="223.398677,78.208177,218.117650,63.044907,218.554716,62.861707,215.004927,79.046874" />
<polygon fill="#475d34" fill-opacity="0.501961" points="51.921681,139.727216,67.873490,139.533876,69.498266,142.829541,19.509930,159.000000" />
<polygon fill="#201b0e" fill-opacity="0.501961" points="168.731958,17.287158,184.789492,15.417293,178.477178,14.635519,171.544329,4.639352" />
<polygon fill="#ebdfca" fill-opacity="0.501961" points="116.999009,74.581090,79.984801,63.693163,42.787042,85.923672,64.963530,82.475488" />
<polygon fill="#d4b089" fill-opacity="0.501961" points="114.114398,108.900021,27.748047,123.051771,9.741950,128.657530,58.427139,125.103187" />
<polygon fill="#0b0a00" fill-opacity="0.501961" points="184.134869,102.289861,204.100872,89.414471,217.565407,53.514576,215.445430,96.706257" />
<polygon fill="#c07b55" fill-opacity="0.501961" points="139.555589,81.709250,75.860731,88.742485,142.536062,74.530921,144.210494,109.930954" />
<polygon fill="#483c20" fill-opacity="0.501961" points="161.498535,104.806848,155.318842,119.077301,169.415159,105.001863,176.984438,112.436908" />
<polygon fill="#f9dac0" fill-opacity="0.501961" points="145.629513,96.540641,146.684188,74.584292,149.590822,72.614430,150.463593,90.877148" />
<polygon fill="#565c3d" fill-opacity="0.501961" points="185.199137,41.294821,198.351193,37.134819,193.907528,56.025704,186.587352,52.061611" />
<polygon fill="#d9b88d" fill-opacity="0.501961" points="200.889341,49.490309,187.269621,63.331190,213.426985,55.118808,213.845520,65.301154" />
<polygon fill="#646445" fill-opacity="0.501961" points="216.181639,34.844501,219.717632,43.099398,220.018701,45.511396,217.034745,46.262801" />
<polygon fill="#6f532e" fill-opacity="0.501961" points="149.038571,75.408674,157.547210,62.274352,150.482632,129.602414,152.131134,85.032753" />
<polygon fill="#408e9e" fill-opacity="0.501961" points="252.645136,56.053064,271.000000,62.112524,251.052568,65.336267,263.229026,90.351130" />
<polygon fill="#f2f5e7" fill-opacity="0.501961" points="169.667768,132.167227,175.744424,115.418735,179.067334,100.367982,194.881915,77.007507" />
<polygon fill="#dda56f" fill-opacity="0.501961" points="174.606077,-7.366703,168.459494,14.876366,168.227359,-11.248243,168.413035,2.844726" />
<polygon fill="#f4b579" fill-opacity="0.501961" points="12.833922,140.711216,91.810928,131.800377,127.383350,124.305703,37.902205,132.817641" />
<polygon fill="#f3c5a2" fill-opacity="0.501961" points="121.757701,86.648014,136.761322,82.353423,133.027423,109.248725,138.438478,96.773514" />
<polygon fill="#6f6b42" fill-opacity="0.501961" points="131.835214,35.690266,143.271350,29.078749,136.866465,25.713412,122.396197,32.338133" />
<polygon fill="#d77153" fill-opacity="0.501961" points="148.808839,-16.000000,139.691893,23.201766,141.843400,47.517232,148.883799,15.446367" />
<polygon fill="#523d20" fill-opacity="0.501961" points="152.529329,66.641369,151.387382,61.694499,169.898261,68.232020,150.395387,97.380104" />
<polygon fill="#e3a97d" fill-opacity="0.501961" points="163.186983,103.849455,175.436281,86.360213,152.221442,90.794340,156.593278,100.892025" />
<polygon fill="#000200" fill-opacity="0.501961" points="250.483773,68.268700,230.192156,111.221850,243.632561,109.675562,269.024110,110.291625" />
<polygon fill="#5e7b67" fill-opacity="0.501961" points="218.484758,142.025994,267.891861,110.332595,241.051150,111.329805,265.315548,131.301287" />
<polygon fill="#af643d" fill-opacity="0.501961" points="88.297868,39.947171,121.353760,32.666548,66.328025,32.149667,50.328485,39.611487" />
<polygon fill="#f0f0db" fill-opacity="0.501961" points="185.173087,67.558202,195.211870,58.548551,176.165421,54.882219,182.395677,48.501119" />
<polygon fill="#6b3019" fill-opacity="0.501961" points="181.273342,50.535428,180.445551,34.426869,162.960950,49.693318,160.263304,55.682873" />
<polygon fill="#070400" fill-opacity="0.501961" points="216.195463,53.933616,230.283047,34.944986,232.339711,-11.546222,226.938242,55.216636" />
<polygon fill="#946d3f" fill-opacity="0.501961" points="204.739301,50.699331,198.509675,55.986557,228.805059,57.433895,227.000522,62.493713" />
<polygon fill="#dc9c61" fill-opacity="0.501961" points="181.384542,99.116716,181.983197,102.391412,181.576119,87.559861,163.543501,112.774422" />
<polygon fill="#525735" fill-opacity="0.501961" points="190.742229,137.376675,154.596119,148.468951,181.363191,96.008370,167.309142,131.061826" />
<polygon fill="#e9ba8c" fill-opacity="0.501961" points="98.217803,84.738508,123.755755,54.805605,52.405114,67.605111,143.812452,63.813708" />
<polygon fill="#302711" fill-opacity="0.501961" points="173.841447,-16.000000,155.305460,-16.000000,147.488006,13.192439,164.866308,14.636674" />
<polygon fill="#b38e66" fill-opacity="0.501961" points="99.784494,116.104225,-15.126531,142.982463,111.897589,122.528695,134.141660,112.043898" />
<polygon fill="#1e1307" fill-opacity="0.501961" points="214.754698,43.199535,212.398280,111.346424,243.663812,80.481096,217.554868,81.584795" />
<polygon fill="#a07b44" fill-opacity="0.501961" points="193.700314,71.891684,203.356671,69.569300,182.228502,105.283934,199.516509,85.846372" />
<polygon fill="#22230c" fill-opacity="0.501961" points="166.388965,104.262859,157.301044,111.267738,157.422771,110.722982,164.271030,114.515980" />
<polygon fill="#0f0d02" fill-opacity="0.501961" points="176.315217,1.369512,161.006502,-16.000000,182.624229,-8.921132,178.832230,17.257376" />
<polygon fill="#7a4424" fill-opacity="0.501961" points="-16.000000,23.061374,20.874924,43.045840,-16.000000,37.970906,34.146928,23.411977" />
<polygon fill="#e4b590" fill-opacity="0.501961" points="148.483717,99.115916,134.977548,94.816594,118.976187,133.754823,122.952615,107.870567" />
<polygon fill="#f3a96f" fill-opacity="0.501961" points="167.895108,4.985363,177.045847,8.270119,174.419785,-2.643581,183.707651,-14.054649" />
<polygon fill="#6b2415" fill-opacity="0.501961" points="190.960161,34.033845,181.139636,39.100573,196.699548,-12.461895,207.300081,-8.123770" />
<polygon fill="#a77347" fill-opacity="0.501961" points="164.241242,90.583697,149.110119,90.278880,172.950532,89.773744,179.788834,71.872763" />
<polygon fill="#535b2e" fill-opacity="0.501961" points="13.625968,84.474390,32.627478,99.290374,40.540573,100.402822,19.489767,108.663659" />
<polygon fill="#020500" fill-opacity="0.501961" points="231.920733,73.922788,215.921816,64.463906,256.249175,54.118899,255.086540,38.548878" />
<polygon fill="#c45d42" fill-opacity="0.501961" points="140.937756,29.362307,174.411267,17.924241,149.489860,14.425619,149.695709,-0.331178" />
<polygon fill="#a66d4c" fill-opacity="0.501961" points="118.518966,17.459416,70.328509,35.811443,97.762465,12.300848,122.202301,-16.000000" />
<polygon fill="#786741" fill-opacity="0.501961" points="-16.000000,66.812326,15.203452,69.229936,47.208104,49.734989,26.727207,58.885275" />
<polygon fill="#969f8d" fill-opacity="0.501961" points="243.392342,71.405186,239.417366,71.144555,238.807923,68.727701,244.083100,67.290627" />
<polygon fill="#b6906b" fill-opacity="0.501961" points="59.157616,52.002401,33.508339,60.756075,57.067076,43.813761,-8.789549,52.771500" />
<polygon fill="#ae845b" fill-opacity="0.501961" points="165.913675,130.235669,143.232077,110.995318,145.437583,127.187536,157.364674,110.483682" />
<polygon fill="#f1f9e7" fill-opacity="0.501961" points="126.723821,36.577660,112.831443,54.535778,125.693764,51.989368,75.728105,43.969525" />
<polygon fill="#964229" fill-opacity="0.501961" points="181.034236,15.125679,161.589521,36.379704,163.287224,56.126678,172.648490,54.126528" />
<polygon fill="#634c2a" fill-opacity="0.501961" points="68.664784,19.915965,3.742167,27.586897,77.506104,21.699203,66.753335,-16.000000" />
<polygon fill="#2c3213" fill-opacity="0.501961" points="7.697384,133.830141,-11.265221,136.729148,21.024698,117.057397,-14.113584,120.802145" />
<polygon fill="#eadcc2" fill-opacity="0.501961" points="108.264823,63.379257,125.384428,67.031975,101.991184,70.598349,120.493122,33.012320" />
<polygon fill="#b17f55" fill-opacity="0.501961" points="90.499615,111.326629,83.648801,108.331019,160.267115,101.528748,114.521187,108.707502" />
<polygon fill="#412512" fill-opacity="0.501961" points="3.939770,86.013021,-16.000000,73.978864,45.474187,71.862613,-0.480756,82.450130" />
<polygon fill="#e3a97f" fill-opacity="0.501961" points="21.945975,112.150885,56.806866,111.548131,87.642447,102.850817,33.707516,106.934332" />
<polygon fill="#8a7957" fill-opacity="0.501961" points="231.921827,45.627004,231.965886,43.358651,215.099699,43.752755,216.274645,40.885182" />
<polygon fill="#ab7c5a" fill-opacity="0.501961" points="40.740553,31.296556,82.590176,22.219686,17.243514,27.494714,9.346978,33.472410" />
<polygon fill="#0a0901" fill-opacity="0.501961" points="180.438082,108.490968,202.203483,92.834996,198.664588,73.955163,232.309227,109.885884" />
<polygon fill="#483a1e" fill-opacity="0.501961" points="183.368668,75.013387,162.848176,84.664842,169.519874,62.989263,182.947212,59.074875" />
<polygon fill="#f2f4e7" fill-opacity="0.501961" points="187.683742,67.254611,194.720221,66.653469,170.093267,98.429083,186.238898,66.920815" />
<polygon fill="#11180a" fill-opacity="0.501961" points="212.470844,32.291236,238.643931,69.916086,244.726461,58.827799,260.737726,89.834607" />
<polygon fill="#d3b997" fill-opacity="0.501961" points="162.072088,30.853257,117.008807,36.912482,152.736135,30.865380,162.061209,29.576438" />
<polygon fill="#b3865e" fill-opacity="0.501961" points="32.688943,80.879290,24.342469,86.409560,45.265893,107.898349,56.195213,100.062141" />
<polygon fill="#19210e" fill-opacity="0.501961" points="5.332502,104.818159,29.009788,99.388467,13.106423,99.008452,-16.000000,104.501892" />
<polygon fill="#ead7bb" fill-opacity="0.501961" points="176.515941,118.069684,173.348723,131.870436,168.285671,129.228783,196.978967,74.914661" />
<polygon fill="#b88b61" fill-opacity="0.501961" points="177.135047,104.295110,118.210309,104.521375,152.581908,99.839084,196.056323,113.645169" />
<polygon fill="#edb981" fill-opacity="0.501961" points="188.622931,83.164380,183.305244,70.989381,196.433838,76.437357,196.715385,86.724999" />
<polygon fill="#876635" fill-opacity="0.501961" points="-16.000000,80.681792,-16.000000,102.443240,-7.998817,84.848461,22.223138,80.018621" />
<polygon fill="#363b1e" fill-opacity="0.501961" points="87.861305,144.651245,168.519467,140.619830,168.969700,128.369741,127.508334,159.000000" />
<polygon fill="#8c784e" fill-opacity="0.501961" points="218.394158,82.948196,223.329644,57.702900,218.112578,61.730687,218.709542,54.798962" />
<polygon fill="#eadcc6" fill-opacity="0.501961" points="154.856560,61.100396,170.515515,55.841119,170.492042,57.315965,157.770878,56.913992" />
<polygon fill="#886f4f" fill-opacity="0.501961" points="36.699180,23.285251,9.816890,8.811216,70.251642,-16.000000,48.021700,22.725800" />
<polygon fill="#f0d4af" fill-opacity="0.501961" points="158.167564,91.256046,153.755094,91.741560,152.344758,93.579757,162.848772,100.756303" />
<polygon fill="#6e522e" fill-opacity="0.501961" points="150.659891,44.238456,161.000720,32.088914,143.391367,39.864627,150.301613,48.614929" />
<polygon fill="#f4fdee" fill-opacity="0.501961" points="191.402591,85.562290,179.212714,84.428955,189.071392,83.602558,171.908646,125.184560" />
<polygon fill="#060100" fill-opacity="0.501961" points="227.233961,71.359952,237.323017,28.926405,234.449158,81.600051,219.269441,81.930896" />
<polygon fill="#b16c46" fill-opacity="0.501961" points="154.062672,61.661843,162.700859,68.007279,146.677587,60.697592,164.595186,45.505140" />
<polygon fill="#444420" fill-opacity="0.501961" points="140.768839,115.755044,141.346077,105.859988,146.820637,109.273517,149.856688,109.269658" />
<polygon fill="#b29a7d" fill-opacity="0.501961" points="154.435796,126.859010,159.187606,126.763250,205.973643,131.629644,141.084883,121.297769" />
<polygon fill="#7c8357" fill-opacity="0.501961" points="-0.360290,130.938078,24.316014,119.844850,16.289175,138.055255,47.929332,127.031513" />
<polygon fill="#3a4c2d" fill-opacity="0.501961" points="175.827758,125.110769,224.099496,131.920754,232.098203,129.883637,227.840495,110.820225" />
<polygon fill="#ca875b" fill-opacity="0.501961" points="128.475960,101.130095,126.291306,99.152970,135.961749,63.664175,129.564584,41.155260" />
<polygon fill="#f1c191" fill-opacity="0.501961" points="153.692637,65.094347,143.908851,59.447753,132.694178,66.086781,137.997486,76.137897" />
<polygon fill="#444425" fill-opacity="0.501961" points="254.128365,35.655112,225.471849,53.562037,237.796298,40.920655,252.450523,41.412090" />
<polygon fill="#aa5136" fill-opacity="0.501961" points="134.901842,3.320044,197.912180,-16.000000,181.558456,15.683284,179.996478,-10.125418" />
<polygon fill="#88714a" fill-opacity="0.501961" points="228.820410,55.600692,220.772393,54.104910,221.421787,60.392327,231.433497,60.302565" />
<polygon fill="#4f7462" fill-opacity="0.501961" points="241.075751,58.717431,243.259976,57.387331,247.876801,67.440534,265.120636,73.754267" />
<polygon fill="#4a3319" fill-opacity="0.501961" points="22.987870,60.305724,36.042933,56.721755,35.733670,54.529755,-15.392865,55.893873" />
<polygon fill="#dd8e5b" fill-opacity="0.501961" points="169.214091,97.840511,159.250877,83.851410,158.696097,92.335066,166.563071,98.802657" />
<polygon fill="#b7875f" fill-opacity="0.501961" points="91.571141,96.220837,127.186346,96.179589,81.669205,103.228359,68.348598,104.434757" />
<polygon fill="#b28157" fill-opacity="0.501961" points="177.548423,7.829615,177.381727,11.475406,176.200260,16.121033,171.873935,0.856292" />
<polygon fill="#130e04" fill-opacity="0.501961" points="210.664680,17.672542,217.167104,56.038614,196.739599,45.914294,226.596580,33.262745" />
<polygon fill="#f5f1db" fill-opacity="0.501961" points="172.147017,100.965956,171.072023,98.330398,164.623429,91.023732,177.095239,93.291567" />
<polygon fill="#e2c3ac" fill-opacity="0.501961" points="26.969715,65.902501,69.521864,49.738470,50.100009,49.649159,47.193359,64.623495" />
<polygon fill="#edc59c" fill-opacity="0.501961" points="160.573382,53.509683,159.604271,43.000846,141.657557,54.919520,122.189641,35.726914" />
<polygon fill="#9b8761" fill-opacity="0.501961" points="63.569784,151.833215,108.846577,139.486158,111.126406,130.495392,85.429406,134.016759" />
<polygon fill="#878d7b" fill-opacity="0.501961" points="271.000000,128.493855,237.064333,138.381728,200.079805,131.018640,247.345747,136.028270" />
<polygon fill="#e4ab77" fill-opacity="0.501961" points="122.043913,136.309093,112.163478,118.907040,15.270170,142.815033,123.602950,124.919082" />
<polygon fill="#61563b" fill-opacity="0.501961" points="167.919927,104.981985,168.755895,104.583864,174.615463,119.227410,175.585853,108.619915" />
<polygon fill="#654719" fill-opacity="0.501961" points="38.153830,93.444314,20.079703,89.952787,-16.000000,77.438847,-15.057210,97.261224" />
<polygon fill="#deaf89" fill-opacity="0.501961" points="183.958693,116.825522,180.942553,123.986410,175.012844,116.466142,162.714958,122.306619" />
<polygon fill="#dfc2a8" fill-opacity="0.501961" points="113.393040,51.551234,122.739297,22.792534,132.448956,18.881760,120.877949,29.417951" />
<polygon fill="#e0af87" fill-opacity="0.501961" points="50.538429,122.140212,77.539012,119.886528,141.948668,105.002437,93.258130,111.596899" />
<polygon fill="#f5f0db" fill-opacity="0.501961" points="180.284690,58.368120,196.503111,56.692931,194.232912,60.087641,183.807544,63.791477" />
<polygon fill="#362715" fill-opacity="0.501961" points="221.675477,86.915659,212.581836,84.007716,271.000000,83.159189,271.000000,78.857766" />
<polygon fill="#7f5833" fill-opacity="0.501961" points="64.705823,39.417137,80.268846,27.638024,74.369988,26.467860,-5.442647,44.677182" />
<polygon fill="#381a0e" fill-opacity="0.501961" points="209.839619,35.299185,209.428971,-4.208264,194.616567,-10.779646,200.053209,46.631168" />
<polygon fill="#35270d" fill-opacity="0.501961" points="203.047968,67.540492,202.063054,66.170726,204.472326,54.670234,209.454984,59.892612" />
<polygon fill="#82815e" fill-opacity="0.501961" points="162.044862,132.660773,158.672573,133.655507,126.847882,125.862136,166.998563,126.430690" />
<polygon fill="#364527" fill-opacity="0.501961" points="215.075796,134.697525,201.367668,139.354962,188.438781,152.063914,179.156761,129.794679" />
</g>
</svg>