<svg xmlns="http://www.w3.org/2000/svg" version="1.1" width="360" height="202">
<rect x="0" y="0" width="360" height="202" fill="#886d4f" />
<g transform="scale(1.406250) translate(0.5 0.5)">
<polygon fill="#ffefc4" fill-opacity="0.501961" points="133.694313,125.683499,160.973786,41.061618,45.168799,36.448058,30.710328,141.549968" />
<polygon fill="#000000" fill-opacity="0.501961" points="200.076824,-11.637556,190.427415,159.000000,258.269903,159.000000,260.419164,-16.000000" />
<polygon fill="#ffffd4" fill-opacity="0.501961" points="171.733170,128.035294,165.603102,93.347517,202.031797,44.144870,196.812498,82.991271" />
<polygon fill="#fffffc" fill-opacity="0.501961" points="99.290511,80.053544,135.852346,34.781887,53.182143,43.193649,55.718067,87.917294" />
<polygon fill="#060000" fill-opacity="0.501961" points="258.607690,-13.896464,113.240028,-16.000000,199.640246,38.966830,263.759683,134.003540" />
<polygon fill="#322700" fill-opacity="0.501961" points="-2.548590,148.731662,-16.000000,56.190077,23.488729,53.263524,34.683606,75.979175" />
<polygon fill="#000000" fill-opacity="0.501961" points="253.493364,111.015831,180.147981,109.962027,208.104787,71.351157,271.000000,75.266587" />
<polygon fill="#e58d65" fill-opacity="0.501961" points="244.754422,59.194614,169.812318,60.579475,140.787692,-16.000000,77.912633,34.102143" />
<polygon fill="#3b6844" fill-opacity="0.501961" points="271.000000,135.167230,42.202892,159.000000,199.540255,116.966696,269.529190,107.898611" />
<polygon fill="#dc9665" fill-opacity="0.501961" points="124.860605,47.810302,166.057657,100.799798,98.780693,131.920768,3.562262,144.414787" />
<polygon fill="#231500" fill-opacity="0.501961" points="151.354158,92.141639,154.892896,64.205910,182.052138,60.819642,183.857206,75.402274" />
<polygon fill="#ffffe3" fill-opacity="0.501961" points="196.288774,61.715516,177.027513,50.025328,184.099845,62.357146,174.229177,130.099031" />
<polygon fill="#892c15" fill-opacity="0.501961" points="161.276062,55.823622,174.161907,54.081325,209.046404,11.575813,170.227185,-12.215820" />
<polygon fill="#f7fced" fill-opacity="0.501961" points="69.419032,65.015743,18.656960,65.564064,97.861351,37.477712,135.993381,37.031281" />
<polygon fill="#8a502a" fill-opacity="0.501961" points="-16.000000,30.231632,-6.723976,45.417688,90.283671,38.739030,92.076036,-8.019518" />
<polygon fill="#5b4f2a" fill-opacity="0.501961" points="172.755990,104.015571,130.220233,108.247363,124.996190,120.367650,177.227366,112.568385" />
<polygon fill="#1e2f14" fill-opacity="0.501961" points="128.693515,140.438099,128.140400,128.908941,271.000000,141.720124,37.249379,159.000000" />
<polygon fill="#dcaf88" fill-opacity="0.501961" points="176.734263,91.188611,128.424447,82.613544,180.908703,132.902587,144.919227,124.027810" />
<polygon fill="#62816b" fill-opacity="0.501961" points="271.000000,130.501259,195.165331,147.381208,235.944398,117.264026,271.000000,103.380400" />
<polygon fill="#483819" fill-opacity="0.501961" points="59.045127,66.448397,-13.615904,103.565388,44.214378,105.953119,-16.000000,71.564469" />
<polygon fill="#d59f6c" fill-opacity="0.501961" points="159.101528,121.848778,32.521746,144.110859,59.726604,103.034900,-16.000000,113.606390" />
<polygon fill="#e6b290" fill-opacity="0.501961" points="30.236828,52.304887,3.285840,45.255249,31.038330,42.513731,108.236056,37.565900" />
<polygon fill="#955735" fill-opacity="0.501961" points="154.853617,30.820421,152.877908,50.110080,127.326194,35.914250,186.511083,-10.552147" />
<polygon fill="#000000" fill-opacity="0.501961" points="271.000000,3.677889,217.559336,100.329767,233.434542,40.235574,221.507756,-16.000000" />
<polygon fill="#d99263" fill-opacity="0.501961" points="158.296887,62.914480,180.121704,57.519319,142.182702,48.756175,83.832358,63.982352" />
<polygon fill="#000000" fill-opacity="0.501961" points="202.873627,70.732293,214.052287,66.740756,189.042084,107.510090,265.878727,110.862987" />
<polygon fill="#559990" fill-opacity="0.501961" points="264.172144,48.322465,240.302075,73.496372,240.633943,64.930329,271.000000,82.295468" />
<polygon fill="#ffe3be" fill-opacity="0.501961" points="181.508788,61.338620,197.210206,86.539397,165.235303,98.059159,206.992090,47.489249" />
<polygon fill="#1f1706" fill-opacity="0.501961" points="176.670552,-10.350824,143.596726,14.260227,182.824058,17.166947,132.804582,-16.000000" />
<polygon fill="#edc198" fill-opacity="0.501961" points="10.056281,65.953374,141.750652,73.932374,151.585557,120.050230,149.184413,62.387472" />
<polygon fill="#827147" fill-opacity="0.501961" points="229.876196,55.935632,213.514817,80.524215,223.864744,76.258829,196.466877,48.038782" />
<polygon fill="#000000" fill-opacity="0.501961" points="232.286096,140.334885,263.108175,132.752879,248.191640,159.000000,204.969497,145.587880" />
<polygon fill="#a08055" fill-opacity="0.501961" points="48.560447,113.904925,32.689142,137.629829,23.025579,83.788203,43.017369,72.683447" />
<polygon fill="#d47f62" fill-opacity="0.501961" points="114.054234,-16.000000,169.573894,28.386326,37.123541,27.125895,120.313624,18.239907" />
<polygon fill="#31190a" fill-opacity="0.501961" points="206.242642,-5.921424,173.907786,54.637094,177.555227,25.857647,226.318005,67.501356" />
<polygon fill="#ffc081" fill-opacity="0.501961" points="177.802477,10.897711,172.039465,-16.000000,166.220546,21.710620,169.776832,3.169866" />
<polygon fill="#b7834f" fill-opacity="0.501961" points="164.320150,108.155180,203.211619,66.773690,203.311485,51.211190,167.251721,127.149966" />
<polygon fill="#456031" fill-opacity="0.501961" points="40.698763,132.602209,-16.000000,140.305608,43.864517,114.742243,-16.000000,119.575959" />
<polygon fill="#e8e5c4" fill-opacity="0.501961" points="183.161030,60.604380,186.217278,56.063625,152.710788,61.008598,186.803317,48.992443" />
<polygon fill="#f2d8b7" fill-opacity="0.501961" points="114.362636,78.983452,29.720081,87.438830,148.447739,43.614468,117.569068,33.614867" />
<polygon fill="#b0a491" fill-opacity="0.501961" points="271.000000,134.173247,239.569845,135.370297,173.280357,127.429719,228.117800,136.051295" />
<polygon fill="#f9f2eb" fill-opacity="0.501961" points="168.119407,129.616754,174.138530,119.512338,191.459648,74.240736,173.514035,131.588762" />
<polygon fill="#7b6c45" fill-opacity="0.501961" points="220.889632,55.582265,216.648532,84.931590,229.105071,42.582084,245.483189,40.735854" />
<polygon fill="#a67a41" fill-opacity="0.501961" points="195.939967,72.520068,186.139640,105.888037,201.606487,80.446291,202.036979,44.715137" />
<polygon fill="#f9faf2" fill-opacity="0.501961" points="169.714968,93.208369,186.515575,73.392405,171.137549,100.466554,161.949995,86.505179" />
<polygon fill="#0f0d00" fill-opacity="0.501961" points="198.649627,87.609174,204.698278,56.044870,211.269626,115.391902,218.921948,53.989779" />
<polygon fill="#bb744a" fill-opacity="0.501961" points="143.279959,81.028338,120.673349,56.174412,147.025631,52.027393,122.453194,83.367406" />
<polygon fill="#4b4120" fill-opacity="0.501961" points="169.313506,103.156849,134.667642,110.690154,148.338484,109.598630,160.653615,118.723826" />
<polygon fill="#523d1c" fill-opacity="0.501961" points="176.550619,84.957623,150.171876,87.182162,152.634282,62.060700,184.830143,67.130722" />
<polygon fill="#4a5732" fill-opacity="0.501961" points="183.698716,114.428689,224.072376,112.054228,168.396844,134.283280,180.427899,159.000000" />
</g>
</svg>