<?xml version="1.0" standalone="no"?>
<!DOCTYPE svg PUBLIC "-//W3C//DTD SVG 20010904//EN"
 "http://www.w3.org/TR/2001/REC-SVG-20010904/DTD/svg10.dtd">
<svg version="1.0" xmlns="http://www.w3.org/2000/svg"
 width="740.000000pt" height="489.000000pt" viewBox="0 0 740.000000 489.000000"
 preserveAspectRatio="xMidYMid meet">
<metadata>
Created by potrace 1.15, written by Peter Selinger 2001-2017
</metadata>
<g transform="translate(0.000000,489.000000) scale(0.100000,-0.100000)"
fill="#000000" stroke="none">
<path d="M4 4533 c3 -197 8 -389 11 -428 3 -38 7 -104 10 -145 2 -41 5 -75 6
-75 2 0 3 -22 13 -187 3 -59 10 -118 16 -132 5 -14 6 -26 1 -26 -4 0 -4 -24 1
-52 5 -29 11 -80 14 -113 2 -33 7 -71 10 -85 4 -14 8 -52 10 -85 2 -33 5 -80
9 -105 3 -25 7 -72 10 -105 3 -33 8 -89 11 -125 4 -36 6 -77 6 -92 -1 -15 3
-30 8 -33 5 -3 7 -12 4 -19 -3 -8 -1 -17 5 -20 6 -4 6 -18 0 -38 -5 -18 -7
-39 -4 -48 2 -8 7 -35 10 -60 3 -25 8 -58 10 -75 2 -16 8 -50 13 -75 4 -25 8
-71 7 -103 0 -31 3 -57 6 -57 3 0 4 -11 1 -25 -3 -18 0 -25 11 -25 62 0 396
97 420 121 9 10 17 27 17 38 0 11 4 23 10 26 6 3 10 12 10 18 0 7 -7 3 -15 -7
-8 -11 -15 -18 -16 -15 0 2 -2 14 -5 27 -2 12 1 22 7 22 5 0 7 -5 3 -12 -4 -7
-3 -8 4 -4 19 11 11 96 -8 96 -5 0 -6 -10 -4 -22 4 -21 4 -21 -4 -3 -5 11 -7
26 -4 34 4 11 -2 13 -26 8 -17 -4 -34 -2 -37 3 -3 5 0 7 8 4 8 -3 18 -1 21 4
3 6 15 8 25 5 13 -3 21 2 26 16 3 12 12 21 18 21 7 0 4 7 -7 15 -10 7 -15 19
-11 25 5 9 1 10 -16 5 -23 -7 -24 -7 -4 9 25 20 35 20 35 1 0 -8 5 -15 10 -15
13 0 13 26 0 51 -9 16 -7 19 10 19 23 0 27 18 5 26 -15 6 -21 34 -7 34 4 0 18
9 31 19 l24 19 -26 0 c-18 0 -27 -6 -28 -17 0 -13 -2 -13 -7 2 -7 17 -9 16
-29 -3 -30 -27 -39 -25 -19 5 9 14 14 30 11 35 -3 6 -1 10 4 10 6 0 11 -4 11
-10 0 -5 12 -10 28 -10 18 0 23 3 14 9 -7 4 -12 14 -10 22 2 10 -5 13 -24 12
-32 -2 -37 13 -8 22 11 3 20 11 20 16 0 13 -14 11 -28 -3 -9 -9 -12 -9 -12 0
0 6 9 17 20 24 23 15 27 33 6 25 -8 -3 -16 -1 -18 4 -2 7 -13 7 -31 0 -18 -7
-26 -7 -22 -1 3 6 13 10 21 10 8 0 14 5 14 10 0 15 26 12 40 -5 17 -20 27 -19
33 5 6 22 -8 28 -16 8 -3 -8 -9 -3 -15 12 -6 14 -11 19 -11 13 -1 -15 -37 -18
-45 -4 -4 5 3 7 14 4 17 -4 20 0 20 23 0 21 3 25 11 17 12 -12 39 -7 39 7 0
14 -51 21 -66 9 -12 -10 -12 -14 -2 -21 9 -7 7 -8 -7 -6 -22 4 -32 58 -15 86
7 13 9 10 10 -17 0 -26 3 -32 16 -27 9 3 23 6 32 7 13 0 12 3 -5 11 -35 17
-67 118 -37 118 8 0 14 9 14 20 0 12 -7 20 -16 20 -9 0 -27 11 -40 25 l-23 25
22 5 c12 2 31 6 42 8 11 3 5 5 -14 6 -29 1 -32 3 -21 16 7 8 9 15 4 15 -5 0
-3 4 4 9 11 7 9 13 -8 29 -30 28 -22 44 25 48 21 2 43 8 49 14 5 5 19 10 30
10 19 0 18 2 -7 19 -24 16 -26 19 -12 31 11 9 14 25 11 56 -4 41 7 61 17 32 3
-10 7 -10 20 1 15 12 17 11 17 -3 0 -28 19 -17 28 17 8 25 11 28 17 15 4 -11
-1 -25 -14 -39 -12 -13 -21 -28 -21 -35 0 -7 -3 -19 -6 -28 -4 -12 0 -16 15
-16 23 0 27 -10 10 -27 -8 -8 -8 -13 0 -17 6 -4 11 0 11 10 0 13 6 15 30 11
33 -7 41 8 10 18 -12 4 -17 11 -13 18 4 7 6 19 5 29 -2 9 1 19 5 21 5 3 8 -10
8 -29 -1 -29 1 -33 17 -28 12 4 18 1 16 -8 -2 -8 4 -12 14 -10 10 2 18 -2 18
-8 0 -9 -28 -14 -67 -13 -7 1 -10 -3 -7 -8 3 -5 0 -9 -5 -9 -6 0 -11 -5 -11
-11 0 -8 5 -8 15 1 8 7 15 9 15 4 0 -5 4 -2 10 6 8 12 10 12 16 -3 3 -10 4
-29 2 -42 -3 -14 -1 -25 3 -25 5 0 9 18 9 40 l0 40 44 -2 c25 0 45 -4 44 -7 0
-3 0 -13 1 -21 1 -12 4 -12 12 3 5 9 7 22 4 27 -3 6 -1 10 4 10 6 0 11 -7 11
-15 0 -8 5 -15 10 -15 6 0 10 5 10 10 0 6 8 10 18 10 11 0 13 -3 5 -8 -8 -5
-9 -13 -3 -22 11 -18 13 -193 3 -204 -4 -4 -8 -26 -9 -49 0 -24 -6 -43 -14
-45 -7 -3 -10 0 -6 7 5 7 -1 11 -13 11 -13 0 -19 -5 -15 -14 3 -9 -2 -16 -13
-18 -16 -3 -16 -5 5 -16 18 -11 22 -10 22 3 0 8 5 15 11 15 6 0 9 -7 5 -15 -3
-8 2 -21 10 -30 9 -8 11 -15 5 -15 -14 0 -14 -33 0 -47 6 -6 8 -17 3 -24 -5
-9 -10 -8 -16 7 -8 19 -8 19 -5 0 1 -12 11 -20 24 -21 12 -1 20 1 18 5 -2 3 9
4 25 2 17 -2 27 -8 24 -13 -3 -5 0 -9 5 -9 6 0 2 -9 -10 -21 -11 -11 -23 -18
-27 -15 -3 3 -16 -1 -29 -9 -13 -9 -29 -13 -36 -9 -9 5 -9 4 -1 -5 9 -10 17
-10 33 -2 14 8 21 8 21 1 0 -5 8 -10 18 -10 14 0 15 2 2 10 -8 5 -10 10 -5 10
17 0 40 -19 32 -26 -4 -4 -24 -7 -44 -7 -21 0 -30 -2 -21 -4 9 -2 23 -20 30
-39 14 -41 34 -40 31 2 -1 16 0 23 3 17 3 -7 14 -13 24 -13 10 0 22 -5 26 -12
4 -7 3 -8 -4 -4 -12 7 -38 -31 -34 -51 1 -6 -5 -13 -15 -16 -10 -2 6 -7 35
-12 43 -6 52 -11 53 -29 1 -15 3 -16 6 -5 2 10 13 19 24 22 14 4 17 10 12 24
-7 17 -6 17 11 1 15 -16 16 -20 3 -33 -8 -8 -18 -11 -23 -7 -5 4 -2 -1 5 -10
7 -10 24 -18 37 -18 22 0 23 -3 18 -47 -3 -27 -7 -54 -10 -60 -8 -27 23 -11
39 20 l18 32 -5 -30 c-3 -16 -8 -39 -11 -50 -4 -12 -3 -15 2 -9 9 13 43 15 43
2 0 -4 -5 -8 -11 -8 -5 0 -7 -4 -4 -10 4 -6 16 -4 31 6 15 10 24 12 24 5 0 -6
-5 -11 -10 -11 -6 0 -16 -11 -22 -25 -9 -19 -14 -22 -25 -14 -10 9 -13 8 -13
-4 0 -9 12 -22 27 -29 14 -7 28 -19 31 -25 6 -20 -26 -15 -37 5 -9 15 -10 15
-11 0 0 -9 4 -18 8 -20 5 -1 12 -16 16 -31 6 -26 5 -28 -14 -22 -17 5 -21 3
-19 -12 7 -60 -50 -94 -94 -56 -19 16 -20 17 -14 1 5 -14 -1 -17 -34 -16 -21
0 -39 4 -39 9 0 5 -6 6 -13 3 -12 -4 -107 30 -107 39 0 1 9 45 20 96 12 51 18
102 15 112 -4 11 -2 19 5 19 26 0 -14 41 -64 65 -71 33 -146 33 -146 -1 0 -7
-10 -19 -22 -25 -13 -7 -34 -24 -49 -38 -25 -25 -25 -29 -18 -100 8 -77 26
-116 57 -125 29 -10 42 -50 42 -129 -1 -40 -1 -85 0 -100 0 -16 -6 -43 -15
-60 -18 -36 -19 -66 -4 -104 7 -16 13 -108 14 -218 10 -681 18 -948 31 -1037
4 -28 -1 -48 -21 -83 -23 -41 -24 -49 -12 -64 8 -9 15 -36 16 -61 1 -25 3 -64
6 -88 l4 -42 -55 -25 c-73 -33 -123 -40 -197 -26 -104 20 -135 31 -166 56
l-29 25 -21 -26 c-12 -15 -21 -29 -21 -33 0 -14 106 -152 123 -159 19 -9 4
-41 -27 -57 -36 -19 -71 -69 -61 -85 4 -7 568 -10 1653 -10 1636 0 1647 0
1660 20 14 23 42 27 42 6 0 -8 7 -17 16 -20 9 -3 828 -6 1820 -6 l1805 0 -2
1154 -3 1153 -38 34 c-37 32 -55 66 -20 38 9 -8 27 -20 40 -27 l22 -12 0 330
c0 181 -3 330 -7 330 -4 0 -30 -14 -59 -31 -125 -76 -159 -249 -73 -371 11
-14 19 -29 19 -33 0 -9 -223 -1 -239 9 -9 6 -11 43 -9 137 3 159 3 159 -112
174 -139 19 -181 35 -173 63 6 25 -22 53 -45 45 -30 -12 -42 -29 -29 -42 23
-23 -41 -45 -163 -56 -100 -8 -139 -21 -144 -48 -12 -59 -20 -139 -20 -205 -1
-39 -3 -72 -6 -72 -6 1 -136 66 -265 133 -49 25 -125 62 -167 81 -46 21 -78
41 -78 50 0 8 -5 16 -11 18 -6 2 -13 16 -14 30 -2 15 -6 32 -10 37 -3 6 0 9 7
6 10 -4 14 4 15 30 1 20 7 42 13 50 7 8 9 15 5 15 -4 0 -2 7 5 15 7 8 21 15
30 15 10 0 20 4 22 9 2 4 50 11 108 15 152 9 189 16 242 42 54 27 71 57 89
158 10 53 9 66 -5 94 -38 73 -85 118 -137 132 -71 19 -102 39 -96 61 3 10 1
19 -4 19 -5 0 -7 11 -3 25 3 14 2 25 -4 25 -5 0 -12 8 -14 18 -3 9 -23 26 -45
37 -28 13 -39 24 -35 35 3 8 2 12 -3 8 -4 -4 -22 1 -39 11 -17 10 -43 21 -58
25 -15 3 -29 14 -32 24 -8 25 -52 26 -77 1 -13 -13 -30 -19 -47 -17 -26 3 -27
6 -30 67 -2 35 2 87 9 115 18 77 26 146 19 151 -4 2 -6 18 -5 35 1 21 -3 30
-14 30 -12 0 -13 2 -4 8 10 7 10 14 0 35 -6 15 -17 27 -24 27 -6 0 -18 6 -25
14 -22 21 -57 29 -135 31 -60 1 -73 -1 -73 -14 0 -13 -2 -13 -9 -2 -6 9 -11
10 -15 2 -10 -15 -26 -14 -26 2 0 7 -14 12 -35 13 -29 0 -35 -3 -35 -21 0 -11
-4 -25 -9 -31 -22 -23 -50 -84 -40 -89 5 -4 6 -12 2 -18 -4 -7 -6 -20 -5 -29
2 -10 -2 -18 -8 -18 -6 0 -9 -3 -6 -8 2 -4 -2 -15 -9 -25 -11 -15 -16 -16 -46
-4 -36 13 -97 16 -116 4 -6 -4 -16 0 -23 8 -6 7 -18 11 -26 8 -17 -6 -45 20
-68 65 -9 18 -20 32 -24 32 -5 0 -14 16 -22 35 -9 22 -16 31 -21 23 -6 -9 -11
-9 -23 1 -9 8 -16 10 -16 5 0 -4 -6 0 -13 11 -8 10 -19 15 -26 11 -8 -5 -14
-1 -18 12 -3 14 -17 22 -41 27 -21 4 -45 14 -55 23 -10 9 -28 17 -40 18 -25 1
-79 24 -88 38 -4 5 -15 6 -24 2 -9 -3 -22 -3 -28 1 -7 4 -32 9 -57 11 -24 1
-47 8 -52 14 -5 9 -9 8 -13 -4 -7 -17 -65 -23 -65 -6 0 5 -8 4 -19 -1 -10 -6
-21 -7 -25 -4 -4 4 -41 8 -84 9 -42 1 -85 5 -94 9 -9 4 -23 3 -29 -1 -7 -4
-35 -9 -62 -11 -37 -3 -54 0 -68 13 -17 16 -19 16 -14 1 5 -11 1 -16 -12 -16
-10 0 -31 -3 -48 -7 -29 -6 -29 -6 -10 9 20 16 20 16 -2 10 -13 -3 -23 -11
-23 -18 0 -12 -41 -35 -63 -35 -12 0 -25 -8 -85 -56 -28 -21 -75 -38 -102 -36
-10 1 -11 0 -2 -4 23 -10 2 -23 -26 -15 -15 4 -85 7 -155 6 -70 -1 -130 2
-133 6 -2 5 -11 6 -20 2 -14 -5 -57 32 -66 57 -4 12 -119 20 -320 22 -54 1
-98 4 -98 7 0 12 -100 8 -100 -3 0 -6 -7 -3 -14 7 -9 11 -17 14 -20 8 -5 -7
-15 -7 -32 -1 -14 6 -30 8 -35 4 -5 -3 -15 -2 -21 3 -22 13 -138 10 -138 -4 0
-7 -4 -13 -9 -13 -5 0 -11 6 -14 13 -2 6 -3 -7 -1 -30 1 -24 -2 -43 -7 -43 -5
0 -10 7 -10 15 -3 28 -4 33 -11 40 -4 4 -4 14 -1 22 5 12 1 14 -18 8 -23 -7
-23 -7 -4 8 11 9 21 12 23 7 4 -10 62 -2 76 10 4 5 -7 7 -25 5 -37 -3 -70 19
-43 29 9 3 12 1 9 -4 -3 -6 4 -10 17 -10 17 0 19 3 9 9 -8 6 -12 19 -9 35 3
15 1 29 -3 32 -5 3 -9 0 -9 -6 0 -6 -4 -8 -10 -5 -5 3 -10 1 -10 -4 0 -6 -7
-11 -16 -11 -14 0 -14 3 -4 16 11 13 10 16 -9 21 -22 6 -22 6 -1 20 21 15 27
33 11 33 -5 0 -12 -8 -14 -17 -4 -17 -5 -17 -6 0 0 9 -6 17 -12 17 -6 0 -9 6
-6 13 2 6 10 12 18 12 7 0 15 8 17 18 4 18 -13 24 -23 7 -4 -6 -15 -6 -32 1
-18 6 -30 6 -36 0 -7 -7 -15 -5 -24 7 -13 15 -14 15 -10 1 3 -9 0 -22 -6 -29
-10 -10 -8 -11 7 -6 19 7 19 6 1 -14 -10 -11 -25 -20 -34 -20 -14 -1 -14 -2 2
-14 23 -17 22 -25 -3 -19 -13 3 -22 -1 -26 -11 -5 -13 -9 -14 -20 -5 -11 9
-14 7 -14 -10 0 -11 -4 -21 -10 -21 -13 0 -13 33 0 46 12 12 -5 62 -25 76 -6
5 -4 8 5 8 13 0 13 1 0 10 -12 8 -12 10 5 10 20 1 20 1 1 15 -17 13 -18 15 -3
15 9 0 17 7 17 15 0 8 5 15 11 15 5 0 2 14 -8 31 -13 22 -24 29 -40 26 -25 -5
-27 14 -3 25 9 4 2 7 -17 7 -18 1 -33 -3 -33 -9 0 -5 5 -10 12 -10 6 0 9 -3 6
-6 -4 -3 -16 0 -28 6 -18 10 -24 9 -31 -1 -5 -9 -9 -10 -9 -2 0 6 -15 11 -34
10 -19 0 -33 -5 -30 -9 3 -4 -4 -8 -15 -8 -11 0 -23 5 -26 10 -10 17 -25 11
-25 -10 0 -11 -5 -20 -11 -20 -5 0 -8 4 -5 9 9 13 -4 42 -15 35 -6 -3 -7 -15
-3 -26 6 -19 3 -20 -29 -15 -26 4 -37 2 -41 -9 -3 -9 -1 -12 4 -9 6 3 10 2 10
-2 0 -14 -43 -37 -74 -40 -17 -2 -34 -9 -39 -16 -6 -9 -10 -9 -13 0 -3 7 -12
9 -20 6 -8 -3 -14 0 -14 6 0 6 5 11 10 11 6 0 10 7 10 15 0 8 6 15 13 15 7 1
5 6 -5 14 -10 7 -18 16 -18 19 0 3 8 8 18 10 13 4 12 5 -5 6 -18 1 -21 7 -21
32 1 17 -5 34 -12 39 -10 6 -9 9 1 13 10 4 10 6 2 6 -7 1 -13 7 -13 14 0 6 -7
21 -15 31 -13 17 -30 20 -125 23 -90 2 -108 0 -104 -11 3 -8 1 -17 -5 -21 -6
-3 -11 -1 -11 5 0 7 -7 10 -15 6 -8 -3 -15 -1 -15 4 0 19 -21 10 -30 -12 l-9
-23 0 23 c-1 12 -6 22 -12 22 -6 0 -9 -7 -5 -15 3 -9 0 -15 -9 -15 -8 0 -15
-9 -15 -19 0 -23 -29 -36 -44 -20 -8 9 -6 10 8 5 15 -5 17 -3 10 11 -4 10 -8
28 -8 41 -1 22 -3 22 -133 22 l-133 0 0 -29 c0 -16 5 -31 12 -33 7 -3 5 -12
-8 -26 -27 -32 -49 -28 -46 8 0 3 -13 5 -29 5 -16 0 -29 -3 -29 -7 0 -5 -4 -8
-9 -8 -5 0 -8 11 -5 25 2 14 0 25 -6 25 -6 0 -8 -4 -5 -10 3 -5 -2 -10 -12
-10 -14 0 -15 -2 -4 -9 9 -6 5 -8 -14 -8 -19 0 -23 3 -16 10 6 6 11 18 11 27
0 9 -7 5 -18 -13 -10 -15 -22 -24 -25 -20 -4 3 -7 1 -7 -6 0 -8 -7 -10 -21 -6
-16 5 -20 3 -18 -12 1 -10 -2 -26 -6 -37 -5 -11 -3 -21 4 -25 17 -11 2 -43
-18 -39 -9 2 -15 11 -15 21 2 21 -1 21 -30 1 -14 -9 -27 -11 -30 -5 -3 5 -15
7 -26 4 -16 -4 -19 -11 -14 -27 5 -17 3 -16 -16 7 -12 15 -19 34 -17 42 3 7 1
15 -5 17 -5 2 -10 20 -10 41 0 20 -4 37 -10 37 -5 0 -6 5 -3 10 3 6 -1 10 -9
10 -9 0 -16 -4 -16 -10 0 -5 -7 -10 -15 -10 -18 0 -20 26 -2 33 8 4 9 6 0 6
-6 1 -18 -6 -27 -14 -25 -25 -49 -19 -43 10 l4 26 -100 -3 -100 -3 -14 -35
-13 -35 5 33 c3 19 1 31 -4 27 -5 -3 -12 -1 -16 5 -3 5 -33 10 -67 10 l-60 0
6 -357z m1190 251 c9 -3 16 -10 16 -15 0 -6 -8 -5 -19 1 -13 7 -22 7 -26 0 -3
-5 -11 -10 -17 -10 -7 0 -6 6 2 15 14 17 21 18 44 9z m1114 -246 c-2 -12 -8
-23 -14 -25 -7 -2 -10 6 -7 22 6 30 26 34 21 3z m-73 -98 c4 -6 11 -8 16 -5 5
4 9 -1 9 -10 0 -12 -4 -14 -19 -5 -23 12 -36 30 -22 30 5 0 13 -5 16 -10z m-1
-57 c-3 -40 -4 -41 -15 -15 -9 23 -5 42 9 42 4 0 7 -12 6 -27z m60 2 c-27 -20
-51 -20 -34 0 7 8 22 15 33 15 20 0 20 0 1 -15z m26 -25 c0 -5 11 -21 25 -35
27 -26 22 -34 -7 -11 -10 7 -18 18 -18 25 0 6 -4 11 -10 11 -5 0 -10 5 -10 10
0 6 5 10 10 10 6 0 10 -4 10 -10z m-1830 -54 c0 -6 -5 -18 -11 -26 -9 -13 -10
-12 -5 3 3 9 3 17 -1 17 -3 0 -12 -8 -19 -17 -12 -16 -13 -16 -14 8 0 22 5 27
25 27 14 0 25 -6 25 -12z m65 -33 c-4 -10 -12 -38 -19 -63 l-11 -45 -3 33 c-2
19 0 41 4 50 7 16 9 23 13 37 0 3 6 5 12 5 7 0 8 -7 4 -17z m58 -1 c-6 -25 43
-70 59 -54 9 9 7 12 -11 12 -12 0 -20 4 -16 9 3 5 0 11 -7 14 -14 5 9 2 31 -4
7 -2 15 1 18 8 2 6 -10 14 -27 18 -17 4 -29 9 -27 12 3 2 25 -1 48 -8 24 -6
38 -14 31 -16 -6 -3 -9 -9 -6 -14 3 -6 11 -5 20 2 20 17 25 8 11 -21 -17 -34
-79 -40 -118 -11 -16 12 -32 21 -36 21 -5 0 -9 9 -10 19 -1 14 3 18 13 14 8
-3 14 0 14 6 0 6 4 11 9 11 5 0 7 -8 4 -18z m-105 -24 c-17 -17 -38 -21 -38
-8 0 6 6 10 14 10 8 0 17 8 21 18 5 11 9 13 12 5 3 -7 -1 -18 -9 -25z m92 -48
c0 -5 -10 -10 -22 -10 -23 -1 -23 -1 -3 -17 18 -14 18 -15 2 -9 -10 3 -21 6
-23 6 -2 0 -4 9 -4 20 0 15 7 20 25 20 14 0 25 -4 25 -10z m2905 -34 c29 -2
54 1 58 8 6 7 7 4 3 -6 -3 -10 -1 -20 4 -23 5 -3 10 3 13 12 3 14 6 11 11 -9
5 -16 15 -28 22 -28 10 0 13 -7 8 -25 -5 -20 -3 -24 9 -19 11 4 17 -3 22 -25
7 -32 0 -55 -15 -46 -5 3 -11 1 -14 -4 -4 -5 5 -8 19 -6 14 1 28 -2 31 -7 3
-4 0 -7 -7 -6 -8 2 -13 -13 -15 -42 -2 -42 -1 -43 12 -25 8 11 13 28 10 38 -3
14 -2 16 9 7 9 -8 11 -20 5 -39 -9 -33 7 -72 21 -50 7 11 9 10 9 -3 0 -10 -5
-18 -11 -18 -5 0 -8 -4 -4 -10 3 -5 13 -6 22 -3 13 5 15 2 10 -12 -6 -15 -5
-16 8 -5 9 7 14 19 11 26 -9 25 7 23 21 -3 12 -22 11 -29 -3 -51 -16 -24 -16
-25 2 -18 16 6 15 4 -3 -14 -24 -21 -31 -50 -13 -50 6 0 10 7 10 15 0 8 7 15
15 15 8 0 15 -4 15 -9 0 -5 3 -16 6 -24 3 -9 -3 -16 -15 -20 -12 -3 -21 -1
-21 4 0 5 -9 0 -20 -11 -11 -11 -20 -26 -20 -33 0 -7 9 -13 20 -14 11 -1 20 2
20 8 0 5 9 9 20 9 11 0 20 -6 20 -12 0 -9 4 -8 10 2 9 14 12 8 9 -16 0 -3 8
-12 17 -19 16 -11 16 -13 -5 -25 -19 -10 -25 -9 -32 1 -7 11 -9 11 -9 -2 0 -9
-7 -20 -16 -23 -12 -4 -14 -1 -9 13 4 14 1 19 -10 17 -21 -3 -45 -39 -46 -68
-1 -43 12 -133 22 -142 5 -6 9 -15 9 -20 0 -6 -4 -5 -9 3 -5 8 -7 -8 -5 -40 3
-41 10 -58 27 -71 12 -10 18 -18 13 -18 -6 0 -3 -6 6 -12 23 -19 28 -55 13
-86 -8 -15 -23 -47 -34 -72 -10 -25 -27 -62 -37 -83 -10 -24 -17 -62 -17 -98
1 -32 -3 -56 -8 -53 -5 3 -9 0 -9 -5 0 -6 7 -11 15 -11 11 0 15 -11 15 -39 0
-30 -6 -42 -23 -54 -16 -10 -23 -23 -21 -39 1 -13 3 -28 3 -34 1 -13 45 -33
82 -38 37 -5 59 -17 59 -32 0 -8 5 -14 11 -14 7 0 9 -12 5 -34 -4 -23 -1 -46
11 -71 17 -36 17 -37 -2 -51 -10 -8 -27 -14 -38 -14 -10 0 -16 -4 -12 -10 3
-5 -7 -3 -22 5 -32 17 -77 20 -68 5 3 -5 14 -10 23 -10 9 0 38 -11 65 -23 30
-15 61 -22 85 -20 55 4 66 -2 45 -27 -21 -25 -30 -25 -36 -2 -3 9 -5 2 -6 -15
-1 -30 -4 -33 -31 -33 -37 0 -41 -26 -6 -40 13 -5 27 -14 31 -19 4 -8 12 -8
26 -1 13 8 19 7 19 0 0 -6 8 -10 18 -8 11 2 18 -4 20 -19 2 -13 -1 -23 -7 -23
-13 0 -51 -41 -51 -55 0 -6 22 -19 49 -29 l49 -17 4 -87 c5 -90 -1 -125 -13
-82 -5 18 -8 10 -9 -30 -3 -80 -1 -91 27 -124 17 -20 22 -36 18 -50 -4 -12 -9
-106 -12 -211 -4 -169 -3 -201 17 -290 46 -214 46 -222 24 -252 -12 -16 -70
-58 -129 -95 -106 -64 -110 -68 -128 -120 -11 -29 -23 -81 -27 -116 -8 -65
-16 -84 -28 -66 -4 6 -21 11 -39 12 -36 1 -79 28 -88 54 -11 31 14 54 51 50
29 -4 35 -1 44 24 6 16 17 32 23 36 7 5 -10 7 -36 5 -29 -2 -52 -9 -58 -17 -8
-13 -10 -13 -19 0 -5 8 -10 11 -10 5 0 -5 -7 -2 -14 8 -14 18 -14 18 -20 -1
-4 -11 -18 -32 -31 -48 -15 -18 -25 -41 -25 -61 0 -22 -4 -31 -13 -28 -7 3
-35 1 -62 -5 -132 -28 -211 -30 -468 -13 -142 9 -174 3 -112 -22 65 -26 106
-50 94 -54 -6 -2 -38 2 -71 9 -64 12 -78 9 -59 -14 9 -11 7 -15 -11 -20 -40
-10 -64 -7 -88 14 -13 11 -19 20 -15 20 5 0 4 5 -3 12 -9 9 -15 9 -24 0 -7 -7
-15 -12 -19 -12 -10 0 10 83 21 90 5 3 0 11 -10 18 -18 11 -21 8 -34 -21 -23
-56 -43 -142 -27 -118 5 7 14 10 21 6 9 -5 9 -9 1 -14 -12 -8 14 -101 29 -101
5 0 5 -13 0 -30 -5 -18 -5 -30 1 -30 5 0 9 -4 9 -10 0 -5 -12 -10 -27 -9 -16
0 -22 3 -16 6 9 3 5 15 -12 41 -14 20 -25 45 -25 56 0 16 -3 17 -12 8 -17 -17
-33 -15 -19 2 7 8 19 51 27 96 7 44 18 89 24 100 26 49 5 27 -36 -38 -32 -50
-53 -72 -66 -72 -18 0 -16 5 14 43 19 23 47 61 62 85 l27 43 -21 28 c-25 36
-26 84 -1 125 10 17 24 49 31 70 25 77 149 174 205 160 22 -6 25 -3 25 23 0
65 106 111 277 120 113 6 105 -1 118 94 6 42 5 46 -19 57 -33 15 -34 36 -2 30
21 -4 25 0 30 26 3 17 2 47 -3 66 -4 20 -4 44 0 55 11 29 9 102 -5 160 -11 49
-12 50 -51 51 -22 1 -57 9 -77 18 -52 22 -95 21 -108 -4 -6 -11 -8 -20 -4 -20
3 0 1 -7 -6 -15 -7 -8 -10 -22 -6 -30 9 -25 -14 -17 -26 10 -8 18 -21 26 -55
31 -49 7 -64 27 -40 51 12 12 52 16 208 19 107 2 201 6 209 9 8 2 22 0 30 -5
13 -8 12 -10 -2 -10 -10 0 -18 -5 -18 -11 0 -7 12 -10 30 -7 39 6 39 -11 0
-19 -17 -3 -32 -9 -35 -13 -6 -10 111 -48 160 -52 l39 -3 -3 44 c-2 37 1 47
25 67 17 15 40 24 61 24 18 0 33 2 33 5 0 3 -9 23 -20 44 -32 64 -89 281 -95
366 -9 108 12 215 65 340 23 55 47 105 52 112 6 8 1 17 -16 28 -35 23 -40 49
-20 104 16 46 16 52 -1 117 -10 38 -29 83 -42 101 -35 48 -29 85 11 58 11 -8
36 -15 56 -16 l35 0 -35 -17 c-19 -9 -37 -17 -38 -18 -2 -2 4 -14 15 -28 38
-52 67 -43 99 31 40 89 26 170 -26 156 -11 -3 -31 2 -45 11 -18 12 -23 13 -19
2 4 -10 -2 -12 -21 -9 -19 4 -24 2 -20 -9 4 -11 -2 -13 -30 -10 -28 3 -33 7
-24 18 8 10 5 27 -12 71 -28 73 -39 296 -18 370 10 37 10 48 0 51 -9 3 -9 8 1
21 23 27 49 115 51 170 1 28 5 51 8 51 3 0 5 23 6 50 0 28 -4 50 -10 50 -6 0
-6 4 0 13 9 11 24 67 28 107 1 9 -4 21 -11 28 -11 10 -14 10 -14 -2 0 -10 -6
-13 -16 -9 -9 3 -20 0 -25 -8 -5 -8 -9 -9 -9 -3 0 10 -65 27 -109 29 -8 0 -16
5 -18 11 -3 8 13 10 49 7 29 -2 76 -5 103 -7z m-2829 -61 c-15 -8 -46 -17 -67
-20 -30 -4 -37 -2 -33 10 4 10 15 12 35 8 18 -3 29 -1 29 6 0 6 15 11 33 11
l32 0 -29 -15z m2644 -163 c0 -9 -4 -23 -9 -31 -8 -12 -12 -12 -25 -2 -14 12
-14 15 2 36 19 25 32 24 32 -3z m-2678 -74 c-4 -16 -2 -19 8 -13 8 5 11 4 7
-3 -6 -8 -24 -9 -44 -3 -3 1 30 41 33 41 1 0 0 -10 -4 -22z m2288 -160 c25 -6
59 -12 75 -13 45 -4 45 -4 45 -16 0 -5 -5 -7 -11 -3 -8 5 -8 1 0 -14 7 -13 8
-29 2 -44 -6 -13 -10 -18 -11 -13 0 6 -4 3 -10 -5 -6 -10 -32 -16 -79 -18
-147 -9 -197 16 -182 89 6 32 9 34 56 40 28 3 55 6 60 7 6 1 30 -4 55 -10z
m953 -190 c-1 -20 3 -25 16 -21 13 3 17 -2 16 -24 0 -38 -44 -125 -66 -130
-11 -3 -19 -16 -21 -36 -7 -73 -36 -29 -67 105 -21 90 -10 114 59 127 58 11
65 9 63 -21z m-3383 -168 c25 13 60 13 60 -1 0 -5 -4 -8 -9 -4 -5 3 -21 0 -35
-6 -31 -14 -56 2 -55 35 0 18 2 17 11 -6 8 -23 13 -26 28 -18z m-8 -84 c15 10
-8 -30 -26 -46 -11 -9 -16 -9 -16 -1 0 6 7 14 15 17 10 4 14 14 10 28 -2 11
-2 15 1 8 3 -6 10 -9 16 -6z m3484 -48 c-19 -18 -37 -44 -41 -58 -6 -20 -2
-18 19 12 34 48 62 64 70 41 6 -15 -8 -32 -26 -33 -4 0 -20 -18 -35 -41 -24
-36 -28 -39 -34 -21 -4 11 -12 23 -18 27 -18 10 -12 61 8 79 12 11 27 15 39
11 11 -3 23 -1 27 5 3 5 10 10 15 10 6 0 -6 -15 -24 -32z m-3396 -9 c0 -6 -7
-9 -15 -5 -8 3 -15 1 -15 -3 0 -5 -10 -7 -22 -3 -21 5 -21 6 -2 13 29 11 54
10 54 -2z m2970 -99 c0 -11 -4 -20 -9 -20 -14 0 -23 18 -16 30 10 17 25 11 25
-10z m486 -67 c-2 -3 -20 -8 -40 -13 -28 -6 -38 -4 -52 11 -16 17 -16 19 -1
19 10 0 16 3 15 8 -2 4 4 15 12 24 14 15 17 14 43 -14 15 -17 26 -32 23 -35z
m-347 28 c16 -10 6 -31 -14 -31 -14 0 -27 24 -18 34 8 8 15 7 32 -3z m-2563
-183 c4 -7 3 -8 -4 -4 -8 5 -12 -1 -12 -14 0 -12 -4 -19 -9 -15 -14 8 -9 45 6
45 6 0 15 -5 19 -12z m4055 -34 c53 -5 59 -9 59 -46 l0 -30 21 23 c17 20 20
21 14 5 -3 -11 -1 -22 5 -26 6 -4 14 -38 17 -75 3 -38 13 -99 23 -136 11 -44
12 -65 5 -63 -8 3 -10 -22 -8 -82 3 -109 -8 -136 -30 -68 -9 27 -18 58 -20 69
-5 20 -5 20 -6 -1 -1 -25 58 -268 103 -424 19 -63 40 -146 47 -185 7 -38 17
-76 22 -82 5 -7 7 -19 4 -26 -2 -7 3 -23 13 -35 16 -19 19 -19 24 -6 4 9 1 24
-6 33 -8 10 -3 8 11 -4 14 -11 21 -15 18 -8 -4 6 -3 14 3 18 5 3 10 11 10 17
0 7 -4 7 -14 -1 -18 -15 -37 7 -34 43 2 26 13 35 20 15 4 -12 38 -1 38 12 0 5
-9 9 -20 9 -11 0 -20 7 -20 15 0 9 6 12 16 8 15 -5 16 0 12 45 -3 34 -1 49 5
45 6 -4 8 0 4 10 -3 9 -1 17 4 19 6 2 8 15 4 31 l-7 27 -19 -21 c-11 -12 -19
-18 -19 -14 0 14 32 45 46 45 18 0 23 -26 19 -88 -1 -28 1 -55 6 -58 5 -3 10
21 11 53 1 32 2 65 4 73 1 8 2 20 3 26 1 7 7 14 15 17 10 4 12 0 8 -15 -3 -12
-1 -19 4 -15 6 3 11 -6 12 -20 1 -13 9 -39 17 -57 8 -17 15 -43 15 -56 0 -14
2 -45 4 -70 7 -68 13 -134 22 -250 8 -109 9 -115 21 -215 l8 -60 39 3 c57 5
126 -7 133 -24 3 -8 2 -34 -1 -58 -6 -38 -11 -45 -44 -59 -20 -9 -54 -19 -75
-23 -20 -3 -48 -15 -61 -25 -13 -11 -30 -19 -38 -19 -7 0 -22 -7 -32 -15 -19
-15 -19 -15 1 -15 12 0 24 -4 27 -9 6 -10 -15 -16 -89 -27 -27 -3 -55 -11 -62
-16 -10 -8 -37 -14 -78 -17 -5 -1 -3 -6 5 -12 12 -8 11 -9 -5 -5 -11 2 -44 8
-74 11 -48 7 -63 15 -126 69 -154 131 -202 169 -252 194 -44 22 -54 24 -68 12
-9 -7 -14 -19 -11 -27 3 -8 -1 -16 -9 -19 -22 -9 -18 -32 8 -58 13 -13 21 -28
19 -34 -2 -6 6 -15 17 -21 11 -6 23 -20 26 -31 4 -11 10 -18 15 -15 11 7 71
-55 90 -91 8 -16 24 -40 36 -54 20 -22 21 -27 9 -44 -12 -16 -17 -17 -30 -6
-12 10 -16 10 -20 -1 -3 -8 -21 -15 -39 -16 -19 -1 -49 -9 -67 -19 -35 -18
-67 -19 -84 -3 -5 6 -3 9 8 9 9 0 17 4 17 8 0 10 -27 8 -53 -3 -10 -4 -20 -5
-23 -3 -5 6 43 63 100 119 29 29 35 39 23 40 -10 1 -21 3 -27 4 -5 1 -23 3
-40 4 -23 1 -33 8 -46 37 -14 29 -19 33 -26 20 -13 -23 -33 -20 -35 6 -1 12
-9 26 -18 30 -8 5 -15 15 -15 23 0 9 -8 12 -24 9 -21 -4 -26 3 -51 79 -39 115
-35 111 -101 113 -34 0 -60 6 -62 12 -2 7 -9 12 -16 12 -16 0 -15 27 3 59 15
27 22 73 10 65 -5 -3 -9 4 -9 15 0 12 -7 21 -15 21 -8 0 -15 5 -15 10 0 6 -7
10 -15 10 -8 0 -24 9 -35 20 -11 11 -17 20 -12 20 4 0 -9 10 -28 21 -19 12
-38 27 -42 34 -18 31 -76 94 -82 88 -10 -10 -23 40 -30 121 -8 85 -13 101 -35
101 -8 0 -20 25 -31 67 -19 73 -19 74 35 97 17 7 47 21 68 31 21 11 45 16 53
13 7 -3 14 0 14 6 0 6 6 11 14 11 15 0 212 -158 260 -209 17 -17 33 -31 37
-31 4 0 15 24 24 53 20 59 52 144 66 169 5 10 9 25 9 34 0 9 15 43 34 77 19
34 50 107 69 162 19 55 49 134 67 175 17 41 44 111 60 155 15 44 36 98 45 120
17 39 18 39 26 16 5 -13 7 -26 4 -29 -2 -3 3 -11 13 -18 13 -9 19 -9 25 -1 6
8 7 6 4 -5 -3 -9 -3 -19 1 -22 3 -4 7 -12 8 -19 2 -7 10 -37 18 -67 9 -30 15
-73 14 -95 -1 -47 7 -77 34 -119 l20 -31 -7 35 c-4 19 -10 52 -15 73 -4 20 -4
37 0 37 3 0 1 28 -7 63 -17 83 -27 192 -19 212 5 14 9 15 21 5 9 -7 33 -14 56
-16z m1411 8 c4 -4 9 -18 10 -31 4 -31 -43 -62 -68 -46 -47 30 -28 98 24 89
15 -3 30 -8 34 -12z m-5422 -102 c0 -22 -16 -26 -40 -10 -13 8 -12 10 3 10 9
0 17 5 17 10 0 6 5 10 10 10 6 0 10 -9 10 -20z m223 -274 c4 -9 -3 -16 -19
-19 -25 -4 -35 17 -11 26 20 9 25 8 30 -7z m3956 -143 c-1 -88 -2 -94 -11 -56
-9 37 -3 153 8 153 2 0 3 -44 3 -97z m-3969 58 c0 -5 -6 -12 -12 -15 -10 -5
-10 -7 0 -12 17 -8 15 -21 -3 -21 -15 0 -21 37 -8 50 9 10 23 9 23 -2z m5870
-85 c25 -11 46 -28 48 -37 7 -40 -228 -48 -264 -8 -25 27 -14 63 21 71 48 10
146 -2 195 -26z m-5910 -56 c0 -5 -17 -10 -37 -9 -34 1 -35 2 -13 9 36 11 50
11 50 0z m165 -20 c3 -5 12 -7 20 -3 22 8 67 -6 59 -18 -3 -6 -12 -8 -20 -5
-7 3 -16 1 -19 -5 -4 -5 -11 -7 -16 -4 -5 4 -16 0 -24 -9 -11 -11 -30 -14 -68
-11 -28 2 -57 4 -63 5 -21 0 -9 35 15 45 32 14 108 17 116 5z m5082 -30 c18
-37 -3 -52 -27 -20 -11 14 -20 31 -20 38 0 22 34 9 47 -18z m776 -219 c-1
-126 -5 -176 -13 -181 -7 -5 -10 -17 -7 -29 3 -12 1 -51 -3 -88 -5 -38 -11
-111 -15 -163 -14 -192 -24 -222 -19 -56 3 109 1 163 -7 172 -8 10 -7 24 5 54
23 57 21 107 -3 115 -13 4 -18 12 -14 21 3 8 12 13 19 10 16 -6 21 31 30 218
5 111 9 136 18 120 7 -12 10 -78 9 -193z m-4195 87 c3 -16 -43 -78 -58 -78 -5
0 -10 8 -12 18 -3 13 -8 9 -21 -15 -20 -38 -27 -41 -27 -12 0 23 88 111 105
106 6 -2 11 -11 13 -19z m2756 -137 c3 -4 18 -7 33 -5 16 2 20 1 11 -2 -21 -6
-23 -20 -5 -27 6 -3 2 -6 -10 -6 -12 -1 -25 -6 -28 -11 -4 -6 -3 -10 2 -9 4 1
15 -1 24 -5 14 -6 16 -21 13 -89 -3 -72 -8 -121 -14 -137 -1 -3 -1 -15 0 -27
1 -13 -2 -23 -7 -23 -5 0 -9 -8 -10 -17 -4 -65 -18 -123 -40 -160 -14 -24 -27
-43 -30 -43 -3 0 -3 39 0 88 6 83 9 110 23 227 8 64 17 192 16 228 -1 26 11
36 22 18z m1044 -54 c7 -6 12 -17 10 -25 -2 -12 -18 -15 -77 -14 -41 1 -77 5
-81 9 -4 4 -11 25 -14 45 l-7 37 78 -21 c43 -12 84 -25 91 -31z m-5144 -13 c9
-23 7 -68 -2 -79 -21 -24 -54 -155 -48 -192 7 -46 -21 -133 -55 -169 -22 -24
-22 -25 -6 -53 21 -36 21 -72 -1 -131 -28 -74 -38 -87 -59 -74 -27 16 -28 84
-3 157 15 42 20 74 16 99 -4 25 2 61 19 115 14 43 25 99 25 125 0 38 41 167
67 211 8 13 41 7 47 -9z m1267 2 c-7 -8 -13 -31 -14 -50 -2 -39 -6 -43 -25
-24 -18 18 -15 65 6 77 27 16 47 14 33 -3z m3949 -133 c52 -8 99 -17 104 -21
6 -3 25 -5 42 -4 46 3 48 -2 59 -242 6 -113 4 -137 -7 -134 -7 3 -12 13 -12
22 2 14 -1 15 -14 4 -11 -9 -16 -10 -19 -2 -5 14 -53 -5 -53 -20 0 -5 -9 -1
-20 9 -12 11 -20 31 -20 50 0 47 -76 193 -124 237 -22 21 -43 38 -47 38 -4 0
-24 17 -43 37 -53 57 -45 58 154 26z m-4082 -215 c-17 -14 -33 -63 -29 -88 2
-11 -2 -10 -18 4 -12 11 -21 29 -21 42 0 25 34 54 64 54 18 0 18 -1 4 -12z
m277 -19 c4 -6 5 -13 2 -16 -8 -7 -47 7 -47 18 0 13 37 11 45 -2z m-41 -171
c-8 -12 -38 -10 -52 4 -21 21 -13 25 22 14 19 -6 32 -14 30 -18z m-176 -55
c-3 -5 -11 -23 -18 -40 -8 -18 -18 -33 -22 -33 -8 0 -32 40 -26 44 42 32 75
46 66 29z m-414 -54 c-3 -5 -9 -7 -14 -4 -5 3 -11 1 -15 -5 -3 -5 -25 -10 -47
-10 -51 0 -45 7 18 24 51 13 69 11 58 -5z m-940 -172 c-7 -29 -28 -36 -38 -12
-3 8 -1 27 5 42 9 24 11 25 25 11 10 -10 13 -24 8 -41z m266 -18 c-47 -15 -94
-28 -105 -28 -25 1 142 57 170 57 11 0 -18 -13 -65 -29z m4125 8 c16 -25 17
-107 0 -119 -5 -4 -1 -8 10 -8 19 -1 19 -1 2 -11 -15 -9 -22 -7 -34 11 -8 12
-26 25 -39 30 -32 12 -31 38 2 50 14 6 24 16 21 23 -6 19 -75 9 -123 -18 -45
-25 -73 -17 -32 9 97 61 167 73 193 33z m-1539 -169 c-7 -18 -12 -38 -9 -44 6
-17 -42 -35 -56 -21 -32 32 9 92 66 96 9 1 9 -7 -1 -31z m-60 -210 c-9 -12
-16 -30 -16 -40 0 -10 -7 -18 -15 -18 -7 0 -18 -8 -24 -17 -8 -16 -10 -14 -16
9 -8 33 -2 44 39 69 41 25 51 24 32 -3z m-2883 -125 c13 -21 36 -64 52 -97 27
-53 58 -81 78 -69 4 2 7 -1 7 -7 0 -6 5 -8 10 -5 6 3 10 2 10 -3 0 -6 -7 -12
-15 -16 -23 -8 -36 -52 -29 -97 9 -52 22 -65 79 -72 25 -4 55 -12 67 -18 21
-12 21 -12 -4 -25 -43 -23 -164 -40 -181 -26 -15 13 -35 98 -62 272 -3 19 -12
47 -19 62 -9 17 -11 30 -5 34 6 3 1 19 -11 38 -21 36 -26 66 -10 66 5 0 20
-17 33 -37z m383 -40 c16 -21 18 -43 4 -43 -11 0 -50 40 -50 52 0 15 33 8 46
-9z m1574 4 c0 -8 9 -22 20 -32 25 -23 25 -31 -1 -38 -17 -5 -20 -12 -18 -42
3 -24 -1 -39 -11 -45 -24 -15 7 -39 61 -48 38 -6 44 -11 47 -35 3 -24 7 -27
41 -27 20 0 46 7 57 15 14 11 15 14 3 9 -51 -17 -12 47 40 67 20 8 22 14 17
44 -8 43 3 44 29 3 15 -23 41 -40 99 -64 44 -19 84 -38 90 -44 12 -12 -57 -80
-82 -80 -18 -1 -52 -23 -52 -33 0 -4 7 -4 15 -1 8 4 15 3 15 0 0 -18 -81 -37
-178 -42 -59 -3 -110 -8 -113 -10 -18 -11 -184 19 -247 45 -49 21 -69 25 -65
15 3 -8 1 -14 -5 -14 -14 0 -44 93 -40 122 2 13 8 23 13 24 12 1 38 10 82 29
22 10 34 11 39 4 4 -7 17 0 34 16 16 15 32 26 37 26 4 -1 10 8 11 21 2 12 10
31 18 42 8 11 14 35 14 53 0 23 5 33 15 33 8 0 15 -6 15 -13z m-1046 -68 c-3
-6 -1 -15 6 -19 17 -11 3 -30 -23 -31 -17 -1 -18 -2 -4 -6 24 -6 11 -23 -19
-23 -33 0 -30 18 8 57 33 34 45 42 32 22z m1124 -36 c-2 -21 -9 -29 -27 -31
-13 -2 -28 2 -35 8 -8 9 -4 10 17 5 24 -6 27 -5 27 19 0 14 5 26 11 26 6 0 9
-12 7 -27z m-684 -215 c-3 -5 -1 -8 4 -8 12 0 22 -49 11 -56 -4 -2 -6 -11 -3
-18 6 -16 -22 -29 -47 -21 -14 5 -18 12 -13 31 4 16 2 24 -6 24 -10 0 -10 3 0
15 7 8 9 22 6 31 -10 25 2 33 28 21 13 -7 22 -15 20 -19z"/>
<path d="M3630 3518 c0 -9 4 -19 9 -22 5 -3 9 -26 9 -51 1 -56 19 -158 33
-189 6 -12 18 -27 28 -33 17 -11 17 -8 0 65 -10 43 -23 102 -29 132 -10 55
-50 132 -50 98z"/>
<path d="M3540 3255 c-18 -21 -6 -29 27 -18 27 9 28 10 7 21 -18 9 -24 9 -34
-3z"/>
<path d="M3766 1969 c-19 -57 -42 -169 -37 -178 4 -6 32 -13 64 -17 l56 -7
-19 53 c-10 29 -22 72 -26 96 -7 46 -30 78 -38 53z"/>
<path d="M3557 1738 c5 -7 8 -29 8 -47 0 -29 -5 -36 -25 -42 -16 -5 -1 -7 44
-8 57 -1 67 1 57 13 -6 7 -9 21 -5 30 3 9 1 16 -5 16 -7 0 -9 9 -5 25 6 24 4
25 -36 25 -32 0 -40 -3 -33 -12z"/>
<path d="M3739 1713 c0 -16 -2 -40 -3 -55 -1 -25 2 -28 29 -28 16 0 46 3 66 6
35 6 36 8 36 45 0 47 -16 59 -81 59 -43 0 -46 -2 -47 -27z m54 -30 c-7 -3 -13
-11 -13 -19 0 -8 -4 -14 -10 -14 -17 0 -11 28 7 39 10 5 20 7 23 4 3 -3 -1 -8
-7 -10z"/>
<path d="M3415 1620 c-11 -5 -33 -9 -50 -9 l-30 -1 0 -90 c-1 -56 3 -84 8 -74
5 8 7 21 4 28 -6 15 20 52 30 41 5 -4 2 -10 -4 -12 -7 -3 -13 -11 -13 -20 0
-12 2 -12 16 1 8 9 23 17 32 17 9 1 28 3 40 4 48 5 152 -44 152 -71 0 -4 10
-19 23 -32 20 -21 22 -33 20 -110 -2 -72 -7 -95 -31 -144 -19 -38 -24 -57 -15
-54 7 3 30 -1 51 -9 20 -8 64 -18 97 -23 51 -6 60 -10 63 -28 2 -12 11 -24 21
-27 22 -5 54 11 46 24 -4 5 1 9 9 9 18 0 56 35 56 51 0 5 4 8 8 5 8 -4 9 80 2
94 -1 3 -1 15 0 28 1 13 -7 30 -17 37 -11 9 -13 14 -5 15 8 0 10 9 6 28 -3 15
-7 38 -8 52 0 14 -5 28 -9 31 -5 4 -12 22 -16 40 -4 19 -12 35 -19 35 -26 3
-26 6 -3 15 17 7 21 13 15 27 -4 9 -8 37 -8 62 l-1 45 -50 -2 c-241 -11 -313
-8 -385 20 -8 3 -24 2 -35 -3z m389 -71 c6 -5 3 -11 -7 -15 -9 -3 -17 -15 -17
-26 0 -14 -5 -18 -16 -14 -9 3 -25 6 -36 6 -11 0 -22 8 -25 20 -3 11 -9 20
-14 20 -5 0 -9 7 -9 15 0 12 11 14 58 9 31 -4 61 -10 66 -15z"/>
<path d="M3909 1558 c-3 -30 4 -124 9 -133 4 -5 9 4 12 20 3 17 1 33 -5 38 -6
4 -5 10 5 17 8 5 10 10 4 10 -6 0 -10 14 -9 30 2 28 -14 45 -16 18z"/>
<path d="M2854 819 c-7 -8 -14 -23 -16 -34 -2 -12 -12 -20 -24 -21 -11 -1 -30
-7 -43 -14 -15 -7 -21 -8 -17 -1 10 15 -51 8 -66 -7 -9 -9 -7 -12 9 -12 12 0
25 -4 28 -10 3 -5 26 -10 50 -10 63 0 98 31 93 84 -2 31 -5 36 -14 25z"/>
<path d="M3340 795 c0 -8 4 -15 10 -15 5 0 7 -7 4 -15 -4 -8 -2 -15 4 -15 11
0 21 30 15 48 -6 17 -33 15 -33 -3z"/>
<path d="M2640 782 c0 -5 7 -17 15 -28 15 -19 20 -8 9 20 -6 17 -24 22 -24 8z"/>
<path d="M3374 707 c-21 -51 -49 -72 -64 -47 -5 9 -12 3 -22 -16 l-13 -29
-146 0 c-91 0 -151 4 -160 11 -17 13 -49 25 -49 18 0 -14 98 -46 172 -55 79
-10 344 2 384 18 17 6 18 54 2 102 -15 42 -24 51 -58 51 -21 0 -29 -9 -46 -53z"/>
<path d="M2716 703 c-20 -20 32 -37 84 -26 41 8 38 20 -4 15 -18 -2 -43 1 -54
7 -10 6 -22 7 -26 4z"/>
<path d="M3660 595 c-16 -19 -4 -35 25 -35 28 0 38 12 29 34 -8 20 -38 21 -54
1z"/>
<path d="M5077 2413 c-9 -14 67 -146 115 -201 39 -45 35 -30 -9 36 -20 30 -49
81 -65 114 -30 59 -33 63 -41 51z"/>
<path d="M4764 2192 c-9 -26 -25 -66 -35 -89 -14 -33 -14 -41 -3 -36 18 7 18
-7 -1 -34 -8 -12 -16 -33 -17 -47 -1 -14 -5 -26 -9 -26 -4 0 -6 -8 -4 -17 1
-10 -2 -24 -8 -31 -5 -7 -7 -16 -3 -19 12 -12 89 79 102 121 13 40 13 39 9
-34 -2 -41 -2 -66 1 -55 8 30 37 85 46 85 5 0 8 5 8 12 0 6 18 36 41 65 22 30
39 57 36 60 -3 2 -24 -21 -48 -53 -23 -32 -44 -53 -46 -47 -2 6 9 38 26 72 28
59 29 60 8 67 -14 4 -25 1 -34 -12 -10 -14 -13 -15 -13 -3 0 8 5 20 11 26 8 8
3 15 -19 27 l-30 16 -18 -48z"/>
<path d="M4661 1859 c-1 -18 -45 -62 -53 -54 -3 3 -3 -6 -1 -20 3 -13 9 -23
13 -20 11 7 40 -5 40 -16 0 -5 -10 -9 -22 -9 -15 0 -19 -3 -12 -10 14 -14 36
-5 51 19 10 16 8 24 -8 45 -17 21 -18 30 -9 41 7 8 10 20 7 27 -4 9 -6 8 -6
-3z"/>
<path d="M5514 1282 c-8 -5 -8 -29 -1 -82 6 -41 11 -76 12 -78 3 -4 75 39 75
45 0 3 -7 3 -15 0 -11 -5 -12 -1 -5 18 8 22 7 24 -12 22 -15 -1 -23 4 -26 18
-4 16 -2 17 11 7 10 -9 17 -10 22 -2 3 5 1 10 -5 10 -6 0 -16 11 -22 25 -12
27 -17 29 -34 17z"/>
<path d="M4738 1253 c-22 -6 -30 -30 -18 -52 11 -22 4 -31 -24 -31 -15 0 -17
-3 -8 -12 9 -9 16 -8 29 4 10 8 35 18 55 22 29 5 39 13 44 31 3 13 3 29 -1 34
-6 11 -44 13 -77 4z"/>
<path d="M5410 1127 c-18 -10 -24 -20 -22 -38 2 -19 0 -21 -8 -9 -7 11 -10 11
-10 2 0 -7 -4 -11 -9 -8 -15 10 -21 -22 -6 -34 33 -28 159 38 148 78 -5 21
-59 26 -93 9z"/>
<path d="M4960 1003 c0 -26 4 -33 20 -33 25 0 25 11 0 41 l-19 24 -1 -32z"/>
<path d="M3510 276 c0 -9 12 -21 26 -26 33 -13 31 -13 37 10 4 15 0 20 -13 20
-10 0 -25 3 -34 6 -11 4 -16 1 -16 -10z"/>
<path d="M3919 283 c-1 -4 -1 -11 0 -15 0 -3 -15 -20 -35 -37 -19 -17 -29 -31
-23 -31 15 0 99 53 99 62 0 10 -40 30 -41 21z"/>
<path d="M3300 272 c0 -10 36 -54 51 -62 28 -16 89 -23 89 -11 0 6 -10 11 -21
11 -17 0 -20 5 -17 24 7 37 -5 51 -32 36 -14 -7 -20 -8 -16 -1 4 6 -4 9 -24 8
-16 -1 -30 -3 -30 -5z"/>
<path d="M3450 187 c0 -25 17 -29 104 -30 44 0 86 -3 92 -8 6 -5 45 -8 87 -7
65 2 74 4 64 17 -9 11 -9 15 1 18 19 7 14 23 -6 23 -11 0 -27 -9 -37 -20 -18
-20 -55 -28 -55 -11 0 5 -37 12 -82 15 -46 3 -102 8 -125 12 -35 5 -43 3 -43
-9z"/>
<path d="M2766 4881 c-4 -5 -7 -28 -8 -51 -1 -23 -7 -44 -14 -47 -17 -6 -15
-40 4 -83 9 -19 19 -61 23 -94 4 -32 11 -62 17 -68 5 -5 74 -10 153 -10 193 0
754 11 854 18 44 3 89 5 100 4 11 -1 55 -2 97 -2 50 0 78 -4 81 -12 3 -7 20
-10 43 -8 22 2 78 5 125 6 47 2 100 7 116 10 l30 7 -2 105 c-2 60 -10 132 -20
169 l-18 65 -56 0 c-51 -1 -54 -2 -37 -15 10 -8 23 -16 29 -18 5 -1 7 -13 3
-25 -8 -23 -60 -39 -99 -28 -13 3 -40 -3 -65 -16 l-44 -21 -34 39 c-19 22 -42
49 -51 62 -14 21 -22 22 -134 22 -66 0 -119 -3 -119 -7 0 -4 18 -25 39 -48 25
-25 41 -51 43 -70 3 -27 0 -30 -27 -31 -16 0 -35 7 -41 15 -6 8 -20 15 -30 16
-11 0 -25 4 -32 9 -15 9 -15 5 -2 -28 6 -17 6 -27 -1 -31 -5 -4 -7 -15 -4 -25
8 -25 -13 -36 -32 -17 -11 10 -15 33 -14 68 0 29 -4 58 -10 66 -16 19 -2 62
24 73 13 5 -154 9 -430 9 -262 1 -454 -3 -457 -8z m1314 -151 c8 -5 11 -10 6
-10 -5 0 -3 -6 3 -13 9 -11 1 -14 -44 -13 -39 0 -55 4 -55 14 0 7 5 10 10 7 6
-3 10 -2 10 4 0 9 19 17 45 20 6 0 17 -4 25 -9z m70 -55 c7 -9 10 -18 6 -22
-9 -9 -57 18 -50 29 8 13 30 9 44 -7z"/>
<path d="M2060 4781 c0 -5 11 -8 25 -8 14 0 25 3 25 8 0 5 -11 9 -25 9 -14 0
-25 -4 -25 -9z"/>
<path d="M2133 4769 c-13 -5 -23 -10 -23 -13 0 -16 14 -36 27 -36 8 0 11 5 8
10 -4 6 -1 18 6 26 16 19 9 24 -18 13z"/>
<path d="M1965 4761 c-22 -3 -35 -9 -30 -12 15 -9 95 2 95 12 0 10 -3 10 -65
0z"/>
<path d="M2320 4671 c-12 -24 -13 -41 -1 -22 7 11 13 12 23 3 10 -7 24 -8 44
-3 l29 9 -29 1 c-21 1 -27 5 -22 16 8 23 -31 19 -44 -4z"/>
<path d="M2150 4575 c0 -8 7 -15 15 -15 18 0 20 -16 3 -23 -8 -4 -9 -6 -2 -6
6 -1 17 6 24 14 8 10 9 15 2 15 -6 0 -9 7 -6 15 4 10 0 15 -15 15 -12 0 -21
-6 -21 -15z"/>
<path d="M7020 3792 c-48 -6 -65 -53 -27 -74 25 -13 287 -20 327 -8 24 8 24 8
3 9 -13 1 -23 7 -23 15 0 22 -28 39 -68 42 -20 2 -71 6 -112 11 -41 4 -86 7
-100 5z"/>
<path d="M698 3553 c-10 -2 -18 -11 -18 -20 0 -9 6 -13 15 -9 17 6 21 -9 5
-19 -6 -4 -7 -11 -4 -17 4 -6 0 -14 -7 -20 -11 -7 -9 -8 6 -6 16 3 20 12 21
51 1 26 1 46 0 46 0 -1 -9 -3 -18 -6z"/>
<path d="M7385 3378 c-7 -41 -3 -78 7 -78 4 0 8 25 8 55 0 62 -6 71 -15 23z"/>
<path d="M634 3162 c3 -6 2 -13 -3 -17 -15 -9 -1 -35 18 -35 13 0 13 2 2 9 -8
5 -11 16 -8 25 3 8 1 18 -5 22 -6 4 -8 3 -4 -4z"/>
<path d="M1 2820 c1 -146 6 -296 10 -335 4 -38 9 -99 13 -135 13 -159 18 -180
37 -180 17 0 43 32 34 42 -2 2 -6 31 -9 63 -2 33 -7 78 -10 100 -3 22 -8 71
-11 109 -3 38 -7 86 -10 105 -3 20 -7 74 -10 121 -2 47 -7 103 -10 125 -2 22
-9 85 -15 139 -6 55 -13 102 -16 105 -3 3 -4 -113 -3 -259z"/>
<path d="M1210 2645 c0 -24 1 -24 18 -7 21 19 19 32 -4 32 -8 0 -14 -10 -14
-25z"/>
<path d="M650 2515 c0 -19 4 -35 8 -35 4 0 8 16 9 35 0 19 -3 35 -8 35 -5 0
-9 -16 -9 -35z"/>
<path d="M305 2004 c-11 -2 -57 -11 -102 -20 -52 -10 -88 -23 -99 -35 -10 -11
-30 -19 -49 -19 -18 0 -38 -7 -45 -15 -16 -19 -10 -242 7 -253 11 -7 19 -38
30 -120 4 -33 12 -46 32 -57 18 -9 37 -38 60 -92 62 -141 84 -183 98 -183 9 0
13 16 14 53 1 65 5 121 12 150 3 12 13 81 21 152 9 72 21 156 26 188 6 31 15
85 21 120 6 34 15 72 21 84 6 12 8 29 5 37 -6 16 -14 17 -52 10z"/>
<path d="M23 1123 c-22 -4 -23 -9 -23 -104 l0 -99 44 0 c25 0 47 4 51 9 6 11
-13 145 -26 179 -5 12 -12 21 -16 21 -5 -1 -18 -4 -30 -6z"/>
<path d="M151 674 c5 -15 7 -29 5 -32 -3 -3 -31 0 -62 7 -103 20 -94 36 -94
-174 l0 -184 32 -5 c91 -15 115 -11 123 21 3 15 19 41 34 58 27 31 27 34 20
111 -5 43 -9 101 -10 127 -2 30 -10 58 -22 73 -25 32 -39 31 -26 -2z"/>
<path d="M2 108 l-1 -79 37 7 c20 4 43 13 50 21 7 7 19 13 26 13 6 0 18 6 25
13 6 6 16 13 22 13 5 1 14 2 19 3 19 2 10 22 -16 31 -17 7 -40 6 -71 -1 -49
-13 -68 -2 -59 33 2 9 -4 18 -14 21 -16 4 -18 -4 -18 -75z"/>
<path d="M142 46 c7 -7 19 -11 25 -9 22 9 14 23 -12 23 -21 0 -24 -2 -13 -14z"/>
</g>
</svg>
