<?xml version="1.0" standalone="no"?>
<!DOCTYPE svg PUBLIC "-//W3C//DTD SVG 20010904//EN"
 "http://www.w3.org/TR/2001/REC-SVG-20010904/DTD/svg10.dtd">
<svg version="1.0" xmlns="http://www.w3.org/2000/svg"
 width="1300.000000pt" height="734.000000pt" viewBox="0 0 1300.000000 734.000000"
 preserveAspectRatio="xMidYMid meet">
<metadata>
Created by potrace 1.15, written by Peter Selinger 2001-2017
</metadata>
<g transform="translate(0.000000,734.000000) scale(0.200000,-0.200000)"
fill="#000000" stroke="none">
<path d="M0 3418 c0 -216 1 -253 7 -258 7 -5 9 -4 13 7 3 8 5 16 5 19 0 2 2 3
5 2 2 -2 3 -7 1 -13 -1 -7 1 -11 11 -15 14 -5 17 -14 8 -23 -11 -11 4 -13 15
-3 6 6 14 9 18 8 4 -2 7 0 7 5 0 4 -3 8 -6 9 -5 2 -5 5 0 16 5 11 8 13 12 9 3
-3 11 -6 16 -6 6 0 13 -2 17 -6 4 -4 9 -2 20 6 l15 11 18 -10 c14 -9 18 -9 18
-3 0 4 3 7 8 7 6 0 6 -2 0 -17 -4 -10 -6 -18 -4 -18 2 0 8 -3 14 -8 6 -5 7 -7
2 -6 -4 1 -8 -3 -9 -9 -1 -8 -4 -10 -9 -9 -4 2 -6 5 -5 7 5 8 -11 16 -23 12
-6 -2 -15 -3 -20 -3 -5 1 -10 -2 -12 -6 -4 -10 -22 -10 -22 0 0 4 -2 6 -6 4
-12 -7 -33 -6 -36 2 -1 6 -2 5 -2 -3 -1 -6 -4 -11 -7 -11 -4 0 -12 -1 -18 -3
-9 -3 -11 -1 -11 7 0 6 -4 11 -10 12 -6 2 -10 6 -10 11 0 5 -3 6 -10 4 -5 -1
-10 -5 -10 -9 0 -4 3 -6 6 -4 4 1 7 -2 8 -8 0 -8 -2 -10 -7 -8 -6 2 -7 -40 -7
-315 0 -175 2 -317 3 -315 2 2 8 0 12 -5 8 -7 10 -6 23 5 16 15 19 16 27 6 6
-8 17 -6 13 2 -4 5 22 4 31 -2 6 -3 8 -1 7 8 -1 2 2 4 6 4 5 0 8 -2 8 -5 0 -3
2 -5 5 -5 3 0 4 2 3 4 -1 2 12 4 30 3 18 0 32 1 32 4 0 2 8 3 17 2 9 -1 26 1
36 5 11 4 22 6 25 5 4 -1 8 0 9 4 2 3 2 -1 1 -8 -1 -8 0 -15 3 -17 2 -1 4 3 4
10 0 7 2 13 4 12 2 0 8 1 13 3 6 3 13 2 19 -1 6 -4 12 -5 16 -2 3 3 13 4 22 4
9 -1 15 0 13 3 -5 7 9 19 18 16 6 -2 10 1 12 8 5 14 27 30 43 30 11 0 14 3 17
15 3 18 30 36 45 32 6 -1 18 -11 27 -21 40 -44 47 -50 64 -52 9 -1 17 0 17 2
0 2 6 4 13 4 6 0 12 2 12 5 0 14 -13 26 -60 53 -27 16 -50 32 -50 36 0 14 15
10 50 -11 20 -13 39 -23 41 -23 5 0 0 18 -15 54 -12 29 -12 32 -4 40 4 4 9 6
11 5 3 -3 21 -59 41 -130 4 -16 10 -29 12 -29 2 0 4 2 4 4 0 2 6 4 14 4 7 0
25 2 39 4 13 1 47 4 75 5 58 4 80 6 87 10 4 3 37 7 75 10 10 1 19 2 20 3 1 0
15 1 31 1 20 1 29 3 29 7 0 4 2 7 5 7 3 0 5 -3 5 -6 0 -6 45 -3 56 4 3 2 21 4
41 5 90 3 135 7 139 13 3 5 4 5 4 0 0 -4 2 -5 5 -3 3 2 21 4 39 5 19 1 46 3
61 5 15 1 31 2 35 3 4 0 10 3 14 5 4 4 6 3 6 0 0 -3 3 -6 8 -6 4 0 7 2 7 4 0
2 13 4 28 4 15 0 29 3 31 6 2 3 17 5 34 5 16 -1 32 1 35 2 9 6 73 9 96 4 12
-2 22 -2 24 1 1 2 17 3 35 1 27 -3 34 -2 43 6 8 8 10 8 15 2 3 -6 5 -6 7 -1 2
3 8 5 17 3 10 -2 15 -1 15 3 0 4 4 5 11 3 5 -1 14 0 19 3 7 5 12 4 20 -2 11
-7 13 -6 21 2 7 7 13 8 21 6 6 -2 13 -3 16 -3 2 0 16 2 30 4 13 1 29 3 35 4 5
1 14 3 19 6 7 2 11 2 12 -2 1 -3 5 -6 9 -6 4 0 6 3 4 8 -2 4 -1 7 2 7 4 0 6
-3 6 -8 0 -5 3 -6 12 -4 7 1 17 0 23 -3 8 -4 11 -4 13 2 4 10 25 11 29 2 2 -5
3 -5 7 0 4 6 5 6 8 0 1 -4 4 -5 6 -1 6 6 41 8 45 2 2 -3 5 -4 9 -1 3 3 15 6
27 8 17 2 21 2 21 -4 0 -5 3 -8 8 -8 4 0 7 2 7 5 0 3 6 5 13 5 9 0 12 -2 10
-7 -2 -5 0 -7 5 -5 4 2 9 9 10 16 2 8 6 16 8 20 7 8 21 8 17 -1 -1 -5 1 -6 7
-4 6 1 11 4 13 7 4 6 24 5 31 -2 4 -4 6 -4 6 -1 0 6 120 5 130 0 4 -3 3 -6 -3
-11 -6 -3 -8 -8 -5 -10 2 -3 5 -2 7 2 1 3 5 6 9 6 5 0 7 3 6 6 -4 10 22 10 32
0 5 -4 9 -5 9 -2 0 3 3 4 7 3 4 -1 8 0 10 3 2 3 -1 5 -8 5 -13 0 -11 3 7 7 11
2 13 2 11 -4 -4 -9 8 -16 13 -8 3 5 2 9 -2 11 -3 2 -1 4 5 4 6 0 13 2 15 5 4
7 13 6 12 -1 -2 -13 0 -19 6 -19 3 0 4 3 2 8 -2 4 -1 6 2 5 2 -2 5 0 6 3 1 3
5 4 9 2 5 -3 5 -5 -1 -9 -5 -3 -4 -4 2 -4 5 0 11 3 12 8 3 7 4 7 15 0 12 -8
40 -11 35 -4 -1 2 8 3 19 2 20 -2 22 -1 27 14 3 8 8 15 11 15 3 0 5 3 5 8 0 4
5 7 13 7 8 0 11 -2 9 -6 -2 -3 0 -4 6 -2 31 8 46 8 52 -1 5 -8 5 -8 12 1 4 5
8 7 10 4 2 -3 1 -7 -2 -8 -9 -6 -5 -12 5 -9 7 1 10 6 10 14 0 9 2 12 9 11 5
-1 8 1 8 6 -1 4 -3 21 -4 37 -4 32 -11 38 -32 27 -8 -4 -25 -6 -45 -5 -27 0
-31 -1 -29 -7 2 -4 1 -6 -2 -4 -8 5 -100 6 -101 1 -1 -3 -19 -7 -40 -9 -21 -3
-43 -7 -48 -9 -5 -3 -31 -6 -58 -7 -26 0 -48 -2 -48 -4 0 -2 -9 -4 -20 -4 -12
0 -24 -3 -27 -6 -5 -4 -8 -4 -11 0 -2 4 -10 5 -21 3 -17 -3 -31 -5 -76 -10
-10 -1 -17 -2 -17 -3 0 0 -19 -1 -41 -2 -23 0 -44 -4 -48 -7 -6 -4 -11 -5 -23
-1 -12 5 -18 4 -28 -2 -9 -7 -12 -7 -14 -2 -2 5 -4 5 -10 1 -5 -5 -13 -5 -25
-2 -11 2 -18 2 -16 0 1 -2 -1 -5 -5 -7 -4 -1 -8 0 -9 2 -1 2 -12 2 -26 -1 -17
-3 -26 -3 -29 0 -7 7 5 23 14 19 4 -2 7 -1 7 1 0 7 32 16 44 13 8 -2 11 -1 11
5 0 4 2 8 5 8 3 0 5 -4 5 -8 0 -5 3 -7 8 -5 4 2 10 3 14 3 3 0 2 2 -2 5 -6 4
-4 5 8 5 10 0 12 -1 8 -4 -6 -4 -6 -5 -1 -7 9 -3 46 7 51 13 1 2 5 3 8 1 3 -2
6 0 8 3 2 5 4 5 6 0 4 -8 15 -8 19 1 1 4 7 6 15 4 6 -1 20 2 30 6 16 8 19 8
28 2 8 -6 13 -7 23 -2 18 8 15 15 -5 11 -14 -3 -18 -2 -18 4 0 5 2 8 5 8 3 0
4 2 2 5 -2 4 -6 3 -11 -2 -11 -10 -29 -12 -27 -4 1 6 -5 6 -28 -3 -3 -1 -6 1
-6 6 0 8 17 16 24 11 3 -2 7 0 11 4 4 6 2 8 -16 11 -37 7 -61 -2 -43 -15 11
-8 11 -13 2 -13 -5 0 -8 3 -8 8 0 4 -2 7 -5 7 -3 0 -5 3 -5 7 0 10 -30 2 -39
-10 -6 -8 -6 -8 -6 0 0 7 -10 11 -22 8 -3 -1 -34 -4 -70 -7 -43 -5 -65 -9 -68
-13 -4 -6 -6 -6 -14 1 -5 5 -10 8 -11 7 -2 -1 -11 -3 -22 -5 -15 -2 -18 -1
-16 5 2 6 1 6 -6 2 -6 -2 -11 -3 -13 -2 -4 5 21 23 27 20 3 -2 9 -1 14 2 6 3
21 5 33 6 13 0 25 2 26 5 1 2 8 1 15 -1 7 -3 11 -3 10 -1 -2 3 13 6 32 7 19 2
38 5 42 8 4 4 11 4 22 1 13 -3 17 -3 19 3 2 4 7 7 12 7 6 0 9 3 9 10 -1 14
-16 22 -25 14 -11 -11 -44 -19 -55 -13 -6 3 -16 3 -22 2 -17 -5 -32 1 -29 10
4 9 15 9 18 1 2 -4 6 -3 12 5 9 10 34 14 62 10 16 -2 25 1 25 9 0 8 6 9 13 2
8 -8 26 4 32 21 2 8 6 14 8 14 3 1 10 1 16 2 9 1 10 0 8 -12 -3 -11 -3 -12 5
-6 4 4 7 10 7 13 -1 3 4 6 10 7 21 3 11 12 -12 10 -13 -2 -32 -1 -42 1 -10 2
-23 1 -27 -1 -5 -3 -10 -4 -11 -2 -4 4 8 24 13 21 2 -2 8 -2 12 0 8 3 8 4 0
13 -6 6 -6 9 -2 9 4 0 4 4 2 11 -2 8 -1 10 4 8 8 -3 29 12 29 20 0 2 -3 8 -7
13 -8 10 -5 23 5 23 5 0 6 2 4 6 -2 4 -1 4 3 2 4 -3 15 -5 24 -6 10 0 16 0 12
1 -10 4 -2 11 10 8 9 -2 10 -5 7 -25 -2 -17 -1 -24 7 -32 9 -10 10 -10 25 -2
21 10 40 6 40 -10 0 -11 16 -25 22 -18 6 6 3 11 -7 11 -7 0 -10 3 -10 10 0 13
14 19 21 9 3 -5 6 -4 13 5 6 8 11 9 16 6 11 -7 13 -6 17 6 3 11 4 11 8 3 6
-10 18 -12 21 -4 3 7 39 11 39 4 0 -4 3 0 7 9 7 15 26 27 43 27 16 0 25 6 25
15 0 13 -20 18 -41 10 -18 -6 -23 -3 -16 9 4 6 13 9 30 10 36 2 42 -5 43 -48
0 -25 2 -36 7 -38 8 -3 9 5 1 10 -9 6 24 16 47 15 14 0 22 2 22 6 1 13 3 13
11 -1 l8 -15 5 15 c6 19 6 20 15 12 4 -3 10 -5 12 -3 3 2 6 -1 8 -6 1 -6 2 -6
2 3 1 16 31 30 31 14 0 -4 4 -6 13 -4 6 1 12 4 12 7 0 2 4 4 8 4 4 0 7 3 6 6
-2 4 -9 6 -18 5 -15 -2 -22 5 -11 12 11 6 4 12 -12 11 -19 -1 -33 7 -23 13 3
2 14 5 25 6 19 2 20 1 20 -13 0 -8 2 -15 5 -15 3 0 5 5 5 10 0 16 10 7 10 -9
1 -13 1 -13 5 -2 6 13 14 14 23 2 6 -8 7 -8 7 3 0 6 3 11 6 11 4 0 4 2 0 6 -3
4 -4 10 -1 14 3 5 6 3 15 -7 9 -10 15 -12 27 -10 9 2 23 3 32 3 11 0 19 3 27
13 7 9 11 11 13 7 3 -9 11 -7 11 4 0 5 2 11 5 13 3 2 3 6 0 12 -3 5 -4 12 -3
16 1 4 0 5 -1 3 -3 -7 -14 -4 -27 6 -7 5 -14 8 -16 7 -2 -2 -3 -1 -3 3 0 4 -6
6 -20 4 -12 -2 -23 -1 -28 4 -13 10 -16 9 -33 -9 -10 -10 -14 -13 -12 -7 3 10
-8 33 -17 33 -3 0 -2 -4 2 -8 6 -6 7 -9 2 -14 -4 -4 -9 -6 -12 -4 -4 1 -9 -3
-12 -9 -5 -9 -6 -9 -13 -3 -8 8 -22 4 -30 -7 -3 -6 -17 16 -17 28 0 3 -3 7 -7
9 -6 2 -6 5 -1 15 3 7 8 12 11 12 6 -2 27 17 27 25 0 8 -8 8 -12 -1 -1 -4 -7
-10 -12 -12 -9 -5 -9 -3 -9 34 0 27 2 38 6 36 3 -1 8 -7 9 -13 4 -10 4 -10 8
2 2 8 4 9 5 4 0 -12 9 -16 18 -9 4 4 13 7 20 8 9 1 12 -1 12 -8 0 -11 26 -21
29 -11 1 3 6 6 11 6 6 0 10 3 10 8 0 4 -4 7 -9 7 -6 0 -9 4 -9 12 0 12 8 25 8
14 0 -3 3 -6 6 -6 3 0 8 -4 12 -9 7 -8 8 -7 21 8 16 19 21 20 21 6 0 -6 3 -10
8 -10 4 0 7 3 7 6 0 3 4 4 10 2 11 -2 12 -2 20 31 3 13 8 21 13 21 12 0 7 22
-5 23 -35 2 -34 2 -28 10 3 4 10 7 16 7 5 0 9 2 9 5 0 3 3 5 6 5 9 0 8 99 -1
105 -4 2 -3 5 2 10 4 3 6 9 5 13 -3 6 -211 7 -1523 7 l-1519 0 0 -252z m2850
222 c0 -3 -1 -5 -2 -5 -1 0 -4 2 -5 5 -2 3 -1 5 2 5 3 0 5 -2 5 -5z m-28 -28
c-2 -4 -5 -7 -7 -7 -6 0 -11 15 -7 21 4 7 17 -5 14 -14z m210 11 c1 -5 1 -8
-2 -8 -3 0 -5 3 -5 8 0 4 1 7 2 7 1 0 3 -3 5 -7z m-2272 -33 c0 -3 -2 -5 -5
-5 -3 0 -4 2 -2 5 1 3 4 5 5 5 1 0 2 -2 2 -5z m110 -15 c0 -3 -2 -5 -5 -5 -3
0 -4 2 -2 5 1 3 4 5 5 5 1 0 2 -2 2 -5z m58 -5 c1 -3 0 -5 -3 -5 -3 0 -5 2 -5
5 0 3 1 5 2 5 1 0 4 -2 6 -5z m110 -26 c-1 -4 -2 -3 -3 3 0 5 1 8 3 7 2 -2 2
-6 0 -10z m1842 -33 c0 -7 -14 -12 -17 -6 -2 2 -1 5 0 7 5 5 17 4 17 -1z m42
-12 c-2 -5 0 -16 3 -22 4 -7 5 -13 4 -15 -6 -6 -21 14 -20 26 0 21 1 22 9 22
6 0 7 -3 4 -11z m81 -15 c-1 -4 -2 -3 -3 3 0 5 1 8 3 7 2 -2 2 -6 0 -10z
m-183 -7 c0 -8 -13 -9 -18 -1 -4 6 8 15 14 11 2 -1 4 -6 4 -10z m58 -31 c-2
-1 -3 0 -3 3 0 3 -3 6 -7 6 -5 0 -7 3 -5 8 3 6 4 6 11 -3 4 -6 6 -12 4 -14z
m-88 7 c0 -1 -2 -4 -5 -5 -3 -2 -5 -1 -5 2 0 3 2 5 5 5 3 0 5 -1 5 -2z m167
-3 c10 8 11 -2 0 -12 -10 -10 -16 -10 -22 2 -7 14 -6 16 5 9 7 -5 11 -5 17 1z
m-57 -30 c0 -3 -3 -5 -7 -5 -4 0 -9 2 -10 5 -2 3 1 5 7 5 5 0 10 -2 10 -5z
m-372 -65 c1 -3 0 -5 -3 -5 -3 0 -5 2 -5 5 0 3 1 5 2 5 1 0 4 -2 6 -5z m42
-72 c0 -1 -3 -3 -7 -5 -5 -1 -8 -1 -8 2 0 3 3 5 8 5 4 0 7 -1 7 -2z m418 -8
c1 -3 -1 -5 -5 -5 -5 0 -7 2 -5 5 1 3 3 5 5 5 1 0 3 -2 5 -5z m12 -27 c0 -5 2
-8 5 -8 3 0 5 -6 5 -12 0 -7 -2 -13 -5 -13 -3 0 -5 5 -5 12 0 7 -3 13 -7 15
-5 1 -8 5 -8 8 0 3 3 5 8 5 4 0 7 -3 7 -7z m-460 -13 c0 -3 -2 -5 -5 -5 -3 0
-4 2 -2 5 1 3 4 5 5 5 1 0 2 -2 2 -5z m415 -5 c0 -3 -2 -5 -5 -5 -3 0 -5 4 -5
8 0 4 2 6 5 5 3 -2 5 -6 5 -8z m-2602 -50 c0 -5 -7 -8 -18 -9 -10 0 -14 1 -10
2 4 2 9 7 12 11 5 8 16 5 16 -4z m76 7 c-2 -2 -6 -2 -10 0 -4 1 -3 2 3 3 5 0
8 -1 7 -3z m750 -9 c5 -7 9 -19 8 -31 -2 -53 0 -50 -24 -62 -19 -9 -24 -10
-34 -5 -18 10 -24 18 -24 34 0 12 3 16 17 23 9 4 24 8 32 8 18 0 21 3 17 15
-3 13 -22 18 -41 11 -11 -4 -15 -4 -17 2 -4 9 13 16 38 17 13 0 21 -3 28 -12z
m-919 -5 c7 -13 5 -34 -4 -37 -8 -3 -13 23 -6 32 4 5 5 7 1 7 -3 0 -6 2 -6 5
0 9 8 5 15 -7z m50 2 c0 -2 -2 -6 -5 -8 -3 -2 -4 -9 -3 -16 3 -10 2 -12 -5 -9
-5 2 -10 1 -13 -3 -3 -4 -4 -3 -4 5 0 6 2 10 5 9 5 -4 12 15 8 22 -2 3 1 5 7
5 5 0 10 -2 10 -5z m64 2 c-2 -2 -6 -2 -10 0 -4 1 -3 2 3 3 5 0 8 -1 7 -3z
m-42 -15 c10 -4 5 -12 -7 -12 -6 0 -10 3 -10 8 0 8 5 9 17 4z m51 -2 c-2 -3
-6 -5 -9 -5 -2 0 -3 2 -1 5 1 3 5 5 8 5 2 0 3 -2 2 -5z m-144 -9 c1 -3 -2 -6
-9 -6 -6 0 -10 3 -10 8 0 9 16 8 19 -2z m-124 -38 c0 -1 -2 -4 -5 -5 -3 -2 -5
-1 -5 2 0 3 2 5 5 5 3 0 5 -1 5 -2z m-100 -8 c0 -3 -2 -5 -5 -5 -3 0 -5 2 -5
5 0 3 2 5 5 5 3 0 5 -2 5 -5z m1964 -1 c7 4 12 4 19 -2 5 -4 7 -7 3 -7 -9 0
-7 -10 2 -10 7 0 7 -1 2 -8 -6 -6 -6 -9 0 -12 7 -4 4 -7 -6 -6 -2 1 -1 -5 1
-13 2 -7 2 -17 1 -20 -1 -5 0 -6 4 -4 8 6 2 -16 -9 -28 -7 -8 -8 -8 -12 -2 -6
10 -14 10 -14 1 0 -8 -16 -11 -35 -9 -4 1 -14 1 -21 2 -8 0 -14 2 -14 5 0 3
-3 4 -7 2 -5 -1 -13 -1 -19 2 -11 4 -11 4 2 5 8 0 14 2 14 5 0 7 -32 6 -39 -1
-3 -3 -7 -4 -9 -2 -2 2 -1 6 2 9 3 3 6 10 6 15 0 4 4 10 9 11 8 3 9 7 7 25 -2
21 -1 23 11 29 10 4 14 4 20 -1 4 -3 8 -4 10 -1 2 3 0 6 -3 8 -4 2 2 2 12 0
12 -1 19 0 19 3 0 3 4 4 10 3 6 -2 10 -1 10 2 0 5 2 5 7 0 5 -4 10 -4 17 -1z
m-179 -29 c3 0 3 -3 2 -7 -2 -5 -6 -8 -10 -8 -6 0 -6 -2 -2 -10 7 -14 2 -19
-9 -9 -5 4 -11 7 -15 5 -10 -3 -7 6 4 14 6 4 10 10 10 14 0 4 3 6 8 4 4 -2 10
-3 12 -3z m47 -13 c-4 -11 -11 -8 -8 3 1 5 4 9 6 7 3 -1 3 -6 2 -10z m415 3
c-1 -3 -5 -4 -7 -2 -3 1 -4 5 -2 7 1 3 5 4 7 2 3 -1 4 -5 2 -7z m-545 -1 c9
-11 8 -16 -5 -22 -11 -6 -18 -1 -7 5 2 2 3 8 1 13 -3 11 2 13 11 4z m-73 -11
c0 -3 1 -10 2 -15 1 -6 -1 -10 -6 -10 -10 -1 -12 -13 -2 -13 7 -1 7 -2 2 -4
-14 -5 -27 30 -15 42 7 7 18 7 19 0z m177 -9 c-5 -5 -6 -3 -6 6 0 9 1 11 6 6
5 -5 5 -7 0 -12z m-310 -3 c-12 -2 -14 -8 -6 -13 8 -6 6 -13 -5 -13 -12 0 -13
6 -2 26 7 13 9 14 16 8 7 -6 7 -7 -3 -8z m-47 -8 c-13 -9 -11 -19 2 -16 6 2 8
2 5 0 -5 -2 -3 -6 7 -15 11 -10 18 -12 29 -10 11 2 13 2 8 -2 -6 -4 -6 -6 -1
-9 11 -7 3 -21 -11 -21 -9 0 -12 -2 -10 -7 2 -5 0 -8 -5 -8 -4 0 -8 2 -8 5 0
4 -4 4 -11 2 -6 -2 -17 -4 -23 -5 -7 0 -15 -4 -19 -9 -6 -8 -22 -11 -22 -4 0
10 -22 10 -34 1 -10 -8 -14 -9 -20 -4 -6 5 -7 4 -5 -4 1 -7 -2 -9 -13 -10 -9
-1 -20 0 -25 3 -19 8 -39 9 -41 2 -4 -10 -12 -9 -12 1 0 7 -3 6 -15 -5 -9 -9
-17 -13 -21 -10 -10 6 -39 8 -39 2 0 -3 -5 -5 -11 -4 -6 1 -14 -2 -18 -6 -5
-6 -7 -6 -10 -1 -3 4 -7 6 -10 4 -4 -2 -6 0 -6 6 0 8 -2 9 -11 7 -10 -2 -10
-3 -2 -9 8 -6 8 -6 0 -9 -5 -1 -20 -2 -34 -1 -13 2 -30 0 -37 -3 -9 -3 -14 -3
-15 1 -1 3 -6 5 -12 5 -5 0 -8 -2 -7 -4 2 -3 0 -6 -5 -8 -4 -1 -7 -1 -7 2 0 2
-4 5 -10 6 -5 2 -9 2 -9 0 1 -9 -2 -16 -6 -16 -3 0 -5 4 -5 8 0 8 -1 8 -9 0
-11 -10 -16 -10 -16 0 0 10 -10 9 -24 -4 -11 -11 -12 -11 -17 -2 -4 6 -8 8
-19 5 -9 -2 -15 -1 -15 3 0 11 -23 5 -31 -9 l-8 -13 -6 14 c-4 10 -7 13 -11 9
-3 -3 -8 -3 -15 3 -11 10 -12 19 -1 25 12 7 -4 18 -16 12 -5 -3 -13 -4 -17 -2
-22 6 -22 6 -16 12 5 5 7 5 11 -1 4 -6 5 -5 5 4 0 8 -2 11 -7 9 -7 -2 -18 6
-18 14 0 2 6 3 13 2 9 -2 12 -1 10 4 -3 8 20 12 35 7 6 -2 12 -3 14 -1 2 2 13
4 26 4 12 1 25 3 28 5 9 6 24 6 27 1 1 -2 7 -2 12 1 6 3 14 5 19 4 5 -1 8 1 7
5 0 3 1 6 4 6 2 0 5 -3 6 -6 3 -7 29 -9 29 -2 0 2 3 1 8 -2 6 -5 7 -5 7 2 0 4
3 8 8 8 8 0 9 -16 1 -24 -5 -5 -5 -6 0 -6 3 0 7 6 9 14 2 7 3 15 4 17 0 2 7 1
14 -3 12 -6 14 -6 22 3 5 5 12 8 15 7 3 -1 13 0 23 2 9 2 22 2 29 -1 6 -2 13
-2 15 0 1 2 9 4 18 3 8 0 17 2 21 4 3 3 8 3 12 1 8 -5 30 -5 39 1 4 2 27 4 52
5 45 1 50 2 72 9 6 2 15 1 20 -2 8 -4 11 -3 13 4 3 8 4 8 11 -1 5 -8 8 -8 14
-3 7 5 8 5 8 -1 0 -5 2 -5 6 2 5 6 9 6 16 2 7 -4 10 -4 12 1 2 5 3 5 10 0 6
-5 8 -5 13 2 4 6 7 7 10 4 4 -4 3 -8 -3 -12z m96 5 c3 -4 5 -12 3 -17 -1 -7
-2 -6 -2 3 -1 6 -4 11 -7 11 -3 0 -4 -4 -3 -10 4 -12 2 -12 -14 -2 -9 7 -11
10 -6 15 7 9 21 9 29 0z m120 -5 c0 -5 -3 -8 -7 -8 -5 0 -8 3 -8 8 0 4 3 7 8
7 4 0 7 -3 7 -7z m-92 -11 c-2 -5 -4 -7 -6 -6 -1 1 -1 6 1 11 2 5 4 7 6 6 1
-1 1 -6 -1 -11z m180 5 c4 -10 -2 -16 -8 -7 -6 10 -6 15 0 15 3 0 7 -3 8 -8z
m464 0 c14 -5 9 -12 -9 -12 -14 0 -17 2 -15 8 3 7 11 9 24 4z m-392 -7 c0 -3
-2 -5 -5 -5 -3 0 -5 -4 -5 -9 0 -7 -1 -7 -5 -1 -2 3 -3 10 -2 13 3 8 17 9 17
2z m336 -3 c-3 -2 -9 -2 -12 0 -4 1 -1 2 6 2 7 0 10 -1 6 -2z m-671 -14 c0 -5
-3 -7 -7 -5 -5 2 -8 5 -8 8 0 2 3 4 8 4 4 0 7 -3 7 -7z m58 -15 c-1 -19 -4
-22 -12 -11 -5 5 -4 8 2 13 6 5 6 7 1 11 -5 3 -5 4 1 4 6 0 8 -5 8 -17z m102
15 c0 -1 -2 -4 -5 -5 -3 -2 -5 -1 -5 2 0 3 2 5 5 5 3 0 5 -1 5 -2z m-23 -8 c6
-8 -13 -20 -31 -20 -20 0 -19 2 5 15 20 11 23 11 26 5z m-932 -21 c13 -15 12
-20 -1 -16 -16 4 -20 9 -16 19 4 11 6 10 17 -3z m838 -4 c6 -10 -3 -12 -12 -3
-7 7 -7 8 0 8 5 0 10 -2 12 -5z m-918 -5 c0 -3 -3 -5 -7 -5 -4 0 -9 2 -10 5
-2 3 1 5 7 5 5 0 10 -2 10 -5z m-149 -26 c-5 -5 -6 -5 -3 2 2 5 4 8 6 7 2 -2
0 -6 -3 -9z m96 -2 c5 -12 4 -14 -4 -7 -9 7 -10 15 -4 15 3 0 6 -4 8 -8z m146
-10 c-2 -5 -7 -7 -14 -6 -15 2 -13 11 2 14 14 4 16 3 12 -8z m34 -16 c3 -6
-11 -19 -15 -14 -4 4 2 18 8 18 2 0 6 -2 7 -4z m-68 -15 c-3 -2 -8 -5 -10 -7
-4 -7 -19 -1 -19 6 0 8 22 15 29 8 6 -4 6 -5 0 -7z m-111 -17 c-1 -4 -2 -1 -2
6 0 7 1 10 2 6 2 -3 2 -9 0 -12z m72 11 c0 -3 -1 -5 -2 -5 -1 0 -4 2 -5 5 -2
3 -1 5 2 5 3 0 5 -2 5 -5z m60 -5 c0 -5 -1 -10 -2 -10 -1 0 -3 5 -4 10 -2 6
-1 10 1 10 3 0 5 -4 5 -10z m78 3 c2 -1 2 -3 -1 -3 -2 -1 -10 -1 -16 -2 -6 -1
-11 1 -11 4 0 6 23 7 28 1z m-135 -19 c-1 -4 -2 -3 -3 3 0 5 1 8 3 7 2 -2 2
-6 0 -10z m1635 -19 c1 -3 0 -5 -2 -5 -3 0 -7 2 -8 5 -2 3 -1 5 1 5 3 0 7 -2
9 -5z m-233 -65 c0 -3 -2 -5 -5 -5 -3 0 -4 2 -2 5 1 3 4 5 5 5 1 0 2 -2 2 -5z"/>
<path d="M1136 3127 c-9 -4 -16 -20 -13 -29 4 -10 31 -11 44 -2 5 4 8 11 6 19
-1 10 -5 13 -16 13 -8 1 -17 0 -21 -1z"/>
<path d="M1885 3070 c-10 -8 -10 -10 -3 -13 9 -3 11 -17 3 -17 -3 0 -5 -2 -5
-5 0 -3 4 -3 10 1 8 5 10 10 8 20 -1 7 0 15 3 18 10 10 -4 7 -16 -4z"/>
<path d="M1930 3070 c0 -3 2 -5 5 -5 3 0 5 2 5 5 0 3 -2 5 -5 5 -3 0 -5 -2 -5
-5z"/>
<path d="M1963 3045 c-2 -3 0 -5 4 -5 4 0 8 2 8 5 0 3 -2 5 -5 5 -2 0 -6 -2
-7 -5z"/>
<path d="M1421 3007 c-18 -16 -21 -21 -14 -23 9 -4 15 3 11 11 -2 3 0 5 4 5 4
0 8 -5 10 -11 l3 -11 8 11 c6 9 6 13 2 18 -3 5 -4 8 0 9 2 1 3 4 1 7 -2 3 -12
-3 -25 -16z"/>
<path d="M1290 2990 c0 -3 5 -5 10 -5 6 0 10 1 10 2 0 1 -4 3 -10 4 -5 2 -10
1 -10 -1z"/>
<path d="M1116 2972 c5 -2 12 -2 15 0 4 1 0 2 -8 2 -9 0 -12 -1 -7 -2z"/>
<path d="M1426 2972 c-7 -3 -8 -17 -1 -17 3 0 5 3 5 7 0 4 3 8 6 10 4 1 4 2 2
2 -3 0 -8 -1 -12 -2z"/>
<path d="M830 2963 c0 -9 -7 -10 -20 -3 -6 3 -11 3 -15 -3 -6 -6 -7 -6 -13 2
-6 7 -7 8 -12 1 -3 -4 -4 -10 -3 -12 2 -7 30 -9 34 -2 2 4 5 4 11 -1 7 -6 10
-5 18 4 11 11 13 21 5 21 -3 0 -5 -3 -5 -7z"/>
<path d="M935 2965 c0 -3 2 -5 5 -5 3 0 5 2 5 5 0 3 -2 5 -5 5 -3 0 -5 -2 -5
-5z"/>
<path d="M868 2955 c-2 -3 0 -5 5 -5 6 0 7 -3 5 -12 -2 -9 -1 -12 6 -14 9 -2
10 0 9 15 -1 14 -4 19 -12 20 -5 1 -12 -1 -13 -4z"/>
<path d="M1143 2950 c1 -3 4 -5 5 -5 1 0 2 2 2 5 0 3 -2 5 -5 5 -3 0 -4 -2 -2
-5z"/>
<path d="M913 2945 c1 -3 4 -5 5 -5 1 0 2 2 2 5 0 3 -2 5 -5 5 -3 0 -4 -2 -2
-5z"/>
<path d="M855 2941 c0 -3 4 -6 8 -8 5 -2 7 -1 6 3 -3 7 -14 12 -14 5z"/>
<path d="M933 2940 c-2 -3 0 -5 4 -5 4 0 8 2 8 5 0 3 -2 5 -5 5 -2 0 -6 -2 -7
-5z"/>
<path d="M800 2934 c0 -10 10 -19 21 -19 12 0 11 6 -1 16 -12 11 -20 11 -20 3z"/>
<path d="M905 2901 c0 -3 4 -6 8 -8 5 -2 7 -1 6 3 -3 7 -14 12 -14 5z"/>
<path d="M3633 3665 c-2 -2 -1 -10 2 -17 5 -15 3 -18 -18 -18 -17 0 -22 -7
-22 -27 l1 -10 7 11 c10 13 37 16 37 4 0 -5 2 -8 5 -8 3 0 5 3 5 6 0 3 5 4 15
2 8 -1 15 -1 15 2 0 3 -5 5 -12 5 -9 0 -13 4 -15 13 -2 6 -5 12 -8 12 -3 0 -5
3 -5 8 0 4 2 7 4 7 3 0 6 3 8 8 3 8 -14 10 -19 2z"/>
<path d="M3719 3667 c4 -2 8 -2 10 0 1 2 -2 3 -7 3 -6 -1 -7 -2 -3 -3z"/>
<path d="M3740 3665 c0 -3 5 -5 10 -5 6 0 10 -3 10 -7 0 -5 3 -7 8 -4 6 2 7 1
5 -3 -2 -4 -7 -5 -11 -4 -8 3 -22 -1 -22 -8 0 -2 5 -4 10 -4 8 0 10 -3 10 -20
0 -15 2 -19 7 -17 4 2 8 -2 9 -9 2 -6 5 -17 7 -23 2 -7 1 -11 -2 -11 -3 0 -6
5 -6 10 0 6 -3 10 -7 10 -5 0 -8 -3 -8 -7 0 -4 -1 -11 -3 -16 -2 -6 -1 -7 1
-4 3 3 8 4 15 2 6 -3 7 -4 2 -5 -6 0 -6 -1 1 -5 11 -7 12 -22 2 -18 -6 2 -8
-1 -8 -12 0 -7 -3 -16 -7 -19 -3 -3 -6 -13 -5 -21 0 -17 -9 -25 -28 -25 -5 0
-10 -2 -10 -5 0 -3 3 -5 7 -5 4 0 10 -3 13 -7 3 -5 4 -8 2 -8 -3 0 -5 -8 -6
-19 0 -14 2 -21 10 -27 6 -4 9 -10 7 -13 -6 -10 -13 -7 -19 7 -4 8 -9 12 -16
11 -6 -1 -15 3 -22 10 -11 12 -12 12 -19 3 -4 -5 -7 -11 -7 -13 0 -6 -26 8
-37 20 -11 13 -18 10 -18 -6 0 -14 8 -22 11 -12 2 5 4 5 9 1 5 -5 3 -8 -7 -15
-8 -5 -13 -12 -12 -19 0 -6 -1 -18 -3 -26 -3 -12 -2 -16 4 -19 5 -2 8 -9 8
-18 0 -20 13 -40 26 -40 8 0 9 -3 8 -16 -1 -9 1 -16 5 -18 3 -1 6 2 6 6 0 11
23 21 31 14 5 -4 9 -3 14 4 4 6 9 10 12 10 2 0 1 -4 -2 -8 -6 -6 -6 -9 0 -12
9 -6 13 -6 36 0 16 3 20 3 24 -6 6 -10 17 -12 22 -4 2 2 0 7 -4 11 -7 7 -5 25
4 23 3 -1 8 -12 10 -23 2 -12 7 -21 10 -20 3 2 6 4 6 7 0 2 2 11 4 19 3 10 6
12 10 8 4 -5 4 -7 -1 -9 -9 -3 -8 -31 2 -31 9 0 9 -12 -2 -29 -7 -12 -11 -14
-22 -11 -7 2 -15 3 -16 1 -2 -1 -3 0 -3 3 0 3 4 8 9 10 10 6 6 13 -5 8 -10 -4
-15 -20 -9 -34 2 -6 6 -19 8 -30 3 -20 3 -20 8 -8 3 7 4 17 3 23 -3 16 20 16
26 -1 3 -6 7 -12 9 -12 10 0 17 30 14 55 -3 17 -2 25 2 25 3 0 5 8 4 23 -2 24
0 29 13 24 10 -4 13 -14 8 -22 -4 -6 -6 -6 -9 -1 -3 5 -5 -1 -4 -17 0 -15 3
-25 7 -26 5 -2 6 3 5 17 -1 17 0 20 9 20 5 0 11 2 13 5 4 4 5 -9 6 -44 0 -7 2
-15 4 -17 6 -5 5 -22 -1 -22 -3 0 -5 5 -5 12 0 7 -2 14 -5 15 -6 4 -13 -7 -7
-11 7 -5 5 -18 -4 -28 -11 -12 -12 -23 -2 -23 4 0 10 7 13 15 3 8 8 15 11 15
6 0 5 -9 -2 -12 -5 -2 -5 -3 0 -7 4 -3 6 -8 4 -11 -6 -9 12 -26 22 -20 6 3 11
3 15 -2 6 -8 -1 -15 -17 -15 -6 0 -10 -4 -10 -8 -1 -5 -6 -7 -22 -7 -14 0 -23
-3 -26 -8 -7 -12 2 -16 24 -10 12 3 24 4 27 2 3 -2 9 1 12 6 7 8 7 8 7 -2 0
-7 2 -10 5 -9 8 6 11 -8 3 -16 -5 -5 -6 -11 -3 -20 4 -9 3 -14 -3 -20 -8 -8
-9 -8 -6 0 6 14 -6 49 -16 49 -5 0 -11 -2 -13 -5 -1 -3 -5 -4 -7 -2 -3 1 -3
-1 -2 -6 3 -7 2 -8 -8 -6 -9 3 -18 -1 -37 -18 -22 -19 -26 -21 -32 -14 -4 4
-11 6 -17 4 -6 -1 -9 1 -9 6 0 5 -3 6 -12 4 -15 -4 -18 5 -3 10 14 4 12 12 -3
10 -8 0 -14 2 -16 7 -2 7 -1 7 4 0 4 -7 5 -7 5 0 0 10 -42 50 -52 50 -6 0 -5
-5 2 -25 9 -24 9 -25 1 -24 -5 1 -8 5 -7 8 0 3 -3 8 -7 11 -4 3 -7 10 -7 14 0
11 -16 21 -24 15 -3 -3 -6 -8 -6 -11 0 -4 -3 -10 -8 -13 -4 -4 -5 -8 -3 -10 6
-3 13 -47 7 -43 -2 1 -7 -2 -11 -7 -4 -6 -10 -10 -14 -10 -3 0 -6 -4 -6 -10 0
-5 2 -10 4 -10 3 0 6 -5 7 -12 2 -10 1 -11 -12 -9 -9 1 -14 0 -14 -5 -1 -3 -3
-1 -4 6 -4 13 -18 24 -24 18 -2 -2 -1 -5 3 -8 3 -2 5 -6 3 -9 -5 -9 -28 -7
-28 1 0 4 -4 8 -8 10 -7 3 -7 5 -3 9 9 9 7 14 -5 14 -11 0 -57 44 -62 61 -3
10 -22 12 -22 2 0 -8 -17 -14 -23 -8 -3 2 -20 7 -39 12 -20 5 -40 11 -46 13
-8 3 -13 2 -19 -5 -10 -13 -10 -22 0 -18 7 3 7 2 2 -4 -5 -6 -5 -10 0 -15 3
-5 8 -7 11 -5 2 1 4 0 4 -3 0 -3 3 -5 8 -5 4 0 7 -3 7 -6 0 -5 1 -5 4 -1 2 4
6 5 11 2 4 -3 13 -5 20 -5 11 0 11 -1 4 -6 -10 -5 -37 -1 -49 8 -9 7 -19 7
-32 0 -6 -4 -10 -14 -13 -36 -2 -17 -6 -34 -9 -37 -3 -3 -29 -6 -64 -7 -66 -1
-76 -2 -82 -11 -2 -4 -5 -6 -8 -6 -2 1 -6 1 -7 0 -1 0 -32 -1 -67 -2 -82 -2
-78 -1 -78 -13 0 -5 -2 -10 -5 -10 -3 0 -3 -3 -2 -7 2 -5 0 -8 -5 -8 -8 0 -42
-21 -43 -26 0 -2 3 -4 7 -4 4 0 10 -3 13 -7 4 -6 4 -8 1 -8 -3 0 -6 -4 -6 -8
0 -5 3 -7 10 -4 7 2 10 0 10 -4 0 -4 2 -9 4 -13 6 -9 30 4 27 14 -2 6 -1 6 5
1 5 -4 13 -5 18 -4 6 2 12 1 13 -2 4 -6 18 -6 28 0 6 4 6 6 0 12 -9 11 1 23
11 14 4 -3 9 -4 11 -3 1 2 6 1 10 -3 10 -8 23 -3 23 9 0 11 18 20 36 18 19 -2
23 -6 20 -18 -2 -9 -1 -10 6 -7 10 3 28 -7 28 -16 0 -4 3 -6 8 -4 6 2 6 1 2
-7 -3 -6 -3 -11 3 -15 5 -4 7 -5 7 -1 0 3 2 6 4 6 3 0 5 -4 4 -9 0 -5 6 -12
16 -17 9 -4 21 -12 25 -16 5 -4 24 -9 42 -11 19 -2 34 -5 34 -8 0 -2 11 -11
25 -20 15 -9 26 -20 28 -27 2 -8 7 -12 13 -12 6 0 13 -4 17 -9 3 -5 11 -9 18
-9 6 -1 19 -2 28 -2 9 -1 18 -3 19 -6 1 -2 6 -4 10 -4 3 0 16 -9 28 -20 22
-20 35 -25 42 -15 2 3 8 5 13 3 8 -2 9 0 7 8 -1 6 1 11 5 12 14 6 7 10 -14 8
-19 -1 -21 -1 -13 6 10 7 7 14 -4 10 -9 -4 -14 17 -6 26 5 6 12 7 28 5 13 -2
25 -1 29 2 4 4 7 3 9 -3 2 -4 0 -9 -5 -10 -10 -4 -4 -12 11 -12 13 0 20 -7 12
-12 -9 -6 10 -28 23 -28 14 0 14 -2 7 -16 -5 -8 -4 -11 4 -17 6 -4 9 -11 7
-18 -1 -7 1 -15 6 -19 4 -3 8 -9 8 -13 0 -4 3 -7 8 -7 4 0 7 -3 7 -7 0 -4 7
-10 15 -14 8 -3 15 -8 15 -10 0 -2 15 -11 33 -19 17 -9 33 -18 35 -21 7 -10
20 -2 31 19 10 21 11 23 3 37 -7 15 -7 16 5 26 14 10 18 22 6 17 -7 -2 -13 6
-13 20 0 9 13 9 16 1 2 -4 5 -1 9 7 4 9 5 15 1 23 -6 10 -3 26 4 26 2 0 6 7 9
14 5 16 0 26 -13 26 -7 0 -8 13 -1 18 3 1 5 8 5 15 0 6 2 13 5 15 4 2 4 5 0 9
-3 4 -3 8 1 12 5 5 5 6 0 6 -4 0 -5 2 -3 5 1 3 0 5 -4 5 -4 0 -10 10 -15 21
-9 21 -9 22 0 34 16 22 50 18 44 -5 -2 -4 -1 -11 2 -15 4 -6 6 -6 10 0 2 3 3
9 2 12 -1 4 0 9 4 12 8 6 28 10 29 5 1 -15 -2 -21 -21 -41 -12 -12 -25 -23
-29 -24 -6 -3 -6 -3 -1 -4 4 0 10 -4 14 -9 6 -8 7 -8 7 0 0 9 10 13 10 4 0 -3
4 -5 8 -5 8 0 8 1 0 6 -8 7 -8 7 1 19 6 8 12 11 18 8 7 -2 8 -4 3 -11 -7 -7 0
-10 8 -3 6 6 47 11 47 6 0 -8 -21 -30 -30 -30 -14 0 -15 -6 -1 -18 13 -12 19
-14 52 -12 24 1 35 -11 31 -33 -2 -10 -1 -20 3 -24 4 -5 3 -7 -7 -10 l-13 -3
1 -66 c1 -84 -3 -143 -9 -159 -6 -13 -16 -50 -19 -67 -1 -6 -7 -23 -12 -38 -6
-15 -10 -28 -9 -29 1 -1 17 -5 36 -9 21 -5 37 -12 44 -20 14 -14 31 -16 53 -6
48 22 68 29 84 29 10 0 32 6 49 12 16 7 36 13 44 13 19 0 74 27 108 52 29 22
50 33 63 33 5 0 21 11 38 25 16 14 34 25 39 25 15 0 15 6 -1 25 -10 13 -14 22
-12 28 3 7 6 6 21 -8 10 -10 34 -38 53 -64 19 -25 39 -49 44 -52 5 -4 11 -11
14 -18 4 -6 9 -9 13 -8 10 4 42 -22 46 -38 2 -11 3 -11 7 -4 3 5 9 8 16 6 7
-1 16 4 29 18 10 11 20 20 24 20 7 0 7 0 8 -24 0 -8 2 -17 4 -18 5 -6 18 2 21
12 1 6 6 10 11 10 8 0 8 -1 -1 -7 -5 -4 -8 -9 -6 -11 2 -1 -2 -13 -9 -25 -12
-21 -12 -22 -2 -17 14 8 51 46 65 69 11 18 31 33 37 27 1 -1 1 -9 -1 -17 -4
-20 6 -15 19 11 5 10 13 20 17 22 5 1 8 5 8 8 0 3 3 9 8 13 9 10 9 16 -2 15
-5 0 -9 4 -10 11 -2 13 8 15 17 2 3 -5 8 -7 10 -4 3 2 2 5 -2 7 -9 3 -7 11 3
11 7 0 10 3 9 12 0 7 -3 13 -7 13 -9 0 -7 8 2 12 24 9 78 -12 123 -47 10 -8
23 -15 28 -15 5 0 13 -3 16 -7 3 -5 15 -10 25 -13 12 -3 21 -9 23 -15 1 -6 14
-15 29 -22 14 -6 29 -16 34 -22 6 -6 13 -9 22 -7 28 5 72 -60 73 -109 2 -42
-7 -127 -14 -142 -9 -16 -15 -15 -26 4 -5 9 -11 18 -15 22 -3 4 -6 9 -6 11 0
3 -41 20 -48 20 -1 0 -2 -4 -2 -9 0 -12 -9 -21 -21 -21 -7 0 -9 4 -9 14 0 24
20 97 30 112 6 7 10 15 10 16 0 2 4 10 10 18 15 22 5 48 -18 42 -6 -2 -14 -1
-18 1 -3 2 -12 4 -20 4 -18 1 -20 4 -14 20 4 11 3 15 -9 25 -16 15 -22 16 -21
4 2 -16 0 -21 -7 -21 -4 0 -8 4 -10 8 -6 15 -24 6 -30 -15 l-5 -19 -12 11 c-6
6 -12 10 -13 9 -17 -22 -18 -25 -8 -43 11 -20 13 -31 5 -31 -3 0 -4 -5 -2 -13
3 -12 2 -13 -7 -8 -9 5 -10 4 -13 -23 -2 -16 -5 -52 -6 -81 -2 -53 -9 -80 -21
-80 -5 0 -6 16 -3 76 2 62 2 75 -4 73 -4 -2 -6 -10 -6 -22 0 -11 -2 -22 -4
-24 -1 -3 -6 -17 -9 -32 -7 -26 -16 -37 -11 -13 1 8 0 15 -5 18 -5 3 -5 5 0 8
6 4 6 6 1 9 -8 5 -28 -19 -32 -39 -3 -15 -9 -23 -25 -38 -13 -12 -39 -51 -36
-54 1 -2 11 5 21 15 20 19 29 23 24 11 -1 -4 0 -8 2 -10 3 -2 -2 -10 -9 -19
-8 -8 -15 -19 -15 -23 0 -10 -16 -39 -72 -136 -22 -37 -45 -78 -52 -90 -7 -12
-17 -30 -22 -39 -11 -20 -7 -29 5 -11 5 7 15 19 22 27 8 8 14 17 14 19 0 2 5
9 11 16 6 6 20 22 31 35 10 13 21 23 24 23 3 0 12 5 20 11 8 5 16 9 17 7 4 -3
-12 -31 -25 -46 -17 -20 -38 -62 -32 -62 8 0 36 30 41 42 3 8 18 11 18 5 0 -2
-5 -9 -11 -16 -9 -9 -9 -11 -3 -8 15 5 24 -6 19 -23 -5 -17 -2 -19 11 -7 10
10 11 9 19 -28 5 -24 3 -31 -7 -27 -4 2 -12 -4 -17 -12 -7 -9 -21 -19 -35 -24
-13 -5 -25 -10 -28 -12 -8 -7 18 -11 55 -8 31 3 37 3 37 -4 0 -8 -18 -23 -28
-23 -4 0 -12 -5 -19 -12 -8 -7 -22 -13 -38 -15 -13 -2 -26 -5 -27 -8 -9 -13
45 -19 90 -11 21 4 21 4 24 -12 4 -18 0 -29 -7 -25 -2 2 -7 0 -10 -4 -3 -5
-12 -7 -20 -6 -17 2 -18 0 -8 -12 4 -4 8 -13 10 -19 5 -15 -9 -15 -19 0 -8 11
-8 11 -15 2 -8 -12 -24 -8 -28 7 -4 15 -19 21 -31 11 -11 -10 -12 -30 -1 -42
8 -8 8 -9 -4 -9 -15 0 -24 -9 -24 -23 0 -6 -3 -13 -7 -16 -3 -3 -11 -20 -16
-37 -5 -17 -13 -36 -18 -41 l-10 -10 4 10 c1 5 -2 2 -8 -7 -6 -9 -13 -16 -15
-16 -11 0 -4 -15 9 -22 18 -9 21 -17 21 -50 0 -28 -13 -53 -29 -53 -5 0 -4 3
5 10 11 9 13 13 11 41 -1 40 -1 37 -10 41 -11 4 -31 -7 -34 -19 -3 -13 -3 -13
19 -14 21 -1 25 -9 4 -9 -26 0 -43 -35 -21 -42 17 -6 11 -15 -7 -11 -13 2 -18
0 -18 -4 0 -9 -21 -18 -37 -16 -15 2 -26 -9 -29 -29 -1 -9 -5 -22 -8 -29 -3
-8 -8 -20 -11 -26 -3 -7 -8 -13 -12 -13 -6 0 -7 -4 -6 -18 2 -9 4 -19 5 -21 5
-9 -7 -17 -24 -17 -22 0 -26 -6 -16 -22 5 -8 7 -16 5 -21 -2 -5 -4 -19 -5 -31
-1 -12 -6 -27 -10 -33 -4 -7 -7 -14 -7 -17 0 -3 -3 -13 -7 -22 -15 -35 -28
-70 -28 -76 0 -4 -3 -9 -7 -10 -5 -2 -8 -6 -8 -8 0 -8 -36 -79 -44 -88 -3 -4
-6 -9 -6 -12 0 -3 -4 -11 -10 -18 -6 -7 -10 -19 -10 -27 0 -9 -2 -13 -6 -11
-6 4 -14 -7 -14 -22 0 -6 -3 -11 -7 -11 -4 0 -8 -4 -10 -8 -4 -11 -4 -12 8
-12 9 0 10 -2 8 -15 -2 -13 0 -17 12 -23 20 -10 18 -19 -6 -27 -21 -7 -25 -5
-31 12 -3 7 -39 -17 -39 -25 0 -4 -6 -13 -13 -19 l-12 -12 16 4 c9 2 20 5 25
7 5 3 9 2 9 -1 0 -12 9 -5 12 9 3 15 15 22 12 7 -2 -10 20 -14 154 -29 41 -5
85 -11 97 -14 24 -5 69 -12 133 -19 22 -3 58 -8 80 -12 22 -4 64 -11 95 -15
30 -5 94 -14 142 -21 48 -7 101 -15 118 -17 16 -2 54 -8 85 -12 30 -4 92 -12
137 -18 45 -6 89 -11 98 -13 8 -1 67 -9 132 -17 65 -9 173 -23 240 -33 67 -10
130 -19 140 -20 10 0 21 -2 25 -4 4 -1 20 -3 35 -5 36 -4 41 -10 13 -18 -18
-5 -31 -5 -62 -1 -21 3 -64 9 -96 13 -32 4 -91 13 -132 18 -42 6 -84 12 -95
13 -11 1 -53 8 -92 15 -40 7 -113 17 -163 22 -50 6 -115 13 -145 17 -31 4 -98
14 -150 21 -106 14 -183 25 -295 44 -82 13 -235 36 -275 40 -14 2 -69 10 -122
19 -66 10 -100 14 -107 11 -10 -5 -9 -6 8 -23 16 -14 18 -19 15 -31 -3 -12 -5
-13 -30 -13 -27 0 -27 0 -27 -15 0 -13 -2 -15 -22 -18 -25 -3 -57 1 -67 9 -3
3 -6 10 -6 16 0 6 -6 17 -12 23 -15 13 -16 28 -6 53 5 10 6 18 3 20 -3 1 -49
7 -101 12 -53 6 -104 12 -113 15 -16 4 -18 3 -36 -15 -23 -25 -40 -26 -60 -5
-8 8 -15 19 -15 25 0 9 -2 11 -10 9 -5 -2 -10 -1 -11 2 -1 3 -8 4 -16 3 -13
-1 -14 -2 -8 -9 25 -26 55 -68 54 -75 -4 -20 -23 -5 -76 64 -23 29 -24 30 -74
36 -20 2 -54 7 -76 10 -29 4 -48 4 -68 1 -37 -7 -57 -10 -90 -14 -15 -1 -48
-6 -72 -10 -25 -4 -96 -14 -158 -22 -124 -17 -130 -18 -171 -25 -32 -6 -86
-24 -73 -25 11 0 12 -10 2 -10 -11 0 -10 -3 3 -16 6 -6 15 -11 20 -10 5 1 9 0
9 -3 0 -3 -17 -7 -37 -11 -35 -6 -37 -7 -29 -16 5 -5 14 -9 22 -9 10 0 13 -3
15 -15 2 -13 1 -15 -20 -22 -13 -4 -36 -7 -52 -6 -23 0 -29 -1 -29 -7 0 -6 -2
-5 -7 2 -5 5 -11 8 -15 6 -10 -4 -19 16 -12 26 4 4 2 6 -9 6 -13 0 -13 1 -10
18 1 10 5 20 9 22 4 3 4 6 -1 13 -6 7 -6 9 -1 11 3 1 6 4 6 6 0 6 -78 2 -110
-6 -12 -3 -29 -6 -36 -7 -8 -1 -24 -6 -37 -12 -13 -5 -29 -10 -36 -10 l-13 0
12 -10 c6 -6 15 -10 20 -10 5 0 13 -6 17 -12 8 -12 8 -13 -2 -13 -5 0 -11 -2
-13 -5 -1 -3 -8 -5 -14 -4 -25 2 -40 -1 -34 -7 3 -3 11 -5 18 -5 11 0 12 -2
11 -17 -1 -9 1 -18 4 -19 3 -1 1 -5 -4 -10 -10 -7 -11 -6 -14 6 l-3 14 -1 -13
c-1 -7 -1 -14 -1 -16 1 -7 -5 -4 -11 4 -5 7 -7 7 -13 1 -4 -4 -11 -8 -16 -10
-10 -4 -34 6 -34 15 0 9 -18 7 -22 -2 -2 -6 -5 -6 -14 -1 -6 3 -17 5 -24 5 -8
-1 -19 4 -27 11 -15 14 -19 15 -26 8 -4 -4 -8 -3 -14 3 -8 7 -9 7 -21 0 -10
-7 -14 -7 -22 -2 -9 5 -11 5 -18 -5 -8 -11 -22 -15 -22 -6 0 8 -24 6 -40 -3
-9 -4 -22 -6 -34 -5 -15 2 -22 0 -30 -7 -10 -10 -11 -10 -11 -1 0 5 -3 3 -7
-6 -6 -15 -6 -15 -9 -4 -3 10 -5 11 -22 8 -11 -2 -22 -7 -26 -11 -6 -8 -53
-13 -48 -5 1 1 -5 2 -13 2 -8 0 -13 -3 -11 -5 1 -3 -4 -3 -13 -1 -12 2 -17 1
-19 -5 -2 -5 -9 -7 -19 -6 -9 0 -18 0 -21 -2 -6 -3 -31 -1 -43 4 -10 4 -13 -6
-3 -10 4 -2 -1 -2 -10 0 -9 2 -16 1 -16 -2 0 -3 -4 -4 -10 -2 -7 1 -10 0 -10
-6 0 -4 2 -8 5 -8 3 0 5 -2 5 -5 0 -4 -8 0 -17 8 -14 12 -15 16 -10 20 4 3 7
12 7 19 0 12 1 13 7 8 8 -6 28 -2 28 6 0 5 6 4 42 -2 7 -1 11 2 13 11 l4 13 4
-12 3 -12 7 12 c6 9 7 10 7 2 0 -5 3 -8 6 -7 4 2 6 7 6 11 -1 8 2 9 17 7 10
-2 22 -4 26 -5 5 -1 7 3 8 13 0 15 -11 24 -18 13 -2 -4 -8 -5 -12 -3 -13 5
-32 -2 -35 -11 -2 -8 -2 -7 -2 0 -1 5 -3 9 -6 9 -3 0 -5 -4 -5 -9 -1 -8 -1 -8
-4 0 -3 6 -6 7 -16 3 -7 -3 -33 -6 -57 -7 -25 -2 -54 -5 -65 -8 -11 -3 -29 -7
-40 -7 -24 -2 -45 -5 -45 -7 0 0 -9 -1 -20 -2 -25 -1 -80 -9 -92 -13 -2 -1 -8
-1 -13 0 -5 0 -12 -2 -16 -5 -3 -3 -9 -5 -11 -3 -5 3 -63 -4 -93 -12 -11 -2
-43 -6 -70 -7 -27 -2 -51 -4 -54 -6 -12 -7 -67 -15 -82 -12 -10 2 -17 2 -18
-1 -1 -3 -12 -6 -24 -7 -45 -4 -62 -7 -65 -11 -1 -2 -11 -4 -22 -4 -11 -1 -27
-4 -35 -7 -9 -3 -17 -5 -18 -5 -1 0 -4 -3 -6 -8 -3 -9 -3 -9 -4 -1 0 5 -3 9
-7 9 -5 0 -8 -4 -8 -9 -1 -5 -2 -6 -3 -2 -4 9 -35 8 -39 -2 -2 -5 -6 -7 -14
-4 -6 2 -12 1 -15 -4 -3 -5 -4 -5 -4 2 0 10 -3 10 -17 4 -9 -4 -9 -4 -2 -5 6
0 8 -3 6 -8 -4 -9 -14 -9 -22 0 -9 11 -14 10 -21 -4 -5 -13 -26 -18 -30 -9 -1
3 -7 6 -13 8 -8 3 -11 2 -11 -4 0 -5 2 -7 6 -5 4 2 4 1 2 -3 -3 -3 -2 -8 2
-10 3 -2 4 -5 1 -7 -2 -1 -9 1 -16 5 -9 7 -10 9 -4 13 4 2 0 3 -12 3 -10 0
-18 -2 -16 -4 1 -2 -1 -5 -4 -7 -5 -2 -5 -3 0 -7 4 -3 6 -7 4 -11 -3 -4 -6 -4
-11 0 -9 8 -19 1 -12 -8 5 -6 5 -7 -2 -7 -4 0 -8 3 -8 6 -1 4 -1 12 -2 19 -1
14 -2 15 -20 15 -8 0 -13 -3 -13 -7 0 -11 -24 -13 -28 -2 -3 9 -29 13 -34 5
-1 -2 -15 -4 -31 -5 -16 -1 -39 -4 -50 -6 -12 -3 -24 -4 -28 -2 -4 1 -11 -1
-16 -5 -7 -5 -15 -5 -29 -2 -12 3 -23 2 -29 -1 -5 -3 -16 -5 -24 -5 -9 0 -17
-2 -18 -5 -2 -2 -9 -2 -19 0 -11 3 -17 3 -19 -1 -3 -3 -9 -4 -17 -2 -8 2 -17
1 -21 -2 -5 -5 -7 -5 -7 0 0 4 -3 4 -10 0 -5 -3 -16 -5 -24 -4 -7 0 -19 -2
-25 -5 -6 -4 -13 -5 -16 -4 -2 2 -21 0 -41 -4 -21 -5 -52 -9 -70 -9 -19 -1
-36 -5 -41 -9 -7 -6 -11 -6 -19 -1 -7 5 -12 5 -16 1 -4 -3 -8 -3 -12 1 -3 3
-7 4 -10 2 -2 -2 -1 -5 3 -7 3 -2 -3 -4 -14 -5 -11 0 -24 -3 -29 -6 -6 -3 56
-5 203 -5 161 0 211 1 211 6 0 5 1 5 6 0 5 -5 657 -6 2905 -6 l2899 0 0 400 0
400 -14 1 c-7 0 -19 1 -26 2 -7 1 -33 3 -57 5 -25 1 -54 3 -65 5 -11 1 -26 2
-32 2 -6 0 -11 2 -11 5 0 3 10 5 25 4 14 -1 25 -4 25 -6 0 -3 2 -2 5 1 2 4 6
6 8 5 3 -2 24 -4 47 -6 23 -2 54 -5 69 -6 l26 -2 0 498 c0 328 -2 497 -5 497
-3 0 -5 2 -5 5 0 3 3 4 6 2 4 -1 2 1 -3 5 -5 4 -7 8 -3 10 8 5 1 13 -8 10 -5
-2 -7 -7 -5 -15 2 -7 1 -12 -2 -12 -4 0 -5 6 -4 15 1 8 1 15 -2 15 -2 0 -7 4
-12 8 -7 7 -9 8 -12 2 -4 -6 -5 -6 -5 0 0 4 6 10 13 13 9 5 12 5 12 0 0 -4 3
-8 7 -10 5 -1 6 1 4 10 -2 9 1 12 11 15 14 3 17 10 7 13 -5 2 -5 4 0 9 4 5 6
28 6 79 0 68 0 71 -10 71 -9 0 -10 1 -4 11 5 11 6 11 9 1 3 -5 4 354 5 799 l0
809 -1035 0 -1035 0 11 -26 c5 -15 11 -30 13 -34 1 -4 11 -25 21 -47 29 -62
34 -86 23 -121 -14 -49 -19 -89 -13 -104 7 -19 6 -28 -2 -28 -16 0 -22 17 -24
68 -1 47 -2 51 -17 72 -9 12 -20 33 -26 45 -5 13 -17 28 -25 34 -15 11 -16 11
-30 2 -16 -10 -41 -37 -51 -56 -4 -7 -7 -34 -8 -67 -1 -35 -4 -56 -7 -57 -10
-4 -41 5 -43 12 -2 4 2 13 8 20 13 17 13 51 2 120 l-9 50 12 17 c7 10 16 20
20 23 4 3 15 13 25 21 9 9 21 17 25 19 9 2 15 20 11 31 -2 8 -606 9 -606 1z
m35 -40 c0 -5 -2 -10 -5 -10 -3 0 -5 5 -5 10 0 6 2 10 5 10 3 0 5 -4 5 -10z
m1670 -125 c0 -6 -3 -10 -7 -10 -5 0 -8 4 -8 10 0 6 3 10 8 10 4 0 7 -4 7 -10z
m-1670 -30 c0 -3 -1 -5 -2 -5 -1 0 -4 2 -5 5 -2 3 -1 5 2 5 3 0 5 -2 5 -5z
m-9 -33 c2 -2 2 -6 1 -10 -3 -6 -4 -6 -10 0 -4 4 -7 9 -7 10 0 4 13 4 16 0z
m-66 -75 c0 -4 2 -7 5 -7 3 0 5 4 5 8 0 4 3 7 6 6 4 -1 7 -10 7 -20 0 -17 -1
-17 -10 -11 -8 5 -11 5 -17 1 -8 -7 -18 5 -11 14 3 3 4 7 2 8 -5 5 3 15 8 11
3 -1 5 -6 5 -10z m-2 -47 c1 -3 0 -5 -3 -5 -3 0 -5 2 -5 5 0 3 1 5 2 5 1 0 4
-2 6 -5z m75 -5 c1 -3 0 -5 -3 -5 -3 0 -5 2 -5 5 0 3 1 5 2 5 1 0 4 -2 6 -5z
m-14 -6 c-1 -4 -5 -6 -9 -6 -4 0 -8 2 -9 6 -1 3 3 6 9 6 6 0 10 -3 9 -6z m-25
-7 c21 -10 24 -17 9 -17 -7 0 -15 -4 -18 -9 -3 -6 -5 -6 -5 -2 0 6 -1 6 -7 1
-5 -4 -7 -11 -5 -18 3 -13 -6 -17 -11 -4 -2 4 -6 6 -10 5 -11 -4 -34 18 -30
30 4 15 27 19 31 6 1 -5 6 -9 9 -9 7 0 15 14 14 21 -1 6 6 5 23 -4z m36 -2 c0
-3 -2 -5 -5 -5 -3 0 -5 2 -5 5 0 3 2 5 5 5 3 0 5 -2 5 -5z m64 -53 c-2 -2 -6
-2 -10 0 -4 1 -3 2 3 3 5 0 8 -1 7 -3z m185 -15 c-2 -2 -6 -2 -10 0 -4 1 -3 2
3 3 5 0 8 -1 7 -3z m-24 -7 c0 -3 -4 -5 -8 -5 -4 0 -6 2 -4 5 1 3 5 5 7 5 3 0
5 -2 5 -5z m-35 -15 c0 -3 -2 -5 -5 -5 -3 0 -5 2 -5 5 0 3 2 5 5 5 3 0 5 -2 5
-5z m28 -33 c0 -16 -2 -20 -12 -21 -14 -2 -28 10 -20 18 5 5 4 6 0 6 -3 0 -6
2 -6 5 0 3 4 5 10 5 5 0 11 2 13 5 6 11 15 1 15 -18z m111 7 c3 -3 6 -20 6
-37 0 -17 3 -37 6 -44 7 -15 2 -22 -9 -13 -6 5 -9 5 -13 1 -9 -9 -37 -7 -46 2
-20 20 -4 57 24 57 15 0 24 7 20 17 -3 9 -24 11 -29 3 -5 -7 -13 -6 -16 3 -2
4 0 10 4 12 10 7 46 6 53 -1z m131 -114 c0 -3 -1 -5 -2 -5 -1 0 -4 2 -5 5 -2
3 -1 5 2 5 3 0 5 -2 5 -5z m-175 -20 c0 -3 -5 -5 -10 -5 -6 0 -9 2 -7 5 1 3 6
5 10 5 4 0 7 -2 7 -5z m-60 -10 c0 -5 -2 -10 -5 -10 -3 0 -5 5 -5 10 0 6 2 10
5 10 3 0 5 -4 5 -10z m68 -5 c1 -3 0 -5 -2 -5 -3 0 -7 2 -8 5 -2 3 -1 5 1 5 3
0 7 -2 9 -5z m-60 -40 c-2 -3 -6 -5 -8 -5 -3 0 -2 3 1 7 7 8 12 7 7 -2z m-89
-34 c1 -9 -1 -16 -4 -16 -7 0 -16 20 -13 28 5 13 15 5 17 -12z m61 -21 c5 -10
22 -15 63 -17 30 -2 61 -8 73 -14 6 -3 9 -2 9 1 0 3 -2 5 -5 5 -3 0 -4 2 -2 5
2 4 5 4 10 0 4 -4 6 -8 4 -10 -1 -2 1 -10 5 -18 5 -8 8 -19 8 -24 0 -13 -9
-28 -18 -28 -4 0 -6 2 -4 5 2 4 -25 8 -39 6 -3 -1 -6 3 -8 8 -6 17 -17 21 -32
11 -7 -6 -17 -10 -22 -10 -5 0 -12 -4 -15 -9 -12 -18 -112 -36 -128 -22 -11 9
-45 4 -53 -8 -6 -8 -7 -8 -11 0 -4 7 -8 8 -18 4 -8 -3 -15 -3 -19 -1 -9 8 -64
-3 -72 -14 -4 -6 -11 -10 -15 -10 -5 0 -16 -3 -26 -7 -10 -3 -24 -4 -32 -3 -9
2 -20 1 -25 -1 -6 -3 -11 -2 -17 2 -10 8 -107 8 -178 -1 -2 0 -2 -3 0 -6 3 -4
-5 -5 -31 -2 -39 4 -57 8 -57 13 0 5 36 15 53 15 8 0 35 3 60 8 24 4 60 10 80
13 19 3 37 9 41 14 4 5 6 6 6 1 0 -4 2 -5 5 -3 8 4 6 10 -6 16 -6 4 -8 5 -3 4
6 -2 8 0 6 5 -4 8 4 9 12 1 3 -3 7 -4 10 -2 2 2 1 5 -3 7 -4 3 -3 6 4 12 12
11 18 12 10 2 -10 -13 3 -13 15 0 14 14 32 15 58 5 10 -5 23 -8 29 -8 10 0 10
0 -1 -9 -11 -8 -11 -10 -4 -13 5 -2 24 -3 42 -3 28 0 35 2 40 10 4 7 5 13 1
20 -6 11 5 23 18 18 5 -2 6 -7 4 -22 l-3 -18 39 0 c21 1 39 2 40 4 2 1 -3 8
-10 15 -13 13 -13 25 1 30 5 2 12 -1 18 -7 9 -9 9 -12 4 -20 -6 -10 -6 -10 3
-5 7 3 11 13 13 30 2 14 6 24 9 22 2 -2 4 -6 2 -9 -2 -7 6 -18 14 -18 3 0 11
9 18 20 13 22 22 25 30 10z m-404 -3 c-3 -2 -9 -2 -12 0 -4 1 -1 2 6 2 7 0 10
-1 6 -2z m520 -9 c0 -3 -3 -6 -6 -7 -3 -1 -5 2 -5 7 0 4 2 7 5 6 3 -1 6 -4 6
-6z m86 -3 c2 -2 1 -6 -2 -7 -3 -2 -5 0 -5 4 0 9 3 10 7 3z m-333 -18 c1 -1 0
-6 -1 -12 -5 -13 -22 -12 -30 1 -4 7 -4 10 2 14 6 4 23 2 29 -3z m-157 -9 c1
-5 1 -8 -2 -8 -3 0 -5 3 -5 8 0 4 1 7 2 7 1 0 3 -3 5 -7z m167 -97 c2 -16 -8
-26 -14 -16 -3 4 -5 13 -5 19 0 16 17 13 19 -3z m263 0 c8 -18 8 -31 0 -38 -6
-7 -7 -10 -2 -16 5 -6 5 -7 -1 -7 -9 0 -24 21 -24 32 0 4 -4 10 -8 13 -7 6 -7
8 3 16 14 11 28 12 32 0z m-329 -7 c-1 -4 -2 -3 -3 3 0 5 1 8 3 7 2 -2 2 -6 0
-10z m40 -14 c1 -3 1 -10 -1 -15 -4 -14 -17 -4 -13 10 2 11 9 13 14 5z m-153
-22 c0 -4 2 -9 5 -10 2 -2 3 2 1 7 -2 8 0 9 5 7 11 -4 15 -22 6 -22 -9 0 -9
-11 -1 -20 5 -5 5 -6 -1 -4 -4 1 -10 -1 -14 -4 -9 -10 -19 -9 -31 3 l-10 10 0
-11 c0 -14 -9 -6 -11 11 -1 9 -4 12 -11 11 -9 -2 -8 0 4 11 7 7 18 13 25 13 6
0 14 2 18 5 8 5 15 2 15 -7z m178 4 c4 -10 0 -14 -10 -10 -5 1 -7 6 -5 10 4
10 11 10 15 0z m-58 -23 c0 -6 -7 -5 -9 1 -1 4 0 5 4 4 3 -1 6 -3 5 -5z m1020
2 c7 -3 29 -8 48 -11 29 -5 39 -9 54 -22 10 -9 18 -20 18 -25 0 -6 -6 -5 -33
8 -18 8 -33 14 -34 13 0 -1 0 -19 2 -41 l3 -40 18 -3 c11 -2 20 -4 21 -5 19
-25 28 -40 28 -48 0 -7 1 -8 4 -3 3 5 8 3 18 -9 15 -18 16 -28 6 -32 -5 -2
-11 2 -16 11 -5 7 -15 22 -23 32 -8 10 -13 21 -11 24 1 3 0 5 -4 4 -4 -1 -6 1
-5 4 0 5 -4 5 -15 2 -9 -3 -17 -5 -18 -5 0 0 -4 -7 -9 -15 -7 -14 -7 -16 2
-29 5 -7 16 -23 24 -35 8 -12 17 -23 20 -24 8 -3 3 -17 -5 -17 -3 0 -9 8 -13
17 -4 10 -8 17 -10 17 -5 -2 -25 13 -25 18 0 9 -22 28 -32 28 -5 0 -14 -5 -19
-11 -10 -11 -13 -39 -4 -39 3 0 4 -2 3 -4 -1 -3 3 -7 10 -10 6 -3 12 -8 12
-10 0 -2 7 -11 15 -20 9 -10 15 -20 14 -23 -4 -12 -17 -7 -30 11 -8 10 -24 31
-37 47 -25 32 -26 36 -12 32 7 -3 11 1 18 16 7 14 14 20 30 26 18 6 22 10 27
26 5 16 4 21 -3 34 -5 8 -11 13 -13 12 -2 -1 -4 1 -4 5 0 24 -40 73 -59 73 -7
0 -7 -1 1 -9 6 -7 6 -11 2 -15 -3 -3 -8 -4 -11 -1 -7 5 -48 9 -48 4 0 -2 -4
-4 -8 -4 -6 0 -7 -3 -6 -10 2 -5 1 -10 -1 -10 -3 0 -5 -5 -5 -12 0 -9 -3 -13
-11 -14 -6 -1 -11 -5 -11 -8 0 -4 -5 -9 -10 -12 -9 -3 -8 -4 3 -2 8 1 12 0 11
-3 -2 -2 0 -7 3 -11 4 -5 1 -7 -14 -6 -17 0 -19 -1 -19 -13 0 -7 -3 -16 -6
-20 -3 -4 -4 -9 -2 -11 6 -7 9 -47 4 -60 -3 -5 -2 -14 2 -20 4 -8 5 -19 3 -30
-2 -12 -1 -18 3 -20 5 -2 5 -2 0 -3 -16 -1 -34 29 -46 73 -17 63 -13 116 10
162 16 31 60 65 95 75 20 5 86 6 100 1z m206 -87 c25 -76 30 -147 10 -134 -6
3 -6 5 0 10 8 8 4 46 -5 49 -3 1 -15 8 -27 15 -12 8 -32 20 -44 27 -30 17 -37
26 -28 33 5 5 15 0 45 -20 21 -14 40 -24 41 -22 2 1 -3 22 -10 45 -12 39 -13
53 -4 53 2 0 12 -25 22 -56z m-1225 36 c3 -12 -4 -19 -12 -11 -6 6 -2 21 5 21
3 0 6 -4 7 -10z m-106 0 c0 -3 -2 -5 -5 -5 -3 0 -4 2 -2 5 1 3 4 5 5 5 1 0 2
-2 2 -5z m-75 -16 c0 -9 -1 -10 -5 -4 -6 10 -6 15 0 15 3 0 5 -5 5 -11z m185
-27 c0 -4 -2 -6 -5 -4 -3 1 -5 6 -5 10 0 4 2 6 5 5 3 -2 5 -7 5 -11z m12 -38
c-4 -7 -12 -5 -12 3 0 5 3 7 7 5 5 -2 7 -5 5 -8z m1743 -14 c0 -3 -4 -7 -9
-10 -6 -3 -12 -15 -16 -28 -4 -18 -7 -22 -10 -17 -3 4 -5 11 -5 16 0 5 -4 13
-10 18 -13 11 -13 14 6 31 l16 14 14 -10 c8 -5 14 -12 14 -14z m341 -88 c-1
-69 -7 -97 -20 -97 -8 0 -8 0 1 56 2 8 0 14 -3 14 -3 0 -9 5 -14 11 -11 14
-26 9 -37 -14 -9 -20 -10 -38 -3 -53 8 -13 3 -17 -12 -10 -12 5 -12 6 -11 79
l1 74 12 3 c7 2 29 3 50 3 l37 -1 -1 -65z m-2042 27 c2 -14 -2 -17 -12 -10 -7
5 -12 19 -8 23 7 7 19 0 20 -13z m1687 -25 c-7 -7 -13 -2 -9 6 2 3 6 4 9 2 3
-2 3 -5 0 -8z m-793 -20 c6 -4 19 -17 28 -29 9 -12 19 -25 22 -29 17 -16 19
-38 4 -25 -6 4 -9 1 -15 -13 -14 -35 -63 -43 -74 -12 -7 19 0 37 23 59 20 19
21 20 11 27 -15 12 -22 10 -43 -12 -24 -24 -31 -25 -27 -6 5 17 11 25 31 37
17 10 25 11 40 3z m277 -60 c0 -2 -4 -5 -9 -6 -7 -2 -10 -10 -13 -29 -1 -14
-4 -27 -5 -28 -4 -4 -28 10 -28 16 0 6 20 47 27 56 5 5 28 -2 28 -9z m830 -26
c0 -5 -5 -8 -15 -8 -14 0 -19 4 -12 12 7 6 27 3 27 -4z m-1094 -80 c-1 -2 -4
-1 -7 3 -6 10 -5 15 3 8 4 -4 6 -8 4 -11z m-17 4 c-2 -2 -6 -2 -10 0 -4 1 -3
2 3 3 5 0 8 -1 7 -3z m1037 -58 c4 1 10 -1 12 -4 6 -10 4 -125 -3 -132 -4 -5
-21 -7 -65 -6 -55 0 -71 3 -64 11 2 2 14 3 28 3 13 -1 30 0 37 2 12 2 13 4 9
10 -7 8 -3 22 5 22 3 0 5 -7 5 -15 0 -17 5 -19 16 -6 8 9 11 30 10 70 -1 20
-2 21 -17 25 -9 2 -19 2 -21 2 -3 -1 -25 -3 -48 -4 -23 -2 -44 -5 -47 -7 -2
-2 -5 -25 -6 -50 -2 -42 -1 -46 8 -48 14 -4 6 -18 -9 -16 -12 1 -14 4 -15 20
-1 12 1 19 4 19 5 0 5 2 0 8 -4 4 -7 23 -7 45 -1 32 0 38 8 42 5 3 37 6 72 7
35 1 64 3 66 5 1 1 5 1 8 -1 3 -2 9 -3 14 -2z m256 -48 c-4 -33 -7 -40 -7 -16
-1 16 -1 17 -5 6 -3 -7 -4 -14 -3 -16 2 -2 -1 -5 -5 -7 -5 -2 -10 -1 -12 2 -2
4 -3 35 0 51 0 3 13 7 29 8 5 1 6 -5 3 -28z m148 -38 c0 -25 -5 -34 -17 -30
-9 4 -11 37 -3 53 9 15 20 2 20 -23z m-628 -1 c2 -5 0 -12 -4 -16 -7 -7 -9 -7
-16 0 -5 5 -7 12 -5 16 4 11 21 10 25 0z m153 -12 c0 -3 -2 -5 -5 -5 -3 0 -5
2 -5 5 0 3 2 5 5 5 3 0 5 -2 5 -5z m-131 -97 c-3 -19 -64 -20 -64 -1 0 11 11
18 26 15 8 -2 14 -1 14 2 0 3 4 3 13 -1 8 -4 12 -9 11 -15z m681 7 c4 -8 4
-10 -2 -10 -5 0 -8 4 -8 10 0 6 1 10 2 10 2 0 5 -4 8 -10z m-656 -4 c1 -3 -2
-6 -6 -6 -4 0 -8 4 -8 8 0 9 11 7 14 -2z m691 -34 c12 -15 13 -30 3 -34 -9 -3
-33 27 -33 42 0 10 20 5 30 -8z m-1026 -26 c-3 -4 -10 -12 -15 -17 -14 -14
-11 2 2 16 7 8 9 12 5 14 -3 1 -5 4 -3 6 1 3 6 2 10 -3 7 -6 7 -9 1 -16z
m1110 1 c3 2 11 0 18 -3 11 -5 13 -9 13 -29 0 -13 -3 -31 -6 -40 -5 -15 -6
-16 -26 -12 -36 6 -44 10 -42 26 1 10 4 14 12 14 15 0 19 17 7 28 -5 5 -10 11
-10 14 0 6 16 9 24 4 3 -3 8 -4 10 -2z m99 -22 c1 -3 0 -5 -3 -5 -3 0 -5 2 -5
5 0 3 1 5 2 5 1 0 4 -2 6 -5z m-935 -30 c1 -3 8 -5 14 -5 14 0 24 -11 20 -22
-2 -5 -9 -8 -21 -8 -15 0 -17 -1 -10 -5 5 -3 11 -4 14 -3 2 2 6 1 8 -2 2 -4 0
-8 -4 -10 -5 -4 -3 -5 6 -5 10 0 11 -1 5 -5 -6 -4 -6 -5 3 -5 17 0 22 -10 22
-43 0 -17 2 -37 5 -44 5 -13 -1 -23 -7 -13 -3 3 -7 3 -13 0 -13 -7 -36 -6 -46
1 -8 6 -11 17 -10 34 1 10 27 25 43 25 11 0 13 2 13 13 0 13 -1 13 -23 11 -18
-2 -23 -1 -26 5 -4 12 -13 17 -17 10 -5 -9 -10 16 -8 44 1 14 4 25 7 25 4 0 8
1 10 3 5 5 11 5 15 -1z m582 -11 c0 -9 16 -24 26 -24 27 0 51 -92 26 -102 -12
-4 -27 6 -27 18 0 13 -14 29 -25 29 -4 0 -13 4 -20 8 -11 8 -11 11 -8 43 1 19
4 36 6 39 3 6 22 -3 22 -11z m-511 -18 c1 -3 -3 -6 -8 -6 -8 0 -10 2 -8 8 4 8
13 7 16 -2z m0 -24 c-5 -5 -15 3 -11 9 2 3 5 3 8 0 3 -3 4 -7 3 -9z m-396 -7
c1 -3 -1 -5 -5 -5 -4 0 -9 2 -10 5 -2 3 0 5 4 5 4 0 9 -2 11 -5z m407 -4 c0
-2 -6 -4 -13 -4 -10 -1 -12 0 -7 3 9 6 20 6 20 1z m654 -61 c20 -16 11 -28
-15 -19 -19 7 -18 27 1 28 1 1 8 -4 14 -9z m-1149 -25 c-8 -14 -12 -15 -21 -5
-7 8 -7 10 -1 20 8 10 9 10 17 2 7 -6 8 -11 5 -17z m437 -60 c7 -7 -15 -11
-29 -5 -18 7 -11 17 9 12 8 -2 17 -5 20 -7z m38 0 c0 -3 -2 -5 -4 -5 -3 0 -5
-4 -4 -9 1 -11 -16 -14 -20 -4 -5 13 2 23 15 23 7 0 13 -2 13 -5z m-37 -34
l25 -8 -25 -4 c-14 -3 -28 -7 -30 -9 -6 -6 -17 15 -14 27 2 6 5 7 10 5 5 -2
20 -7 34 -11z m-493 -56 c0 -3 -2 -5 -5 -5 -3 0 -5 2 -5 5 0 3 2 5 5 5 3 0 5
-2 5 -5z m-327 -593 c15 1 13 -19 -2 -21 -14 -2 -26 7 -26 20 0 7 2 8 9 5 5
-3 13 -5 19 -4z m-8 -71 c0 -20 -5 -23 -16 -8 -9 11 -9 14 -3 17 12 9 19 5 19
-9z m-24 -91 c3 -6 10 -11 15 -12 5 -1 15 -7 23 -14 20 -18 35 -26 70 -36 23
-7 31 -12 31 -19 0 -19 -48 -30 -69 -15 -7 5 -19 11 -26 14 -7 2 -20 9 -29 16
-18 14 -32 12 -30 -5 1 -9 -2 -12 -15 -15 -12 -3 -19 -3 -23 1 -8 8 -13 6 -13
-8 0 -7 -4 -16 -9 -20 -7 -5 -8 -8 -2 -25 9 -24 3 -29 -21 -17 -15 7 -18 10
-11 13 4 2 8 6 8 9 0 6 13 32 23 48 2 4 9 19 15 33 12 31 37 62 48 62 4 0 11
-5 15 -10z m1564 -78 c5 -5 -10 -13 -16 -9 -3 2 -18 4 -31 3 -29 -1 -48 3 -38
9 6 4 80 1 85 -3z m-1456 -49 c5 -5 3 -6 -5 -5 -21 2 -22 3 -11 7 5 2 10 4 10
5 0 0 3 -3 6 -7z m-9 -26 c0 -4 -2 -6 -5 -4 -3 1 -5 5 -5 7 0 3 2 5 5 5 3 0 5
-4 5 -8z m20 3 c0 -3 -1 -5 -2 -5 -1 0 -4 2 -5 5 -2 3 -1 5 2 5 3 0 5 -2 5 -5z
m-232 -28 l-3 -13 11 11 c6 6 15 10 19 9 11 -2 32 -47 27 -58 -7 -16 -10 -74
-5 -88 4 -8 3 -9 -12 -6 -12 3 -16 3 -14 -3 6 -15 -32 -64 -49 -64 -9 0 -27
27 -27 40 0 6 3 18 8 28 9 23 9 32 0 32 -4 0 -8 3 -10 6 -2 5 -3 5 -7 -1 -4
-5 -7 -6 -12 -1 -4 3 -8 5 -10 5 -1 -1 4 4 12 11 8 7 14 16 14 19 0 4 11 23
24 43 13 19 24 37 24 39 0 2 1 5 1 7 1 1 3 1 6 -1 3 -2 4 -9 3 -15z m183 -30
c-3 -2 -6 -7 -6 -12 0 -10 0 -10 -10 0 -13 13 -13 15 6 15 9 -1 14 -2 10 -3z
m117 -2 c-2 -3 -7 -5 -12 -5 -7 0 -7 1 -1 5 10 6 16 6 13 0z m-151 -36 c4 -4
5 -8 1 -12 -6 -6 -29 -3 -25 3 1 3 6 3 10 2 5 -2 6 -1 4 5 -4 9 1 10 10 2z
m43 1 c0 -3 -2 -5 -5 -5 -3 0 -4 2 -2 5 1 3 4 5 5 5 1 0 2 -2 2 -5z m755 -57
c0 -1 -8 -3 -17 -4 -10 -1 -16 0 -15 2 3 4 32 6 32 2z m15 -17 c-1 -5 0 -12 1
-16 2 -4 4 -23 6 -41 2 -30 1 -33 -6 -26 -6 7 -8 7 -19 0 -17 -11 -41 -8 -50
5 -4 7 -7 14 -7 17 0 9 7 5 13 -6 3 -8 9 -12 23 -13 15 -1 20 1 29 12 8 11 9
15 4 18 -4 2 -4 4 -1 4 2 0 0 3 -5 7 -7 6 -12 6 -25 2 -8 -3 -18 -7 -20 -10
-7 -5 -13 -5 -13 1 0 7 19 16 40 19 9 1 19 3 20 4 5 5 2 25 -5 28 -5 2 -4 3 4
4 8 0 11 -3 11 -9z m-1667 -170 c10 -13 26 -31 34 -39 16 -18 15 -35 -2 -31
-6 2 -10 1 -10 -3 0 -4 -7 -14 -15 -22 -27 -29 -70 -17 -70 19 0 20 7 34 26
52 13 11 14 15 9 18 -15 9 -30 5 -44 -12 -15 -20 -26 -23 -26 -8 0 26 29 49
61 50 16 0 21 -3 37 -24z m212 7 c0 -5 -10 -8 -12 -3 -2 3 0 5 4 5 4 0 8 -1 8
-2z m-27 -8 c1 -3 -1 -5 -5 -5 -4 0 -9 2 -10 5 -2 3 0 5 4 5 4 0 9 -2 11 -5z
m2 -43 c0 -4 -2 -7 -5 -7 -2 0 -4 4 -4 10 1 11 9 8 9 -3z m-1110 -12 c0 -3 -2
-5 -5 -5 -3 0 -5 2 -5 5 0 3 2 5 5 5 3 0 5 -2 5 -5z m1085 -8 c0 -2 -4 -9 -10
-16 l-10 -12 0 12 c0 7 2 14 3 16 4 4 17 4 17 0z m19 -33 c-3 -9 -14 -11 -14
-2 0 4 4 8 8 8 4 0 7 -3 6 -6z m386 -11 c0 -5 -10 -8 -12 -3 -2 3 0 5 4 5 4 0
8 -1 8 -2z m-1670 -43 c0 -5 -2 -10 -5 -10 -6 0 -11 9 -7 15 5 8 12 6 12 -5z
m-240 -23 c0 -7 -2 -12 -5 -12 -6 0 -12 18 -7 25 5 8 12 1 12 -13z m-38 5 c2
-4 3 -11 3 -16 0 -10 -8 -2 -12 13 -4 12 4 15 9 3z m72 -10 c-5 -5 -15 3 -11
9 2 3 5 3 8 0 3 -3 4 -7 3 -9z m-134 -9 c0 -5 -2 -8 -5 -8 -3 0 -5 3 -5 8 0 4
2 7 5 7 3 0 5 -3 5 -7z m50 2 c0 -3 -3 -5 -7 -5 -5 0 -8 2 -8 5 0 3 3 5 8 5 4
0 7 -2 7 -5z m-179 -21 c13 -16 11 -23 -3 -9 -12 11 -17 20 -10 20 2 0 8 -5
13 -11z m65 0 c-7 -7 -13 -2 -9 6 2 3 6 4 9 2 3 -2 3 -5 0 -8z m769 -5 c0 -2
-3 -4 -7 -4 -8 0 -11 11 -5 17 4 3 12 -6 12 -13z m-1120 6 c0 -3 -3 -3 -7 -2
-5 2 -8 4 -8 5 0 1 3 2 8 2 4 0 7 -2 7 -5z m324 -5 c-3 -5 -7 -9 -8 -8 -3 3 5
18 10 18 2 0 1 -4 -2 -10z m601 3 c-3 -5 -9 -8 -13 -8 -11 0 -9 -24 3 -27 6
-2 8 -6 7 -11 -3 -6 -6 -6 -20 3 -24 14 -38 13 -36 -1 1 -6 -1 -12 -5 -13 -3
-1 -6 2 -6 9 0 6 -3 10 -8 10 -12 0 -6 12 7 14 6 1 12 6 13 11 4 12 21 19 45
20 17 0 18 -1 13 -7z m-970 -13 c0 -9 -2 -10 -17 -7 -13 2 -17 1 -20 -5 -1 -4
-5 -8 -8 -8 -4 0 -5 3 -4 7 2 4 -1 6 -6 6 -5 0 -10 2 -11 5 -1 2 11 6 26 7 15
2 30 4 34 4 3 1 6 -4 6 -9z m20 -2 c8 2 10 0 10 -8 0 -8 -2 -10 -8 -8 -5 2
-11 0 -13 -3 -2 -4 -4 1 -3 14 0 11 1 15 2 11 2 -7 6 -8 12 -6z m-96 -15 c-1
-1 -8 -3 -15 -5 -11 -2 -14 -1 -14 4 0 4 6 9 13 11 6 2 12 6 13 9 0 3 1 0 3
-6 1 -7 1 -12 0 -13z m328 18 c4 -7 -10 -21 -16 -16 -5 3 -5 4 2 7 8 3 8 4 2
8 -6 4 -6 5 1 5 5 0 9 -2 11 -4z m43 2 c0 -1 -3 -3 -7 -5 -5 -1 -8 -1 -8 2 0
3 3 5 8 5 4 0 7 -1 7 -2z m-99 -11 c-7 -4 -13 -7 -15 -5 -4 4 9 13 19 13 5 0
3 -3 -4 -8z m779 1 c0 -4 -3 -8 -7 -10 -5 -1 -8 -2 -8 -1 0 1 -1 6 -3 10 -2 6
0 8 7 8 6 0 11 -3 11 -7z m-1303 -10 c1 -5 1 -8 -2 -8 -3 0 -5 3 -5 8 0 4 1 7
2 7 1 0 3 -3 5 -7z m478 2 c0 -3 -2 -5 -5 -5 -3 0 -4 2 -2 5 1 3 4 5 5 5 1 0
2 -2 2 -5z m-285 -5 c0 -3 -7 -5 -16 -5 -14 1 -15 1 -6 5 13 6 22 6 22 0z
m821 -6 c-2 -10 4 -12 12 -4 7 7 33 8 36 1 1 -3 -2 -6 -6 -6 -5 0 -10 -3 -11
-7 -2 -6 -7 -7 -16 -5 -10 3 -12 2 -10 -4 3 -7 -2 -10 -21 -14 -1 0 -7 -4 -12
-9 -8 -8 -19 -11 -45 -11 -6 0 -13 -3 -17 -6 -4 -4 -6 -4 -6 0 0 9 -15 7 -18
-1 -2 -5 -6 -7 -11 -4 -4 3 -15 3 -24 1 -10 -2 -17 -2 -17 1 0 2 -7 4 -15 3
-7 -1 -18 2 -22 6 -7 6 -9 5 -15 -3 -6 -8 -8 -8 -16 -2 -8 7 -9 7 -6 -1 5 -12
-8 -17 -18 -7 -7 7 -7 8 2 10 11 4 13 11 4 15 -4 1 -3 2 2 3 6 0 9 3 8 8 -2
10 21 14 27 5 3 -4 5 -3 9 2 3 4 5 6 5 4 0 -2 2 -7 3 -12 3 -6 2 -8 -3 -5 -4
3 -6 2 -4 -3 4 -11 17 -8 16 5 0 7 3 11 9 12 17 1 19 2 23 7 3 4 16 10 36 14
1 1 7 4 13 7 9 5 12 5 13 0 2 -5 5 -5 12 1 6 5 9 6 11 2 1 -4 6 -4 19 -1 14 5
20 4 28 -1 9 -5 10 -5 8 1 -2 6 0 8 8 8 9 0 11 -2 9 -10z m-517 3 c-2 -2 -6
-2 -10 0 -4 1 -3 2 3 3 5 0 8 -1 7 -3z m601 -7 c0 -3 -5 -5 -11 -5 -11 1 -11
1 -1 5 5 2 10 4 11 5 0 0 1 -2 1 -5z m-742 -10 c-2 -3 -6 -4 -9 -2 -3 2 -3 5
2 7 8 5 11 3 7 -5z m-105 -5 c-2 -3 -6 -5 -8 -5 -3 0 -5 2 -5 5 0 3 4 5 8 5 4
0 6 -2 5 -5z m140 -3 c-2 -4 -3 -11 -3 -15 0 -4 -2 -7 -5 -7 -6 0 -7 21 -2 27
7 6 13 3 10 -5z m-183 -9 c0 -1 -3 -3 -8 -5 -4 -2 -6 -1 -4 2 2 5 12 7 12 3z
m23 -3 c-2 -3 -6 -5 -8 -5 -3 0 -5 2 -5 5 0 3 4 5 8 5 4 0 6 -2 5 -5z m469
-27 c4 -1 10 1 13 5 4 5 8 5 18 1 13 -6 17 -17 5 -12 -4 1 -9 0 -11 -3 -7 -10
-37 -19 -74 -20 -24 -1 -40 -3 -44 -7 -8 -10 -14 -8 -14 3 0 10 -1 10 -11 -2
-14 -16 -48 -25 -42 -11 1 4 1 8 -2 8 -2 0 -5 -3 -7 -7 -2 -5 -9 -8 -18 -8 -9
0 -14 -2 -12 -5 4 -7 -50 -6 -58 1 -5 5 -5 4 -3 -5 4 -11 -4 -16 -9 -6 -5 8
-13 6 -13 -4 0 -7 -1 -7 -5 -1 -4 6 -5 6 -8 -2 -2 -5 -5 -7 -9 -4 -7 6 -83 5
-81 -1 0 -2 -8 -7 -18 -11 -17 -6 -20 -6 -22 1 -3 6 -4 7 -8 1 -3 -5 -5 -5
-11 1 -8 9 -15 42 -8 37 3 -1 5 -7 5 -12 0 -15 19 -13 23 3 3 11 12 17 12 7 0
-6 13 -1 32 12 10 7 15 8 17 4 3 -8 15 -8 20 1 5 9 31 16 31 9 0 -4 -4 -6 -8
-6 -4 0 -6 -2 -5 -5 3 -4 19 -3 28 3 3 1 4 5 3 7 -2 2 3 4 11 4 22 0 36 -4 36
-10 0 -3 -2 -3 -7 1 -10 8 -23 3 -23 -8 0 -6 3 -7 12 -5 8 2 13 1 15 -3 1 -4
2 -3 3 2 0 5 2 9 5 9 13 0 1 17 -12 19 -19 2 -23 6 -8 7 31 1 38 2 43 5 4 2 7
2 9 0 1 -2 10 -3 19 -2 13 1 15 1 9 -4 -6 -4 -2 -5 15 -3 17 2 19 2 10 -2
l-12 -4 12 0 c7 -1 16 1 20 4 5 3 9 2 11 -2 3 -3 3 0 1 8 -2 10 -1 13 9 16 17
4 25 4 22 -2 -2 -2 2 -10 9 -18 12 -12 16 -11 14 4 -1 2 3 5 9 6 5 2 10 7 12
11 2 6 5 6 13 2 12 -6 27 -7 23 0 -2 2 -1 8 1 13 3 8 4 7 5 -4 1 -7 5 -14 8
-16z m-77 5 c0 -1 -2 -4 -5 -5 -3 -2 -5 -1 -5 2 0 3 2 5 5 5 3 0 5 -1 5 -2z
m-1045 -11 c5 -6 5 -7 -5 -5 -7 1 -13 4 -14 7 -3 9 12 7 19 -2z m978 3 c-2 -3
-6 -5 -8 -5 -3 0 -5 2 -5 5 0 3 4 5 8 5 4 0 6 -2 5 -5z m-1055 -16 c2 -2 1 -6
0 -9 -3 -4 -6 -4 -11 0 -3 3 -9 4 -12 3 -3 -2 -5 -1 -5 3 0 7 22 9 28 3z
m1443 3 c-3 -2 -6 -6 -6 -11 0 -4 -1 -6 -3 -5 -5 5 2 19 9 19 5 -1 5 -1 0 -3z
m-716 -31 c0 -7 -13 -16 -17 -13 -3 4 6 17 13 17 2 0 4 -2 4 -4z m-754 -16
c-1 -5 -3 -10 -4 -10 -1 0 -2 5 -2 10 0 6 2 10 5 10 2 0 3 -4 1 -10z m-87 -18
c1 -1 -3 -4 -8 -6 -8 -5 -10 -4 -10 7 0 10 1 11 8 6 5 -3 9 -7 10 -7z m51 8
c0 -3 -2 -5 -5 -5 -3 0 -4 2 -2 5 1 3 4 5 5 5 1 0 2 -2 2 -5z m790 -16 c0 -5
-11 -5 -19 1 -4 2 -6 8 -4 12 2 7 4 7 13 -1 5 -4 10 -10 10 -12z m-810 8 c0
-4 -2 -6 -5 -4 -3 1 -4 5 -2 7 4 7 7 6 7 -3z m-63 -18 c-2 -3 -5 -3 -8 0 -3 3
-3 8 -1 11 2 5 4 4 7 0 3 -4 3 -9 2 -11z m842 8 c1 -3 -2 -7 -6 -9 -6 -2 -8 0
-8 8 0 10 10 11 14 1z m-916 -2 c1 -3 0 -5 -3 -5 -3 0 -5 2 -5 5 0 3 1 5 2 5
1 0 4 -2 6 -5z"/>
<path d="M4064 3125 c-11 -7 -12 -24 -2 -28 12 -5 28 7 28 21 0 13 -10 16 -26
7z"/>
<path d="M3673 2730 c1 -3 4 -5 5 -5 1 0 2 2 2 5 0 3 -2 5 -5 5 -3 0 -4 -2 -2
-5z"/>
<path d="M5840 2520 c0 -2 2 -6 5 -8 3 -1 4 -5 2 -7 -1 -3 0 -5 3 -5 3 0 5 6
5 13 0 7 -3 12 -7 12 -5 0 -8 -2 -8 -5z"/>
<path d="M4752 2431 c-22 -19 -28 -41 -14 -57 8 -8 9 -8 23 0 19 11 26 33 16
51 -8 17 -11 18 -25 6z"/>
<path d="M5556 1942 c-4 -4 -6 -9 -4 -11 4 -4 15 7 12 13 -1 3 -5 2 -8 -2z"/>
<path d="M5553 1828 c-12 -9 -8 -25 7 -27 13 -2 25 10 25 25 0 11 -19 12 -32
2z"/>
<path d="M3871 372 c-17 -18 -20 -31 -10 -41 9 -9 18 -7 32 6 14 15 16 33 3
45 -8 7 -10 6 -25 -10z"/>
<path d="M2928 185 c-2 -3 -1 -5 2 -5 3 0 5 2 5 5 0 3 -1 5 -2 5 -1 0 -4 -2
-5 -5z"/>
<path d="M2668 147 c-4 -5 -4 -12 1 -12 3 0 6 3 8 8 3 7 -3 10 -9 4z"/>
<path d="M2443 125 c-2 -3 0 -6 4 -8 11 -4 15 0 6 8 -5 4 -8 4 -10 0z"/>
<path d="M1982 53 c-9 -7 -9 -8 4 -8 9 0 14 3 14 8 0 9 -5 9 -18 0z"/>
<path d="M3293 3655 c1 -3 4 -5 5 -5 1 0 2 2 2 5 0 3 -2 5 -5 5 -3 0 -4 -2 -2
-5z"/>
<path d="M3608 3650 c-2 -3 -1 -5 2 -5 3 0 5 2 5 5 0 3 -1 5 -2 5 -1 0 -4 -2
-5 -5z"/>
<path d="M3553 3639 c-4 -9 0 -14 20 -29 8 -6 8 -6 -1 5 -6 7 -12 17 -13 23
-2 9 -3 9 -6 1z"/>
<path d="M3384 3608 c-3 -15 6 -25 17 -20 11 4 15 22 6 22 -4 0 -7 2 -7 5 0
11 -14 4 -16 -7z"/>
<path d="M3565 3570 c0 -12 13 -19 22 -10 4 4 3 7 -4 13 -13 10 -18 9 -18 -3z"/>
<path d="M3403 3528 c-2 -7 1 -13 8 -13 2 0 4 5 4 10 0 11 -8 13 -12 3z"/>
<path d="M3658 3490 c1 -3 4 -5 5 -5 1 0 2 2 2 5 0 3 -2 5 -5 5 -3 0 -4 -2 -2
-5z"/>
<path d="M3648 3442 c-5 -6 -3 -12 5 -12 4 0 7 3 7 8 0 7 -6 9 -12 4z"/>
<path d="M3317 3422 c0 -4 2 -7 4 -7 2 0 4 2 4 5 0 2 -2 6 -4 7 -2 1 -4 -1 -4
-5z"/>
<path d="M3000 3400 c0 -3 2 -4 5 -2 3 1 5 4 5 5 0 1 -2 2 -5 2 -3 0 -5 -2 -5
-5z"/>
<path d="M2862 3383 c-2 -4 -7 -8 -13 -8 -5 0 -9 -3 -9 -9 1 -5 2 -6 3 -2 5
12 13 6 11 -10 -1 -12 -4 -17 -11 -17 -11 0 -16 -9 -8 -14 3 -2 5 -1 5 2 0 3
2 4 4 3 7 -4 42 7 38 13 -2 3 -4 3 -7 -1 -2 -3 -6 -5 -9 -4 -8 2 16 29 26 29
4 0 8 2 8 5 0 7 -22 6 -28 0 -4 -4 -7 -4 -9 0 -2 3 0 5 4 5 9 0 11 8 3 13 -3
1 -6 -1 -8 -5z"/>
<path d="M2910 3355 c0 -2 2 -6 5 -7 3 -2 5 -1 5 2 0 3 3 4 6 2 3 -2 4 -1 2 2
-4 7 -18 8 -18 1z"/>
<path d="M2960 3355 c0 -3 2 -5 5 -5 3 0 5 2 5 5 0 3 -2 5 -5 5 -3 0 -5 -2 -5
-5z"/>
<path d="M2898 3330 c1 -3 5 -5 7 -5 3 0 5 2 5 5 0 3 -4 5 -8 5 -4 0 -6 -2 -4
-5z"/>
<path d="M2958 3317 c-5 -12 -4 -13 5 -5 8 8 9 13 3 13 -3 0 -6 -4 -8 -8z"/>
<path d="M3288 3315 c-2 -3 -1 -5 2 -5 3 0 5 2 5 5 0 3 -1 5 -2 5 -1 0 -4 -2
-5 -5z"/>
<path d="M2845 3300 c0 -3 4 -5 8 -5 4 0 6 2 5 5 -2 3 -6 5 -8 5 -3 0 -5 -2
-5 -5z"/>
<path d="M3161 3285 c0 -7 1 -10 2 -6 2 3 2 9 0 12 -1 4 -2 1 -2 -6z"/>
<path d="M3533 3280 c-2 -2 0 -8 4 -12 5 -4 7 -11 5 -15 -4 -10 1 -10 11 -1 4
5 6 10 5 13 -2 2 -1 6 2 8 3 1 4 5 2 7 -3 6 -26 6 -29 0z"/>
<path d="M3293 3273 c2 -4 5 -8 8 -8 7 0 2 11 -5 14 -4 1 -5 -1 -3 -6z"/>
<path d="M3168 3260 c-2 -3 0 -5 5 -5 4 0 6 2 5 5 -2 3 -4 5 -5 5 -2 0 -4 -2
-5 -5z"/>
<path d="M3545 3235 c0 -2 3 -5 8 -7 4 -1 7 -1 7 2 0 2 -3 5 -7 7 -5 1 -8 1
-8 -2z"/>
<path d="M3675 3197 c1 -6 2 -7 3 -3 2 4 2 8 0 10 -2 1 -3 -2 -3 -7z"/>
<path d="M3703 3202 c-8 -8 -2 -26 10 -31 7 -4 12 -4 12 -1 0 3 -3 5 -8 5 -5
0 -6 3 -4 12 3 12 -3 21 -10 15z"/>
<path d="M3760 3197 c0 -4 2 -6 5 -4 3 1 5 5 5 7 0 3 -2 5 -5 5 -3 0 -5 -4 -5
-8z"/>
<path d="M3013 3190 c-2 -3 -1 -5 2 -5 3 0 5 2 5 5 0 3 -1 5 -2 5 -1 0 -4 -2
-5 -5z"/>
<path d="M2963 3182 c-1 -2 -3 -7 -3 -10 0 -6 2 -6 10 -1 5 3 8 8 7 10 -3 5
-9 5 -14 1z"/>
<path d="M3680 3180 c0 -3 2 -5 5 -5 3 0 5 2 5 5 0 3 -2 5 -5 5 -3 0 -5 -2 -5
-5z"/>
<path d="M2889 3170 c-4 -12 -2 -19 4 -14 2 2 2 8 1 15 l-2 12 -3 -13z"/>
<path d="M94 3165 c1 -6 4 -9 7 -7 6 4 5 11 -3 14 -5 1 -6 -1 -4 -7z"/>
<path d="M118 3151 c-3 -7 -2 -7 3 -2 3 3 5 7 3 9 -2 1 -4 -2 -6 -7z"/>
<path d="M140 3155 c0 -3 2 -5 5 -5 3 0 5 2 5 5 0 3 -2 5 -5 5 -3 0 -5 -2 -5
-5z"/>
<path d="M3668 3153 c-2 -5 0 -7 5 -5 4 2 6 5 4 8 -4 6 -5 5 -9 -3z"/>
<path d="M129 3137 c4 -2 8 -2 10 0 1 2 -2 3 -7 3 -6 -1 -7 -2 -3 -3z"/>
<path d="M3835 3113 c-1 -14 -2 -28 -2 -32 0 -3 -5 -9 -11 -13 -9 -7 -9 -8 3
-8 9 0 15 4 19 13 3 6 4 12 1 12 -2 0 -5 12 -6 26 l-2 27 -2 -25z"/>
<path d="M2616 3125 c-12 -5 -14 -13 -6 -25 4 -6 5 -6 5 2 0 5 2 7 5 6 3 -2 5
0 5 5 0 5 4 7 11 6 6 -1 12 1 13 5 2 7 -16 8 -33 1z"/>
<path d="M3287 3122 c4 -10 -7 -32 -16 -32 -4 0 -6 -3 -4 -8 2 -5 -1 -9 -10
-12 -6 -3 -12 -7 -12 -10 0 -3 -3 -4 -6 -2 -4 2 -5 2 -3 0 5 -6 -5 -18 -15
-18 -7 0 -9 -5 -9 -23 -1 -27 -4 -29 -43 -41 -28 -8 -38 -16 -20 -16 6 0 7 -1
2 -6 -9 -9 -7 -20 3 -18 5 1 13 -2 18 -6 7 -6 10 -5 18 4 5 6 14 13 19 17 6 4
11 11 12 17 3 16 21 27 46 27 28 0 38 4 38 14 1 5 2 6 3 2 4 -8 12 -8 12 2 0
4 -3 7 -7 7 -7 0 -12 37 -12 89 -1 16 -2 21 -9 21 -5 0 -7 -3 -5 -8z"/>
<path d="M3650 3121 c-3 -6 -4 -14 -2 -18 4 -10 2 -10 22 0 11 6 15 10 10 11
-4 1 -11 6 -16 10 -7 6 -9 6 -14 -3z"/>
<path d="M3635 3113 c0 -4 -4 -10 -9 -13 -8 -4 -7 -5 3 -5 8 0 11 3 11 13 0 6
-1 12 -2 12 -2 0 -3 -3 -3 -7z"/>
<path d="M2740 3102 c1 -6 2 -7 3 -3 2 4 2 8 0 10 -2 1 -3 -2 -3 -7z"/>
<path d="M3672 3091 c-15 -13 -22 -29 -19 -40 4 -13 12 -15 12 -3 0 4 4 7 9 6
5 -1 8 2 9 6 0 4 2 11 4 16 2 5 2 12 -1 16 -4 8 -5 7 -14 -1z"/>
<path d="M2678 3090 c-2 -3 0 -4 4 -2 9 3 10 7 3 7 -2 0 -6 -2 -7 -5z"/>
<path d="M3556 3089 c-3 -4 -4 -12 -4 -19 1 -7 2 -16 2 -20 1 -6 2 -6 5 -1 4
5 7 6 15 2 14 -8 21 -7 21 1 0 4 3 10 8 13 10 9 9 13 -7 19 -26 10 -35 11 -40
5z"/>
<path d="M3770 3093 c0 -5 15 -7 18 -3 1 3 -2 5 -8 5 -5 0 -10 -1 -10 -2z"/>
<path d="M2467 3074 c-4 -7 7 -13 19 -10 9 2 13 11 5 11 -2 1 -7 2 -12 2 -5 1
-10 0 -12 -3z"/>
<path d="M2585 3075 c0 -3 2 -5 5 -5 3 0 5 2 5 5 0 3 -2 5 -5 5 -3 0 -5 -2 -5
-5z"/>
<path d="M3640 3042 c1 -6 2 -7 3 -3 2 4 2 8 0 10 -2 1 -3 -2 -3 -7z"/>
<path d="M2463 3030 c-4 -6 5 -12 12 -7 6 3 2 12 -5 12 -2 0 -6 -2 -7 -5z"/>
<path d="M2376 3026 c-20 -3 -11 -10 11 -9 20 1 38 7 25 8 -2 1 -9 1 -14 2 -6
0 -16 0 -22 -1z"/>
<path d="M3570 3010 c0 -2 2 -6 5 -7 3 -2 5 0 5 4 0 4 -2 8 -5 8 -3 0 -5 -2
-5 -5z"/>
<path d="M2285 2980 c0 -3 3 -5 8 -5 4 0 7 -2 7 -5 0 -3 4 -5 9 -4 16 3 10 16
-8 17 -9 1 -16 -1 -16 -3z"/>
<path d="M2644 2974 c3 -3 7 -5 9 -3 1 2 -2 4 -7 6 -7 3 -7 2 -2 -3z"/>
<path d="M2323 2970 c-2 -2 -1 -6 1 -7 3 -2 6 0 8 5 3 8 -5 10 -9 2z"/>
<path d="M2988 2965 c-5 -13 5 -26 10 -13 2 4 6 8 10 8 8 0 9 8 2 12 -2 2 -5
0 -7 -3 -2 -5 -3 -5 -7 0 -4 6 -6 5 -8 -4z"/>
<path d="M2976 2960 c0 -7 1 -10 2 -6 2 3 2 9 0 12 -1 4 -2 1 -2 -6z"/>
<path d="M2447 2960 c-2 -3 -2 -7 0 -8 3 -4 13 2 13 8 0 7 -9 6 -13 0z"/>
<path d="M3638 2959 c2 -5 4 -8 6 -7 2 2 0 6 -3 9 -5 5 -6 5 -3 -2z"/>
<path d="M3257 2953 c2 -7 28 -10 34 -4 3 3 -2 6 -16 7 -12 1 -19 0 -18 -3z"/>
<path d="M2316 2945 c-13 -8 -16 -9 -16 -2 0 10 -13 9 -25 -1 -9 -8 -9 -9 -1
-17 5 -5 11 -7 16 -4 4 2 16 5 26 6 11 2 19 6 19 9 0 2 5 3 11 1 14 -4 10 8
-4 13 -7 3 -16 1 -26 -5z"/>
<path d="M3305 2948 c0 -1 3 -3 8 -5 4 -1 7 -1 7 2 0 3 -3 5 -7 5 -5 0 -8 -1
-8 -2z"/>
<path d="M2760 2936 c0 -2 -9 -3 -19 -2 -19 2 -19 2 -17 -14 1 -8 0 -15 -3
-15 -2 0 -4 4 -4 9 1 12 -9 13 -11 1 -2 -13 -11 -13 -11 0 0 6 -3 10 -8 10 -6
0 -7 -3 -5 -13 3 -9 1 -15 -6 -20 -7 -6 -7 -8 -2 -11 4 -3 6 -7 4 -10 -6 -9 8
-13 15 -4 3 5 8 8 10 7 3 -1 10 2 16 5 9 5 14 5 18 1 3 -3 14 -5 26 -5 17 0
22 2 30 14 5 7 9 19 8 25 0 6 2 11 5 11 3 0 1 4 -6 8 -8 6 -12 7 -14 3 -1 -4
-5 -4 -14 -1 -7 3 -12 3 -12 1z m30 -11 c8 0 5 -7 -8 -22 -12 -15 -13 -15 -19
-7 -7 10 -5 31 3 26 2 -1 4 0 4 3 0 4 3 5 8 3 4 -2 10 -3 12 -3z m-45 -17 c0
-5 -2 -8 -5 -8 -3 0 -5 3 -5 8 0 4 2 7 5 7 3 0 5 -3 5 -7z m15 -18 c0 -3 -2
-5 -5 -5 -3 0 -5 2 -5 5 0 3 2 5 5 5 3 0 5 -2 5 -5z"/>
<path d="M2368 2930 c-2 -3 0 -5 5 -5 4 0 6 2 5 5 -2 3 -4 5 -5 5 -2 0 -4 -2
-5 -5z"/>
<path d="M2844 2924 c2 -8 1 -10 -4 -6 -5 3 -6 1 -3 -5 1 -5 3 -11 3 -13 0 -6
19 -9 21 -3 2 4 4 4 10 0 5 -5 8 -5 12 2 4 6 4 12 2 16 -3 5 -5 5 -5 2 0 -4
-4 -5 -10 -3 -5 1 -10 4 -10 5 0 2 -4 6 -9 9 -9 6 -10 5 -7 -4z m15 -14 c-1
-3 -4 -6 -6 -6 -3 0 -6 3 -7 6 -1 3 2 5 7 5 4 0 7 -2 6 -5z"/>
<path d="M3055 2920 c0 -6 3 -10 6 -9 4 1 7 5 7 9 0 4 -3 8 -7 9 -3 1 -6 -3
-6 -9z"/>
<path d="M2632 2922 c-13 -3 -20 -16 -12 -24 3 -3 7 -2 12 2 6 4 8 4 8 1 0 -9
9 -7 20 4 6 6 8 11 4 15 -6 5 -12 5 -32 2z"/>
<path d="M3014 2922 c-2 -1 -9 -3 -17 -4 -8 -1 -16 -2 -18 -2 -2 -1 -4 -3 -4
-6 0 -3 4 -5 9 -3 5 1 20 4 33 6 17 2 23 4 18 7 -9 5 -17 6 -21 2z"/>
<path d="M2913 2915 c-6 -9 1 -13 17 -11 8 1 15 5 14 8 -3 7 -27 10 -31 3z"/>
<path d="M2579 2911 c-21 -2 -26 -13 -9 -18 6 -2 10 -7 10 -11 0 -4 -4 -7 -10
-7 -5 0 -10 -3 -10 -7 0 -12 54 -16 72 -6 7 4 17 8 21 8 4 0 7 2 7 5 0 7 -12
6 -27 -1 -11 -5 -15 -4 -23 3 -11 11 -13 26 -4 29 10 4 -7 7 -27 5z"/>
<path d="M2458 2898 c-6 -3 -12 -7 -13 -9 -2 -2 -6 -1 -10 1 -10 6 -20 6 -20
0 0 -3 6 -7 13 -10 12 -5 17 -20 6 -20 -4 0 1 -5 10 -10 20 -12 30 -13 40 -1
5 6 7 7 9 2 2 -3 5 -6 8 -6 4 0 4 2 0 6 -3 4 -6 9 -6 12 -1 2 -4 4 -7 3 -17
-7 -32 -6 -37 0 -5 7 -3 8 11 11 12 2 18 6 18 12 0 7 1 7 5 2 3 -6 6 -5 15 3
l12 11 -22 0 c-13 0 -27 -3 -32 -7z"/>
<path d="M2525 2885 c0 -14 2 -20 7 -20 4 0 11 -1 15 -3 5 -2 7 1 6 17 0 16
-2 19 -9 17 -5 -1 -9 0 -9 3 0 3 -2 6 -5 6 -3 0 -5 -9 -5 -20z"/>
<path d="M3063 2900 c-2 -3 -1 -5 2 -5 3 0 5 2 5 5 0 3 -1 5 -2 5 -1 0 -4 -2
-5 -5z"/>
<path d="M2398 2881 c-3 -7 -2 -7 3 -2 3 3 5 7 3 9 -2 1 -4 -2 -6 -7z"/>
<path d="M2505 2863 c0 -5 2 -8 5 -8 3 0 5 3 5 8 0 4 -2 7 -5 7 -3 0 -5 -3 -5
-7z"/>
<path d="M2883 2770 c-2 -3 0 -5 4 -5 4 0 8 2 8 5 0 3 -2 5 -5 5 -2 0 -6 -2
-7 -5z"/>
<path d="M3998 2720 c-2 -3 -1 -5 1 -5 3 0 7 2 9 5 1 3 0 5 -2 5 -3 0 -7 -2
-8 -5z"/>
<path d="M3660 2606 c0 -2 3 -4 7 -4 4 0 6 2 5 4 -1 2 -5 4 -7 4 -3 0 -5 -2
-5 -4z"/>
<path d="M487 2593 c-9 -15 -6 -29 11 -42 10 -8 15 -9 34 -5 13 3 23 8 23 11
0 4 -8 16 -18 27 -21 25 -38 27 -50 9z"/>
<path d="M436 2554 c-6 -6 -8 -19 -3 -19 1 0 7 2 13 5 6 4 9 4 7 1 -2 -3 1 -4
7 -2 13 3 13 9 0 16 -12 6 -17 6 -24 -1z"/>
<path d="M411 2472 c-7 -3 -1 -18 18 -38 13 -15 12 -29 -3 -29 -4 0 -12 -6
-16 -14 -5 -8 -17 -18 -28 -23 -17 -8 -20 -9 -32 -2 -28 16 -31 45 -8 73 7 8
13 18 13 21 0 9 -31 0 -39 -11 -4 -5 -11 -9 -17 -9 -9 0 -10 2 -7 15 3 14 2
14 -10 10 -7 -3 -20 -5 -28 -5 l-15 0 9 -14 c5 -7 11 -16 14 -19 3 -3 12 -14
21 -24 8 -11 17 -22 20 -25 18 -20 32 -45 30 -51 -6 -15 -18 -6 -48 33 -17 22
-42 54 -56 70 l-25 30 -29 -1 c-16 -1 -28 -3 -27 -5 1 -1 -5 -2 -14 -2 -9 1
-29 0 -45 -2 -16 -2 -29 -1 -29 1 0 5 -17 5 -22 0 -4 -3 -6 -4 -27 -5 l-11 -1
0 -840 c0 -462 1 -840 3 -840 2 0 8 6 15 13 7 9 13 12 17 9 12 -7 30 -7 30 0
0 9 16 15 20 8 3 -4 15 -3 45 2 30 6 43 7 44 3 1 -3 5 -1 9 4 6 9 10 9 26 6
25 -6 26 -6 26 1 0 4 8 7 24 7 13 0 25 2 27 4 2 3 13 4 26 4 13 0 23 2 23 4 0
3 7 4 16 4 9 0 21 2 27 5 5 2 12 4 16 2 3 -1 6 1 6 4 0 5 2 5 8 0 6 -5 7 -5 7
2 0 9 16 9 29 1 9 -5 16 1 12 11 -3 8 -2 8 6 1 7 -6 10 -6 12 -1 2 7 21 8 21
1 0 -3 2 -5 5 -5 3 0 5 3 5 7 0 4 4 6 12 4 9 -1 14 0 16 6 2 5 6 7 13 5 10 -3
28 11 21 17 -2 2 -4 1 -6 -3 -2 -7 -11 -8 -11 -2 0 3 6 7 13 10 7 4 12 4 12 1
0 -8 20 -6 23 2 2 5 5 7 8 5 2 -1 3 -5 1 -7 -1 -3 5 -1 15 5 12 7 18 8 20 3 1
-3 2 -2 3 3 0 6 4 9 14 9 46 0 52 1 60 10 8 10 10 10 23 3 13 -7 16 -6 32 3
12 7 19 8 24 4 4 -4 8 -3 14 5 5 8 8 9 9 4 2 -5 4 -5 11 0 7 6 8 6 8 0 0 -6 3
-7 11 -5 6 1 8 4 5 5 -10 3 -7 15 3 13 6 -2 11 0 13 3 5 8 18 6 18 -2 0 -5 2
-8 4 -8 3 0 6 3 8 8 1 4 7 7 13 7 7 0 9 2 7 6 -2 3 2 4 14 1 9 -2 17 -5 18 -7
1 -3 5 -3 9 -2 4 2 6 5 4 7 -1 3 3 6 10 8 7 2 13 6 13 10 0 4 3 7 8 7 4 0 7 3
7 8 0 4 2 7 5 7 3 0 5 5 4 11 -1 8 -5 12 -16 13 -8 1 -17 -1 -20 -4 -3 -3 -1
-5 8 -5 16 0 16 0 8 -17 -3 -8 -8 -12 -12 -11 -3 1 -10 -1 -16 -5 -8 -6 -11
-6 -15 0 -5 5 -3 9 4 16 9 8 10 8 7 0 -2 -5 -1 -8 5 -8 14 0 9 19 -6 22 -17 4
-30 27 -18 32 5 1 12 0 17 -3 7 -4 10 -4 12 2 3 7 4 7 14 0 12 -9 24 -5 24 8
0 6 4 9 10 9 6 0 10 -2 10 -5 0 -3 2 -5 5 -5 3 0 5 4 5 9 0 6 4 13 8 17 8 6 8
5 6 -8 -2 -12 -2 -14 8 -11 6 2 12 3 14 3 2 0 4 2 4 5 0 3 -3 3 -7 2 -9 -3
-15 6 -8 11 4 2 2 5 -6 9 -8 4 -11 10 -11 20 0 11 -3 16 -10 17 -7 2 -8 0 -6
-9 3 -7 1 -11 -4 -13 -11 -4 -16 1 -8 10 4 6 4 8 -1 11 -3 2 -7 1 -8 -2 -3 -8
-17 -8 -29 1 -9 7 -12 6 -25 -1 -9 -6 -19 -8 -27 -6 l-12 3 16 9 c9 5 18 7 21
5 3 -1 5 0 5 3 0 3 10 5 21 5 12 0 25 2 29 5 5 3 10 2 15 -1 4 -4 6 -4 4 -2
-2 3 -1 8 2 11 6 8 21 10 17 2 -5 -8 5 -6 12 3 5 6 5 7 0 7 -5 0 -4 3 2 10 9
9 9 10 -8 14 -10 3 -18 2 -20 0 -4 -6 -32 -3 -31 4 1 6 -27 8 -38 2 -6 -3 -10
-3 -11 0 -2 6 -33 10 -36 5 -4 -6 -74 -2 -78 5 -3 4 -5 5 -7 0 -2 -3 -8 -4
-14 -2 -7 2 -9 1 -7 -2 2 -4 1 -6 -2 -6 -3 0 -7 3 -8 8 -3 6 -4 6 -10 -2 -7
-8 -7 -8 -14 0 -5 7 -11 8 -21 6 -8 -1 -20 0 -27 2 -7 3 -10 6 -6 6 3 0 6 3 6
7 0 8 33 20 41 15 2 -1 4 0 4 2 0 3 19 6 41 8 23 2 44 6 47 8 5 4 66 15 93 17
4 0 7 2 5 5 -1 2 6 3 17 2 11 -1 27 1 37 5 10 4 23 7 31 7 14 -1 23 12 15 20
-3 3 -18 5 -33 6 -15 0 -28 1 -28 3 0 2 -6 2 -13 1 -12 -2 -13 -1 -11 8 4 13
-10 16 -14 3 -2 -5 -5 -6 -10 -2 -5 5 -8 4 -10 -2 -4 -11 -12 -10 -23 3 -11
13 -27 15 -35 6 -7 -9 -14 -4 -14 11 0 7 -2 12 -4 12 -7 0 -12 -15 -8 -21 2
-3 -2 -4 -9 -3 -6 1 -11 4 -11 7 0 10 -7 14 -15 7 -7 -5 -8 -5 -8 2 0 4 -2 8
-5 8 -3 0 -3 -3 -2 -7 2 -5 -1 -7 -14 -6 -23 2 -23 11 0 15 11 2 21 6 23 11 2
5 7 6 16 4 13 -3 13 -3 11 12 -2 14 -1 16 8 13 6 -2 11 -5 12 -8 4 -9 14 -3
15 8 1 10 -2 13 -14 15 -8 2 -17 2 -20 1 -3 -2 -5 0 -5 5 0 9 -1 9 -8 0 -6 -7
-9 -9 -10 -4 -2 3 -10 6 -18 6 -13 0 -14 1 -7 8 7 7 11 22 6 22 -1 0 -6 -4
-10 -8 -9 -9 -11 -1 -2 12 3 6 9 9 15 7 6 -1 10 2 14 10 2 6 5 9 5 5 0 -9 10
-8 10 2 0 4 2 7 5 7 4 0 5 6 3 15 -3 11 -2 15 3 15 4 0 3 2 -2 5 -5 3 -9 8 -9
11 0 2 2 3 5 2 2 -2 6 -1 8 2 4 7 27 17 35 16 3 -1 4 5 3 14 -1 9 0 15 3 15 3
0 6 -3 6 -7 0 -13 10 -9 13 5 2 6 6 12 10 12 4 0 7 2 7 4 0 3 -3 5 -6 5 -29
-1 -38 8 -21 21 6 6 10 6 17 1 11 -7 13 -3 5 9 -5 9 -1 16 7 11 15 -9 28 -6
33 7 3 8 8 12 13 10 4 -2 7 0 7 5 0 5 5 7 16 7 13 0 15 1 9 5 -7 4 -6 5 1 5 4
0 9 5 11 11 2 7 5 10 12 8 6 -2 11 0 13 4 4 11 4 13 -3 9 -4 -2 -3 1 2 6 8 8
9 8 16 0 7 -7 23 -6 23 1 0 1 -3 1 -7 -1 -5 -2 -8 0 -8 5 0 4 3 7 6 8 4 0 12
1 19 2 7 0 29 2 49 3 30 1 38 3 42 10 3 7 6 8 11 5 4 -4 8 -3 12 5 4 5 5 11 4
13 -2 1 -3 0 -3 -3 0 -15 -51 -8 -60 9 -14 25 1 49 33 55 12 2 19 5 20 11 1
11 -18 17 -33 9 -8 -4 -11 -4 -13 3 -5 11 6 17 34 17 27 0 31 -4 30 -31 l-1
-20 17 2 c24 4 38 18 38 37 0 17 -10 28 -23 27 -18 -2 -23 0 -20 7 2 6 -3 10
-15 15 -10 5 -20 7 -23 5 -2 -1 -4 0 -4 3 0 3 -4 5 -8 5 -4 0 -6 -2 -4 -5 1
-3 2 -5 1 -5 -6 0 -37 18 -41 23 -6 7 -38 12 -38 6 0 -2 -6 -4 -12 -4 -8 0
-13 3 -13 7 0 6 -3 6 -15 3 -9 -3 -15 -2 -15 0 0 7 -19 6 -23 0 -1 -3 -5 -4
-9 -2 -3 3 -15 4 -26 4 -11 0 -24 3 -28 7 -5 4 -9 5 -11 2 -2 -3 1 -6 5 -8 4
-2 6 -5 4 -8 -2 -4 -6 -3 -14 2 -14 9 -45 12 -52 5 -6 -7 -31 -3 -31 4 0 7
-39 1 -49 -7 -4 -4 -6 -3 -6 5 0 13 -8 14 -18 4 -8 -8 -27 -11 -27 -4 0 2 -13
4 -30 4 -16 0 -30 -2 -30 -3 0 -5 -82 1 -88 6 -4 3 -7 3 -8 -1 -3 -9 -31 2
-33 14 -1 6 -5 11 -9 11 -4 0 -7 2 -7 5 0 3 2 4 5 3 3 -2 5 -1 5 2 0 3 6 5 13
5 9 0 12 3 12 10 0 6 2 10 5 10 3 0 5 -2 5 -5 0 -11 26 -2 34 12 8 13 8 14 0
20 -9 6 -8 7 5 9 7 2 14 1 15 -1 1 -3 5 -5 10 -5 5 0 6 2 2 7 -4 4 -6 12 -5
19 1 11 0 11 -20 10 -14 -1 -21 0 -21 4 0 4 5 5 13 4 6 -2 12 -1 12 1 0 2 5 3
11 1 8 -2 10 -1 7 8 -3 8 -1 11 8 14 6 2 13 5 15 8 1 3 16 6 32 7 40 2 62 6
80 14 8 4 26 8 40 10 38 4 44 5 48 10 2 3 7 2 12 -2 6 -6 8 -6 12 0 2 3 6 5 9
3 3 -2 6 -1 6 2 0 3 5 4 13 2 12 -3 13 -2 10 5 -2 7 -1 8 5 6 5 -2 10 -1 12 3
3 4 6 4 11 0 11 -9 15 -1 6 12 -8 13 -6 15 8 7 6 -3 9 -7 8 -10 -2 -2 -1 -6 2
-7 3 -2 5 -1 5 2 0 3 4 5 9 5 8 0 8 1 0 7 -11 8 -12 13 -3 13 4 0 12 -7 18
-16 l12 -16 -4 17 c-3 17 -1 19 15 30 12 8 18 16 18 24 0 9 2 11 10 9 8 -3 10
-1 10 10 0 8 2 12 6 11 4 -1 9 2 12 8 2 6 10 11 16 12 14 2 23 14 19 24 -2 6
-7 8 -21 5 -10 -1 -23 0 -30 2 -7 3 -12 3 -12 0 0 -5 -60 -4 -69 2 -3 2 -6 1
-6 -2 0 -8 -11 -6 -19 4 -5 6 -7 7 -9 2 -3 -7 -43 -8 -50 -1 -4 4 -7 4 -9 0
-5 -8 -14 -6 -11 2 3 9 -5 15 -10 8 -2 -3 -6 -5 -10 -3 -3 1 -7 -2 -9 -7 -1
-7 -6 -10 -15 -10 -9 0 -12 2 -10 8 4 10 -6 9 -12 -1 -5 -8 -5 -8 -13 -1 -6 6
-13 8 -24 6 -20 -4 -23 -6 -15 -12 5 -2 5 -5 2 -7 -3 -2 -8 3 -12 11 -8 16
-29 21 -41 9 -6 -7 -10 -7 -18 -3 -13 7 -15 6 -15 -2 0 -5 -4 -8 -8 -8 -5 0
-7 1 -5 3 1 2 -2 7 -7 11 -9 6 -12 6 -19 -1 -11 -10 -22 -10 -21 -2 2 13 -1
36 -3 28 -2 -5 -6 -9 -11 -9 -12 0 -41 -11 -41 -16 0 -5 -17 -5 -21 -1 -2 1
-1 9 1 17 3 9 2 15 0 15 -3 0 -5 3 -5 7 0 4 4 7 8 6 13 -1 14 10 1 14 -11 3
-11 3 4 13 19 13 27 13 26 -1 -1 -6 2 -11 5 -13 5 -1 7 2 6 10 -2 19 0 25 5
22 3 -2 5 -1 5 2 0 6 -6 7 -13 1 -3 -3 -14 -2 -28 1 -23 6 -24 6 -25 -7 l-3
-12 0 13 c-1 9 -4 14 -9 14 -4 0 -6 -2 -4 -5 2 -4 0 -4 -7 0 -10 5 -11 4 -11
-6 -1 -11 -1 -11 -5 -1 -4 9 -4 9 -8 0 -4 -9 -4 -9 -11 0 -7 9 -7 9 -15 -2
-10 -16 -19 -14 -40 9 -19 21 -19 21 -30 17z m-361 -27 c0 -3 -1 -5 -2 -5 -1
0 -4 2 -5 5 -2 3 -1 5 2 5 3 0 5 -2 5 -5z m462 -18 c13 -5 9 -9 -7 -10 -15 -1
-20 5 -9 10 4 1 7 2 7 3 1 0 5 -1 9 -3z m-42 -22 c0 -8 -2 -15 -4 -15 -3 0 -5
7 -5 15 0 8 2 15 4 15 3 0 5 -7 5 -15z m85 5 c0 -3 -1 -5 -2 -5 -1 0 -4 2 -5
5 -2 3 -1 5 2 5 3 0 5 -2 5 -5z m-324 -31 c7 -7 20 -22 30 -34 10 -12 23 -26
27 -31 7 -7 7 -10 2 -16 -3 -4 -9 -6 -13 -5 -4 2 -9 -3 -14 -12 -4 -8 -15 -18
-25 -24 -17 -9 -19 -9 -32 -2 -31 18 -30 47 2 80 15 16 17 19 10 25 -12 10
-32 2 -44 -18 -6 -11 -13 -17 -18 -16 -15 3 -12 18 7 37 31 29 51 34 68 16z
m291 -19 c-1 -6 -5 -9 -8 -7 -3 2 -3 5 1 9 8 8 6 15 -3 8 -4 -4 -9 -5 -11 -3
-1 2 2 6 7 10 8 6 10 6 14 0 2 -4 2 -12 0 -17z m33 7 c0 -4 -3 -7 -7 -7 -8 0
-11 11 -5 17 5 4 12 -1 12 -10z m504 -75 c-2 -2 -6 -2 -10 0 -4 1 -3 2 3 3 5
0 8 -1 7 -3z m-543 -306 c2 -2 -2 -4 -8 -4 -7 -1 -14 2 -15 6 -2 6 0 7 8 4 6
-2 13 -5 15 -6z m34 4 c0 -3 -4 -5 -10 -5 -5 0 -10 2 -10 5 0 3 5 5 10 5 6 0
10 -2 10 -5z m635 -90 c0 -3 -4 -5 -8 -5 -4 0 -6 2 -4 5 1 3 5 5 7 5 3 0 5 -2
5 -5z m-89 -112 c-1 -7 -4 -13 -7 -13 -5 0 -5 11 -1 22 5 12 11 5 8 -9z m-231
-184 c0 -2 -2 -3 -5 -1 -3 1 -5 5 -5 8 0 2 2 3 5 2 3 -2 5 -6 5 -9z m-49 -60
c-5 -5 -7 -5 -12 0 -5 5 -3 6 6 6 9 0 11 -1 6 -6z m-51 -178 c0 -2 -3 -4 -6
-5 -4 0 -11 -2 -16 -4 -9 -3 -10 -3 -4 5 7 8 26 11 26 4z m-89 -137 c-9 -9
-13 0 -6 9 5 6 8 6 9 2 1 -3 0 -8 -3 -11z m-58 -4 c1 -3 0 -5 -3 -5 -3 0 -5 2
-5 5 0 3 1 5 2 5 1 0 4 -2 6 -5z m-162 -30 c-2 -20 -11 -29 -11 -10 0 11 -11
20 -14 11 -1 -3 -8 -6 -16 -6 -13 0 -28 -10 -23 -16 2 -1 -2 -2 -7 -3 -8 0 -9
1 -4 11 6 14 24 23 46 23 13 0 18 2 20 11 5 18 11 3 9 -21z m569 -102 c0 -5
-2 -8 -5 -8 -2 0 -8 -1 -12 -3 -5 -2 -8 0 -8 5 0 6 6 10 21 12 2 1 4 -2 4 -6z
m-524 -214 c-9 -9 -13 0 -6 9 5 6 8 6 9 2 1 -3 0 -8 -3 -11z m-51 -4 c0 -3 -2
-5 -5 -5 -3 0 -5 4 -5 8 0 4 2 6 5 5 3 -2 5 -6 5 -8z m25 0 c0 -3 -2 -5 -5 -5
-3 0 -5 2 -5 5 0 3 2 5 5 5 3 0 5 -2 5 -5z"/>
<path d="M221 2318 c-16 -16 -19 -25 -13 -40 5 -12 25 -9 37 5 12 16 13 33 1
44 -9 7 -10 7 -25 -9z"/>
<path d="M548 2470 c-2 -3 -1 -5 2 -5 3 0 5 2 5 5 0 3 -1 5 -2 5 -1 0 -4 -2
-5 -5z"/>
<path d="M475 2462 c0 -3 7 -5 15 -5 8 0 15 1 15 3 0 2 -7 5 -15 6 -9 1 -15 0
-15 -4z"/>
<path d="M363 2430 c-14 -17 -16 -25 -7 -34 10 -10 23 -7 34 7 12 16 13 24 2
34 -11 11 -14 10 -29 -7z"/>
<path d="M587 2394 c-4 -3 -6 -7 -5 -9 3 -5 33 5 33 11 0 4 -18 3 -28 -2z"/>
<path d="M680 2365 c0 -3 2 -4 5 -2 3 1 5 4 5 5 0 1 -2 2 -5 2 -3 0 -5 -2 -5
-5z"/>
<path d="M5113 2329 c-7 -21 -8 -26 -3 -32 3 -3 9 -5 13 -4 8 3 10 27 2 27 -2
0 -5 4 -6 9 -2 8 -3 8 -6 0z"/>
<path d="M5172 2315 c-2 -3 -2 -7 0 -8 3 -4 13 2 13 8 0 7 -9 6 -13 0z"/>
<path d="M1115 2288 c0 -4 4 -8 8 -8 4 0 7 3 6 6 -3 9 -14 11 -14 2z"/>
<path d="M3937 2281 c-5 -7 -4 -13 2 -26 4 -9 11 -17 14 -19 4 -1 7 -7 7 -13
0 -9 1 -9 5 -3 4 5 6 6 9 2 2 -3 10 -6 17 -5 11 0 14 3 14 12 0 6 -2 10 -4 9
-3 -2 -6 4 -8 13 -2 9 -5 14 -6 10 -2 -3 -5 -6 -8 -6 -2 0 -3 2 -2 5 4 5 -20
30 -29 30 -3 0 -8 -4 -11 -9z"/>
<path d="M5073 2259 c-7 -8 -8 -12 -2 -24 7 -16 15 -17 17 -4 0 4 2 12 4 18 5
15 -8 23 -19 10z"/>
<path d="M3450 2255 c0 -3 2 -5 5 -5 2 0 6 2 8 5 1 3 -1 5 -5 5 -4 0 -8 -2 -8
-5z"/>
<path d="M5130 2237 c0 -11 12 -22 18 -16 3 4 -9 29 -14 29 -2 0 -4 -6 -4 -13z"/>
<path d="M3449 2237 c-2 -2 -2 -6 -1 -10 2 -4 1 -7 -2 -7 -4 0 -6 3 -6 8 0 4
-2 7 -5 7 -3 0 -5 -3 -5 -6 0 -4 -6 -12 -12 -18 -7 -7 -12 -13 -12 -15 2 -8
-7 -31 -11 -28 -2 1 -5 -2 -7 -6 -2 -4 0 -7 3 -7 20 3 45 -1 43 -6 -2 -6 -56
-25 -70 -25 -9 0 -19 -28 -19 -53 0 -13 2 -16 10 -16 6 0 9 3 7 6 -1 4 4 9 13
12 12 5 15 5 15 -1 0 -4 2 -7 5 -7 3 0 5 5 5 10 0 6 3 10 8 10 4 0 7 2 7 5 0
9 19 5 22 -4 1 -7 2 -6 2 2 1 9 4 11 22 11 12 0 22 2 23 5 3 10 11 7 11 -4 0
-12 6 -13 15 -2 5 6 7 6 11 1 3 -5 4 -4 4 3 0 6 3 8 9 6 7 -3 11 0 13 9 2 7 1
16 0 21 -3 7 -2 8 5 6 6 -3 8 -1 8 12 0 12 1 14 5 9 2 -3 3 -10 2 -15 -2 -5 0
-4 5 2 7 9 9 9 13 4 2 -4 7 -6 10 -4 4 3 3 7 -3 17 -8 12 -8 14 1 29 4 9 10
16 12 14 4 -2 11 18 8 22 -1 1 -5 -2 -9 -6 -4 -4 -9 -7 -10 -6 -1 1 -10 3 -21
3 -11 1 -23 4 -27 6 -8 7 -23 0 -19 -8 1 -4 0 -9 -2 -11 -3 -1 -5 3 -5 10 0
15 -8 21 -17 13 -4 -3 -10 -4 -14 -2 -4 2 -5 0 -3 -10 2 -11 1 -13 -5 -12 -5
1 -8 6 -8 10 -1 12 -17 23 -24 16z m81 -52 c0 -3 -2 -5 -5 -5 -3 0 -5 4 -5 8
0 4 2 6 5 5 3 -2 5 -6 5 -8z m-36 2 c-2 -2 -6 -2 -10 0 -4 1 -3 2 3 3 5 0 8
-1 7 -3z"/>
<path d="M3810 2230 c-6 -5 -10 -12 -8 -14 2 -3 0 -9 -4 -13 -7 -6 -6 -7 5 -9
7 -2 14 -1 15 2 2 3 7 1 11 -3 9 -8 25 -3 19 6 -4 6 20 18 28 13 3 -2 2 1 -3
7 -9 10 -10 10 -24 2 -12 -7 -15 -7 -19 -1 -2 4 -3 9 -2 11 5 8 -8 8 -18 -1z"/>
<path d="M3263 2232 c-1 -2 -3 -8 -3 -13 0 -4 -2 -10 -5 -12 -4 -2 -4 2 -2 10
3 13 2 13 -15 12 -9 0 -16 -3 -15 -4 1 -2 -2 -5 -7 -7 -4 -2 -9 -1 -10 2 -1 3
-5 3 -11 0 -7 -4 -10 -4 -10 0 0 2 -4 3 -8 2 -6 -3 -7 -4 -1 -8 4 -2 -6 -3
-23 -1 -29 3 -38 0 -38 -15 0 -8 30 -9 38 -2 5 4 7 4 7 0 0 -3 4 -6 10 -6 11
0 20 -11 11 -14 -3 -1 -6 -5 -6 -9 0 -5 3 -7 8 -5 10 4 22 -5 22 -16 -1 -7 -2
-6 -5 2 -3 7 -4 8 -5 1 0 -4 6 -12 13 -16 11 -8 13 -8 24 0 16 10 48 5 48 -9
0 -6 -4 -9 -12 -9 -17 0 -21 -9 -9 -20 12 -12 28 -8 23 5 -2 6 1 10 8 12 9 3
9 5 2 21 -10 25 -9 27 14 25 16 -1 21 1 23 8 1 5 4 9 7 9 2 0 3 3 3 6 -1 4 4
7 10 8 14 2 15 11 1 11 -5 0 -10 2 -10 5 0 3 5 5 10 5 10 0 10 1 3 8 -6 6 -10
7 -15 2 -6 -4 -8 -4 -12 3 -5 9 -6 9 -6 0 0 -7 -1 -8 -7 -4 -5 5 -10 3 -22 -8
-12 -12 -16 -13 -18 -7 -2 4 -1 10 2 14 9 10 -2 23 -12 14z"/>
<path d="M3753 2224 c-9 -8 -9 -9 -1 -9 4 0 8 -2 7 -4 -1 -9 1 -16 7 -16 3 0
3 2 -1 8 -4 5 -4 7 -1 7 7 0 8 18 2 22 -2 1 -8 -2 -13 -8z"/>
<path d="M3640 2222 c1 -6 2 -7 3 -3 2 4 2 8 0 10 -2 1 -3 -2 -3 -7z"/>
<path d="M3775 2220 c0 -7 3 -10 13 -10 11 0 12 1 7 10 -3 6 -9 10 -13 10 -4
0 -7 -4 -7 -10z"/>
<path d="M3904 2217 c4 -2 8 -2 10 0 1 2 -2 3 -7 3 -6 -1 -7 -2 -3 -3z"/>
<path d="M3913 2211 c-20 -2 -30 -9 -25 -17 2 -2 6 -1 10 3 3 4 12 6 19 4 7
-1 13 1 15 6 1 4 2 8 2 7 -1 0 -10 -2 -21 -3z"/>
<path d="M3088 2205 c-2 -3 -1 -5 2 -5 3 0 5 2 5 5 0 3 -1 5 -2 5 -1 0 -4 -2
-5 -5z"/>
<path d="M3050 2185 c0 -3 3 -5 8 -5 4 0 7 2 7 5 0 3 -3 5 -7 5 -5 0 -8 -2 -8
-5z"/>
<path d="M2998 2177 c2 -3 7 -5 12 -3 13 3 13 4 -2 7 -8 2 -11 0 -10 -4z"/>
<path d="M4331 2179 c-3 -3 -6 -4 -6 -1 0 2 -2 1 -5 -3 -3 -5 -5 -5 -5 -1 0 3
-2 6 -5 6 -3 0 -5 -6 -5 -14 0 -20 -4 -22 -23 -11 -10 6 -23 10 -29 10 l-12 0
12 -23 c13 -25 15 -37 6 -46 -8 -8 -1 -14 7 -7 4 3 14 5 24 3 9 -1 19 0 22 2
3 2 8 3 11 3 2 0 7 6 9 12 4 7 8 10 14 8 6 -2 8 -1 6 5 -1 3 1 8 5 10 5 1 8
-2 10 -10 2 -7 5 -12 8 -12 4 0 10 17 10 28 0 8 -22 33 -28 32 -13 -3 -21 1
-19 8 4 9 1 9 -7 1z m29 -24 c0 -3 -2 -5 -5 -5 -3 0 -5 2 -5 5 0 3 2 5 5 5 3
0 5 -2 5 -5z"/>
<path d="M4130 2157 l-11 -19 -12 15 -12 15 -9 -13 c-7 -8 -10 -19 -9 -34 0
-14 -2 -23 -6 -25 -3 -1 -6 -5 -6 -9 0 -4 -2 -7 -5 -7 -7 0 -27 -20 -23 -24 1
-1 -1 -5 -4 -9 -10 -9 -38 -9 -41 1 -2 4 -6 7 -9 7 -10 0 -29 36 -35 65 -4 24
-7 30 -17 31 -6 2 -15 0 -20 -4 -5 -4 -14 -7 -20 -7 -6 0 -11 -2 -11 -5 0 -3
-2 -4 -5 -2 -3 1 -12 -2 -20 -8 -15 -11 -22 -13 -17 -5 4 7 -1 6 -20 -2 -8 -4
-19 -8 -23 -9 -5 -2 -1 -7 13 -15 43 -28 52 -53 53 -149 1 -109 -8 -153 -37
-184 -17 -18 -17 -10 -2 -156 3 -34 6 -98 5 -142 -2 -87 4 -164 10 -144 2 6 6
11 9 11 6 0 -6 -21 -15 -27 -4 -2 -6 -8 -4 -18 3 -9 1 -15 -4 -16 -4 -2 -8
-14 -10 -29 -2 -14 -4 -28 -6 -31 -1 -4 7 -10 20 -16 27 -11 36 -23 43 -59 8
-44 9 -69 1 -77 -4 -4 -6 -16 -6 -31 1 -13 -5 -55 -12 -93 -16 -87 -20 -140
-12 -161 11 -31 -16 -41 -34 -13 -5 8 -15 19 -23 26 -12 10 -15 16 -13 28 1 9
4 15 9 15 5 0 7 5 8 16 0 9 -2 16 -4 16 -3 0 -4 4 -2 8 2 4 1 11 -1 14 -4 7
-6 15 -7 37 -1 9 -3 16 -4 16 -5 0 -21 38 -21 51 0 6 1 25 4 43 3 31 3 31 -11
36 -11 5 -15 4 -20 -2 -3 -4 -7 -6 -9 -4 -7 6 -53 4 -53 -3 0 -3 -2 -6 -4 -6
-21 -3 -32 -2 -34 1 -1 2 -6 4 -10 4 -4 0 -6 -2 -4 -5 1 -3 -3 -5 -10 -5 -8 0
-12 2 -10 5 1 3 0 5 -3 5 -3 0 -5 -2 -5 -5 0 -3 -10 -5 -23 -5 -18 0 -23 2
-26 10 -3 9 -6 6 -20 -23 -13 -26 -16 -38 -15 -56 1 -13 3 -26 5 -29 5 -7 0
-22 -6 -22 -2 0 -6 -7 -7 -15 -2 -8 -6 -15 -10 -15 -3 0 1 -4 8 -8 16 -8 14
-22 -3 -21 -10 1 -11 -2 -14 -41 -4 -41 -3 -48 12 -85 3 -7 7 -18 10 -25 5
-13 12 -28 23 -49 12 -23 16 -31 16 -33 0 -2 -10 -3 -21 -3 -12 0 -25 -2 -29
-5 -4 -3 -11 -2 -17 1 -7 4 -11 4 -15 -2 -3 -3 -12 -7 -20 -8 -9 0 -20 -3 -26
-6 -6 -4 -19 -5 -29 -4 -11 1 -19 0 -20 -4 -4 -10 1 -11 45 -11 23 -1 43 -1
45 -2 3 0 11 2 20 6 14 6 20 7 51 9 10 1 15 3 13 6 -3 6 19 -5 24 -12 1 -2 4
0 6 4 2 6 9 8 24 7 29 -1 60 6 70 15 5 4 13 6 21 4 8 -2 13 -1 13 2 0 4 4 5 8
3 5 -2 11 0 13 3 3 5 5 5 9 -1 2 -4 6 -6 8 -4 2 2 7 2 12 -1 5 -3 15 -2 26 1
10 3 22 4 27 1 13 -5 28 -3 35 5 6 8 26 13 30 7 2 -2 7 -3 11 -1 5 1 19 4 31
5 12 2 24 6 26 9 3 3 4 2 4 -3 0 -7 4 -9 14 -9 15 0 29 11 22 17 -2 2 6 3 18
1 14 -3 21 -2 21 2 0 3 -3 5 -6 5 -4 1 0 3 8 5 11 4 16 3 19 -2 6 -11 33 -15
43 -6 6 5 15 7 31 5 15 -1 29 1 40 6 10 5 25 9 35 8 16 0 16 1 6 5 -7 2 -13 3
-15 2 -2 -1 -4 3 -5 9 0 6 1 8 3 4 3 -4 9 -2 23 7 10 7 21 12 24 10 4 -1 10 2
15 6 9 7 9 8 -2 20 l-11 12 17 -2 c14 -1 18 -4 20 -14 1 -11 2 -10 7 8 7 22
25 30 29 12 2 -6 7 -10 14 -10 5 0 10 -2 10 -5 0 -3 6 -4 15 -3 8 2 16 1 17
-2 2 -3 -1 -5 -7 -5 -5 0 -10 -2 -10 -5 0 -2 -1 -7 -3 -11 -2 -5 3 -7 21 -5
21 1 22 0 19 -10 l-3 -10 11 10 c8 7 18 11 31 11 12 0 20 3 24 9 2 5 5 6 5 4
0 -7 25 22 25 29 0 4 6 26 13 48 l13 40 -13 26 c-8 15 -19 31 -26 38 -7 6 -12
13 -12 15 0 12 -22 56 -28 56 -4 0 -7 2 -7 5 0 3 -2 5 -5 5 -3 0 -5 -5 -5 -12
0 -7 -5 -15 -12 -20 -12 -7 -13 -7 -22 5 -6 6 -13 12 -17 12 -8 0 -10 21 -2
26 4 2 3 4 -2 4 -7 0 -7 1 0 5 5 3 5 5 1 5 -3 0 -4 3 -2 9 2 5 -3 3 -10 -6 -8
-8 -16 -12 -19 -11 -3 2 -4 5 -3 7 1 2 -2 7 -8 10 -9 6 -10 6 -7 -5 2 -6 2 -9
0 -5 -2 3 -6 6 -10 6 -4 0 -7 2 -7 4 0 4 11 30 20 47 9 16 5 18 -17 10 -13 -5
-23 -11 -23 -14 0 -4 -4 -9 -9 -12 -7 -4 -7 -5 -1 -5 4 0 1 -5 -8 -10 -17 -11
-30 -9 -34 5 -3 7 -7 9 -24 7 -12 -1 -22 -5 -24 -8 -2 -3 -8 -4 -12 -2 -6 2
-11 -2 -19 -15 -9 -16 -11 -17 -17 -10 -9 13 -15 9 -22 -14 -7 -27 -15 -30
-16 -7 0 9 -1 19 -1 22 -1 2 -2 8 -2 12 -1 6 -2 6 -5 1 -4 -5 -7 -6 -15 -2 -9
5 -11 4 -13 -4 -5 -14 -15 -20 -39 -23 -11 -1 -23 -4 -25 -5 -2 -1 -4 3 -4 10
0 7 -2 13 -5 13 -3 0 -5 -3 -5 -7 0 -5 -3 -8 -7 -8 -4 0 -8 -7 -10 -17 -4 -21
-6 -21 -23 -9 -9 7 -12 15 -12 29 0 34 7 67 15 70 8 3 10 25 2 28 -4 1 -3 9 2
24 6 16 7 23 2 28 -4 5 -3 10 3 20 7 10 8 16 4 24 -9 17 -20 54 -24 79 -2 19
-1 28 8 46 9 20 17 27 51 46 21 13 39 25 39 28 0 10 35 59 42 59 4 0 11 -4 15
-8 11 -11 23 -5 23 10 0 12 0 13 10 5 5 -5 8 -11 7 -13 -1 -2 5 -4 15 -4 20 0
27 -7 29 -30 1 -14 3 -17 12 -16 29 4 68 4 70 0 1 -2 8 -4 14 -4 6 0 17 -3 25
-8 18 -9 18 -9 18 3 0 7 3 10 12 10 13 0 14 4 3 27 -5 9 -5 15 -2 17 5 3 11
22 13 39 0 3 4 5 8 3 5 -2 6 -1 4 3 -2 3 -1 10 1 15 3 4 6 12 8 17 2 5 8 9 15
9 6 0 19 4 27 8 15 7 17 7 29 0 15 -10 22 -36 15 -52 -3 -8 -3 -14 1 -21 4 -7
4 -14 1 -23 -3 -7 -5 -18 -5 -25 0 -7 -2 -12 -5 -12 -3 0 -4 -3 -2 -6 2 -3 7
1 12 11 5 10 13 24 17 33 4 8 15 25 23 37 8 12 14 25 15 29 0 4 6 16 14 28 8
11 17 30 20 41 8 22 34 52 62 70 11 7 19 16 21 26 1 9 14 27 33 45 26 26 30
32 30 49 0 24 12 69 21 84 12 17 13 37 9 101 -3 47 -6 65 -13 78 -6 9 -12 23
-14 32 -6 25 -23 47 -45 58 -18 9 -25 10 -68 6 -26 -2 -56 -3 -66 -3 -16 1
-23 -2 -35 -14 -10 -11 -20 -15 -31 -15 -9 0 -23 -5 -30 -10 -10 -9 -18 -10
-35 -9 -12 1 -26 0 -31 -3 -5 -3 -20 -6 -32 -7 -76 -5 -85 -5 -88 0 -6 9 9 14
16 5 5 -7 6 -7 9 1 1 5 5 7 8 6 2 -2 11 -1 18 2 13 5 13 7 7 12 -4 3 -11 13
-14 21 -9 21 -20 31 -37 31 -7 0 -19 5 -27 10 -7 6 -15 11 -17 11 -2 0 -9 -8
-15 -18z m65 -32 c0 -7 -8 -10 -15 -5 -8 5 -2 15 8 12 4 -2 7 -5 7 -7z m-35
-32 c5 -2 5 -2 -2 -2 -5 1 -11 5 -12 9 -1 5 0 6 2 2 3 -3 8 -7 12 -9z m-55
-17 c0 -6 -24 -31 -29 -31 -9 0 -12 10 -5 17 14 14 34 22 34 14z m-480 -1080
c-3 -10 -3 -19 0 -20 7 -3 -20 -26 -30 -26 -5 0 -10 -3 -12 -7 -1 -5 -9 -8
-17 -8 -7 0 -11 -2 -8 -4 6 -4 6 -37 0 -35 -11 4 -34 59 -41 95 -3 16 -2 19 4
16 4 -1 10 -10 12 -19 7 -22 18 -20 24 5 6 24 11 28 31 25 8 -1 18 0 22 2 13
8 19 -4 15 -24z m430 -41 c0 -6 -10 -12 -13 -8 -4 3 2 13 8 13 3 0 5 -2 5 -5z
m260 -10 c0 -8 -3 -21 -7 -28 -4 -8 -10 -23 -13 -34 -5 -17 -5 -21 1 -25 4 -3
7 -8 6 -11 -2 -5 23 -19 62 -35 24 -9 36 -24 26 -34 -8 -8 -84 -8 -91 -1 -4 4
-10 5 -15 4 -12 -3 -68 9 -72 15 -5 9 -3 57 2 68 4 6 6 19 6 29 0 10 4 23 10
31 6 7 10 15 10 19 0 3 6 7 14 8 16 4 21 0 11 -7 -6 -3 -4 -4 5 -1 7 2 14 5
15 7 3 4 15 9 24 10 3 0 6 -6 6 -15z m-271 -46 c-3 -10 -7 -19 -10 -19 -2 0
-4 1 -4 1 -6 38 -6 41 3 48 8 5 10 5 12 -2 2 -5 1 -18 -1 -28z m-59 -13 c0 -3
-3 -6 -7 -6 -7 0 -14 19 -10 26 3 5 17 -11 17 -20z m-455 -22 c0 -6 -1 -9 -3
-7 -2 1 -7 0 -10 -3 -6 -4 -7 -3 -7 5 0 11 4 16 13 16 4 0 7 -5 7 -11z m44 1
c10 -16 4 -18 -6 -3 -4 7 -6 13 -4 13 2 0 7 -5 10 -10z m421 -53 c6 -7 8 -7
13 1 6 7 7 6 14 -11 10 -23 10 -34 0 -44 -7 -8 -9 -8 -20 -1 -6 5 -18 8 -27 8
-12 0 -15 2 -15 12 0 6 5 16 10 21 6 4 10 12 10 15 0 9 7 9 15 -1z m-265 -45
c10 -10 11 -14 7 -26 -4 -11 -7 -13 -20 -12 -8 1 -17 4 -20 6 -4 3 -8 2 -12
-2 -6 -8 -34 -11 -42 -4 -18 13 3 49 24 43 7 -2 16 -1 21 2 15 9 30 7 42 -7z
m157 -26 c22 -17 43 -29 68 -41 4 -2 9 -7 12 -11 8 -13 -2 -19 -31 -21 -17 0
-26 -3 -26 -7 0 -3 -3 -6 -7 -6 -5 0 -7 3 -5 7 2 5 0 9 -5 11 -4 2 -8 6 -8 10
0 4 -8 14 -17 23 -14 11 -18 19 -18 31 0 15 3 23 9 23 1 0 14 -9 28 -19z
m-208 -50 c3 -9 -7 -7 -11 2 -2 5 -1 7 3 6 3 -1 7 -5 8 -8z m464 4 c1 -3 0 -5
-3 -5 -3 0 -5 2 -5 5 0 3 1 5 2 5 1 0 4 -2 6 -5z m-64 -3 c-2 -2 -6 -2 -10 0
-4 1 -3 2 3 3 5 0 8 -1 7 -3z m51 -8 c0 -2 -2 -3 -5 -1 -3 1 -5 5 -5 8 0 2 2
3 5 2 3 -2 5 -6 5 -9z m-331 -7 c-2 -2 -6 -2 -10 0 -4 1 -3 2 3 3 5 0 8 -1 7
-3z"/>
<path d="M3240 2130 c0 -3 2 -4 5 -2 3 1 5 4 5 5 0 1 -2 2 -5 2 -3 0 -5 -2 -5
-5z"/>
<path d="M3193 2118 c-1 -5 -3 -10 -3 -11 0 -4 20 -2 23 3 1 3 -1 5 -5 5 -4 0
-8 3 -9 6 -1 4 -4 3 -6 -3z"/>
<path d="M3226 2103 c3 -8 14 -10 14 -2 0 4 -3 7 -8 7 -4 0 -7 -2 -6 -5z"/>
<path d="M5300 2085 c0 -3 2 -5 5 -5 3 0 4 2 3 5 -2 3 -5 5 -6 5 -1 0 -2 -2
-2 -5z"/>
<path d="M3418 2065 c-2 -2 -1 -6 1 -7 3 -2 6 0 8 5 3 8 -5 10 -9 2z"/>
<path d="M4961 1969 c-2 -4 -6 -9 -8 -13 -6 -10 9 -2 16 9 7 11 0 14 -8 4z"/>
<path d="M3807 1870 c-5 -11 -5 -16 0 -20 5 -4 7 -1 10 11 4 21 -3 28 -10 9z"/>
<path d="M6485 1850 c0 -3 2 -5 5 -5 3 0 4 2 3 5 -2 3 -5 5 -6 5 -1 0 -2 -2
-2 -5z"/>
<path d="M3815 1835 c-7 -13 -6 -17 3 -10 9 8 10 0 1 -9 -5 -5 -5 -6 2 -3 4 1
9 7 11 13 5 19 -8 26 -17 9z"/>
<path d="M1178 1831 c-9 -4 -9 -4 -1 -8 12 -4 19 -4 16 2 -2 2 0 5 3 7 4 1 4
2 -1 2 -4 0 -12 -1 -17 -3z"/>
<path d="M1168 1815 c1 -3 4 -5 5 -5 1 0 2 2 2 5 0 3 -2 5 -5 5 -3 0 -4 -2 -2
-5z"/>
<path d="M3530 1731 c-9 -5 -20 -14 -25 -21 l-7 -12 13 8 c8 6 24 9 40 9 15 1
32 2 38 4 11 3 11 4 5 10 -13 10 -46 11 -64 2z"/>
<path d="M3409 1719 c-6 -15 1 -24 15 -22 18 4 25 12 13 16 -5 2 -10 1 -11 -2
-3 -10 -10 -7 -12 5 -1 10 -2 10 -5 3z"/>
<path d="M3453 1720 c1 -3 4 -5 5 -5 1 0 2 2 2 5 0 3 -2 5 -5 5 -3 0 -4 -2 -2
-5z"/>
<path d="M3468 1710 c3 -13 11 -20 20 -20 2 0 1 3 -3 6 -5 4 -11 11 -14 17 -6
9 -6 9 -3 -3z"/>
<path d="M3608 1703 c2 -6 5 -23 7 -39 4 -35 8 -41 13 -17 4 22 0 38 -13 54
-9 10 -10 10 -7 2z"/>
<path d="M3220 1685 c-4 -3 -5 -5 -2 -5 2 -1 -1 -3 -8 -5 -10 -3 -9 -4 10 -4
29 -1 41 6 26 13 -13 7 -16 7 -26 1z"/>
<path d="M3485 1667 c0 -4 2 -6 5 -4 3 1 5 5 5 7 0 3 -2 5 -5 5 -3 0 -5 -4 -5
-8z"/>
<path d="M3469 1662 c4 -2 8 -2 10 0 1 2 -2 3 -7 3 -6 -1 -7 -2 -3 -3z"/>
<path d="M3567 1654 c-2 -3 1 -9 6 -12 12 -9 16 -9 22 3 4 7 3 10 -3 12 -12 5
-21 4 -25 -3z"/>
<path d="M3485 1650 c0 -3 2 -5 5 -5 3 0 5 2 5 5 0 3 -2 5 -5 5 -3 0 -5 -2 -5
-5z"/>
<path d="M3313 1645 c-2 -3 -1 -5 2 -5 3 0 5 2 5 5 0 3 -1 5 -2 5 -1 0 -4 -2
-5 -5z"/>
<path d="M3431 1646 c-3 -1 -6 -7 -6 -14 0 -7 -2 -12 -5 -12 -3 0 -5 -2 -5 -5
0 -3 3 -3 8 -2 5 2 7 0 7 -7 0 -6 -3 -11 -6 -11 -9 0 0 -7 10 -8 8 0 9 4 9 29
-1 31 -2 34 -12 30z"/>
<path d="M3190 1620 c-5 -9 -5 -11 3 -9 5 1 10 6 11 10 2 12 -7 11 -14 -1z"/>
<path d="M3235 1622 c0 -5 -3 -7 -10 -5 -5 2 -11 1 -12 -2 -2 -2 2 -6 9 -8 7
-2 15 -7 18 -11 5 -7 5 -6 2 3 -2 9 -1 11 11 12 9 0 11 1 6 2 -5 2 -9 5 -9 7
0 2 -3 5 -7 7 -5 2 -8 0 -8 -5z"/>
<path d="M3306 1621 c-6 -10 -3 -16 7 -16 9 0 12 14 5 20 -6 4 -8 3 -12 -4z"/>
<path d="M3575 1580 c0 -3 4 -5 8 -5 4 0 6 2 5 5 -2 3 -6 5 -8 5 -3 0 -5 -2
-5 -5z"/>
<path d="M3610 1575 c0 -3 2 -5 5 -5 3 0 4 2 3 5 -2 3 -5 5 -6 5 -1 0 -2 -2
-2 -5z"/>
<path d="M3566 1569 c2 -4 -1 -12 -6 -18 -12 -13 -13 -24 -2 -28 15 -6 26 6
35 36 2 8 1 11 -5 11 -4 0 -11 2 -16 3 -7 3 -8 2 -6 -4z"/>
<path d="M858 1526 c-2 -3 0 -8 5 -11 6 -5 7 -4 7 4 0 11 -7 15 -12 7z"/>
<path d="M3568 1493 c-1 -5 -7 -8 -13 -8 -7 0 -10 -3 -10 -10 0 -6 3 -10 9
-10 10 1 31 9 24 10 -3 0 -2 3 2 5 6 4 6 6 1 8 -3 2 -5 5 -3 7 1 3 0 5 -2 5
-3 0 -6 -3 -8 -7z"/>
<path d="M838 1463 c-1 -5 -1 -8 2 -8 3 0 5 3 5 8 0 4 -1 7 -2 7 -1 0 -3 -3
-5 -7z"/>
<path d="M3570 1447 c0 -4 2 -6 5 -4 3 1 5 5 5 7 0 3 -2 5 -5 5 -3 0 -5 -4 -5
-8z"/>
<path d="M3561 1427 c-5 -9 -5 -12 0 -14 4 -1 0 -2 -7 -3 -11 0 -14 -2 -14
-12 0 -7 2 -13 4 -13 2 0 5 -9 5 -20 1 -12 2 -23 4 -26 5 -8 12 2 12 19 0 12
-2 16 -6 14 -4 -2 -4 -1 -1 3 9 15 15 38 12 50 l-3 13 -6 -11z"/>
<path d="M4001 1392 c-10 -4 -7 -11 4 -8 6 1 10 4 10 7 0 4 -4 5 -14 1z"/>
<path d="M4330 1378 c0 -1 3 -3 8 -5 4 -2 6 -1 4 2 -2 5 -12 7 -12 3z"/>
<path d="M4078 1372 c-6 -7 -3 -22 7 -31 12 -10 13 -18 3 -14 -10 3 -10 -2 -2
-13 7 -8 20 -14 23 -9 1 1 4 12 6 25 4 20 3 25 -9 44 -3 6 -15 -11 -13 -17 2
-4 0 -7 -6 -7 -6 0 -8 3 -6 13 3 13 2 14 -3 9z"/>
<path d="M1095 1325 c0 -3 2 -4 5 -2 3 1 5 4 5 5 0 1 -2 2 -5 2 -3 0 -5 -2 -5
-5z"/>
<path d="M1130 1325 c0 -3 2 -5 5 -5 3 0 5 2 5 5 0 3 -2 5 -5 5 -3 0 -5 -2 -5
-5z"/>
<path d="M4616 1255 c-8 -10 -11 -20 -10 -28 2 -7 1 -13 -2 -15 -2 -1 -4 -5
-4 -8 0 -7 16 14 27 35 8 16 11 31 4 31 -2 0 -9 -7 -15 -15z"/>
<path d="M4555 1170 c0 -5 -5 -13 -10 -17 -8 -5 -10 -10 -8 -17 2 -7 1 -10 -7
-12 -14 -4 -13 -10 4 -20 10 -6 16 -7 21 -3 6 4 6 5 1 7 -5 2 -3 5 5 9 9 4 12
12 15 30 4 28 2 33 -11 33 -7 0 -10 -3 -10 -10z"/>
<path d="M2676 1145 c0 -7 1 -10 2 -6 2 3 2 9 0 12 -1 4 -2 1 -2 -6z"/>
<path d="M2693 1150 c-2 -3 -1 -5 1 -5 3 0 7 2 9 5 1 3 0 5 -2 5 -3 0 -7 -2
-8 -5z"/>
<path d="M4733 1138 c-1 -5 -1 -8 2 -8 3 0 5 3 5 8 0 4 -1 7 -2 7 -1 0 -3 -3
-5 -7z"/>
<path d="M4200 1045 c0 -3 2 -5 5 -5 3 0 4 2 3 5 -2 3 -5 5 -6 5 -1 0 -2 -2
-2 -5z"/>
<path d="M3948 1040 c-2 -3 0 -5 4 -5 4 0 8 2 8 5 0 3 -2 5 -5 5 -2 0 -6 -2
-7 -5z"/>
<path d="M4453 1041 c-15 -3 -16 -7 -15 -40 2 -27 3 -29 28 -52 27 -24 44 -33
44 -21 0 3 2 7 5 8 3 1 7 11 8 23 2 11 6 23 10 27 10 7 9 14 -5 31 -10 11 -15
14 -25 11 -10 -2 -14 -1 -19 7 -6 10 -12 11 -31 6z m2 -26 c0 -3 -2 -5 -5 -5
-3 0 -5 2 -5 5 0 3 2 5 5 5 3 0 5 -2 5 -5z"/>
<path d="M3833 1035 c-2 -3 -1 -5 2 -5 3 0 5 2 5 5 0 3 -1 5 -2 5 -1 0 -4 -2
-5 -5z"/>
<path d="M3809 1032 c-5 -2 -9 -5 -9 -8 0 -7 21 -3 24 5 2 6 0 7 -15 3z"/>
<path d="M4371 1024 c3 -7 27 -17 32 -13 1 1 1 6 -1 11 -4 10 -34 12 -31 2z"/>
<path d="M4420 1005 c0 -3 4 -5 8 -5 4 0 6 2 5 5 -2 3 -6 5 -8 5 -3 0 -5 -2
-5 -5z"/>
<path d="M3433 1002 c-1 -2 -3 -6 -3 -9 0 -3 2 -3 6 1 3 3 5 7 3 8 -1 2 -4 2
-6 0z"/>
<path d="M3305 992 c0 -8 11 -16 14 -9 0 3 8 4 16 3 9 -1 15 0 15 4 0 3 -2 4
-5 3 -2 -2 -6 -1 -7 1 -5 8 -33 6 -33 -2z"/>
<path d="M3255 985 c0 -3 4 -5 10 -5 5 0 11 2 13 5 1 3 -3 5 -10 5 -7 0 -13
-2 -13 -5z"/>
<path d="M3108 963 c2 -5 1 -8 -2 -8 -3 0 -6 3 -7 6 -4 10 -19 -5 -19 -18 0
-9 3 -10 19 -10 15 0 18 1 17 8 -1 6 2 9 9 9 13 0 13 8 0 15 -13 7 -20 6 -17
-2z m-6 -23 c2 -3 0 -4 -4 -2 -9 3 -10 7 -3 7 2 0 6 -2 7 -5z"/>
<path d="M3148 965 c-2 -3 1 -5 7 -5 5 0 10 2 10 5 0 3 -3 5 -7 5 -4 0 -9 -2
-10 -5z"/>
<path d="M3024 945 c-2 -7 -1 -10 4 -10 4 0 6 2 4 6 -2 3 0 7 4 9 5 4 5 5 -2
5 -4 0 -9 -4 -10 -10z"/>
<path d="M2866 940 c-7 -11 -3 -27 7 -23 4 1 8 1 9 -2 4 -6 30 1 36 10 10 12
-2 22 -22 18 -9 -1 -16 0 -16 2 0 8 -7 6 -14 -5z"/>
<path d="M2955 942 c1 -6 2 -7 3 -3 2 4 2 8 0 10 -2 1 -3 -2 -3 -7z"/>
<path d="M3149 947 c4 -2 8 -2 10 0 1 2 -2 3 -7 3 -6 -1 -7 -2 -3 -3z"/>
<path d="M2824 933 c-1 -2 -10 -3 -19 -3 -33 -2 -45 -5 -45 -14 0 -5 -3 -12
-6 -15 -5 -5 -5 -6 0 -6 3 0 6 3 6 6 0 3 2 3 8 -1 5 -5 9 -5 14 0 5 3 11 5 15
3 4 -1 9 0 11 3 2 4 6 3 10 -3 6 -8 7 -8 19 4 14 14 13 28 -2 28 -4 0 -9 -1
-11 -2z"/>
<path d="M3421 918 c-4 -4 -18 -6 -44 -5 -21 1 -36 0 -33 -2 3 -2 4 -9 3 -15
-2 -8 -7 -11 -18 -11 -8 0 -14 -2 -14 -5 0 -3 3 -5 8 -5 11 0 9 -11 -3 -14 -5
-1 -9 -4 -7 -7 1 -2 5 -3 7 -1 3 1 4 -1 2 -5 -2 -5 -9 -8 -15 -8 -11 0 -12 -1
-7 -10 4 -8 2 -11 -9 -20 -13 -11 -13 -11 -1 -8 8 2 15 -1 23 -9 14 -12 15
-16 5 -16 -5 0 -8 3 -8 6 0 9 -7 13 -17 9 -11 -4 -10 -12 2 -16 8 -2 9 -4 5
-9 -6 -7 -20 -4 -26 6 -6 10 -14 8 -27 -6 -14 -15 -15 -19 -4 -29 6 -6 6 -8
-3 -11 -16 -4 -9 -14 12 -17 12 -3 20 -1 24 4 3 3 9 5 13 4 5 -2 6 0 5 7 -3
11 3 14 8 3 5 -14 16 -4 14 12 -1 9 0 15 3 15 3 0 6 -4 6 -9 0 -6 3 -11 8 -13
4 -2 6 -1 5 2 -2 2 4 8 12 12 15 8 15 8 12 -3 -4 -16 10 -28 22 -21 11 7 51 3
54 -5 1 -4 8 -6 15 -4 9 2 12 5 12 17 0 8 -2 19 -5 24 -7 13 -11 89 -5 93 3 1
5 5 5 8 0 2 -2 3 -5 2 -8 -5 -10 6 -2 12 8 7 10 27 2 22 -7 -4 -20 7 -20 18 0
12 -7 17 -14 8z m-58 -152 c-6 -6 -8 3 -4 19 l3 18 2 -17 c1 -9 0 -18 -1 -20z"/>
<path d="M2713 905 c1 -3 5 -5 7 -5 3 0 5 2 5 5 0 3 -4 5 -8 5 -4 0 -6 -2 -4
-5z"/>
<path d="M2428 885 c-2 -3 -1 -5 2 -5 3 0 5 2 5 5 0 3 -1 5 -2 5 -1 0 -4 -2
-5 -5z"/>
<path d="M2510 877 c1 -6 2 -7 3 -3 2 4 2 8 0 10 -2 1 -3 -2 -3 -7z"/>
<path d="M2520 880 c0 -3 2 -5 5 -5 3 0 5 2 5 5 0 3 -2 5 -5 5 -3 0 -5 -2 -5
-5z"/>
<path d="M2558 882 c-1 -2 -3 -6 -3 -9 0 -3 2 -3 6 1 3 3 5 7 3 8 -1 2 -4 2
-6 0z"/>
<path d="M2575 877 c0 -4 2 -6 5 -4 3 1 5 5 5 7 0 3 -2 5 -5 5 -3 0 -5 -4 -5
-8z"/>
<path d="M2495 872 c1 -6 2 -7 3 -3 2 4 2 8 0 10 -2 1 -3 -2 -3 -7z"/>
<path d="M2425 869 c0 -2 0 -5 0 -7 1 -2 -2 -5 -6 -8 -4 -3 -2 -4 6 -1 7 2 15
6 19 9 6 6 5 7 -6 9 -7 2 -13 1 -13 -2z"/>
<path d="M3104 873 c-2 -14 0 -25 5 -27 4 -1 6 2 4 12 -2 13 -7 22 -9 15z"/>
<path d="M2402 855 c-2 -3 -2 -7 -1 -8 2 -1 4 1 6 5 3 9 0 11 -5 3z"/>
<path d="M2278 847 c-4 -4 23 -22 28 -18 3 1 0 6 -7 11 -11 11 -15 12 -21 7z"/>
<path d="M2385 845 c0 -3 2 -4 5 -2 3 1 5 4 5 5 0 1 -2 2 -5 2 -3 0 -5 -2 -5
-5z"/>
<path d="M2273 830 c-2 -3 -1 -5 2 -5 3 0 5 2 5 5 0 3 -1 5 -2 5 -1 0 -4 -2
-5 -5z"/>
<path d="M3058 814 c-1 -12 -5 -37 -8 -56 -4 -31 -3 -36 4 -42 4 -3 10 -6 12
-6 3 0 4 3 3 6 -2 4 1 11 5 16 8 9 8 9 0 7 -14 -5 -11 2 6 16 16 13 20 23 8
18 -11 -4 -20 11 -19 35 0 29 -7 33 -11 6z"/>
<path d="M705 791 c-14 -2 -36 -16 -25 -16 4 0 5 -1 4 -3 -2 -1 -9 1 -16 5
-12 8 -13 8 -18 -2 -4 -7 -7 -9 -10 -6 -2 4 -12 5 -24 4 -16 -2 -22 0 -26 6
-4 8 -5 8 -8 0 -3 -9 -17 -13 -17 -5 0 2 -7 4 -16 5 -13 1 -14 0 -10 -6 5 -5
5 -7 -1 -10 -4 -1 -10 1 -13 6 -3 7 -6 7 -13 3 -5 -3 -23 -6 -39 -6 -17 0 -31
-3 -32 -6 -2 -6 -19 -7 -23 0 -6 8 -28 6 -34 -5 -6 -9 -18 -8 -25 2 -2 3 -4 2
-4 -3 0 -5 -3 -7 -12 -5 -7 1 -13 4 -13 7 0 2 -7 4 -15 4 -10 0 -15 -2 -15 -7
0 -9 -4 -10 -15 -3 -5 3 -9 2 -13 -4 -6 -8 -7 -8 -7 0 0 11 -9 11 -24 1 -9 -6
-13 -7 -19 -2 -6 5 -7 5 -7 -2 0 -6 -4 -8 -15 -8 -8 0 -16 2 -17 4 -4 6 -21 4
-30 -3 -4 -4 -10 -6 -12 -4 -3 2 -8 -1 -11 -5 -4 -4 -8 -5 -10 -3 -1 3 -12 6
-24 8 -18 3 -21 3 -18 -4 2 -6 1 -7 -14 -2 -17 5 -20 5 -46 3 l-15 -1 0 -324
c0 -178 1 -325 3 -327 2 -1 7 -2 12 -1 9 1 8 3 -2 13 -7 7 -10 13 -8 15 1 2 7
-1 11 -7 7 -8 10 -9 20 -4 6 3 9 7 7 9 -2 3 0 3 4 2 4 -1 7 -7 6 -13 -2 -15 9
-19 17 -6 7 9 9 9 16 4 6 -5 7 -5 4 0 -2 4 0 7 4 9 10 4 10 12 1 12 -5 0 -8 4
-8 8 0 6 4 7 22 4 19 -3 23 -2 28 7 3 6 8 11 11 11 4 0 4 -2 -1 -5 -6 -4 -3
-5 10 -2 10 2 18 5 19 8 1 2 4 2 8 0 8 -5 18 -6 18 -1 0 2 4 4 10 4 5 -1 10
-3 10 -5 0 -2 3 -4 7 -4 5 0 7 3 5 7 -2 5 0 7 7 5 5 -2 13 1 18 6 8 7 11 8 19
2 8 -5 11 -5 14 1 4 5 6 4 12 -4 7 -9 8 -9 8 8 1 10 2 15 3 11 4 -9 22 -7 43
3 11 6 19 8 19 6 0 -7 56 -2 60 5 3 4 10 5 21 3 13 -2 19 -1 20 4 2 4 11 7 26
7 12 0 25 2 29 4 4 2 13 3 20 3 11 -1 15 1 19 11 3 7 6 13 8 13 2 0 2 -3 0 -7
-1 -4 2 -8 7 -10 7 -1 10 0 10 5 0 6 6 7 25 6 14 0 26 1 28 3 2 1 0 3 -5 3 -4
0 -8 2 -8 5 0 7 14 6 18 0 2 -3 7 -4 11 -2 5 2 14 3 20 3 10 -1 12 1 10 9 -4
15 4 17 24 5 19 -12 37 -10 37 5 0 8 -3 9 -17 7 -9 -2 -18 -1 -20 2 -1 2 4 3
11 2 9 -1 18 1 23 7 4 4 12 9 17 10 5 0 9 1 10 2 1 0 -1 3 -4 8 -5 6 -4 7 8 7
15 0 30 13 40 34 3 8 10 13 19 14 9 1 19 7 24 13 8 11 8 12 0 15 -5 2 -13 3
-18 3 -9 0 -9 -1 -2 -2 5 -2 9 -5 9 -7 0 -7 -7 -6 -17 2 -8 5 -8 8 -4 17 4 7
4 11 1 13 -3 2 -5 0 -5 -3 0 -7 -15 -24 -21 -24 -2 0 -4 4 -5 10 -2 6 -7 10
-14 10 -5 0 -10 2 -10 5 0 7 -22 6 -29 -1 -4 -4 -7 -5 -12 0 -3 3 -9 4 -17 1
-8 -3 -12 -3 -13 2 -2 4 -4 4 -11 -1 -4 -4 -8 -6 -8 -3 0 2 -3 1 -6 -2 -4 -3
-13 -4 -21 -3 -36 5 -49 5 -51 1 -1 -2 -9 -4 -18 -4 -8 0 -19 -2 -25 -6 -6 -3
-12 -3 -13 -1 -5 7 -27 5 -30 -2 -1 -4 -4 -5 -8 -2 -3 3 -15 6 -27 8 -17 3
-22 2 -24 -4 -2 -4 -5 -8 -7 -8 -3 0 -3 3 -2 8 2 4 1 7 -2 7 -4 0 -6 -4 -6 -8
0 -7 -1 -7 -8 -1 -8 6 -8 5 -6 -2 2 -5 1 -9 -1 -9 -3 0 -7 3 -8 8 -2 4 -9 7
-17 7 -11 0 -14 -2 -12 -7 4 -10 -1 -10 -19 1 -12 7 -15 7 -19 2 -3 -5 -4 -5
-6 -1 -1 4 -5 4 -16 0 -18 -7 -29 -6 -40 3 -10 7 -10 8 -2 14 5 4 9 9 9 13 0
4 4 5 12 3 15 -4 28 1 25 9 -3 7 31 8 42 1 7 -4 20 7 18 15 -3 7 29 7 34 0 3
-4 4 -4 4 1 0 3 3 6 6 6 4 0 13 6 20 13 8 7 14 11 14 9 0 -2 3 -1 6 2 8 5 29
5 38 -1 4 -2 6 0 6 9 0 7 2 13 5 13 3 0 5 -4 5 -10 0 -14 8 -12 16 4 6 11 10
13 24 13 13 -1 15 0 8 2 -10 4 -10 5 1 10 6 4 16 5 21 3 11 -3 13 3 4 12 -4 4
-4 6 -1 6 2 -1 8 -1 12 -1 6 1 6 2 1 5 -5 3 1 5 15 5 25 -1 62 4 69 9 5 2 7
-5 5 -15 0 -2 2 -2 5 0 3 1 5 6 3 10 -4 10 3 12 42 15 39 2 46 4 42 13 -1 4 3
7 13 7 9 0 13 -1 10 -3 -4 -3 -4 -5 -1 -7 3 -2 7 1 8 6 2 7 12 11 37 16 19 3
36 5 39 4 7 -2 8 2 4 12 -2 5 -5 8 -8 6 -2 -1 -4 0 -4 3 0 4 5 5 13 3 8 -2 12
-1 10 1 -6 10 7 11 19 3 7 -4 16 -7 19 -5 4 1 3 2 -2 3 -5 0 -9 2 -9 6 0 3 3
4 7 2 4 -1 14 -1 22 2 10 3 17 2 20 -1 5 -5 6 -4 6 0 0 8 38 17 55 14 9 -2 15
-1 20 4 3 5 13 8 21 8 16 0 17 4 7 17 -5 7 -9 8 -16 6 -12 -6 -62 -8 -62 -3 0
2 -6 6 -12 9 -7 3 -13 9 -13 13 0 4 -3 8 -6 9 -5 2 -5 4 0 9 5 6 6 6 6 -1 0
-10 8 -12 13 -4 2 4 6 3 11 -1 7 -6 7 -5 5 2 -5 12 3 15 19 8 12 -6 14 -5 23
7 8 11 12 13 28 10 12 -1 21 0 23 3 3 4 6 5 13 1 8 -4 10 -4 10 2 0 8 17 20
21 15 2 -1 7 -3 13 -4 9 -2 11 0 11 12 l0 14 -41 -3 c-23 -1 -43 -5 -45 -8 -3
-4 -5 -3 -9 2 -3 5 -5 5 -5 1 0 -4 -5 -5 -16 -3 -9 1 -19 2 -21 2 -3 0 -26 -2
-50 -4 -25 -3 -42 -5 -38 -5 3 -1 6 -2 5 -3 -2 -1 -12 0 -23 2 -14 2 -25 1
-33 -3 -6 -3 -13 -5 -15 -4 -7 4 -46 6 -51 3 -8 -5 -38 -6 -38 -1 0 2 -6 3
-12 1 -7 -1 -13 -5 -13 -7 0 -3 -1 -5 -2 -3 -2 1 0 10 2 21 6 19 2 34 -5 22
-4 -5 -7 -5 -15 0 -7 4 -11 4 -13 0 -2 -3 0 -7 4 -9 3 -3 4 -5 2 -5 -3 0 -10
4 -15 8 -13 9 -23 9 -23 0 0 -11 -14 -10 -16 1 -1 6 -5 8 -14 7z m45 -21 c0
-2 -2 -6 -5 -8 -3 -1 -4 -5 -2 -8 2 -3 1 -4 -2 -2 -5 3 -5 6 -1 10 3 4 3 8 2
10 -2 2 -1 3 2 3 3 0 6 -2 6 -5z m243 -84 c1 -16 0 -16 -14 -15 -12 1 -16 4
-17 13 -2 8 1 11 8 11 6 0 10 2 10 5 0 14 13 0 13 -14z m-68 -3 c0 -1 -2 -4
-5 -5 -3 -2 -5 -1 -5 2 0 3 2 5 5 5 3 0 5 -1 5 -2z m97 -1 c4 -2 8 -6 8 -10 0
-11 -17 -6 -19 4 -2 10 -1 10 11 6z m-87 -14 c0 -1 -2 -4 -5 -5 -3 -2 -5 -1
-5 2 0 3 2 5 5 5 3 0 5 -1 5 -2z m-335 -143 c0 -3 -2 -5 -5 -5 -3 0 -4 2 -2 5
1 3 4 5 5 5 1 0 2 -2 2 -5z m-20 -5 c0 -3 -2 -5 -5 -5 -3 0 -5 2 -5 5 0 3 2 5
5 5 3 0 5 -2 5 -5z m-141 -63 c-2 -2 -6 -2 -10 0 -4 1 -3 2 3 3 5 0 8 -1 7 -3z
m371 -97 c0 -3 -2 -5 -5 -5 -3 0 -5 2 -5 5 0 3 2 5 5 5 3 0 5 -2 5 -5z m-725
-257 c0 -2 -2 -2 -5 -1 -2 2 -5 0 -6 -3 -3 -7 -14 -1 -14 8 0 15 25 11 25 -4z"/>
<path d="M817 784 c-3 -5 6 -14 14 -14 5 0 5 2 1 12 -4 9 -10 10 -15 2z"/>
<path d="M1212 779 c-2 -2 3 -4 10 -4 7 0 13 2 13 5 0 5 -20 5 -23 -1z"/>
<path d="M2947 764 c0 -16 -2 -25 -11 -34 -14 -15 -14 -17 -1 -30 6 -5 10 -8
10 -5 0 3 3 5 7 5 6 0 7 -3 3 -13 -6 -17 -7 -16 8 -16 6 0 12 3 12 7 0 3 4 9
8 13 8 6 8 5 6 -2 -4 -10 1 -12 9 -4 4 4 7 4 9 1 6 -10 22 9 19 22 -1 7 -4 12
-7 12 -6 0 -5 -12 2 -19 3 -3 4 -6 2 -6 -5 0 -15 11 -19 21 -2 5 -9 9 -15 9
-17 0 -30 12 -23 20 5 5 5 7 0 9 -3 1 -6 8 -6 16 0 10 -3 15 -7 15 -5 0 -7 -6
-6 -21z"/>
<path d="M1884 772 c4 -2 8 -2 10 0 1 2 -2 3 -7 3 -6 -1 -7 -2 -3 -3z"/>
<path d="M204 757 c-2 -2 -4 -7 -4 -11 0 -6 1 -7 6 -2 3 3 4 8 3 11 -1 3 -3 4
-5 2z"/>
<path d="M113 740 c-2 -3 -1 -5 2 -5 3 0 5 2 5 5 0 3 -1 5 -2 5 -1 0 -4 -2 -5
-5z"/>
<path d="M4290 740 c0 -3 2 -5 5 -5 3 0 5 2 5 5 0 3 -2 5 -5 5 -3 0 -5 -2 -5
-5z"/>
<path d="M4305 730 c0 -3 2 -4 5 -2 3 1 5 4 5 5 0 1 -2 2 -5 2 -3 0 -5 -2 -5
-5z"/>
<path d="M3452 705 c-2 -3 -1 -8 2 -11 6 -6 22 0 20 8 -3 8 -17 10 -22 3z"/>
<path d="M3414 701 c-17 -1 -24 -4 -24 -9 0 -4 2 -7 5 -7 3 0 5 -3 5 -7 0 -7
34 -31 37 -27 4 4 8 54 4 53 -2 0 -14 -2 -27 -3z"/>
<path d="M2904 697 c4 -2 8 -2 10 0 1 2 -2 3 -7 3 -6 -1 -7 -2 -3 -3z"/>
<path d="M2920 677 c1 -6 2 -7 3 -3 2 4 2 8 0 10 -2 1 -3 -2 -3 -7z"/>
<path d="M2938 682 c-1 -2 -3 -6 -3 -9 0 -3 2 -3 6 1 3 3 5 7 3 8 -1 2 -4 2
-6 0z"/>
<path d="M3291 681 c-4 -3 -16 -4 -28 -3 -23 1 -40 -6 -35 -14 2 -4 1 -5 -4
-3 -10 4 -17 -10 -9 -18 3 -3 5 -9 5 -13 0 -5 5 -11 12 -14 11 -5 12 -4 9 4
-3 12 10 13 19 2 6 -7 5 -9 -8 -20 -8 -6 -21 -13 -29 -15 -15 -3 -15 -4 -4 -8
6 -3 11 -7 11 -9 0 -5 35 7 39 13 2 3 11 5 21 5 10 -1 20 1 24 4 4 3 6 2 6 -1
0 -6 21 -1 26 6 6 9 4 13 -6 13 -7 0 -12 4 -14 10 -1 6 -4 10 -6 10 -3 0 -5
12 -6 26 -2 27 -8 34 -23 25z"/>
<path d="M1125 672 c0 -7 9 -15 24 -18 7 -2 11 -1 11 4 0 4 5 7 13 7 11 0 18
9 8 11 -20 4 -56 2 -56 -4z"/>
<path d="M1213 675 c-2 -3 -1 -5 2 -5 3 0 5 2 5 5 0 3 -1 5 -2 5 -1 0 -4 -2
-5 -5z"/>
<path d="M2551 630 c-8 -4 -12 -44 -5 -48 2 -1 4 5 4 15 0 16 1 17 25 24 19 4
24 7 17 10 -13 5 -33 5 -41 -1z"/>
<path d="M2610 630 c-6 -4 -4 -5 7 -5 8 0 12 2 11 5 -4 6 -8 6 -18 0z"/>
<path d="M999 617 c4 -2 8 -2 10 0 1 2 -2 3 -7 3 -6 -1 -7 -2 -3 -3z"/>
<path d="M2570 611 c0 -3 4 -6 8 -8 7 -3 7 -2 2 4 -7 9 -10 10 -10 4z"/>
<path d="M2985 605 c0 -3 2 -4 5 -2 3 1 5 4 5 5 0 1 -2 2 -5 2 -3 0 -5 -2 -5
-5z"/>
<path d="M4378 591 c-2 -4 -7 -6 -11 -4 -4 1 -8 1 -9 -2 -2 -2 -11 -4 -21 -3
-9 1 -18 0 -20 -2 -1 -2 -15 -4 -30 -4 -16 1 -29 -1 -31 -5 -2 -3 -11 -5 -21
-4 -28 2 -49 -5 -47 -16 4 -15 -14 -19 -24 -6 -6 8 -14 10 -36 10 -33 0 -35
-4 -13 -30 17 -19 18 -26 8 -34 -5 -5 -12 1 -32 27 -26 32 -39 39 -50 25 -5
-5 0 -13 19 -34 23 -26 27 -28 51 -30 15 -1 39 -5 54 -8 43 -9 140 -21 147
-18 4 1 12 14 18 27 6 14 16 29 21 33 5 5 9 12 9 17 0 5 6 19 13 32 7 14 12
27 11 30 -2 3 -4 3 -6 -1z"/>
<path d="M2573 585 c-5 -7 -1 -12 7 -9 3 1 3 4 0 8 -3 5 -5 6 -7 1z"/>
<path d="M863 575 c-2 -3 0 -5 4 -5 4 0 8 2 8 5 0 3 -2 5 -5 5 -2 0 -6 -2 -7
-5z"/>
<path d="M2618 575 c-2 -3 -1 -5 1 -5 3 0 7 2 9 5 1 3 0 5 -2 5 -3 0 -7 -2 -8
-5z"/>
<path d="M3200 570 c0 -3 -2 -4 -5 -2 -3 1 -5 0 -5 -3 0 -3 3 -5 8 -5 4 0 7 3
7 8 0 4 -1 7 -2 7 -2 0 -3 -2 -3 -5z"/>
<path d="M3210 570 c0 -3 2 -5 5 -5 3 0 5 2 5 5 0 3 -2 5 -5 5 -3 0 -5 -2 -5
-5z"/>
<path d="M2593 565 c-2 -3 0 -5 5 -5 4 0 6 2 5 5 -2 3 -4 5 -5 5 -2 0 -4 -2
-5 -5z"/>
<path d="M3939 533 c-2 -2 -30 -7 -48 -8 -3 0 -6 -2 -6 -4 0 -10 11 -18 32
-21 22 -3 23 -3 31 12 4 8 7 16 7 19 0 4 -12 6 -16 2z"/>
<path d="M3975 518 c-9 -9 -15 -20 -13 -23 6 -10 28 -5 44 9 14 13 15 16 9 23
-10 12 -21 10 -40 -9z"/>
<path d="M3838 516 c-2 -3 2 -6 8 -8 13 -3 16 -1 12 7 -4 6 -16 7 -20 1z"/>
<path d="M4026 497 c-9 -4 -2 -12 9 -12 7 0 9 2 7 8 -3 7 -5 8 -16 4z"/>
<path d="M4003 460 c-2 -3 0 -9 4 -13 7 -7 10 -7 21 -2 14 8 16 15 2 15 -5 0
-13 1 -17 3 -4 1 -8 0 -10 -3z"/>
<path d="M2623 336 c-4 -7 -28 -11 -28 -5 0 8 -42 -1 -49 -10 -4 -5 -7 -6 -12
-2 -5 4 -13 4 -27 1 -11 -3 -23 -3 -28 -2 -5 1 -16 -1 -24 -5 -8 -4 -15 -5
-15 -2 0 2 -4 2 -10 -1 -6 -3 -14 -5 -17 -3 -9 3 -59 -7 -71 -15 -7 -4 -13 -5
-15 -2 -4 7 -21 6 -23 -1 -2 -5 -5 -5 -13 0 -8 4 -11 4 -12 0 -2 -4 -11 -6
-23 -6 -12 1 -21 -1 -21 -3 0 -2 -1 -8 -3 -12 -2 -5 0 -8 5 -8 8 0 8 -1 1 -8
-9 -8 -10 -13 -5 -18 6 -6 17 10 17 26 0 8 2 15 6 15 3 0 4 -5 2 -12 -2 -7 -1
-14 2 -15 6 -4 20 2 20 9 0 9 20 14 46 10 22 -3 23 -2 28 11 5 14 5 14 6 2 0
-7 2 -10 3 -6 4 10 12 7 12 -4 0 -5 2 -10 4 -10 3 0 5 4 4 9 0 7 4 8 36 8 19
0 35 1 33 3 -1 2 5 5 13 6 8 1 15 1 15 -1 0 -7 40 2 50 11 6 6 10 7 10 3 0
-11 17 -19 24 -11 3 3 4 7 1 8 -2 1 -1 6 3 11 6 8 9 9 20 4 7 -3 11 -8 10 -11
-2 -2 2 -3 8 -1 6 1 11 7 13 12 2 9 16 13 16 4 0 -4 3 -4 10 0 6 3 10 9 10 14
0 6 -1 7 -6 2 -8 -8 -14 -8 -14 2 0 8 -8 10 -12 3z m-350 -77 c-1 -4 -2 -3 -3
3 0 5 1 8 3 7 2 -2 2 -6 0 -10z"/>
<path d="M2785 315 c0 -3 2 -4 5 -2 3 1 5 4 5 5 0 1 -2 2 -5 2 -3 0 -5 -2 -5
-5z"/>
<path d="M815 283 c0 -8 -3 -13 -8 -13 -6 0 -7 3 -4 11 3 11 3 11 -6 2 -7 -7
-8 -10 -2 -14 26 -17 28 -16 31 8 1 9 -1 15 -5 17 -4 1 -6 -3 -6 -11z"/>
<path d="M859 292 c4 -2 8 -2 10 0 1 2 -2 3 -7 3 -6 -1 -7 -2 -3 -3z"/>
<path d="M2300 250 c0 -2 2 -6 5 -7 3 -2 5 0 5 4 0 4 -2 8 -5 8 -3 0 -5 -2 -5
-5z"/>
<path d="M2698 240 c-2 -3 0 -5 4 -5 4 0 8 2 8 5 0 3 -2 5 -5 5 -2 0 -6 -2 -7
-5z"/>
<path d="M610 215 c0 -3 2 -5 5 -5 3 0 5 2 5 5 0 3 -2 5 -5 5 -3 0 -5 -2 -5
-5z"/>
<path d="M116 88 c3 -7 24 -10 24 -3 0 3 -2 5 -4 5 -2 1 -8 2 -13 2 -5 1 -8 0
-7 -4z"/>
<path d="M30 70 c0 -3 2 -5 5 -5 3 0 5 2 5 5 0 3 -2 5 -5 5 -3 0 -5 -2 -5 -5z"/>
<path d="M48 60 c-2 -3 0 -5 5 -5 4 0 6 2 5 5 -2 3 -4 5 -5 5 -2 0 -4 -2 -5
-5z"/>
<path d="M35 42 c-6 -6 -6 -8 0 -12 3 -2 5 -8 3 -12 -1 -4 -1 -8 2 -8 6 0 11
16 5 20 -3 2 -4 7 -2 12 4 10 0 10 -8 0z"/>
<path d="M10 13 c0 -1 3 -4 7 -8 5 -4 8 -4 10 2 2 6 0 8 -7 8 -6 0 -10 -1 -10
-2z"/>
</g>
</svg>
