<?xml version="1.0" standalone="no"?>
<!DOCTYPE svg PUBLIC "-//W3C//DTD SVG 20010904//EN"
 "http://www.w3.org/TR/2001/REC-SVG-20010904/DTD/svg10.dtd">
<svg version="1.0" xmlns="http://www.w3.org/2000/svg"
 width="300.000000pt" height="300.000000pt" viewBox="0 0 300.000000 300.000000"
 preserveAspectRatio="xMidYMid meet">
<metadata>
Created by potrace 1.15, written by Peter Selinger 2001-2017
</metadata>
<g transform="translate(0.000000,300.000000) scale(0.200000,-0.200000)"
fill="#000000" stroke="none">
<path d="M0 750 l0 -750 402 0 402 0 4 21 c2 12 4 31 5 42 0 11 8 33 16 50 9
18 16 39 16 49 0 11 4 24 10 32 6 8 12 22 13 31 2 10 7 26 12 36 6 10 10 22
10 26 0 4 3 10 8 13 4 3 7 11 7 16 0 6 3 14 7 19 7 7 7 11 1 31 -7 22 -7 24 2
36 6 7 10 14 10 16 0 2 5 9 11 15 5 6 9 14 8 18 -3 9 -41 -50 -79 -121 -8 -16
-18 -31 -23 -35 -4 -4 -24 -28 -44 -54 -43 -57 -41 -55 -64 -73 -32 -23 -64
-28 -64 -8 0 5 -4 13 -10 18 -18 16 -14 28 29 87 25 34 36 54 26 48 -2 -2 -9
9 -15 22 -6 14 -14 25 -16 25 -2 0 -4 4 -4 9 0 5 -5 11 -10 15 -6 3 -9 9 -7
11 1 3 0 5 -3 5 -6 0 -20 31 -21 51 -1 7 -2 14 -4 14 -2 0 -3 5 -4 10 0 9 1
10 6 5 6 -4 10 -4 18 0 12 7 12 8 1 9 -28 3 -55 17 -73 36 -9 10 -13 15 -9 13
4 -2 5 -1 3 5 -2 5 -5 12 -7 15 -2 2 -4 6 -4 7 -1 8 -8 20 -13 20 -3 0 -3 -2
1 -6 3 -3 6 -8 6 -11 0 -3 -4 -1 -7 4 -4 5 -6 11 -5 14 1 2 1 4 -2 4 -3 0 -4
6 -3 13 1 9 -1 12 -7 11 -11 -2 -48 73 -55 110 -3 16 -4 58 -4 95 1 61 2 67
13 78 6 7 10 15 8 17 -2 3 1 6 7 8 9 1 8 2 -1 1 -8 0 -11 -3 -10 -9 1 -5 0 -9
-3 -9 -4 0 -7 50 -3 60 6 13 6 20 2 17 -3 -1 -3 10 -2 25 2 18 0 28 -3 31 -5
2 -5 4 0 7 3 2 6 9 6 15 0 7 2 15 4 18 2 2 5 11 7 18 2 8 5 13 7 12 2 -1 4 7
4 17 0 12 4 24 10 31 6 7 7 9 2 7 -8 -4 1 4 19 17 6 4 9 9 8 11 -2 4 15 1 23
-3 2 -2 8 0 12 4 4 5 11 7 15 5 5 -2 11 -1 14 2 11 8 31 11 37 6 10 -9 26 -10
32 -2 4 4 9 7 12 7 3 0 3 -2 -1 -5 -9 -5 19 -13 40 -11 8 1 14 -1 14 -3 0 -4
14 -11 27 -13 2 0 7 -4 10 -9 8 -11 18 -12 27 -3 4 4 8 5 10 1 5 -7 25 -17 33
-17 9 0 24 -17 19 -22 -2 -3 -1 -3 3 -1 4 3 5 6 1 13 -4 8 -4 10 3 10 4 0 6
-2 5 -5 -2 -3 -1 -4 3 -2 4 1 11 -1 17 -5 9 -7 8 -7 -5 -4 -13 2 -14 1 -10
-10 2 -6 5 -13 8 -15 3 -1 5 -4 4 -6 0 -2 0 -4 0 -5 0 -2 6 0 13 2 12 5 13 4
7 -2 -3 -5 -9 -8 -13 -8 -11 0 -6 -21 10 -36 8 -8 16 -14 18 -14 1 0 5 -4 8
-9 5 -7 4 -9 -6 -8 -6 0 -10 2 -8 5 1 2 -1 1 -6 -3 -5 -5 -10 -16 -11 -26 -2
-14 0 -20 11 -33 7 -9 12 -19 10 -24 -1 -4 -1 -12 2 -19 2 -6 2 -14 0 -18 -3
-5 -1 -11 4 -17 5 -5 6 -8 2 -6 -3 2 -6 1 -6 -2 0 -3 -3 -4 -6 -2 -5 3 -5 2
-1 -3 4 -4 5 -11 2 -21 -4 -13 -3 -18 5 -25 5 -5 11 -9 12 -9 1 0 6 9 10 20 5
13 11 20 17 20 8 0 8 1 0 5 -10 6 -7 20 4 20 7 0 7 1 0 8 -4 4 -6 11 -5 15 2
4 0 10 -4 12 -5 4 -5 5 0 6 3 0 8 1 10 1 2 1 10 3 17 5 9 3 17 2 21 -1 3 -3
16 -6 28 -7 14 -1 25 -5 29 -10 6 -8 12 -69 6 -68 -12 1 -16 -2 -13 -10 2 -4
2 -7 0 -5 -2 2 -11 -9 -20 -24 -17 -29 -45 -63 -49 -61 -1 1 -4 0 -6 -2 -2 -2
-1 -4 2 -4 3 0 4 -5 3 -13 -1 -6 0 -12 2 -11 12 2 14 -3 14 -30 -1 -31 6 -41
26 -41 14 0 14 -12 0 -37 -12 -20 -12 -21 -3 -38 34 -70 38 -83 24 -86 -11 -3
-17 -37 -13 -77 1 -17 -1 -37 -5 -51 -3 -13 -13 -46 -20 -73 -7 -28 -20 -72
-27 -98 -14 -45 -16 -55 -23 -94 -1 -9 -6 -26 -10 -37 -4 -11 -6 -22 -4 -24 1
-2 0 -6 -3 -7 -3 -2 -5 -8 -5 -13 0 -10 6 -10 273 -10 l272 0 0 750 0 750
-750 0 -750 0 0 -750z m571 651 c6 -7 6 -8 -1 -2 -5 3 -10 4 -13 2 -2 -2 -2
-1 0 3 5 8 5 8 14 -3z m-296 -26 c0 -3 -1 -5 -2 -5 -1 0 -4 2 -5 5 -2 3 -1 5
2 5 3 0 5 -2 5 -5z m390 0 c0 -3 -3 -3 -7 -2 -4 1 -8 0 -10 -3 -2 -3 -6 -4 -8
-2 -3 1 -4 5 -2 7 4 7 27 6 27 0z m-454 -11 c-5 -5 -6 -5 -3 2 2 5 4 8 6 7 2
-2 0 -6 -3 -9z m111 1 c-1 -7 1 -10 4 -9 4 2 6 7 5 12 -1 9 -1 9 4 1 3 -5 8
-8 10 -6 3 1 5 0 5 -2 0 -3 -2 -7 -5 -8 -3 -2 -5 -1 -5 2 0 3 -2 4 -5 2 -3 -1
-4 -4 -3 -6 4 -6 -11 -22 -17 -20 -8 3 -11 19 -4 18 4 -1 6 4 7 10 1 14 2 16
4 16 1 0 2 -5 0 -10z m-250 -2 c-1 -3 1 -10 6 -13 7 -6 9 -6 11 -1 1 3 4 6 7
6 2 0 3 -3 1 -6 -3 -4 -1 -5 6 -2 5 2 7 2 5 0 -7 -8 -38 -6 -38 2 0 6 -2 6
-10 -1 -5 -5 -10 -8 -10 -5 -1 2 -4 -2 -8 -10 -3 -9 -7 -12 -7 -8 -1 4 -1 12
-2 18 -1 9 1 10 13 9 10 0 16 2 19 9 6 10 11 12 7 2z m231 -9 c-6 -3 -8 -9 -7
-18 1 -10 -1 -14 -8 -14 -8 -1 -9 -1 -2 1 6 2 8 5 5 9 -6 9 -5 27 2 25 3 -2 8
0 9 3 2 3 5 4 7 2 2 -1 -1 -5 -6 -8z m-33 1 c0 -3 -1 -5 -2 -5 -1 0 -4 2 -5 5
-2 3 -1 5 2 5 3 0 5 -2 5 -5z m-257 -9 c-1 -5 0 -11 3 -14 3 -4 2 -7 -1 -9 -3
-2 -4 -6 -2 -8 1 -3 0 -5 -3 -5 -3 0 -5 3 -5 8 0 4 3 7 6 7 3 0 4 2 1 6 -6 7
-5 24 0 24 1 0 1 -4 1 -9z m114 4 c2 -2 1 -6 -3 -8 -3 -2 -4 -1 -2 2 2 3 0 6
-3 8 -5 1 -5 2 -1 3 4 0 8 -2 9 -5z m148 -14 c0 5 2 10 4 11 9 6 3 -16 -7 -23
-10 -8 -12 -8 -17 -1 -4 4 -5 7 -2 7 12 -3 13 1 4 11 -8 10 -8 10 4 -1 11 -9
14 -10 14 -4z m268 7 c0 -4 -5 -12 -9 -19 -6 -8 -8 -9 -6 -2 3 9 3 9 -11 1
-12 -7 -11 -6 5 9 22 20 22 21 21 11z m295 -7 c-2 -2 -6 0 -9 3 -5 5 -5 6 2 3
5 -2 8 -4 7 -6z m-615 -1 c1 -3 0 -5 -3 -5 -3 0 -5 2 -5 5 0 3 1 5 2 5 1 0 4
-2 6 -5z m-116 -6 c-2 -2 -5 -3 -7 -1 -9 5 -11 -10 -2 -17 6 -4 7 -6 2 -5 -4
1 -10 8 -14 14 -3 7 -6 11 -6 10 -5 -25 -3 -23 -26 -26 -14 -3 -19 -2 -19 3 0
4 3 8 7 10 4 1 7 6 5 9 -1 5 6 7 30 7 18 0 31 -2 30 -4z m42 -4 c-7 -5 -15 -1
-11 5 1 3 6 3 10 2 6 -3 6 -4 1 -7z m44 -22 c0 -6 3 -10 6 -9 7 1 8 -7 1 -11
-3 -2 -5 -1 -5 1 0 3 -4 5 -9 4 -7 -2 -9 1 -10 11 0 11 0 12 3 4 5 -11 10 -5
8 9 -1 5 0 7 2 6 2 -2 4 -9 4 -15z m570 12 c1 -3 0 -5 -3 -5 -3 0 -5 2 -5 5 0
3 1 5 2 5 1 0 4 -2 6 -5z m-618 -1 c-2 -1 -7 -5 -12 -9 -10 -7 -10 -7 -4 1 4
5 10 9 12 9 3 0 5 -1 4 -1z m78 -9 c-2 -5 0 -10 2 -11 3 0 7 -1 10 -1 13 -2 9
-8 -4 -7 -14 1 -16 3 -14 14 3 15 3 15 5 15 1 0 2 -4 1 -10z m-106 0 c2 -2 1
-5 -1 -7 -2 -1 -4 1 -4 5 0 8 1 9 5 2z m176 -5 c-2 -3 -6 -5 -10 -5 -3 0 -3 2
2 5 10 6 11 6 8 0z m24 0 c2 -3 0 -4 -4 -2 -9 3 -10 7 -3 7 2 0 6 -2 7 -5z
m21 -10 c-2 -3 -7 -5 -12 -5 -7 1 -7 1 2 5 13 6 13 6 10 0z m48 -4 c-4 -1 -9
0 -12 3 -4 4 -2 5 6 2 7 -1 9 -4 6 -5z m427 -4 c9 -7 9 -7 -3 -2 -15 8 -18 10
-12 10 3 0 9 -3 15 -8z m-210 -6 c-2 -2 -6 0 -9 3 -5 5 -5 6 2 3 5 -2 8 -4 7
-6z m247 -12 c-1 -5 -1 -5 -3 0 -2 3 -7 6 -13 6 -5 0 -8 2 -6 5 4 7 22 -3 22
-11z m-290 1 c0 -3 -2 -5 -5 -5 -3 0 -4 2 -2 5 1 3 4 5 5 5 1 0 2 -2 2 -5z
m-36 -22 c-12 -12 -28 -18 -31 -13 -2 3 -1 5 2 6 3 0 7 1 10 1 2 0 7 3 11 7 3
3 8 6 10 6 3 0 2 -3 -2 -7z m318 -3 c2 -3 0 -4 -4 -2 -9 3 -10 7 -3 7 2 0 6
-2 7 -5z m24 -3 c-3 -2 -9 -2 -12 0 -4 1 -1 2 6 2 7 0 10 -1 6 -2z m132 -15
c0 -3 -3 -5 -6 -3 -4 1 -7 4 -7 6 0 2 3 3 7 3 3 0 6 -2 6 -6z m-204 -2 c4 0 5
-2 4 -4 -2 -4 -13 -4 -29 -2 -10 2 -3 9 7 8 6 -1 14 -1 18 -2z m9 -19 c1 -4 0
-4 -1 -1 -2 4 -5 4 -10 0 -4 -3 -9 -4 -12 -2 -5 2 -4 4 0 7 9 5 22 3 23 -4z
m122 -18 c0 -1 -3 -3 -8 -5 -4 -2 -6 -1 -4 2 2 5 12 7 12 3z m-443 -8 c-1 -3
0 -9 3 -12 4 -6 4 -7 -3 -6 -5 1 -13 -1 -17 -4 -5 -4 -6 -4 -3 2 6 9 19 25 22
25 1 0 0 -2 -2 -5z m496 -12 c8 -8 6 -9 -15 -9 -23 0 -26 1 -16 7 5 2 12 4 16
2 4 -2 6 -1 4 2 -4 8 3 6 11 -2z m-483 -22 c0 -2 -3 -4 -7 -4 -4 0 -6 2 -5 4
1 2 5 4 7 4 3 0 5 -2 5 -4z m13 -13 c0 -7 -2 -11 -5 -8 -2 2 -3 8 -1 12 4 11
6 10 6 -4z m494 -17 c1 -2 -1 -4 -5 -4 -4 0 -7 2 -7 4 0 2 2 4 5 4 2 0 6 -2 7
-4z m-30 -33 c-2 -4 0 -12 2 -17 8 -15 1 -17 -11 -4 -6 6 -13 10 -16 9 -4 -1
-8 1 -10 5 -2 3 -1 4 2 2 3 -2 7 -1 9 2 1 3 5 4 9 2 3 -2 2 0 -2 6 -4 5 -5 7
-1 5 3 -2 6 -1 6 2 0 5 2 5 7 0 4 -3 6 -9 5 -12z m-490 3 c-4 -5 -17 -6 -15
-1 2 2 6 3 10 3 5 0 7 -1 5 -2z m488 -72 c0 -2 -2 -3 -5 -1 -3 1 -5 5 -5 8 0
2 2 3 5 2 3 -2 5 -6 5 -9z m-895 -449 c3 0 5 -2 5 -5 0 -3 -2 -4 -5 -2 -7 4
-4 -14 3 -19 3 -2 2 -4 -2 -4 -5 0 -5 -2 0 -11 5 -10 5 -11 -2 -5 -4 3 -8 5
-10 4 -1 -2 -2 1 -2 6 -1 5 -3 16 -5 26 -3 15 -3 16 5 13 5 -1 11 -3 13 -3z
m385 -10 c3 -6 4 -13 2 -16 -3 -4 -5 -8 -5 -10 -2 -11 -3 -10 -7 4 -3 13 -1
32 3 32 1 0 4 -5 7 -10z m190 -237 c-3 -5 -8 -8 -11 -8 -3 0 -2 3 1 8 3 4 8 7
11 7 3 0 2 -3 -1 -7z m-152 -230 c0 -4 -2 -6 -4 -5 -2 2 -3 5 -1 7 4 7 5 6 5
-2z"/>
<path d="M53 1322 c-5 -12 -4 -15 3 -8 8 8 16 8 11 0 -2 -3 -1 -4 2 -2 8 5 8
7 -4 13 -7 4 -10 3 -12 -3z"/>
<path d="M774 939 c4 -4 4 -7 0 -14 -6 -7 -5 -7 2 -1 5 4 9 9 9 11 0 2 -4 5
-9 7 -7 3 -7 2 -2 -3z"/>
<path d="M543 930 c-4 -6 1 -15 9 -15 3 0 3 2 -2 5 -7 4 -7 6 0 10 5 3 5 5 2
5 -4 0 -8 -2 -9 -5z"/>
<path d="M1003 542 c-2 -5 -9 -16 -16 -24 -7 -8 -11 -18 -10 -21 1 -4 0 -8 -2
-10 -3 -2 -3 -6 0 -11 3 -7 1 -13 -10 -25 -10 -11 -12 -17 -8 -21 4 -4 2 -8
-7 -15 l-12 -9 10 -28 c10 -25 10 -28 3 -35 -5 -4 -14 -22 -20 -39 -7 -17 -14
-35 -16 -40 -3 -5 -5 -14 -5 -20 0 -6 -6 -24 -13 -39 -7 -15 -13 -35 -14 -45
-1 -9 -7 -28 -13 -42 -5 -13 -12 -38 -15 -55 -2 -17 -7 -37 -10 -45 -3 -7 -5
-15 -5 -16 0 -1 13 -2 29 -2 l30 0 15 49 c9 27 16 52 16 57 0 4 7 31 15 59 8
29 16 56 17 60 19 70 34 123 39 133 5 8 6 28 4 64 -1 29 -1 52 0 52 1 0 8 2
14 4 10 3 11 6 8 18 -2 9 -7 24 -12 35 -7 16 -10 18 -12 11z"/>
</g>
</svg>
