<?xml version="1.0" standalone="no"?>
<!DOCTYPE svg PUBLIC "-//W3C//DTD SVG 20010904//EN"
 "http://www.w3.org/TR/2001/REC-SVG-20010904/DTD/svg10.dtd">
<svg version="1.0" xmlns="http://www.w3.org/2000/svg"
 width="315.000000pt" height="315.000000pt" viewBox="0 0 315.000000 315.000000"
 preserveAspectRatio="xMidYMid meet">
<metadata>
Created by potrace 1.15, written by Peter Selinger 2001-2017
</metadata>
<g transform="translate(0.000000,315.000000) scale(0.100000,-0.100000)"
fill="#000000" stroke="none">
<path d="M0 2720 c0 -236 2 -430 4 -430 3 0 17 5 33 11 36 14 160 12 403 -7
106 -8 205 -12 218 -9 23 6 23 7 8 30 -9 13 -16 30 -16 36 0 7 -7 21 -17 31
-15 17 -15 19 0 36 18 20 24 57 7 47 -5 -3 -7 0 -4 9 6 15 -12 56 -30 68 -7 5
-4 8 7 8 23 0 22 8 -5 31 -20 15 -20 18 -6 19 10 0 29 18 44 39 18 28 35 42
57 46 18 3 42 11 54 17 13 6 26 9 29 5 10 -10 -6 -27 -26 -27 -11 0 -24 -8
-29 -18 -5 -10 -19 -18 -31 -19 -12 -1 -25 -4 -27 -7 -10 -10 20 -70 49 -102
18 -20 26 -37 22 -47 -8 -22 5 -22 23 1 12 16 13 15 11 -8 -2 -14 -9 -25 -16
-25 -7 0 -17 -6 -21 -14 -6 -9 -11 -10 -15 -2 -12 18 -25 12 -32 -13 -4 -18 3
-37 24 -68 16 -24 27 -48 25 -55 -3 -7 5 -22 16 -35 12 -12 21 -25 21 -29 0
-14 63 -39 100 -39 32 0 38 -4 42 -25 5 -22 2 -25 -16 -19 -21 6 -21 6 2 -17
19 -21 31 -24 85 -23 34 1 99 12 145 23 46 12 100 21 120 21 20 -1 82 1 137 3
113 6 170 -5 185 -33 13 -24 30 -26 30 -5 0 23 47 9 93 -27 37 -30 47 -53 25
-60 -9 -3 -7 -14 5 -39 25 -51 58 -84 97 -99 48 -19 61 -38 54 -78 -3 -20 0
-40 7 -49 8 -9 13 -46 13 -99 0 -46 3 -84 6 -84 10 0 29 -70 23 -86 -3 -8 -1
-14 4 -14 18 0 31 -46 38 -129 6 -58 4 -81 -4 -81 -6 0 -11 7 -11 15 0 8 -7
15 -15 15 -8 0 -15 -4 -15 -10 0 -5 -8 -10 -17 -10 -16 1 -16 2 -2 10 11 6 15
18 11 36 -4 22 -6 24 -14 10 -5 -9 -16 -16 -24 -16 -8 0 -13 -4 -10 -9 3 -5
-1 -12 -10 -15 -10 -4 -13 -13 -10 -24 4 -10 -1 -33 -9 -50 -17 -32 -26 -122
-28 -252 -1 -41 -5 -79 -9 -85 -4 -5 -16 -21 -27 -35 -16 -21 -21 -23 -36 -10
-11 9 -15 24 -13 42 8 50 -25 28 -66 -45 -15 -26 -38 -54 -51 -63 -14 -9 -25
-22 -25 -30 0 -7 -6 -17 -13 -21 -7 -4 -20 -24 -29 -43 -19 -39 -54 -73 -78
-75 -23 -2 -41 -15 -35 -26 4 -5 -3 -9 -14 -9 -11 0 -27 -8 -37 -18 -10 -9
-22 -17 -28 -18 -39 -2 -96 -17 -96 -25 0 -17 -54 -9 -86 13 -32 22 -51 56
-73 128 -6 19 -38 80 -71 135 -45 74 -71 133 -101 229 -23 70 -54 160 -70 198
-15 38 -31 85 -35 104 -3 19 -10 37 -15 40 -5 3 -89 11 -186 19 -98 8 -200 19
-228 25 -27 6 -108 15 -180 20 -72 5 -149 13 -172 16 l-43 7 0 -721 c0 -605 2
-721 14 -725 15 -6 1776 -10 1776 -4 0 2 -11 36 -25 75 -14 39 -25 86 -25 104
l-1 33 -30 -33 c-17 -19 -28 -40 -25 -48 3 -8 0 -14 -6 -14 -6 0 -2 -10 10
-23 38 -41 26 -62 -15 -28 -19 16 -23 30 -23 73 0 29 -7 82 -16 118 -9 37 -13
82 -9 105 5 37 2 44 -27 72 -18 17 -42 41 -53 53 -29 32 -82 52 -119 45 -27
-5 -26 -3 13 16 24 11 53 30 65 40 20 19 20 19 28 -1 5 -12 3 -29 -5 -41 -10
-16 -9 -21 3 -29 37 -23 54 -38 93 -79 23 -24 67 -69 98 -100 l56 -57 37 31
c106 85 196 168 196 180 0 7 6 16 13 18 9 4 9 6 0 6 -9 1 -9 8 2 28 23 48 52
117 66 156 10 28 18 37 36 37 13 0 23 -5 23 -11 0 -6 -8 -8 -19 -4 -15 4 -20
-1 -25 -26 -11 -55 -9 -60 22 -53 36 9 38 12 25 34 -10 14 -9 19 1 23 8 3 18
-5 25 -19 6 -13 7 -24 2 -24 -4 0 -13 -11 -19 -25 -6 -14 -8 -25 -4 -25 16 1
31 17 37 43 4 15 11 27 15 27 14 0 86 73 114 115 38 58 59 88 73 103 7 7 13
20 13 28 0 8 9 22 20 31 11 10 20 23 20 30 0 7 4 13 9 13 7 0 19 23 57 116 3
6 -1 14 -9 17 -10 4 -14 -3 -14 -23 0 -27 -25 -65 -36 -54 -3 3 -3 -4 0 -17 4
-14 2 -20 -5 -15 -6 3 -13 -3 -17 -14 -3 -11 -11 -20 -16 -20 -17 0 -40 -28
-29 -35 16 -10 12 -21 -14 -35 -14 -7 -22 -18 -19 -26 9 -24 -17 -15 -27 8
l-9 23 -6 -22 c-9 -29 -35 -39 -35 -13 0 10 -5 22 -12 26 -6 4 -8 3 -4 -4 3
-6 -3 -27 -15 -46 -23 -40 -34 -47 -24 -16 5 16 2 20 -19 20 -14 0 -27 -6 -28
-12 0 -7 -2 -20 -2 -28 -1 -8 -8 -14 -15 -12 -7 1 -21 -8 -32 -20 l-20 -23 12
25 c6 14 22 39 34 55 12 17 30 48 40 70 29 62 54 95 70 89 10 -4 12 0 8 17 -4
15 -3 20 5 15 7 -4 12 -2 12 4 0 6 5 8 12 4 8 -5 9 -2 5 9 -3 10 -3 17 2 17
11 0 23 -48 16 -61 -4 -5 -11 -7 -16 -4 -5 3 -6 -1 -3 -9 10 -26 29 -8 66 62
19 37 41 67 48 67 12 0 33 28 62 83 6 12 18 20 25 18 7 -3 13 -1 13 4 0 6 7
10 16 10 9 0 12 -5 8 -12 -4 -7 -8 -21 -9 -32 -1 -12 -4 -32 -8 -46 -4 -14 5
-1 20 27 15 29 30 53 34 53 10 0 65 -90 74 -120 4 -14 17 -36 27 -50 11 -14
35 -50 53 -80 19 -30 46 -74 60 -97 41 -65 32 -84 -155 -329 -95 -125 -159
-221 -331 -501 l-39 -63 440 0 440 0 0 1575 0 1575 -1575 0 -1575 0 0 -430z
m1740 320 c0 -11 -2 -12 -40 -16 -14 -1 -40 -4 -57 -7 -18 -2 -33 -1 -33 4 0
10 37 22 48 15 4 -2 14 -1 22 5 20 12 60 11 60 -1z m-192 -18 c15 -10 -46 -29
-97 -31 -60 -1 -14 21 79 38 3 0 11 -3 18 -7z m-143 -32 c-3 -5 -12 -10 -19
-10 -8 0 -19 -6 -25 -14 -9 -11 -4 -15 26 -21 21 -4 48 -18 62 -31 13 -13 28
-24 32 -24 13 0 61 -79 54 -90 -3 -5 8 -17 25 -26 16 -10 30 -25 30 -33 0 -12
-2 -12 -17 0 -24 19 -92 52 -122 59 -23 5 -24 6 -7 23 17 16 17 17 -1 23 -10
3 -28 11 -41 17 -18 8 -29 7 -50 -5 -15 -8 -33 -13 -39 -11 -7 3 -13 1 -13 -4
0 -5 -11 -10 -26 -11 -14 -1 -34 -7 -45 -13 -32 -16 -33 -4 -3 20 15 11 40 21
56 21 20 0 28 4 25 13 -2 6 -11 10 -18 8 -8 -2 -21 -4 -29 -5 -35 -5 -69 -19
-65 -26 3 -5 1 -11 -5 -15 -5 -3 -10 -2 -10 3 0 5 -17 1 -37 -9 -21 -10 -51
-21 -67 -25 -25 -6 -28 -4 -23 10 10 27 -9 55 -33 49 -25 -7 -36 -23 -21 -32
6 -4 -12 -7 -41 -7 -40 0 -47 2 -30 9 12 6 24 17 27 27 8 27 133 73 159 58 11
-6 16 -5 16 5 0 20 63 44 150 57 41 7 82 13 90 15 32 6 41 5 35 -5z m525 -20
c33 -30 33 -31 34 -130 1 -55 -2 -100 -6 -100 -6 0 -58 84 -58 94 0 12 20 5
20 -6 0 -7 8 -22 17 -33 15 -19 15 -18 9 20 -3 22 -10 41 -16 43 -15 5 -12 22
4 22 11 0 12 6 2 33 -6 18 -19 45 -29 60 -23 35 -17 34 23 -3z m-124 3 c22
-29 18 -49 -6 -28 -11 10 -20 14 -20 10 0 -5 -2 -6 -5 -3 -6 6 4 38 12 38 3 0
12 -8 19 -17z m-269 -12 c8 8 14 5 23 -11 6 -12 8 -25 4 -28 -4 -4 -9 -1 -11
6 -9 24 -25 12 -19 -14 4 -15 3 -23 -3 -20 -5 3 -11 3 -14 -1 -2 -5 -2 -2 0 5
1 7 -4 26 -12 42 -20 38 -19 47 3 27 13 -12 21 -14 29 -6z m786 -104 c26 -26
42 -35 47 -28 5 8 20 1 50 -24 56 -47 80 -78 91 -120 6 -19 14 -35 19 -35 6 0
10 -6 10 -13 0 -8 9 -22 20 -32 22 -20 28 -44 6 -26 -7 6 -21 9 -30 5 -11 -4
-16 -1 -16 10 0 9 -6 19 -14 22 -8 3 -12 12 -10 19 3 8 -1 12 -12 12 -10 -1
-24 9 -31 23 -7 14 -18 24 -24 22 -6 -1 -8 2 -5 7 9 14 -5 42 -18 38 -6 -3
-19 2 -28 11 -24 20 -23 5 2 -35 16 -27 17 -33 5 -33 -9 0 -21 11 -27 25 -6
14 -15 25 -19 25 -4 0 -19 23 -34 51 -20 40 -23 50 -11 46 13 -5 15 -3 7 11
-5 9 -19 26 -30 36 -12 11 -21 23 -21 27 0 16 34 -5 73 -44z m-544 -22 c26
-44 15 -44 -22 1 -21 24 -25 34 -14 34 8 0 24 -16 36 -35z m422 -24 c6 -13 8
-34 6 -45 -3 -19 -4 -19 -15 6 -6 14 -16 29 -21 33 -17 10 -13 32 5 32 9 0 20
-12 25 -26z m-347 -33 c-5 -8 -10 -6 -15 8 -14 35 -10 50 7 26 8 -12 12 -27 8
-34z m-880 5 c-10 -7 -27 -13 -38 -13 -20 0 -20 1 3 19 14 10 31 16 39 13 12
-4 12 -8 -4 -19z m119 -15 c-21 -18 -40 -35 -43 -39 -3 -3 -16 -13 -30 -22
-27 -19 -50 -22 -50 -7 0 6 5 10 10 10 6 0 22 11 34 25 22 23 90 64 109 65 4
0 -9 -15 -30 -32z m297 12 c0 -6 -8 -14 -17 -17 -10 -4 -22 -11 -26 -17 -6 -8
-10 -7 -14 2 -7 17 -23 5 -23 -19 0 -13 -6 -19 -16 -17 -10 2 -19 -3 -22 -11
-3 -8 0 -11 7 -7 18 11 13 -12 -11 -49 -23 -35 -44 -41 -42 -11 2 22 -5 20
-28 -9 -21 -27 -44 -33 -51 -12 -3 9 -7 9 -19 -1 -13 -10 -17 -10 -21 2 -3 8
10 36 30 62 24 31 36 57 35 77 -1 23 2 27 8 17 5 -8 7 -24 4 -34 -5 -14 3 -10
25 12 32 34 61 42 61 17 0 -20 16 -19 24 1 4 9 13 14 21 10 8 -3 15 -1 15 4 0
6 14 10 30 10 17 0 30 -5 30 -10z m962 -89 c30 -32 47 -62 47 -81 0 -8 -7 -1
-14 16 -15 33 -42 60 -51 51 -3 -3 2 -17 11 -31 9 -14 15 -31 13 -38 -5 -14
-53 84 -63 127 l-6 30 20 -25 c11 -14 31 -36 43 -49z m-1232 51 c0 -5 -11 -14
-25 -20 -29 -13 -33 -5 -7 14 20 15 32 18 32 6z m370 -12 c0 -13 -5 -18 -15
-14 -8 4 -22 1 -30 -6 -20 -17 -19 -1 2 22 21 24 43 23 43 -2z m710 -42 c0
-10 13 -42 28 -71 46 -85 45 -95 -2 -42 -25 28 -43 56 -41 63 3 7 1 11 -4 8
-5 -3 -8 17 -8 45 1 45 3 49 14 33 7 -10 13 -26 13 -36z m-537 -35 c22 -14 36
-27 33 -30 -8 -8 -96 18 -96 28 0 5 -9 9 -20 9 -11 0 -20 7 -20 15 0 20 54 9
103 -22z m-633 -65 c0 -20 -15 -38 -41 -54 -62 -35 -69 -38 -80 -27 -16 16 64
93 96 93 14 0 25 -6 25 -12z m600 -3 c14 -8 19 -14 13 -15 -20 0 -15 -27 7
-43 25 -17 64 -67 58 -73 -3 -2 -26 4 -52 15 -33 15 -46 26 -46 41 0 11 -4 20
-8 20 -5 0 -8 16 -8 35 1 39 2 40 36 20z m-389 -58 c-18 -18 -25 2 -10 30 14
26 14 26 17 4 2 -13 -1 -28 -7 -34z m999 -58 c0 -19 -24 -4 -41 27 -27 45 -22
52 11 16 17 -18 30 -37 30 -43z m-1117 1 c-3 -11 -10 -20 -15 -20 -5 0 -6 -10
-2 -22 3 -13 3 -20 -1 -15 -5 4 -17 -1 -28 -10 -19 -17 -19 -17 -12 7 6 19 53
80 62 80 0 0 -1 -9 -4 -20z m-513 -54 c-1 -6 -10 0 -20 13 -11 13 -20 28 -20
35 1 6 10 0 20 -13 11 -13 20 -28 20 -35z m1400 -8 c0 -10 7 -30 16 -43 15
-23 15 -25 0 -25 -9 0 -16 7 -16 15 0 8 -3 15 -7 15 -5 0 -8 10 -9 23 0 12 -5
31 -9 42 -8 18 -7 19 8 6 9 -7 17 -22 17 -33z m-914 -34 c-3 -9 -6 -25 -6 -35
0 -11 -4 -18 -9 -14 -7 4 -8 39 -2 63 1 1 6 2 12 2 6 0 8 -7 5 -16z m214 -24
c-16 -12 -29 -15 -36 -9 -6 5 -14 6 -17 2 -4 -3 -7 -2 -7 3 0 5 15 16 33 24
41 20 61 6 27 -20z m-360 -14 c0 -2 -16 -13 -36 -25 -38 -23 -64 -27 -64 -11
0 6 10 10 23 10 12 0 31 7 41 15 19 14 36 19 36 11z m1680 -115 c0 -8 7 -22
16 -32 10 -12 14 -32 12 -65 l-3 -49 -14 62 c-19 78 -38 90 -36 22 1 -47 -6
-61 -20 -39 -4 6 -1 17 5 25 7 8 9 26 5 43 -3 16 -3 41 1 56 6 25 7 25 20 9 7
-10 14 -24 14 -32z m-767 -58 c5 -26 3 -31 -8 -26 -9 3 -15 -1 -15 -10 0 -9
-5 -19 -10 -22 -6 -4 -10 -3 -9 2 1 4 -1 26 -6 47 -6 32 -5 42 11 53 21 15 28
8 37 -44z m-93 -57 c0 -18 -4 -26 -9 -20 -12 13 -22 60 -14 68 10 10 23 -16
23 -48z m674 -81 c69 -33 109 -147 87 -247 -14 -61 -94 -214 -134 -256 -43
-45 -157 -112 -189 -112 -32 0 -42 25 -33 80 7 42 0 80 -16 80 -5 0 -9 -9 -9
-20 0 -42 -18 -18 -30 41 -13 59 -12 60 11 77 13 9 26 14 29 12 3 -3 7 15 10
40 3 31 10 45 20 45 19 0 36 -93 21 -117 -27 -43 6 -70 56 -46 22 10 29 21 31
50 2 20 11 54 22 75 17 35 17 40 3 68 -9 16 -23 35 -30 40 -12 9 -10 13 11 23
17 8 26 19 26 36 0 13 7 29 15 36 17 14 45 6 45 -13 0 -8 9 -22 20 -32 11 -10
20 -26 20 -35 0 -9 3 -20 8 -24 4 -4 12 -22 19 -39 l11 -32 1 35 c1 21 -9 51
-24 75 -29 47 -31 72 -9 96 14 16 14 18 -6 29 -23 12 -91 10 -122 -4 -33 -15
-19 20 15 37 41 20 81 21 121 2z m244 -88 c6 -5 12 -13 12 -19 0 -6 -3 -8 -7
-5 -3 4 -13 1 -21 -6 -13 -10 -14 -9 -8 1 4 7 3 19 -4 27 -8 10 -8 13 2 11 7
-1 19 -5 26 -9z m16 -157 c-1 -68 -6 -116 -13 -123 -8 -8 -11 -5 -11 14 0 14
5 30 12 37 7 7 8 15 1 24 -5 7 -9 47 -8 88 3 85 2 83 13 77 4 -3 6 -55 6 -117z
m-85 -367 c-1 -10 -4 -29 -8 -42 -6 -21 -8 -22 -19 -8 -9 10 -10 17 -2 22 5 3
10 15 10 26 0 10 5 19 10 19 6 0 10 -8 9 -17z m-699 -358 c10 -13 9 -15 -9
-15 -12 0 -21 6 -21 15 0 8 4 15 9 15 5 0 14 -7 21 -15z"/>
<path d="M1340 2923 c1 -20 19 -35 35 -29 14 5 15 9 5 21 -13 16 -40 21 -40 8z"/>
<path d="M708 2125 c-13 -57 -19 -160 -10 -190 8 -26 10 -21 16 45 4 41 6 98
4 125 -3 44 -4 47 -10 20z"/>
<path d="M1183 1978 c-2 -5 -12 -8 -22 -8 -21 0 -56 -36 -66 -68 -5 -19 -2
-25 15 -29 25 -7 50 -51 50 -91 0 -44 11 -45 39 -4 l26 37 3 -28 c3 -28 4 -28
23 -11 10 9 19 25 19 36 0 24 17 23 25 -2 8 -24 50 -27 78 -5 16 11 24 11 58
0 38 -14 42 -13 100 16 46 24 58 34 49 44 -6 7 -8 20 -4 29 3 9 1 16 -5 16 -6
0 -11 9 -11 19 0 23 -25 51 -46 51 -8 0 -14 -7 -14 -16 0 -11 -6 -15 -18 -12
-15 4 -18 0 -15 -26 2 -17 0 -25 -3 -18 -3 6 -12 12 -19 12 -7 0 -15 5 -17 11
-4 12 -88 23 -88 11 0 -5 23 -19 50 -32 33 -15 46 -26 38 -31 -7 -4 -15 -3
-19 3 -4 6 -9 6 -12 1 -4 -6 -39 -8 -82 -5 -63 4 -79 2 -95 -13 -23 -21 -31
-17 -24 11 8 30 69 67 99 60 34 -9 32 5 -5 32 -29 22 -95 27 -107 10z"/>
<path d="M835 1810 c-11 -4 -29 -18 -40 -30 l-20 -23 30 7 c17 3 56 9 88 13
61 6 70 14 35 30 -28 13 -66 14 -93 3z"/>
<path d="M875 1728 c-38 -21 -75 -62 -75 -83 0 -12 9 -30 20 -40 19 -17 20
-17 27 1 3 11 10 21 14 24 9 7 79 99 79 105 0 9 -45 5 -65 -7z"/>
<path d="M1800 1653 c0 -5 5 -15 10 -23 9 -13 11 -13 19 0 5 8 7 18 5 22 -6
10 -34 11 -34 1z"/>
<path d="M1820 1585 c10 -12 10 -21 2 -38 -20 -42 -20 -75 0 -80 10 -3 16 -1
12 4 -3 5 0 9 7 9 22 0 39 33 26 50 -11 13 -10 13 6 1 24 -19 33 -7 14 19 -9
14 -17 17 -22 11 -9 -16 -25 -3 -25 20 0 11 -7 19 -16 19 -14 0 -14 -3 -4 -15z"/>
<path d="M1192 1469 c-12 -31 -55 -42 -167 -43 l-70 -1 -3 -30 c-2 -16 -9 -33
-15 -37 -15 -10 9 -28 36 -28 9 0 17 -6 17 -14 0 -8 5 -18 10 -21 15 -9 40 13
40 35 0 29 33 47 92 52 85 7 119 45 84 94 -14 18 -15 18 -24 -7z"/>
<path d="M1195 1195 c-5 -2 -22 -6 -37 -9 -47 -11 -31 -25 21 -20 56 5 73 -7
36 -24 -14 -7 -25 -18 -25 -25 0 -12 -91 -57 -117 -57 -37 0 -22 64 18 80 16
7 29 16 29 21 0 14 -12 11 -68 -16 -46 -22 -52 -28 -52 -57 0 -46 30 -108 52
-108 11 0 29 -11 42 -25 13 -14 26 -25 28 -25 3 0 8 18 12 40 6 39 8 40 45 40
22 0 44 6 51 15 7 8 23 15 36 15 14 0 24 6 24 15 0 8 10 23 22 35 25 23 54 19
81 -12 l18 -21 37 30 c56 45 50 62 -32 90 -81 27 -123 29 -153 8 -19 -13 -22
-13 -27 0 -5 14 -19 18 -41 10z"/>
<path d="M2516 940 c-10 -11 -22 -17 -27 -15 -4 3 -11 0 -15 -6 -5 -8 -3 -9 6
-4 10 6 12 4 6 -11 -5 -12 5 -7 28 15 20 19 36 36 36 38 0 8 -17 0 -34 -17z"/>
<path d="M2403 868 c3 -10 3 -18 -2 -18 -5 0 -8 -11 -8 -25 0 -25 0 -25 18 -9
23 21 24 37 2 55 -15 12 -16 12 -10 -3z"/>
<path d="M2087 553 c3 -8 0 -13 -7 -11 -7 2 -15 -3 -17 -9 -8 -21 12 -15 37
11 22 24 22 25 2 23 -12 -1 -18 -6 -15 -14z"/>
</g>
</svg>
